<svg width="220" height="220" viewBox="0 0 220 220" fill="none" xmlns="http://www.w3.org/2000/svg">
<path d="M204.823 219.999C213.468 219.999 220.367 210.347 219.985 198.785C219.486 183.669 213.711 162.324 190.947 140.993C163.189 114.981 175.709 40.0883 116.729 45.2551C57.7492 50.4218 56.2945 93.4927 27.2079 131.139C7.54714 156.585 0.00163819 178.883 0 199.717C0 210.924 6.80368 220 15.1767 220L204.823 219.999Z" fill="#F3F5FD"/>
<path d="M157.55 79.2765C167.709 79.2765 175.945 70.9319 175.945 60.6383C175.945 50.3446 167.709 42 157.55 42C147.391 42 139.156 50.3446 139.156 60.6383C139.156 70.9319 147.391 79.2765 157.55 79.2765Z" fill="#D7B3FF"/>
<path d="M164.436 51.9166C164.436 51.9166 164.661 49.7035 166.581 49.7035C168.86 49.7035 167.304 56.05 166.308 59.9308C166.201 60.3457 166.183 60.7786 166.253 61.2013C166.323 61.624 166.48 62.027 166.714 62.3841C166.948 62.7411 167.254 63.0441 167.611 63.2733C167.968 63.5025 168.37 63.6528 168.788 63.7142C169.192 63.7738 169.603 63.7495 169.997 63.643C170.392 63.5364 170.76 63.3497 171.081 63.0943C171.402 62.8389 171.668 62.5201 171.863 62.1572C172.058 61.7943 172.179 61.395 172.217 60.9835C172.679 56.0071 172.572 46.8249 167.405 47.0017C164.046 47.1168 164.046 50.5074 164.046 50.5074L164.436 51.9166Z" fill="#0F1011"/>
<path d="M164.436 59.5252C164.436 59.5252 163.047 58.7783 163.357 54.9476L160.488 54.4084C160.488 54.4084 160.811 57.8438 159.359 58.9343L164.436 59.5252Z" fill="#FFC8B2"/>
<g opacity="0.15">
<path opacity="0.15" d="M159.947 58.2162L162.33 56.3688L160.458 56.3491C160.404 56.9983 160.23 57.6315 159.947 58.2162Z" fill="black"/>
</g>
<path d="M164.985 53.4617C164.786 54.6236 164.16 55.725 163.148 56.1007C162.045 56.5443 160.852 56.7077 159.672 56.5765C156.532 56.3156 157.152 49.0794 158.643 47.6734C160.134 46.2675 164.511 47.158 165.043 49.509C165.319 50.7249 165.174 52.3554 164.985 53.4617Z" fill="#FFC8B2"/>
<path d="M160.492 52.5662C160.636 52.5662 160.752 52.4482 160.752 52.3026C160.752 52.157 160.636 52.0389 160.492 52.0389C160.348 52.0389 160.232 52.157 160.232 52.3026C160.232 52.4482 160.348 52.5662 160.492 52.5662Z" fill="#0F1011"/>
<path d="M158.439 52.3958C158.583 52.3958 158.699 52.2778 158.699 52.1322C158.699 51.9866 158.583 51.8685 158.439 51.8685C158.295 51.8685 158.179 51.9866 158.179 52.1322C158.179 52.2778 158.295 52.3958 158.439 52.3958Z" fill="#0F1011"/>
<path d="M157.988 51.5703C157.956 51.5705 157.924 51.5576 157.901 51.5344C157.878 51.5112 157.865 51.4796 157.865 51.4466C157.864 51.4136 157.877 51.3819 157.9 51.3584C157.923 51.3348 157.954 51.3215 157.987 51.3213L158.676 51.3125C158.708 51.312 158.74 51.3247 158.763 51.3477C158.786 51.3708 158.8 51.4023 158.8 51.4353C158.801 51.4683 158.788 51.5001 158.765 51.5238C158.743 51.5475 158.712 51.561 158.679 51.5614L157.99 51.5703H157.988Z" fill="#0F1011"/>
<path d="M161.054 51.8248C161.044 51.8248 161.034 51.8237 161.025 51.8215L160.345 51.6555C160.314 51.6472 160.288 51.627 160.272 51.5992C160.255 51.5714 160.25 51.5383 160.258 51.5068C160.265 51.4754 160.285 51.4481 160.312 51.4309C160.339 51.4136 160.371 51.4078 160.402 51.4145L161.082 51.5805C161.111 51.5877 161.136 51.6053 161.153 51.63C161.17 51.6548 161.178 51.6849 161.174 51.7148C161.171 51.7448 161.157 51.7724 161.135 51.7927C161.113 51.8129 161.084 51.8243 161.055 51.8248H161.054Z" fill="#0F1011"/>
<path d="M160.371 54.3791C159.823 54.4349 159.27 54.389 158.738 54.2435C158.771 54.43 158.864 54.6002 159.002 54.7276C159.141 54.855 159.317 54.9325 159.503 54.948C159.69 54.9634 159.876 54.916 160.033 54.8131C160.19 54.7103 160.309 54.5577 160.371 54.3791Z" fill="#F8FCFF"/>
<path d="M162.872 50.4499C162.599 55.7537 163.316 56.3012 163.316 56.3012C163.316 56.3012 165.932 54.7075 166.273 51.5222C166.416 50.4123 166.16 49.2872 165.55 48.3537C164.94 47.4202 164.019 46.7411 162.954 46.441C157.379 45.1778 156.763 50.3218 156.763 50.3218C159.554 51.0485 163.475 50.5564 163.475 50.5564" fill="#0F1011"/>
<path d="M161.846 52.948C161.834 53.0943 161.85 53.2415 161.895 53.3813C161.939 53.521 162.01 53.6506 162.104 53.7625C162.198 53.8744 162.312 53.9665 162.441 54.0336C162.57 54.1007 162.711 54.1414 162.855 54.1533C162.999 54.1653 163.145 54.1484 163.283 54.1035C163.421 54.0586 163.548 53.9866 163.659 53.8916C163.769 53.7966 163.86 53.6805 163.926 53.55C163.993 53.4194 164.033 53.2769 164.045 53.1306C164.059 52.9837 164.044 52.8355 164.001 52.6946C163.957 52.5538 163.886 52.4232 163.792 52.3107C163.698 52.1982 163.582 52.1061 163.452 52.0399C163.322 51.9737 163.18 51.9347 163.034 51.9252C162.249 51.8987 161.895 52.3327 161.846 52.948Z" fill="#FFC8B2"/>
<g opacity="0.15">
<path opacity="0.15" d="M159.337 53.7652C159.358 53.7656 159.379 53.758 159.396 53.7438C159.413 53.7296 159.424 53.7099 159.427 53.6882C159.43 53.6665 159.426 53.6443 159.414 53.6257C159.403 53.6071 159.385 53.5934 159.364 53.5871L158.835 53.4225L159.205 52.587C159.214 52.5651 159.214 52.5407 159.205 52.5189C159.196 52.497 159.179 52.4795 159.158 52.4698C159.137 52.4602 159.113 52.4593 159.091 52.4672C159.069 52.4752 159.051 52.4914 159.041 52.5126L158.629 53.4421C158.624 53.4538 158.621 53.4666 158.621 53.4794C158.621 53.4923 158.624 53.5051 158.629 53.5168C158.634 53.5285 158.642 53.5389 158.651 53.5474C158.661 53.5559 158.672 53.5624 158.684 53.5663L159.31 53.76C159.319 53.763 159.328 53.7648 159.337 53.7652Z" fill="black"/>
</g>
<path d="M166.159 50.1984C166.05 50.1983 165.944 50.1579 165.862 50.0847C165.781 50.0116 165.728 49.9106 165.714 49.8009C165.612 49.1838 165.315 48.617 164.868 48.1855C164.782 48.1052 164.73 47.9942 164.724 47.8761C164.718 47.7579 164.757 47.6419 164.834 47.5527C164.911 47.4635 165.019 47.4081 165.135 47.3982C165.251 47.3884 165.367 47.4249 165.457 47.5C166.071 48.0774 166.475 48.8472 166.604 49.6855C166.619 49.8052 166.587 49.926 166.514 50.0215C166.441 50.1169 166.334 50.1792 166.215 50.1945C166.197 50.197 166.178 50.1983 166.159 50.1984Z" fill="#262626"/>
<path d="M149.26 65.0441L151.438 64.6922C151.523 64.6783 151.605 64.6462 151.677 64.5981C151.75 64.55 151.812 64.4869 151.859 64.4129C151.905 64.3389 151.936 64.2558 151.949 64.1689C151.962 64.0821 151.957 63.9934 151.933 63.9088L150.564 58.9291C150.523 58.7815 150.431 58.6542 150.303 58.5715C150.176 58.4888 150.023 58.4565 149.874 58.4807L147.697 58.8326C147.611 58.8464 147.529 58.8784 147.457 58.9265C147.384 58.9746 147.323 59.0377 147.276 59.1117C147.229 59.1856 147.198 59.2687 147.185 59.3556C147.172 59.4425 147.178 59.5311 147.201 59.6158L148.571 64.5968C148.612 64.7441 148.704 64.8711 148.832 64.9536C148.959 65.036 149.111 65.0683 149.26 65.0441Z" fill="#262626"/>
<path d="M152.766 63.7392L151.483 65.5042C151.483 65.5042 148.032 64.8034 147.709 62.1097C147.671 61.7993 147.704 60.9414 148.083 61.0565C149.07 61.3564 150.3 62.8921 151.162 63.0962C150.965 62.7394 150.725 62.2356 150.88 62.1435C151.287 61.9006 152.38 63.3629 152.766 63.7392Z" fill="#FFC8B2"/>
<path d="M142.828 62.5357C142.855 62.5753 142.713 62.6602 142.746 62.6968L145.445 60.8241C145.054 60.1394 144.606 59.4453 144.343 59.5469C144.238 59.5875 144.206 59.8708 144.203 60.2022C143.238 58.8212 142.275 57.4911 141.317 58.404C140.644 59.045 141.589 60.8507 142.828 62.5357Z" fill="#FFC8B2"/>
<path d="M168.221 71.5846C168.22 72.8678 168.425 74.1427 168.831 75.3584C166.735 77.0059 164.313 78.1754 161.73 78.7868C159.147 79.3983 156.464 79.4373 153.865 78.9011C153.729 77.4385 154.856 75.8807 154.796 70.8606C154.793 70.6152 154.785 70.3643 154.771 70.1104L154.281 69.6746L152.567 72.9319C152.408 73.235 152.174 73.4912 151.888 73.6755C151.602 73.8597 151.274 73.9657 150.935 73.9831C150.901 73.9831 150.87 73.9862 150.838 73.9862C150.516 73.9862 150.198 73.9053 149.914 73.7508C149.63 73.5964 149.388 73.3731 149.21 73.1009L142.174 62.3831L145.434 60.1873L150.653 68.1357L151.26 66.9829L150.107 65.9593L152.692 62.979L153.15 63.3859L154.748 60.3508L154.788 60.3738C155.343 59.39 156.351 58.7582 158.079 58.6801C158.193 58.6774 158.372 58.6716 158.606 58.6688C158.654 59.67 164.771 59.6669 164.899 58.6456C166.627 58.6456 168.045 59.1823 168.865 60.0161C171.695 62.8816 168.221 67.765 168.221 71.5846Z" fill="#7700FF"/>
<path d="M158.607 58.6682C158.654 59.6688 159.191 61.1411 160.848 61.2521C163.057 61.3995 164.771 59.6652 164.9 58.6444H164.895C162.72 58.6444 159.875 58.6488 158.607 58.6682Z" fill="#FFC8B2"/>
<path d="M158.621 169.784C168.78 169.784 177.015 161.44 177.015 151.146C177.015 140.852 168.78 132.508 158.621 132.508C148.461 132.508 140.226 140.852 140.226 151.146C140.226 161.44 148.461 169.784 158.621 169.784Z" fill="#D7B3FF"/>
<path d="M164.682 149.836C164.682 149.836 163.293 149.089 163.603 145.259L160.734 144.72C160.734 144.72 161.056 148.155 159.605 149.246L164.682 149.836Z" fill="#FFC8B2"/>
<g opacity="0.15">
<path opacity="0.15" d="M160.193 148.527L162.577 146.68L160.705 146.66C160.65 147.309 160.477 147.943 160.193 148.527Z" fill="black"/>
</g>
<path d="M165.231 143.773C165.033 144.935 164.407 146.037 163.395 146.412C162.292 146.856 161.098 147.019 159.918 146.888C156.778 146.627 157.399 139.391 158.89 137.985C160.381 136.579 164.757 137.469 165.29 139.82C165.566 141.036 165.42 142.667 165.231 143.773Z" fill="#FFC8B2"/>
<path d="M160.738 142.877C160.882 142.877 160.999 142.759 160.999 142.614C160.999 142.468 160.882 142.35 160.738 142.35C160.595 142.35 160.478 142.468 160.478 142.614C160.478 142.759 160.595 142.877 160.738 142.877Z" fill="#0F1011"/>
<path d="M158.686 142.707C158.829 142.707 158.946 142.589 158.946 142.443C158.946 142.297 158.829 142.179 158.686 142.179C158.542 142.179 158.425 142.297 158.425 142.443C158.425 142.589 158.542 142.707 158.686 142.707Z" fill="#0F1011"/>
<path d="M158.234 141.881H158.236L158.925 141.872C158.958 141.872 158.989 141.858 159.011 141.835C159.034 141.811 159.047 141.78 159.046 141.747C159.044 141.715 159.031 141.684 159.008 141.661C158.985 141.639 158.954 141.626 158.922 141.625L158.233 141.634C158.2 141.634 158.169 141.647 158.146 141.671C158.123 141.694 158.111 141.726 158.111 141.759C158.111 141.792 158.124 141.824 158.147 141.847C158.171 141.87 158.202 141.883 158.234 141.883V141.881Z" fill="#0F1011"/>
<path d="M161.3 142.136C161.33 142.136 161.359 142.125 161.381 142.104C161.403 142.084 161.417 142.056 161.421 142.026C161.424 141.996 161.417 141.966 161.399 141.941C161.382 141.916 161.356 141.898 161.327 141.891L160.648 141.725C160.616 141.718 160.583 141.724 160.556 141.741C160.529 141.758 160.509 141.785 160.501 141.817C160.494 141.849 160.499 141.882 160.516 141.91C160.532 141.938 160.559 141.958 160.59 141.966L161.27 142.132C161.28 142.135 161.29 142.136 161.3 142.136Z" fill="#0F1011"/>
<path d="M163.435 146.273C163.495 146.466 163.536 146.549 163.708 146.447C164.382 146.041 165.721 145.157 166.238 141.846C166.702 138.88 164.896 137.656 163.455 137.22C162.214 136.843 159.629 137.109 158.234 137.878C157.199 138.448 157.956 139.977 157.956 139.977C158.475 140.001 158.361 138.608 159.583 138.608C160.528 138.608 161.359 140.024 162.244 140.062C163.054 140.097 163.22 140.596 163.191 140.917C163.017 142.86 163.224 145.589 163.435 146.273Z" fill="#0F1011"/>
<path d="M162.092 143.259C162.08 143.405 162.097 143.552 162.141 143.692C162.186 143.832 162.257 143.961 162.35 144.073C162.444 144.185 162.559 144.277 162.688 144.344C162.817 144.412 162.957 144.452 163.102 144.464C163.246 144.476 163.391 144.459 163.529 144.414C163.667 144.369 163.795 144.297 163.905 144.202C164.016 144.107 164.107 143.991 164.173 143.861C164.239 143.73 164.279 143.588 164.291 143.441C164.305 143.295 164.29 143.146 164.247 143.005C164.204 142.865 164.133 142.734 164.038 142.622C163.944 142.509 163.829 142.417 163.698 142.351C163.568 142.285 163.426 142.246 163.281 142.236C162.495 142.21 162.142 142.644 162.092 143.259Z" fill="#FFC8B2"/>
<g opacity="0.15">
<path opacity="0.15" d="M159.583 144.077C159.574 144.078 159.565 144.076 159.556 144.074L158.93 143.88C158.918 143.876 158.906 143.87 158.897 143.861C158.888 143.852 158.88 143.842 158.875 143.83C158.87 143.818 158.867 143.806 158.867 143.793C158.867 143.78 158.87 143.767 158.875 143.756L159.287 142.826C159.297 142.805 159.315 142.788 159.337 142.779C159.359 142.771 159.384 142.772 159.405 142.782C159.427 142.791 159.444 142.809 159.452 142.832C159.461 142.854 159.46 142.879 159.451 142.901L159.081 143.736L159.61 143.902C159.63 143.909 159.648 143.923 159.659 143.941C159.671 143.96 159.675 143.982 159.672 144.003C159.668 144.025 159.658 144.044 159.641 144.059C159.625 144.073 159.604 144.08 159.582 144.08L159.583 144.077Z" fill="black"/>
</g>
<path d="M160.618 144.69C160.07 144.746 159.516 144.7 158.984 144.554C159.017 144.741 159.11 144.911 159.249 145.039C159.387 145.166 159.563 145.244 159.75 145.259C159.936 145.275 160.122 145.227 160.279 145.124C160.436 145.021 160.555 144.869 160.618 144.69Z" fill="white"/>
<path d="M158.148 137.976C157.217 138.608 157.401 139.819 157.575 140.869H158.728L159.211 139.169L159.801 140.869L164.294 141.026L163.753 138.768" fill="#0F1011"/>
<path d="M166.599 147.268C167.988 147.268 169.115 146.127 169.115 144.72C169.115 143.312 167.988 142.171 166.599 142.171C165.21 142.171 164.084 143.312 164.084 144.72C164.084 146.127 165.21 147.268 166.599 147.268Z" fill="#0F1011"/>
<path d="M150.482 154.583C150.482 154.583 149.137 152.418 149.192 151.832C149.247 151.246 150.928 150.653 150.928 150.653C150.928 150.653 150.685 150.135 150.468 149.566C150.218 148.909 150.004 148.186 150.238 148.113C150.464 148.044 150.807 148.639 151.121 149.332C151.525 150.222 151.882 151.269 151.882 151.269C151.882 151.269 151.919 150.233 152.297 150.299C152.452 150.327 152.517 150.513 152.518 151.255C152.518 152.101 152.648 153.42 152.648 153.42L150.482 154.583Z" fill="#FFC8B2"/>
<path d="M154.751 164.285C154.361 164.285 153.981 164.167 153.658 163.947C153.335 163.726 153.084 163.413 152.937 163.048L149.417 154.265L153.046 152.772L154.111 155.431L154.947 151.195L158.787 151.974L156.671 162.691C156.588 163.109 156.375 163.489 156.062 163.775C155.749 164.06 155.354 164.236 154.935 164.276C154.873 164.282 154.812 164.285 154.751 164.285Z" fill="#7700FF"/>
<path d="M148.396 157.165L150.573 156.813C150.659 156.799 150.741 156.767 150.813 156.718C150.886 156.67 150.948 156.607 150.994 156.533C151.041 156.459 151.072 156.376 151.085 156.289C151.097 156.202 151.092 156.113 151.068 156.029L149.699 151.049C149.658 150.901 149.565 150.774 149.438 150.692C149.311 150.609 149.158 150.576 149.009 150.601L146.832 150.952C146.746 150.966 146.664 150.998 146.592 151.047C146.519 151.095 146.458 151.158 146.411 151.232C146.364 151.306 146.333 151.389 146.32 151.476C146.307 151.563 146.313 151.651 146.336 151.736L147.706 156.716C147.746 156.863 147.839 156.991 147.966 157.074C148.094 157.157 148.247 157.189 148.396 157.165Z" fill="#262626"/>
<path d="M151.902 155.859L150.619 157.624C150.619 157.624 147.168 156.923 146.844 154.23C146.807 153.919 146.839 153.061 147.219 153.177C148.206 153.476 149.435 155.012 150.297 155.216C150.101 154.859 149.861 154.356 150.016 154.264C150.422 154.021 151.516 155.484 151.902 155.859Z" fill="#FFC8B2"/>
<path d="M168.616 161.886C168.62 163.373 168.892 164.847 169.419 166.235C166.282 168.548 162.5 169.791 158.621 169.784C157.152 169.785 155.688 169.609 154.26 169.259C154.091 167.779 155.249 166.246 155.189 161.161C155.189 161.053 155.186 160.943 155.183 160.835L149.744 158.403L151.325 154.773L154.741 156.301C154.334 152.555 154.32 149.163 158.473 148.98C158.585 148.978 158.768 148.972 159 148.969C159.046 149.971 165.165 149.965 165.293 148.945C167.022 148.947 168.439 149.484 169.258 150.317C172.086 153.183 168.616 158.066 168.616 161.886Z" fill="#7700FF"/>
<path d="M159 148.969C159.047 149.97 159.584 151.442 161.241 151.553C163.45 151.7 165.164 149.966 165.293 148.945H165.288C163.113 148.946 160.268 148.949 159 148.969Z" fill="#FFC8B2"/>
<path d="M31.5625 109.808C31.5693 115.532 33.8169 121.021 37.8123 125.068C41.8076 129.116 47.2244 131.392 52.8742 131.398H82.0586V154.447H52.874C28.5788 154.447 8.81454 134.421 8.81454 109.808C8.81454 85.1949 28.5788 65.1648 52.874 65.1648H82.0583V88.2136H52.874C47.2238 88.2205 41.807 90.4979 37.8118 94.5461C33.8165 98.5943 31.5691 104.083 31.5625 109.808Z" fill="#FF4545"/>
<path d="M106.868 65.1648H82.0583V88.2136H106.868V65.1648Z" fill="#D9D9D9"/>
<path d="M106.868 131.398H82.0583V154.447H106.868V131.398Z" fill="#D9D9D9"/>
<path d="M114.256 70.3029L119.696 64.3833V66.7768L125.193 62.5552L119.1 69.893L118.387 67.8903L114.256 70.3029Z" fill="#FF4F12"/>
<path d="M115.36 82.7156L123.231 81.363L121.796 83.2642L128.693 83.2954L119.454 85.3719L120.089 83.343L115.36 82.7156Z" fill="#FF4F12"/>
<path d="M114.108 134.999L121.171 131.229L120.391 133.489L126.955 131.341L118.814 136.231L118.794 134.103L114.108 134.999Z" fill="#FF4F12"/>
<path d="M111.109 147.086L118.979 148.44L117.006 149.755L123.507 152.09L114.108 150.962L115.368 149.259L111.109 147.086Z" fill="#FF4F12"/>
<path d="M195.206 121.852C205.365 121.852 213.601 113.507 213.601 103.213C213.601 92.9197 205.365 84.5751 195.206 84.5751C185.047 84.5751 176.811 92.9197 176.811 103.213C176.811 113.507 185.047 121.852 195.206 121.852Z" fill="#D7B3FF"/>
<path d="M204.089 102.579C204.089 102.579 202.7 101.832 203.01 98.001L200.141 97.4624C200.141 97.4624 200.463 100.898 199.012 101.988L204.089 102.579Z" fill="#FFC8B2"/>
<g opacity="0.15">
<path opacity="0.15" d="M199.6 101.27L201.983 99.4222L200.111 99.4026C200.057 100.052 199.884 100.685 199.6 101.27Z" fill="black"/>
</g>
<path d="M204.637 96.5152C204.439 97.6771 203.813 98.7787 202.801 99.1541C201.599 99.5998 200.709 99.63 199.324 99.63C197.434 99.63 197.496 97.6326 197.443 95.6186C197.39 93.5977 197.549 91.4301 198.296 90.7258C199.787 89.3202 204.164 90.2104 204.696 92.5614C204.972 93.7786 204.828 95.4089 204.637 96.5152Z" fill="#FFC8B2"/>
<path d="M196.134 89.89C196.134 88.9287 197.314 87.3537 200.464 89.5254L200.467 89.5276C201.286 89.5043 202.103 89.5948 202.897 89.7968C204.338 90.2334 206.144 91.4567 205.68 94.4235C205.163 97.7341 203.824 98.618 203.15 99.0241C202.978 99.1273 202.937 99.0432 202.877 98.8498C202.69 98.1349 202.556 97.4069 202.477 96.6718C202.359 95.9563 202.306 95.2314 202.317 94.5062C202.317 94.185 202.315 93.0123 200.742 93.0007C199.857 92.9935 200.188 93.0283 199.243 93.0283C199.108 93.0283 198.989 93.022 198.88 93.0123C195.617 93.0137 196.134 90.8506 196.134 89.89Z" fill="#0F1011"/>
<path d="M200.145 95.6197C200.289 95.6197 200.405 95.5017 200.405 95.356C200.405 95.2104 200.289 95.0924 200.145 95.0924C200.001 95.0924 199.885 95.2104 199.885 95.356C199.885 95.5017 200.001 95.6197 200.145 95.6197Z" fill="#0F1011"/>
<path d="M198.092 95.4492C198.236 95.4492 198.352 95.3312 198.352 95.1856C198.352 95.04 198.236 94.9219 198.092 94.9219C197.948 94.9219 197.832 95.04 197.832 95.1856C197.832 95.3312 197.948 95.4492 198.092 95.4492Z" fill="#0F1011"/>
<path d="M197.641 94.6237L198.331 94.6149C198.363 94.6149 198.395 94.6018 198.418 94.5784C198.441 94.5551 198.454 94.5234 198.454 94.4904C198.454 94.4574 198.441 94.4257 198.418 94.4024C198.395 94.379 198.363 94.3659 198.331 94.3659H198.33L197.641 94.3745C197.608 94.3747 197.577 94.388 197.554 94.4115C197.531 94.435 197.519 94.4668 197.519 94.4998C197.519 94.5328 197.532 94.5644 197.555 94.5876C197.579 94.6108 197.61 94.6237 197.643 94.6235L197.641 94.6237Z" fill="#0F1011"/>
<path d="M200.707 94.8785C200.737 94.8783 200.766 94.867 200.788 94.8468C200.81 94.8265 200.824 94.7987 200.828 94.7685C200.831 94.7384 200.823 94.7081 200.806 94.6833C200.789 94.6585 200.763 94.6409 200.734 94.634L200.054 94.468C200.039 94.4637 200.022 94.4627 200.006 94.465C199.99 94.4673 199.974 94.4728 199.96 94.4813C199.946 94.4898 199.934 94.501 199.924 94.5143C199.915 94.5276 199.908 94.5427 199.904 94.5588C199.9 94.5749 199.9 94.5916 199.902 94.6079C199.905 94.6242 199.911 94.6398 199.919 94.6538C199.928 94.6678 199.94 94.6799 199.953 94.6894C199.966 94.6988 199.981 94.7055 199.997 94.7089L200.677 94.8749C200.687 94.8773 200.697 94.8785 200.707 94.8785Z" fill="#0F1011"/>
<path d="M201.499 96.0015C201.487 96.1478 201.504 96.295 201.548 96.4348C201.592 96.5745 201.663 96.704 201.757 96.816C201.851 96.9279 201.965 97.02 202.094 97.0871C202.223 97.1541 202.364 97.1948 202.508 97.2068C202.653 97.2188 202.798 97.2019 202.936 97.157C203.074 97.112 203.202 97.04 203.312 96.9451C203.423 96.8501 203.513 96.734 203.58 96.6034C203.646 96.4729 203.686 96.3304 203.698 96.1841C203.712 96.0372 203.697 95.8889 203.654 95.7481C203.61 95.6072 203.539 95.4767 203.445 95.3642C203.351 95.2517 203.235 95.1596 203.105 95.0934C202.975 95.0272 202.833 94.9882 202.688 94.9787C201.902 94.9527 201.548 95.3876 201.499 96.0015Z" fill="#FFC8B2"/>
<g opacity="0.15">
<path opacity="0.15" d="M198.99 96.8187C199.012 96.819 199.033 96.8114 199.049 96.7973C199.066 96.7831 199.077 96.7634 199.08 96.7417C199.083 96.7199 199.079 96.6978 199.067 96.6792C199.056 96.6606 199.038 96.6469 199.017 96.6405L198.488 96.4759L198.858 95.6407C198.868 95.6188 198.868 95.5939 198.86 95.5716C198.851 95.5492 198.834 95.5312 198.813 95.5214C198.791 95.5116 198.767 95.5107 198.745 95.5191C198.722 95.5274 198.704 95.5443 198.695 95.566L198.282 96.4953C198.277 96.507 198.274 96.5197 198.274 96.5326C198.274 96.5455 198.277 96.5582 198.282 96.57C198.287 96.5817 198.295 96.5923 198.304 96.6009C198.314 96.6094 198.325 96.6159 198.337 96.6198L198.965 96.8134C198.973 96.8164 198.981 96.8182 198.99 96.8187Z" fill="black"/>
</g>
<path d="M200.025 97.4328C199.476 97.4886 198.923 97.4425 198.391 97.297C198.424 97.4834 198.517 97.6534 198.656 97.7807C198.794 97.9079 198.97 97.9853 199.156 98.0008C199.343 98.0163 199.529 97.969 199.686 97.8663C199.843 97.7636 199.962 97.6112 200.025 97.4328Z" fill="white"/>
<path d="M185.117 104.471C185.117 104.471 184.83 102.305 183.313 102.606C182.358 102.796 177.743 103.145 177.725 103.577C177.682 104.646 181.909 104.385 182.407 105.315L185.117 104.471Z" fill="#FFC8B2"/>
<path d="M183.863 102.608C183.863 102.608 181.649 102.167 181.14 102.358C180.691 102.526 181.748 103.172 181.748 103.172L183.863 102.608Z" fill="#FFC8B2"/>
<path d="M188.951 108.056L191.128 107.704C191.213 107.69 191.295 107.658 191.368 107.61C191.44 107.562 191.502 107.499 191.549 107.425C191.596 107.351 191.627 107.268 191.639 107.181C191.652 107.094 191.647 107.005 191.624 106.92L190.254 101.941C190.213 101.793 190.121 101.666 189.993 101.583C189.866 101.501 189.713 101.468 189.564 101.492L187.387 101.844C187.302 101.858 187.22 101.89 187.147 101.938C187.075 101.986 187.013 102.049 186.966 102.123C186.919 102.197 186.888 102.28 186.875 102.367C186.862 102.454 186.868 102.543 186.891 102.627L188.261 107.607C188.301 107.755 188.394 107.882 188.521 107.965C188.649 108.048 188.801 108.08 188.951 108.056Z" fill="white"/>
<path d="M192.457 106.75L191.173 108.515C191.173 108.515 187.722 107.815 187.399 105.121C187.361 104.811 187.393 103.953 187.773 104.068C188.76 104.368 189.99 105.903 190.851 106.108C190.655 105.751 190.415 105.247 190.57 105.155C190.976 104.912 192.071 106.375 192.457 106.75Z" fill="#FFC8B2"/>
<path d="M207.914 114.599C207.913 115.247 207.965 115.893 208.069 116.533C204.638 119.949 200.018 121.86 195.207 121.852C194.647 121.852 194.093 121.827 193.544 121.775C193.487 120.347 194.543 118.735 194.486 113.871C194.483 113.625 194.475 113.376 194.461 113.121L193.97 112.687L192.258 115.946C192.098 116.248 191.863 116.504 191.577 116.687C191.291 116.871 190.963 116.977 190.625 116.995C190.593 116.995 190.56 116.997 190.53 116.997C190.207 116.997 189.889 116.917 189.605 116.762C189.321 116.608 189.078 116.384 188.9 116.112L181.864 105.395L185.123 103.195L190.344 111.146L190.947 109.995L189.798 108.972L192.381 105.99L192.839 106.399L194.437 103.361L194.478 103.384C195.035 102.401 196.04 101.768 197.771 101.693C197.882 101.688 198.063 101.685 198.297 101.679C198.344 102.681 204.46 102.678 204.591 101.657C206.319 101.657 207.736 102.194 208.555 103.027C211.384 105.893 207.914 110.776 207.914 114.599Z" fill="#7700FF"/>
<path d="M198.298 101.68C198.344 102.681 198.881 104.153 200.539 104.264C202.748 104.411 204.461 102.677 204.59 101.656H204.585C202.41 101.656 199.565 101.66 198.298 101.68Z" fill="#FFC8B2"/>
</svg>
