<svg width="116" height="28" viewBox="0 0 116 28" fill="none" xmlns="http://www.w3.org/2000/svg">
<path d="M0.503302 19.2685C0.366038 19.2685 0.244025 19.2222 0.137264 19.1296C0.0457548 19.0216 0 18.8981 0 18.7593C0 18.713 0.0076258 18.659 0.0228774 18.5972C0.0533806 18.5201 0.0915095 18.4506 0.137264 18.3889L4.00354 13.088L0.457548 8.11111C0.411793 8.04938 0.373664 7.98765 0.343161 7.92593C0.327909 7.8642 0.320283 7.80247 0.320283 7.74074C0.320283 7.60185 0.366038 7.48611 0.457548 7.39352C0.564309 7.28549 0.686321 7.23148 0.823586 7.23148H3.20283C3.38585 7.23148 3.52312 7.27778 3.61463 7.37037C3.72139 7.46296 3.79765 7.54784 3.8434 7.625L6.19977 10.8657L8.55614 7.64815C8.61715 7.57099 8.6934 7.48611 8.78491 7.39352C8.87642 7.28549 9.02131 7.23148 9.21958 7.23148H11.4844C11.6217 7.23148 11.7361 7.28549 11.8276 7.39352C11.9344 7.48611 11.9877 7.60185 11.9877 7.74074C11.9877 7.80247 11.9801 7.8642 11.9649 7.92593C11.9496 7.98765 11.9115 8.04938 11.8505 8.11111L8.23586 13.1111L12.1479 18.3889C12.1936 18.4506 12.2241 18.5123 12.2394 18.5741C12.2699 18.6358 12.2852 18.6975 12.2852 18.7593C12.2852 18.8981 12.2318 19.0216 12.125 19.1296C12.0335 19.2222 11.9191 19.2685 11.7819 19.2685H9.28822C9.12045 19.2685 8.99081 19.2299 8.8993 19.1528C8.80779 19.0602 8.73153 18.9753 8.67053 18.8981L6.13114 15.4722L3.54599 18.8981C3.50024 18.9599 3.43161 19.037 3.3401 19.1296C3.24859 19.2222 3.11132 19.2685 2.9283 19.2685H0.503302Z" fill="#FF4F12"/>
<path d="M19.1528 19.5C18.1462 19.5 17.2998 19.3843 16.6134 19.1528C15.9424 18.9059 15.4009 18.5972 14.9892 18.2269C14.5774 17.8565 14.2723 17.4552 14.0741 17.0231C13.891 16.591 13.7766 16.1898 13.7309 15.8194C13.7156 15.696 13.7538 15.5957 13.8453 15.5185C13.952 15.4259 14.0588 15.3796 14.1656 15.3796H16.3847C16.5677 15.3796 16.6897 15.4105 16.7507 15.4722C16.827 15.534 16.9032 15.6265 16.9795 15.75C17.1778 16.213 17.4523 16.5448 17.8031 16.7454C18.1539 16.946 18.6038 17.0463 19.1528 17.0463C19.8544 17.0463 20.4035 16.8457 20.8 16.4444C21.2118 16.0278 21.4329 15.3642 21.4634 14.4537V14.3148H17.8488C17.7116 14.3148 17.5972 14.2685 17.5057 14.1759C17.4142 14.0679 17.3684 13.9444 17.3684 13.8056V12.6713C17.3684 12.5324 17.4142 12.4167 17.5057 12.3241C17.5972 12.216 17.7116 12.162 17.8488 12.162H21.4634V12.0463C21.4329 11.1975 21.2118 10.5571 20.8 10.125C20.4035 9.6929 19.8544 9.47685 19.1528 9.47685C18.619 9.47685 18.1691 9.57716 17.8031 9.77778C17.4523 9.96296 17.1701 10.3025 16.9566 10.7963C16.8803 10.9043 16.8041 10.9969 16.7278 11.0741C16.6668 11.1358 16.5448 11.1667 16.3618 11.1667H14.2113C14.0893 11.1667 13.9825 11.1281 13.891 11.0509C13.7995 10.9583 13.7614 10.8503 13.7767 10.7269C13.8224 10.341 13.9444 9.9321 14.1427 9.5C14.341 9.0679 14.646 8.66667 15.0578 8.2963C15.4696 7.91049 16.0034 7.60185 16.6592 7.37037C17.3303 7.12346 18.1615 7 19.1528 7C20.9525 7 22.3557 7.45525 23.3623 8.36574C24.3841 9.27623 24.9332 10.5648 25.0094 12.2315C25.0399 12.5247 25.0552 12.8642 25.0552 13.25C25.0552 13.6204 25.0399 13.9599 25.0094 14.2685C24.9332 15.9352 24.3994 17.2238 23.408 18.1343C22.4319 19.0448 21.0135 19.5 19.1528 19.5Z" fill="#FF4F12"/>
<path d="M28.097 19.2685C27.9445 19.2685 27.8148 19.2145 27.7081 19.1065C27.6013 18.9985 27.5479 18.8596 27.5479 18.6898V7.81018C27.5479 7.64043 27.6013 7.50154 27.7081 7.39352C27.8148 7.28549 27.9445 7.23148 28.097 7.23148H30.2703C30.4381 7.23148 30.5754 7.28549 30.6821 7.39352C30.7889 7.50154 30.8423 7.64043 30.8423 7.81018V16.537H33.885V7.81018C33.885 7.64043 33.9384 7.50154 34.0451 7.39352C34.1519 7.28549 34.2815 7.23148 34.434 7.23148H36.4244C36.5921 7.23148 36.7294 7.28549 36.8362 7.39352C36.9429 7.50154 36.9963 7.64043 36.9963 7.81018V16.537H40.039V7.81018C40.039 7.64043 40.0924 7.50154 40.1991 7.39352C40.3059 7.28549 40.4432 7.23148 40.6109 7.23148H42.7843C42.9368 7.23148 43.0664 7.28549 43.1732 7.39352C43.2799 7.50154 43.3333 7.64043 43.3333 7.81018V18.6898C43.3333 18.8596 43.2799 18.9985 43.1732 19.1065C43.0664 19.2145 42.9368 19.2685 42.7843 19.2685H28.097Z" fill="#FF4F12"/>
<path d="M84.7947 19.2685C84.6248 19.2685 84.4859 19.2145 84.3778 19.1065C84.2697 18.9985 84.2156 18.8596 84.2156 18.6898V9.96296H80.5791C80.4092 9.96296 80.2702 9.90895 80.1621 9.80093C80.054 9.6929 80 9.55401 80 9.38426V7.81018C80 7.64043 80.054 7.50154 80.1621 7.39352C80.2702 7.28549 80.4092 7.23148 80.5791 7.23148H91.2571C91.427 7.23148 91.5659 7.28549 91.674 7.39352C91.7821 7.50154 91.8362 7.64043 91.8362 7.81018V9.38426C91.8362 9.55401 91.7821 9.6929 91.674 9.80093C91.5659 9.90895 91.427 9.96296 91.2571 9.96296H87.6205V18.6898C87.6205 18.8596 87.5665 18.9985 87.4584 19.1065C87.3503 19.2145 87.2191 19.2685 87.0646 19.2685H84.7947Z" fill="#FF4F12"/>
<path d="M98.9949 19.5C97.2191 19.5 95.8062 19.0062 94.7561 18.0185C93.7215 17.0309 93.1733 15.5957 93.1116 13.713C93.1116 13.5895 93.1116 13.4275 93.1116 13.2269C93.1116 13.0108 93.1116 12.841 93.1116 12.7176C93.1733 11.5293 93.4436 10.5108 93.9223 9.66204C94.401 8.79784 95.0727 8.14198 95.9374 7.69444C96.8022 7.23148 97.8136 7 98.9717 7C100.269 7 101.35 7.27006 102.215 7.81018C103.095 8.33488 103.751 9.06018 104.183 9.98611C104.631 10.8966 104.855 11.946 104.855 13.1343V13.6667C104.855 13.821 104.793 13.9522 104.67 14.0602C104.562 14.1682 104.43 14.2222 104.276 14.2222H96.7018C96.7018 14.2377 96.7018 14.2685 96.7018 14.3148C96.7018 14.3457 96.7018 14.3765 96.7018 14.4074C96.7172 14.9012 96.8099 15.3565 96.9798 15.7731C97.1651 16.1744 97.4198 16.4985 97.7441 16.7454C98.0838 16.9923 98.4853 17.1157 98.9486 17.1157C99.3346 17.1157 99.6512 17.0617 99.8983 16.9537C100.145 16.8457 100.346 16.7145 100.5 16.5602C100.67 16.4059 100.794 16.2747 100.871 16.1667C101.01 16.0123 101.118 15.9198 101.195 15.8889C101.288 15.8426 101.427 15.8194 101.612 15.8194H104.021C104.176 15.8194 104.299 15.8657 104.392 15.9583C104.5 16.0355 104.546 16.1512 104.531 16.3056C104.515 16.5525 104.384 16.8611 104.137 17.2315C103.905 17.5864 103.558 17.9414 103.095 18.2963C102.631 18.6358 102.052 18.9213 101.358 19.1528C100.678 19.3843 99.8905 19.5 98.9949 19.5ZM96.7018 12.1157H101.242V12.0694C101.242 11.5139 101.149 11.0355 100.964 10.6343C100.794 10.2176 100.539 9.89352 100.199 9.66204C99.8597 9.43056 99.4504 9.31482 98.9717 9.31482C98.4931 9.31482 98.0838 9.43056 97.7441 9.66204C97.4044 9.89352 97.1419 10.2176 96.9566 10.6343C96.7867 11.0355 96.7018 11.5139 96.7018 12.0694V12.1157Z" fill="#FF4F12"/>
<path d="M107.726 19.2685C107.572 19.2685 107.441 19.2145 107.333 19.1065C107.225 18.9985 107.17 18.8596 107.17 18.6898V7.81018C107.17 7.64043 107.225 7.50154 107.333 7.39352C107.441 7.28549 107.572 7.23148 107.726 7.23148H115.254C115.424 7.23148 115.563 7.28549 115.671 7.39352C115.779 7.50154 115.833 7.64043 115.833 7.81018V9.38426C115.833 9.55401 115.779 9.6929 115.671 9.80093C115.563 9.90895 115.424 9.96296 115.254 9.96296H110.622V18.6898C110.622 18.8596 110.568 18.9985 110.46 19.1065C110.351 19.2145 110.213 19.2685 110.043 19.2685H107.726Z" fill="#FF4F12"/>
<path d="M52.7688 28C52.4874 28 52.2529 27.9091 52.0653 27.7273C51.8777 27.5455 51.7996 27.3182 51.8308 27.0455L52.675 21.5455H48.0318C47.7192 21.5455 47.469 21.4545 47.2814 21.2727C47.0938 21.0909 47 20.8485 47 20.5455V19C47 18.697 47.0938 18.4545 47.2814 18.2727C47.469 18.0909 47.7192 18 48.0318 18H53.2379L54.4573 10H49.2513C48.9386 10 48.6884 9.90909 48.5008 9.72727C48.3132 9.54545 48.2194 9.30303 48.2194 9V7.45455C48.2194 7.15152 48.3132 6.90909 48.5008 6.72727C48.6884 6.54545 48.9386 6.45455 49.2513 6.45455H55.0201L55.8643 0.954547C55.9269 0.712122 56.0363 0.500001 56.1926 0.318183C56.349 0.106061 56.5835 0 56.8961 0H58.6315C58.9129 0 59.1474 0.0909088 59.335 0.272726C59.5226 0.454546 59.6008 0.681819 59.5695 0.954547L58.7253 6.45455H65.6667L66.5109 0.954547C66.5734 0.712122 66.6829 0.500001 66.8392 0.318183C66.9955 0.106061 67.23 0 67.5427 0H69.2781C69.5595 0 69.794 0.0909088 69.9816 0.272726C70.1692 0.454546 70.2473 0.681819 70.2161 0.954547L69.3719 6.45455H73.9213C74.2339 6.45455 74.4841 6.54545 74.6717 6.72727C74.8906 6.90909 75 7.15152 75 7.45455V9C75 9.30303 74.8906 9.54545 74.6717 9.72727C74.4841 9.90909 74.2339 10 73.9213 10H68.8559L67.6365 18H72.7018C73.0145 18 73.2647 18.0909 73.4523 18.2727C73.6711 18.4545 73.7806 18.697 73.7806 19V20.5455C73.7806 20.8485 73.6711 21.0909 73.4523 21.2727C73.2647 21.4545 73.0145 21.5455 72.7018 21.5455H67.0737L66.2295 27.0455C66.1357 27.6818 65.7761 28 65.1508 28H63.4154C63.134 28 62.8995 27.9091 62.7119 27.7273C62.5243 27.5455 62.4461 27.3182 62.4774 27.0455L63.3216 21.5455H56.4271L55.5829 27.0455C55.4891 27.6818 55.1295 28 54.5042 28H52.7688ZM56.99 18H63.8844L65.1039 10H58.2094L56.99 18Z" fill="#7700FF"/>
</svg>
