<svg width="320" height="291" viewBox="0 0 320 291" fill="none" xmlns="http://www.w3.org/2000/svg">
<path d="M295.99 24.6882H201.534V147.655H295.99V24.6882Z" fill="#DEE8F5"/>
<path d="M287.353 66.0776H210.17V84.8811H287.353V66.0776Z" fill="white"/>
<path d="M287.353 91.4631H210.17V95.1236H287.353V91.4631Z" fill="white"/>
<path d="M287.353 100.491H210.17V104.151H287.353V100.491Z" fill="white"/>
<path d="M287.353 109.519H210.17V113.179H287.353V109.519Z" fill="white"/>
<path d="M287.353 117.611H210.17V121.272H287.353V117.611Z" fill="white"/>
<path d="M236.409 46.7364C236.409 49.3404 235.64 51.8859 234.198 54.051C232.757 56.2161 230.708 57.9037 228.31 58.9001C225.913 59.8966 223.275 60.1574 220.73 59.6494C218.185 59.1414 215.848 57.8874 214.013 56.0461C212.178 54.2048 210.929 51.8589 210.422 49.305C209.916 46.751 210.176 44.1038 211.169 41.698C212.162 39.2923 213.843 37.236 216.001 35.7894C218.158 34.3427 220.695 33.5705 223.29 33.5705C225.014 33.5652 226.723 33.9021 228.317 34.5619C229.911 35.2217 231.359 36.1913 232.579 37.4149C233.798 38.6385 234.764 40.092 235.421 41.6918C236.079 43.2915 236.415 45.006 236.409 46.7364Z" fill="white"/>
<path d="M223.29 48.0929C226.158 48.0929 228.484 45.7593 228.484 42.8806C228.484 40.0019 226.158 37.6682 223.29 37.6682C220.421 37.6682 218.096 40.0019 218.096 42.8806C218.096 45.7593 220.421 48.0929 223.29 48.0929Z" fill="white"/>
<path d="M232.744 55.8656C231.52 57.1421 230.052 58.1576 228.427 58.8512C226.803 59.5448 225.055 59.9023 223.29 59.9023C221.525 59.9023 219.777 59.5448 218.153 58.8512C216.528 58.1576 215.06 57.1421 213.836 55.8656C215.605 51.8983 219.176 49.1869 223.29 49.1869C227.404 49.1869 230.975 51.8997 232.744 55.8656Z" fill="white"/>
<path d="M268.242 33.6522H241.755V41.6849H268.242V33.6522Z" fill="white"/>
<path d="M287.353 46.6532H241.755V49.5756H287.353V46.6532Z" fill="white"/>
<path d="M287.353 54.5446H241.755V57.467H287.353V54.5446Z" fill="white"/>
<path d="M238.695 128.361H210.17V139.015H238.695V128.361Z" fill="white"/>
<path d="M266.464 12.5635H153.38V159.779H266.464V12.5635Z" fill="#DEE8F5"/>
<path d="M256.124 62.1152H163.72V84.6269H256.124V62.1152Z" fill="white"/>
<path d="M256.124 92.507H163.72V96.8895H256.124V92.507Z" fill="white"/>
<path d="M256.124 103.315H163.72V107.697H256.124V103.315Z" fill="white"/>
<path d="M256.124 114.123H163.72V118.505H256.124V114.123Z" fill="white"/>
<path d="M256.124 123.811H163.72V128.194H256.124V123.811Z" fill="white"/>
<path d="M195.133 38.9596C195.133 42.077 194.212 45.1245 192.486 47.7166C190.761 50.3087 188.307 52.329 185.437 53.522C182.567 54.7151 179.409 55.0272 176.362 54.4191C173.316 53.8109 170.517 52.3097 168.32 50.1053C166.124 47.9009 164.628 45.0924 164.022 42.0348C163.416 38.9772 163.727 35.808 164.915 32.9278C166.104 30.0476 168.117 27.5858 170.7 25.8538C173.283 24.1218 176.32 23.1973 179.426 23.1972C181.491 23.1911 183.536 23.5946 185.444 24.3846C187.353 25.1745 189.087 26.3353 190.546 27.8002C192.006 29.2651 193.163 31.0052 193.95 32.9203C194.737 34.8354 195.14 36.8879 195.133 38.9596Z" fill="white"/>
<path d="M179.426 40.5839C182.861 40.5839 185.645 37.79 185.645 34.3436C185.645 30.8972 182.861 28.1033 179.426 28.1033C175.992 28.1033 173.208 30.8972 173.208 34.3436C173.208 37.79 175.992 40.5839 179.426 40.5839Z" fill="white"/>
<path d="M190.745 49.8895C189.28 51.4176 187.522 52.6332 185.577 53.4635C183.632 54.2939 181.54 54.7218 179.427 54.7218C177.313 54.7218 175.221 54.2939 173.276 53.4635C171.332 52.6332 169.574 51.4176 168.108 49.8895C170.226 45.1396 174.501 41.8934 179.426 41.8934C184.351 41.8934 188.627 45.1396 190.745 49.8895Z" fill="white"/>
<path d="M233.244 23.295H201.534V32.9117H233.244V23.295Z" fill="white"/>
<path d="M256.124 38.8604H201.534V42.3591H256.124V38.8604Z" fill="white"/>
<path d="M256.124 48.3075H201.534V51.8063H256.124V48.3075Z" fill="white"/>
<path d="M197.87 136.681H163.72V149.437H197.87V136.681Z" fill="white"/>
<path d="M212.17 0H79.7854V172.343H212.17V0Z" fill="#C1D8ED"/>
<path d="M200.065 58.0094H91.89V84.3633H200.065V58.0094Z" fill="white"/>
<path d="M200.065 93.5883H91.89V98.7186H200.065V93.5883Z" fill="white"/>
<path d="M200.065 106.241H91.89V111.371H200.065V106.241Z" fill="white"/>
<path d="M200.065 118.894H91.89V124.024H200.065V118.894Z" fill="white"/>
<path d="M200.065 130.236H91.89V135.366H200.065V130.236Z" fill="white"/>
<path d="M128.665 30.9013C128.665 34.551 127.587 38.1187 125.567 41.1533C123.546 44.1879 120.674 46.553 117.314 47.9497C113.955 49.3464 110.257 49.7119 106.69 48.9999C103.124 48.288 99.8471 46.5305 97.2755 43.9499C94.7039 41.3692 92.9526 38.0812 92.2431 34.5017C91.5335 30.9222 91.8977 27.2119 93.2894 23.8401C94.6811 20.4683 97.0379 17.5863 100.062 15.5587C103.086 13.5311 106.641 12.4488 110.278 12.4488C112.694 12.4416 115.089 12.9139 117.323 13.8387C119.557 14.7635 121.587 16.1224 123.296 17.8373C125.005 19.5522 126.359 21.5893 127.28 23.8313C128.202 26.0733 128.673 28.4761 128.665 30.9013V30.9013Z" fill="white"/>
<path d="M110.278 32.803C114.298 32.803 117.557 29.5323 117.557 25.4978C117.557 21.4632 114.298 18.1925 110.278 18.1925C106.257 18.1925 102.998 21.4632 102.998 25.4978C102.998 29.5323 106.257 32.803 110.278 32.803Z" fill="#DEE8F5"/>
<path d="M123.528 43.6968C121.812 45.4858 119.755 46.909 117.478 47.8811C115.201 48.8532 112.752 49.3542 110.278 49.3542C107.804 49.3542 105.355 48.8532 103.078 47.8811C100.801 46.909 98.7432 45.4858 97.0274 43.6968C99.5067 38.1364 104.512 34.3359 110.278 34.3359C116.043 34.3359 121.049 38.1364 123.528 43.6968Z" fill="#DEE8F5"/>
<path d="M173.281 12.5635H136.158V23.8217H173.281V12.5635Z" fill="white"/>
<path d="M200.066 30.7853H136.158V34.8813H200.066V30.7853Z" fill="white"/>
<path d="M200.066 41.8451H136.158V45.9412H200.066V41.8451Z" fill="white"/>
<path d="M131.868 145.302H91.89V160.235H131.868V145.302Z" fill="white"/>
<path d="M105.464 212.617L99.4641 212.598C99.4641 212.598 99.4841 206.38 99.4841 205.829H105.484C105.484 206.382 105.464 212.617 105.464 212.617Z" fill="#FFC8B2"/>
<path d="M129.373 211.898L123.415 211.187C123.683 208.923 123.986 206.205 124.007 205.759C124.007 205.788 124.007 205.811 124.007 205.83H130.007C130.007 206.01 130.007 206.559 129.373 211.898Z" fill="#FFC8B2"/>
<path d="M131.587 209.816C131.09 197.197 131.06 183.943 130.905 171.29C128.841 157.643 127.756 142.676 125.209 129.125L125.132 129.148L124.909 127.62L103.172 126.272L102.326 140.525H102.407C101.313 159.616 99.1975 190.307 97.9175 209.654L108.452 210.548C110.334 191.52 113.401 161.207 115.102 142.453C116.967 152.009 118.727 162.77 120.383 172.44C120.746 184.792 121.049 197.664 121.016 209.996L131.587 209.816Z" fill="#262626"/>
<path d="M112.759 214.947C112.92 214.946 113.079 214.912 113.227 214.846C113.375 214.781 113.507 214.686 113.617 214.566C113.726 214.447 113.809 214.307 113.862 214.154C113.915 214.001 113.936 213.838 113.923 213.677V213.677C113.906 213.453 113.825 213.239 113.691 213.06C113.556 212.881 113.373 212.744 113.164 212.665L106.18 210.318C106.044 210.273 105.901 210.258 105.759 210.273C105.618 210.289 105.481 210.336 105.359 210.409C104.399 211.078 103.25 211.419 102.082 211.384C101.173 211.319 100.299 210.999 99.5621 210.46C99.4973 210.407 99.4187 210.373 99.3356 210.363C99.2524 210.353 99.168 210.367 99.0923 210.403C99.0166 210.439 98.9526 210.496 98.9079 210.567C98.8632 210.638 98.8396 210.72 98.8398 210.804V214.232C98.8398 214.333 98.8597 214.433 98.8983 214.526C98.937 214.619 98.9936 214.704 99.065 214.776C99.1364 214.847 99.2211 214.903 99.3143 214.942C99.4075 214.98 99.5074 215 99.6081 214.999L112.759 214.947Z" fill="#C1D8ED"/>
<path d="M136.684 214.947C136.845 214.946 137.005 214.912 137.152 214.846C137.3 214.781 137.432 214.685 137.542 214.566C137.651 214.447 137.735 214.307 137.787 214.154C137.84 214.001 137.861 213.838 137.848 213.677V213.677C137.831 213.453 137.75 213.239 137.616 213.06C137.481 212.88 137.298 212.743 137.089 212.665L130.105 210.318C129.97 210.273 129.826 210.257 129.684 210.273C129.543 210.289 129.406 210.335 129.284 210.409C128.324 211.078 127.175 211.42 126.007 211.384C125.097 211.319 124.224 210.999 123.486 210.46C123.421 210.407 123.343 210.373 123.26 210.363C123.177 210.353 123.092 210.366 123.016 210.402C122.941 210.438 122.877 210.495 122.832 210.567C122.788 210.638 122.764 210.72 122.764 210.804V214.231C122.764 214.333 122.784 214.433 122.823 214.526C122.861 214.619 122.918 214.704 122.989 214.776C123.061 214.847 123.146 214.903 123.239 214.942C123.332 214.98 123.432 215 123.533 214.999L136.684 214.947Z" fill="#C1D8ED"/>
<path d="M109.965 97.0122C109.965 97.0122 112.175 95.8365 111.681 89.799L116.246 88.9493C116.246 88.9493 115.733 94.3627 118.043 96.0811L109.965 97.0122Z" fill="#FFC8B2"/>
<path d="M109.091 87.4578C109.407 89.2895 110.404 91.0242 112.014 91.6155C113.925 92.318 115.341 92.3656 117.545 92.3656C120.552 92.3656 120.453 89.2181 120.537 86.0461C120.623 82.8619 120.37 79.446 119.181 78.3363C116.809 76.1215 109.845 77.524 108.998 81.2286C108.56 83.1449 108.79 85.7141 109.091 87.4578Z" fill="#FFC8B2"/>
<path d="M122.395 78.3013C121.892 76.4498 120.324 75.5454 117.731 76.2256C115.887 76.7093 115.654 76.2743 114.092 75.5199C113.197 75.0878 110.263 75.285 109.537 77.2782C108.759 79.4132 106.351 77.6842 106.127 81.1624C105.94 84.0736 106.92 88.2351 108.891 90.5769C109.573 91.3875 110.686 92.3592 111.548 92.5995C112.395 92.8358 116.055 92.6296 116.411 92.4177C118.159 91.3763 117.979 86.5998 117.702 83.5357C117.656 83.0316 117.749 82.1937 119.038 82.1937C119.924 82.1937 120.414 82.1725 120.872 81.8416C120.871 81.8416 122.898 80.1525 122.395 78.3013Z" fill="#0F1011"/>
<path d="M119.433 86.6477C119.468 87.1117 119.319 87.5706 119.017 87.9244C118.716 88.2782 118.288 88.498 117.826 88.5358C117.364 88.5737 116.905 88.4266 116.551 88.1265C116.197 87.8265 115.975 87.398 115.934 86.9345C115.912 86.7032 115.935 86.4696 116.004 86.2478C116.073 86.0259 116.186 85.8202 116.336 85.643C116.486 85.4658 116.67 85.3206 116.877 85.2162C117.084 85.1118 117.309 85.0502 117.541 85.0351C118.791 84.9952 119.354 85.6777 119.433 86.6477Z" fill="#FFC8B2"/>
<path d="M96.7743 136.605C96.7743 137.46 97.2237 140.317 96.5008 140.521C96.0671 140.643 95.5551 138.514 95.5551 138.514" fill="#FFC8B2"/>
<path d="M93.3604 136.157C93.3604 136.157 90.9991 141.924 93.6924 145.238C93.7611 145.322 93.8535 145.383 93.9576 145.414C94.0617 145.445 94.1726 145.444 94.2758 145.41C94.3791 145.377 94.4699 145.313 94.5363 145.227C94.6028 145.141 94.6419 145.036 94.6485 144.928C94.7793 142.694 95.2282 138.103 96.696 138.641V135.038" fill="#FFC8B2"/>
<path d="M146.604 105.429C146.604 105.429 149.902 102.8 150.135 101.856C150.368 100.911 148.046 99.0543 148.046 99.0543C148.046 99.0543 151.134 95.9288 150.518 95.4775C149.791 94.9427 146.208 99.4867 146.208 99.4867C146.208 99.4867 146.714 97.8522 146.083 97.7447C145.824 97.7006 145.619 97.956 145.213 99.113C144.751 100.432 143.826 102.415 143.826 102.415L146.604 105.429Z" fill="#FFC8B2"/>
<path d="M143.132 101.934L133.378 112.947L125.75 99.2422C125.027 97.077 123.383 95.6267 120.028 95.4822C118.881 95.4328 113.283 95.4248 109.185 95.4248C106.432 95.4248 104.171 96.2727 102.866 97.5828C102.208 98.2331 101.716 99.0325 101.431 99.9137L101.392 99.8991L94.8336 117.795C94.7601 117.996 94.7073 118.203 94.6761 118.415L92.0289 136.312L98.1918 137.229L100.792 119.652L103.441 112.424C103.716 113.535 103.867 114.674 103.89 115.818C103.89 121.84 101.175 124.54 101.375 127.632C101.69 132.491 125.213 131.343 126.412 128.583C127.646 125.737 125.141 123.983 125.251 114.673C125.263 113.66 125.341 112.6 125.448 111.521L130.077 119.837C130.319 120.272 130.662 120.643 131.077 120.919C131.491 121.194 131.965 121.366 132.459 121.42C132.953 121.474 133.453 121.409 133.917 121.229C134.381 121.05 134.795 120.762 135.125 120.389L147.95 105.335L143.132 101.934Z" fill="#7700FF"/>
<path d="M288.001 212.646H316.975V181.548H288.001V212.646Z" fill="#D7E8F4"/>
<path d="M279.026 212.646H308V181.548H279.026V212.646Z" fill="white"/>
<path d="M287.467 188.962V195.03V213.814H319.18V195.03V188.962H287.467Z" fill="#C1D8ED"/>
<path d="M309.559 188.962H277.846V213.814H309.559V188.962Z" fill="#DEE8F5"/>
<path d="M309.559 188.962H277.846V190.825H309.559V188.962Z" fill="#C1D8ED"/>
<path d="M297.027 193.953H290.378C289.87 193.953 289.458 194.367 289.458 194.877V196.761C289.458 197.271 289.87 197.685 290.378 197.685H297.027C297.536 197.685 297.948 197.271 297.948 196.761V194.877C297.948 194.367 297.536 193.953 297.027 193.953Z" fill="white"/>
<path d="M287.404 183.603L318.906 187.264L319.601 181.236L288.099 177.575L287.404 183.603Z" fill="#C1D8ED"/>
<path d="M277.846 182.492L309.349 186.153L310.044 180.125L278.542 176.464L277.846 182.492Z" fill="#DEE8F5"/>
<path d="M289.43 186.259H279.026C278.469 186.726 278.059 187.345 277.846 188.041C277.846 188.041 281.437 186.942 289.43 186.259Z" fill="#DEE8F5"/>
<path d="M55.599 144.658L52.6543 143.959L48.9625 159.629L51.9072 160.328L55.599 144.658Z" fill="#F0F6FF"/>
<path d="M49.4162 142.742L47.7814 143.045L50.3098 156.799L51.9446 156.496L49.4162 142.742Z" fill="#C1D8ED"/>
<path d="M49.4156 142.737L47.7825 143.049L48.0702 144.566L49.7033 144.254L49.4156 142.737Z" fill="#DEE8F5"/>
<path d="M54.4762 146.24L49.1786 159.735L50.0864 160.094L55.3841 146.599L54.4762 146.24Z" fill="#0CBC8B"/>
<path d="M55.6364 152.143H47.6508V162.386H55.6364V152.143Z" fill="#C1D8ED"/>
<path d="M65.0929 215H68.3648V182.698H65.0929V215Z" fill="#C1D8ED"/>
<path d="M67.7856 215H71.0575V182.698H67.7856V215Z" fill="#DEE8F5"/>
<path d="M24.3379 215H27.6098L27.6098 182.698H24.3379L24.3379 215Z" fill="#C1D8ED"/>
<path d="M27.0303 215H30.3022L30.3022 182.698H27.0303L27.0303 215Z" fill="#DEE8F5"/>
<path d="M56.1184 215H59.3903L59.3903 182.698H56.1184L56.1184 215Z" fill="#C1D8ED"/>
<path d="M58.8114 215H62.0833L62.0833 182.698H58.8114L58.8114 215Z" fill="#DEE8F5"/>
<path d="M15.3634 215H18.6353L18.6353 182.698H15.3634L15.3634 215Z" fill="#C1D8ED"/>
<path d="M18.0564 215H21.3283L21.3283 182.698H18.0564L18.0564 215Z" fill="#DEE8F5"/>
<path d="M59.3703 162.021H15.3634V183.472H59.3703V162.021Z" fill="#C1D8ED"/>
<path d="M71.0578 162.021H27.0509V183.472H71.0578V162.021Z" fill="#DEE8F5"/>
<g opacity="0.53">
<path opacity="0.53" d="M68.6902 165.071H29.4184V180.328H68.6902V165.071Z" fill="#F3F5FD"/>
</g>
<path d="M49.0543 174.45C50.0176 174.45 50.7984 173.666 50.7984 172.699C50.7984 171.733 50.0176 170.949 49.0543 170.949C48.0911 170.949 47.3102 171.733 47.3102 172.699C47.3102 173.666 48.0911 174.45 49.0543 174.45Z" fill="white"/>
<path opacity="0.3" d="M20.992 275.64C17.9627 275.64 15.3813 275.192 13.248 274.296C11.1147 273.4 9.36533 272.163 8 270.584C6.63467 269.005 5.61067 267.192 4.928 265.144C4.24533 263.053 3.84 260.835 3.712 258.488C3.66933 257.336 3.62667 256.077 3.584 254.712C3.584 253.304 3.584 251.896 3.584 250.488C3.62667 249.08 3.66933 247.779 3.712 246.584C3.79733 244.237 4.20267 242.04 4.928 239.992C5.65333 237.901 6.69867 236.088 8.064 234.552C9.472 233.016 11.2427 231.8 13.376 230.904C15.5093 230.008 18.048 229.56 20.992 229.56C23.9787 229.56 26.5387 230.008 28.672 230.904C30.8053 231.8 32.5547 233.016 33.92 234.552C35.328 236.088 36.3733 237.901 37.056 239.992C37.7813 242.04 38.1867 244.237 38.272 246.584C38.3573 247.779 38.4 249.08 38.4 250.488C38.4 251.896 38.4 253.304 38.4 254.712C38.4 256.077 38.3573 257.336 38.272 258.488C38.1867 260.835 37.8027 263.053 37.12 265.144C36.4373 267.192 35.4133 269.005 34.048 270.584C32.6827 272.163 30.912 273.4 28.736 274.296C26.6027 275.192 24.0213 275.64 20.992 275.64ZM20.992 268.28C23.7653 268.28 25.792 267.384 27.072 265.592C28.3947 263.757 29.0773 261.283 29.12 258.168C29.2053 256.931 29.248 255.693 29.248 254.456C29.248 253.176 29.248 251.896 29.248 250.616C29.248 249.336 29.2053 248.12 29.12 246.968C29.0773 243.939 28.3947 241.507 27.072 239.672C25.792 237.795 23.7653 236.856 20.992 236.856C18.2613 236.856 16.2347 237.795 14.912 239.672C13.632 241.507 12.9493 243.939 12.864 246.968C12.864 248.12 12.8427 249.336 12.8 250.616C12.8 251.896 12.8 253.176 12.8 254.456C12.8427 255.693 12.864 256.931 12.864 258.168C12.9493 261.283 13.6533 263.757 14.976 265.592C16.2987 267.384 18.304 268.28 20.992 268.28ZM59.7905 275C59.3212 275 58.9372 274.851 58.6385 274.552C58.3825 274.253 58.2545 273.891 58.2545 273.464V240.312L48.5265 247.8C48.1425 248.056 47.7585 248.163 47.3745 248.12C46.9905 248.035 46.6492 247.8 46.3505 247.416L43.6625 243.96C43.4065 243.576 43.2998 243.171 43.3425 242.744C43.4278 242.317 43.6625 241.976 44.0465 241.72L58.3825 230.648C58.6385 230.435 58.8945 230.307 59.1505 230.264C59.4065 230.221 59.6838 230.2 59.9825 230.2H65.6145C66.0412 230.2 66.4038 230.349 66.7025 230.648C67.0012 230.947 67.1505 231.309 67.1505 231.736V273.464C67.1505 273.891 67.0012 274.253 66.7025 274.552C66.4038 274.851 66.0412 275 65.6145 275H59.7905Z" fill="#7700FF"/>
<path d="M83.836 249C83.716 249 83.614 248.964 83.53 248.892C83.446 248.808 83.404 248.7 83.404 248.568V236.85C83.404 236.718 83.446 236.61 83.53 236.526C83.614 236.442 83.716 236.4 83.836 236.4H85.474C85.606 236.4 85.708 236.442 85.78 236.526C85.864 236.61 85.906 236.718 85.906 236.85V241.494H91.216V236.85C91.216 236.718 91.258 236.61 91.342 236.526C91.426 236.442 91.528 236.4 91.648 236.4H93.268C93.4 236.4 93.508 236.442 93.592 236.526C93.676 236.61 93.718 236.718 93.718 236.85V248.568C93.718 248.688 93.676 248.79 93.592 248.874C93.508 248.958 93.4 249 93.268 249H91.648C91.528 249 91.426 248.958 91.342 248.874C91.258 248.79 91.216 248.688 91.216 248.568V243.744H85.906V248.568C85.906 248.688 85.864 248.79 85.78 248.874C85.708 248.958 85.606 249 85.474 249H83.836ZM99.0193 249.18C98.3953 249.18 97.8313 249.06 97.3273 248.82C96.8233 248.568 96.4213 248.238 96.1213 247.83C95.8333 247.41 95.6893 246.942 95.6893 246.426C95.6893 245.586 96.0313 244.92 96.7153 244.428C97.3993 243.924 98.2933 243.588 99.3973 243.42L101.863 243.06V242.682C101.863 242.178 101.737 241.788 101.485 241.512C101.233 241.236 100.801 241.098 100.189 241.098C99.7573 241.098 99.4033 241.188 99.1273 241.368C98.8633 241.536 98.6653 241.764 98.5333 242.052C98.4373 242.208 98.2993 242.286 98.1193 242.286H96.6973C96.5653 242.286 96.4633 242.25 96.3913 242.178C96.3313 242.106 96.3013 242.01 96.3013 241.89C96.3133 241.698 96.3913 241.464 96.5353 241.188C96.6913 240.912 96.9193 240.648 97.2193 240.396C97.5313 240.132 97.9333 239.91 98.4253 239.73C98.9173 239.55 99.5113 239.46 100.207 239.46C100.963 239.46 101.599 239.556 102.115 239.748C102.643 239.928 103.063 240.174 103.375 240.486C103.687 240.798 103.915 241.164 104.059 241.584C104.203 242.004 104.275 242.448 104.275 242.916V248.568C104.275 248.688 104.233 248.79 104.149 248.874C104.065 248.958 103.963 249 103.843 249H102.385C102.253 249 102.145 248.958 102.061 248.874C101.989 248.79 101.953 248.688 101.953 248.568V247.866C101.797 248.082 101.587 248.292 101.323 248.496C101.059 248.7 100.735 248.868 100.351 249C99.9793 249.12 99.5353 249.18 99.0193 249.18ZM99.6313 247.47C100.051 247.47 100.429 247.38 100.765 247.2C101.113 247.02 101.383 246.744 101.575 246.372C101.779 245.988 101.881 245.508 101.881 244.932V244.554L100.081 244.842C99.3733 244.95 98.8453 245.124 98.4973 245.364C98.1493 245.604 97.9753 245.898 97.9753 246.246C97.9753 246.51 98.0533 246.738 98.2093 246.93C98.3773 247.11 98.5873 247.248 98.8393 247.344C99.0913 247.428 99.3553 247.47 99.6313 247.47ZM106.998 249C106.89 249 106.794 248.958 106.71 248.874C106.626 248.79 106.584 248.694 106.584 248.586V240.072C106.584 239.952 106.626 239.85 106.71 239.766C106.794 239.682 106.896 239.64 107.016 239.64H108.51C108.642 239.64 108.744 239.682 108.816 239.766C108.9 239.85 108.942 239.952 108.942 240.072V247.182L108.312 246.732L113.262 239.928C113.322 239.844 113.388 239.778 113.46 239.73C113.532 239.67 113.628 239.64 113.748 239.64H115.116C115.224 239.64 115.32 239.682 115.404 239.766C115.488 239.838 115.53 239.928 115.53 240.036V248.568C115.53 248.688 115.488 248.79 115.404 248.874C115.32 248.958 115.218 249 115.098 249H113.604C113.472 249 113.364 248.958 113.28 248.874C113.208 248.79 113.172 248.688 113.172 248.568V241.782L113.838 241.872L108.852 248.712C108.804 248.784 108.738 248.85 108.654 248.91C108.582 248.97 108.486 249 108.366 249H106.998ZM111.156 238.416C110.436 238.416 109.86 238.302 109.428 238.074C108.996 237.846 108.684 237.552 108.492 237.192C108.312 236.82 108.222 236.424 108.222 236.004C108.222 235.908 108.252 235.83 108.312 235.77C108.372 235.698 108.456 235.662 108.564 235.662H109.59C109.698 235.662 109.782 235.698 109.842 235.77C109.902 235.83 109.932 235.908 109.932 236.004C109.932 236.268 110.016 236.508 110.184 236.724C110.352 236.928 110.676 237.03 111.156 237.03C111.66 237.03 111.99 236.928 112.146 236.724C112.302 236.508 112.38 236.268 112.38 236.004C112.38 235.908 112.41 235.83 112.47 235.77C112.53 235.698 112.614 235.662 112.722 235.662H113.766C113.874 235.662 113.958 235.698 114.018 235.77C114.078 235.83 114.108 235.908 114.108 236.004C114.108 236.424 114.012 236.82 113.82 237.192C113.628 237.552 113.316 237.846 112.884 238.074C112.464 238.302 111.888 238.416 111.156 238.416ZM117.439 250.98C117.319 250.98 117.217 250.938 117.133 250.854C117.049 250.77 117.007 250.668 117.007 250.548V247.524C117.007 247.404 117.049 247.302 117.133 247.218C117.217 247.134 117.319 247.092 117.439 247.092H117.583C117.895 247.092 118.147 246.93 118.339 246.606C118.543 246.27 118.693 245.766 118.789 245.094C118.885 244.41 118.933 243.546 118.933 242.502V240.072C118.933 239.952 118.975 239.85 119.059 239.766C119.143 239.682 119.245 239.64 119.365 239.64H125.773C125.905 239.64 126.007 239.682 126.079 239.766C126.163 239.85 126.205 239.952 126.205 240.072V247.074H127.015C127.147 247.074 127.249 247.116 127.321 247.2C127.405 247.284 127.447 247.386 127.447 247.506V250.548C127.447 250.668 127.405 250.77 127.321 250.854C127.249 250.938 127.147 250.98 127.015 250.98H125.539C125.407 250.98 125.299 250.938 125.215 250.854C125.131 250.77 125.089 250.668 125.089 250.548V249H119.365V250.548C119.365 250.668 119.323 250.77 119.239 250.854C119.155 250.938 119.053 250.98 118.933 250.98H117.439ZM120.355 247.092L123.865 247.074V241.548H121.201V242.754C121.201 243.834 121.129 244.728 120.985 245.436C120.841 246.144 120.631 246.696 120.355 247.092ZM129.516 249C129.408 249 129.312 248.958 129.228 248.874C129.144 248.79 129.102 248.694 129.102 248.586V240.072C129.102 239.952 129.144 239.85 129.228 239.766C129.312 239.682 129.414 239.64 129.534 239.64H131.028C131.16 239.64 131.262 239.682 131.334 239.766C131.418 239.85 131.46 239.952 131.46 240.072V247.182L130.83 246.732L135.78 239.928C135.84 239.844 135.906 239.778 135.978 239.73C136.05 239.67 136.146 239.64 136.266 239.64H137.634C137.742 239.64 137.838 239.682 137.922 239.766C138.006 239.838 138.048 239.928 138.048 240.036V248.568C138.048 248.688 138.006 248.79 137.922 248.874C137.838 248.958 137.736 249 137.616 249H136.122C135.99 249 135.882 248.958 135.798 248.874C135.726 248.79 135.69 248.688 135.69 248.568V241.782L136.356 241.872L131.37 248.712C131.322 248.784 131.256 248.85 131.172 248.91C131.1 248.97 131.004 249 130.884 249H129.516ZM143.179 249C143.047 249 142.939 248.958 142.855 248.874C142.783 248.79 142.747 248.688 142.747 248.568V241.548H139.813C139.681 241.548 139.573 241.506 139.489 241.422C139.417 241.338 139.381 241.23 139.381 241.098V240.072C139.381 239.952 139.417 239.85 139.489 239.766C139.573 239.682 139.681 239.64 139.813 239.64H147.985C148.117 239.64 148.225 239.682 148.309 239.766C148.393 239.85 148.435 239.952 148.435 240.072V241.098C148.435 241.23 148.393 241.338 148.309 241.422C148.225 241.506 148.117 241.548 147.985 241.548H145.069V248.568C145.069 248.688 145.027 248.79 144.943 248.874C144.859 248.958 144.757 249 144.637 249H143.179ZM153.894 249.18C152.562 249.18 151.506 248.796 150.726 248.028C149.946 247.26 149.526 246.168 149.466 244.752C149.454 244.632 149.448 244.482 149.448 244.302C149.448 244.11 149.454 243.96 149.466 243.852C149.514 242.94 149.718 242.16 150.078 241.512C150.45 240.852 150.96 240.348 151.608 240C152.256 239.64 153.018 239.46 153.894 239.46C154.866 239.46 155.682 239.664 156.342 240.072C157.002 240.468 157.5 241.026 157.836 241.746C158.172 242.454 158.34 243.276 158.34 244.212V244.59C158.34 244.71 158.298 244.812 158.214 244.896C158.13 244.98 158.022 245.022 157.89 245.022H151.914C151.914 245.022 151.914 245.04 151.914 245.076C151.914 245.112 151.914 245.142 151.914 245.166C151.926 245.586 152.004 245.976 152.148 246.336C152.304 246.684 152.526 246.966 152.814 247.182C153.114 247.398 153.468 247.506 153.876 247.506C154.212 247.506 154.494 247.458 154.722 247.362C154.95 247.254 155.136 247.134 155.28 247.002C155.424 246.87 155.526 246.762 155.586 246.678C155.694 246.534 155.778 246.45 155.838 246.426C155.91 246.39 156.012 246.372 156.144 246.372H157.692C157.812 246.372 157.908 246.408 157.98 246.48C158.064 246.552 158.1 246.642 158.088 246.75C158.076 246.942 157.974 247.176 157.782 247.452C157.602 247.728 157.338 247.998 156.99 248.262C156.642 248.526 156.204 248.748 155.676 248.928C155.16 249.096 154.566 249.18 153.894 249.18ZM151.914 243.51H155.892V243.456C155.892 242.988 155.814 242.58 155.658 242.232C155.502 241.872 155.274 241.596 154.974 241.404C154.674 241.2 154.314 241.098 153.894 241.098C153.474 241.098 153.114 241.2 152.814 241.404C152.514 241.596 152.286 241.872 152.13 242.232C151.986 242.58 151.914 242.988 151.914 243.456V243.51ZM164.778 249C164.67 249 164.574 248.958 164.49 248.874C164.406 248.79 164.364 248.694 164.364 248.586V240.072C164.364 239.952 164.406 239.85 164.49 239.766C164.574 239.682 164.676 239.64 164.796 239.64H166.29C166.422 239.64 166.524 239.682 166.596 239.766C166.68 239.85 166.722 239.952 166.722 240.072V247.182L166.092 246.732L171.042 239.928C171.102 239.844 171.168 239.778 171.24 239.73C171.312 239.67 171.408 239.64 171.528 239.64H172.896C173.004 239.64 173.1 239.682 173.184 239.766C173.268 239.838 173.31 239.928 173.31 240.036V248.568C173.31 248.688 173.268 248.79 173.184 248.874C173.1 248.958 172.998 249 172.878 249H171.384C171.252 249 171.144 248.958 171.06 248.874C170.988 248.79 170.952 248.688 170.952 248.568V241.782L171.618 241.872L166.632 248.712C166.584 248.784 166.518 248.85 166.434 248.91C166.362 248.97 166.266 249 166.146 249H164.778ZM176.011 249C175.891 249 175.789 248.958 175.705 248.874C175.621 248.79 175.579 248.688 175.579 248.568V240.072C175.579 239.952 175.621 239.85 175.705 239.766C175.789 239.682 175.891 239.64 176.011 239.64H177.505C177.637 239.64 177.739 239.682 177.811 239.766C177.895 239.85 177.937 239.952 177.937 240.072V243.294H182.005V240.072C182.005 239.952 182.047 239.85 182.131 239.766C182.215 239.682 182.317 239.64 182.437 239.64H183.931C184.051 239.64 184.153 239.682 184.237 239.766C184.321 239.85 184.363 239.952 184.363 240.072V248.568C184.363 248.688 184.321 248.79 184.237 248.874C184.153 248.958 184.051 249 183.931 249H182.437C182.317 249 182.215 248.958 182.131 248.874C182.047 248.79 182.005 248.688 182.005 248.568V245.184H177.937V248.568C177.937 248.688 177.895 248.79 177.811 248.874C177.739 248.958 177.637 249 177.505 249H176.011ZM191.725 252.42C191.593 252.42 191.485 252.378 191.401 252.294C191.329 252.21 191.293 252.108 191.293 251.988V249C190.213 249 189.319 248.838 188.611 248.514C187.915 248.178 187.387 247.71 187.027 247.11C186.679 246.51 186.481 245.808 186.433 245.004C186.409 244.548 186.409 244.092 186.433 243.636C186.481 242.832 186.685 242.13 187.045 241.53C187.417 240.93 187.957 240.468 188.665 240.144C189.373 239.808 190.249 239.64 191.293 239.64V236.652C191.293 236.532 191.329 236.43 191.401 236.346C191.485 236.262 191.593 236.22 191.725 236.22H193.201C193.333 236.22 193.435 236.262 193.507 236.346C193.591 236.43 193.633 236.532 193.633 236.652V239.64C194.689 239.64 195.565 239.808 196.261 240.144C196.969 240.468 197.503 240.93 197.863 241.53C198.235 242.13 198.439 242.832 198.475 243.636C198.511 244.092 198.511 244.548 198.475 245.004C198.439 245.808 198.241 246.51 197.881 247.11C197.533 247.71 197.005 248.178 196.297 248.514C195.601 248.838 194.713 249 193.633 249V251.988C193.633 252.108 193.591 252.21 193.507 252.294C193.435 252.378 193.333 252.42 193.201 252.42H191.725ZM191.293 247.218V241.422C190.465 241.422 189.847 241.62 189.439 242.016C189.043 242.412 188.827 243.006 188.791 243.798C188.779 243.966 188.773 244.146 188.773 244.338C188.773 244.518 188.779 244.686 188.791 244.842C188.839 245.646 189.061 246.246 189.457 246.642C189.853 247.026 190.465 247.218 191.293 247.218ZM193.633 247.218C194.473 247.218 195.091 247.02 195.487 246.624C195.883 246.228 196.099 245.634 196.135 244.842C196.147 244.686 196.153 244.518 196.153 244.338C196.153 244.146 196.147 243.966 196.135 243.798C196.111 242.994 195.889 242.4 195.469 242.016C195.061 241.62 194.449 241.422 193.633 241.422V247.218ZM204.644 249.18C203.684 249.18 202.874 249.012 202.214 248.676C201.566 248.34 201.068 247.866 200.72 247.254C200.384 246.642 200.192 245.928 200.144 245.112C200.132 244.896 200.126 244.632 200.126 244.32C200.126 244.008 200.132 243.744 200.144 243.528C200.192 242.7 200.39 241.986 200.738 241.386C201.098 240.774 201.602 240.3 202.25 239.964C202.91 239.628 203.708 239.46 204.644 239.46C205.58 239.46 206.372 239.628 207.02 239.964C207.68 240.3 208.184 240.774 208.532 241.386C208.892 241.986 209.096 242.7 209.144 243.528C209.156 243.744 209.162 244.008 209.162 244.32C209.162 244.632 209.156 244.896 209.144 245.112C209.096 245.928 208.898 246.642 208.55 247.254C208.214 247.866 207.716 248.34 207.056 248.676C206.408 249.012 205.604 249.18 204.644 249.18ZM204.644 247.398C205.28 247.398 205.772 247.2 206.12 246.804C206.468 246.396 206.66 245.802 206.696 245.022C206.708 244.842 206.714 244.608 206.714 244.32C206.714 244.032 206.708 243.798 206.696 243.618C206.66 242.838 206.468 242.25 206.12 241.854C205.772 241.446 205.28 241.242 204.644 241.242C204.008 241.242 203.516 241.446 203.168 241.854C202.82 242.25 202.628 242.838 202.592 243.618C202.58 243.798 202.574 244.032 202.574 244.32C202.574 244.608 202.58 244.842 202.592 245.022C202.628 245.802 202.82 246.396 203.168 246.804C203.516 247.2 204.008 247.398 204.644 247.398ZM211.607 252.42C211.487 252.42 211.385 252.378 211.301 252.294C211.217 252.21 211.175 252.108 211.175 251.988V240.072C211.175 239.952 211.217 239.85 211.301 239.766C211.385 239.682 211.487 239.64 211.607 239.64H213.029C213.161 239.64 213.263 239.682 213.335 239.766C213.419 239.85 213.461 239.952 213.461 240.072V240.792C213.749 240.408 214.127 240.09 214.595 239.838C215.063 239.586 215.645 239.46 216.341 239.46C216.977 239.46 217.529 239.562 217.997 239.766C218.465 239.97 218.855 240.264 219.167 240.648C219.479 241.02 219.719 241.464 219.887 241.98C220.055 242.496 220.151 243.066 220.175 243.69C220.187 243.894 220.193 244.104 220.193 244.32C220.193 244.536 220.187 244.752 220.175 244.968C220.163 245.568 220.073 246.126 219.905 246.642C219.737 247.146 219.491 247.59 219.167 247.974C218.855 248.346 218.465 248.64 217.997 248.856C217.529 249.072 216.977 249.18 216.341 249.18C215.693 249.18 215.141 249.066 214.685 248.838C214.229 248.598 213.857 248.286 213.569 247.902V251.988C213.569 252.108 213.527 252.21 213.443 252.294C213.371 252.378 213.269 252.42 213.137 252.42H211.607ZM215.675 247.254C216.191 247.254 216.593 247.146 216.881 246.93C217.169 246.702 217.379 246.408 217.511 246.048C217.643 245.688 217.721 245.292 217.745 244.86C217.757 244.5 217.757 244.14 217.745 243.78C217.721 243.348 217.643 242.952 217.511 242.592C217.379 242.232 217.169 241.944 216.881 241.728C216.593 241.5 216.191 241.386 215.675 241.386C215.183 241.386 214.781 241.5 214.469 241.728C214.169 241.956 213.947 242.25 213.803 242.61C213.671 242.958 213.593 243.318 213.569 243.69C213.557 243.906 213.551 244.134 213.551 244.374C213.551 244.614 213.557 244.848 213.569 245.076C213.581 245.436 213.665 245.784 213.821 246.12C213.977 246.444 214.205 246.714 214.505 246.93C214.805 247.146 215.195 247.254 215.675 247.254ZM222.609 249C222.489 249 222.393 248.964 222.321 248.892C222.249 248.82 222.213 248.73 222.213 248.622V239.982C222.213 239.886 222.249 239.808 222.321 239.748C222.405 239.676 222.489 239.64 222.573 239.64H224.085C224.289 239.64 224.445 239.742 224.553 239.946L227.325 244.986L230.097 239.946C230.205 239.742 230.361 239.64 230.565 239.64H232.059C232.167 239.64 232.257 239.676 232.329 239.748C232.401 239.808 232.437 239.886 232.437 239.982V248.622C232.437 248.73 232.401 248.82 232.329 248.892C232.257 248.964 232.161 249 232.041 249H230.493C230.373 249 230.277 248.964 230.205 248.892C230.145 248.82 230.115 248.73 230.115 248.622V242.088L230.853 242.214L228.189 247.128C228.129 247.236 228.057 247.338 227.973 247.434C227.889 247.518 227.769 247.56 227.613 247.56H227.019C226.875 247.56 226.761 247.518 226.677 247.434C226.593 247.35 226.521 247.248 226.461 247.128L223.851 242.412L224.535 242.304V248.622C224.535 248.73 224.499 248.82 224.427 248.892C224.355 248.964 224.265 249 224.157 249H222.609ZM237.588 249.18C236.964 249.18 236.4 249.06 235.896 248.82C235.392 248.568 234.99 248.238 234.69 247.83C234.402 247.41 234.258 246.942 234.258 246.426C234.258 245.586 234.6 244.92 235.284 244.428C235.968 243.924 236.862 243.588 237.966 243.42L240.432 243.06V242.682C240.432 242.178 240.306 241.788 240.054 241.512C239.802 241.236 239.37 241.098 238.758 241.098C238.326 241.098 237.972 241.188 237.696 241.368C237.432 241.536 237.234 241.764 237.102 242.052C237.006 242.208 236.868 242.286 236.688 242.286H235.266C235.134 242.286 235.032 242.25 234.96 242.178C234.9 242.106 234.87 242.01 234.87 241.89C234.882 241.698 234.96 241.464 235.104 241.188C235.26 240.912 235.488 240.648 235.788 240.396C236.1 240.132 236.502 239.91 236.994 239.73C237.486 239.55 238.08 239.46 238.776 239.46C239.532 239.46 240.168 239.556 240.684 239.748C241.212 239.928 241.632 240.174 241.944 240.486C242.256 240.798 242.484 241.164 242.628 241.584C242.772 242.004 242.844 242.448 242.844 242.916V248.568C242.844 248.688 242.802 248.79 242.718 248.874C242.634 248.958 242.532 249 242.412 249H240.954C240.822 249 240.714 248.958 240.63 248.874C240.558 248.79 240.522 248.688 240.522 248.568V247.866C240.366 248.082 240.156 248.292 239.892 248.496C239.628 248.7 239.304 248.868 238.92 249C238.548 249.12 238.104 249.18 237.588 249.18ZM238.2 247.47C238.62 247.47 238.998 247.38 239.334 247.2C239.682 247.02 239.952 246.744 240.144 246.372C240.348 245.988 240.45 245.508 240.45 244.932V244.554L238.65 244.842C237.942 244.95 237.414 245.124 237.066 245.364C236.718 245.604 236.544 245.898 236.544 246.246C236.544 246.51 236.622 246.738 236.778 246.93C236.946 247.11 237.156 247.248 237.408 247.344C237.66 247.428 237.924 247.47 238.2 247.47ZM253.037 251.196C252.917 251.196 252.815 251.154 252.731 251.07C252.647 250.986 252.605 250.884 252.605 250.764V249H245.585C245.465 249 245.363 248.958 245.279 248.874C245.195 248.79 245.153 248.688 245.153 248.568V240.072C245.153 239.952 245.195 239.85 245.279 239.766C245.363 239.682 245.465 239.64 245.585 239.64H247.079C247.211 239.64 247.313 239.682 247.385 239.766C247.469 239.85 247.511 239.952 247.511 240.072V247.092H251.363V240.072C251.363 239.952 251.405 239.85 251.489 239.766C251.573 239.682 251.675 239.64 251.795 239.64H253.289C253.421 239.64 253.523 239.682 253.595 239.766C253.679 239.85 253.721 239.952 253.721 240.072V247.092H254.531C254.651 247.092 254.753 247.134 254.837 247.218C254.921 247.302 254.963 247.404 254.963 247.524V250.764C254.963 250.884 254.921 250.986 254.837 251.07C254.753 251.154 254.651 251.196 254.531 251.196H253.037ZM257.028 249C256.92 249 256.824 248.958 256.74 248.874C256.656 248.79 256.614 248.694 256.614 248.586V240.072C256.614 239.952 256.656 239.85 256.74 239.766C256.824 239.682 256.926 239.64 257.046 239.64H258.54C258.672 239.64 258.774 239.682 258.846 239.766C258.93 239.85 258.972 239.952 258.972 240.072V247.182L258.342 246.732L263.292 239.928C263.352 239.844 263.418 239.778 263.49 239.73C263.562 239.67 263.658 239.64 263.778 239.64H265.146C265.254 239.64 265.35 239.682 265.434 239.766C265.518 239.838 265.56 239.928 265.56 240.036V248.568C265.56 248.688 265.518 248.79 265.434 248.874C265.35 248.958 265.248 249 265.128 249H263.634C263.502 249 263.394 248.958 263.31 248.874C263.238 248.79 263.202 248.688 263.202 248.568V241.782L263.868 241.872L258.882 248.712C258.834 248.784 258.768 248.85 258.684 248.91C258.612 248.97 258.516 249 258.396 249H257.028ZM273.013 245.184H270.187V248.568C270.187 248.688 270.145 248.79 270.061 248.874C269.989 248.958 269.887 249 269.755 249H268.261C268.141 249 268.039 248.958 267.955 248.874C267.871 248.79 267.829 248.688 267.829 248.568V240.072C267.829 239.952 267.871 239.85 267.955 239.766C268.039 239.682 268.141 239.64 268.261 239.64H269.755C269.887 239.64 269.989 239.682 270.061 239.766C270.145 239.85 270.187 239.952 270.187 240.072V243.294H273.013V245.184ZM276.325 249.18C275.365 249.18 274.555 249.012 273.895 248.676C273.247 248.34 272.749 247.866 272.401 247.254C272.053 246.642 271.861 245.928 271.825 245.112C271.813 244.896 271.807 244.632 271.807 244.32C271.807 244.008 271.813 243.744 271.825 243.528C271.861 242.7 272.059 241.986 272.419 241.386C272.779 240.774 273.283 240.3 273.931 239.964C274.591 239.628 275.389 239.46 276.325 239.46C277.261 239.46 278.053 239.628 278.701 239.964C279.361 240.3 279.865 240.774 280.213 241.386C280.573 241.986 280.771 242.7 280.807 243.528C280.831 243.744 280.843 244.008 280.843 244.32C280.843 244.632 280.831 244.896 280.807 245.112C280.771 245.928 280.579 246.642 280.231 247.254C279.895 247.866 279.397 248.34 278.737 248.676C278.089 249.012 277.285 249.18 276.325 249.18ZM276.325 247.398C276.961 247.398 277.453 247.2 277.801 246.804C278.149 246.396 278.341 245.802 278.377 245.022C278.389 244.842 278.395 244.608 278.395 244.32C278.395 244.032 278.389 243.798 278.377 243.618C278.341 242.838 278.149 242.25 277.801 241.854C277.453 241.446 276.961 241.242 276.325 241.242C275.689 241.242 275.191 241.446 274.831 241.854C274.483 242.25 274.297 242.838 274.273 243.618C274.261 243.798 274.255 244.032 274.255 244.32C274.255 244.608 274.261 244.842 274.273 245.022C274.297 245.802 274.483 246.396 274.831 246.804C275.191 247.2 275.689 247.398 276.325 247.398ZM87.328 270.18C86.368 270.18 85.558 270.012 84.898 269.676C84.25 269.34 83.752 268.866 83.404 268.254C83.068 267.642 82.876 266.928 82.828 266.112C82.816 265.896 82.81 265.632 82.81 265.32C82.81 265.008 82.816 264.744 82.828 264.528C82.876 263.7 83.074 262.986 83.422 262.386C83.782 261.774 84.286 261.3 84.934 260.964C85.594 260.628 86.392 260.46 87.328 260.46C88.264 260.46 89.056 260.628 89.704 260.964C90.364 261.3 90.868 261.774 91.216 262.386C91.576 262.986 91.78 263.7 91.828 264.528C91.84 264.744 91.846 265.008 91.846 265.32C91.846 265.632 91.84 265.896 91.828 266.112C91.78 266.928 91.582 267.642 91.234 268.254C90.898 268.866 90.4 269.34 89.74 269.676C89.092 270.012 88.288 270.18 87.328 270.18ZM87.328 268.398C87.964 268.398 88.456 268.2 88.804 267.804C89.152 267.396 89.344 266.802 89.38 266.022C89.392 265.842 89.398 265.608 89.398 265.32C89.398 265.032 89.392 264.798 89.38 264.618C89.344 263.838 89.152 263.25 88.804 262.854C88.456 262.446 87.964 262.242 87.328 262.242C86.692 262.242 86.2 262.446 85.852 262.854C85.504 263.25 85.312 263.838 85.276 264.618C85.264 264.798 85.258 265.032 85.258 265.32C85.258 265.608 85.264 265.842 85.276 266.022C85.312 266.802 85.504 267.396 85.852 267.804C86.2 268.2 86.692 268.398 87.328 268.398ZM102.004 270.18C101.14 270.18 100.378 270.018 99.7176 269.694C99.0696 269.37 98.5596 268.902 98.1876 268.29C97.8276 267.666 97.6296 266.916 97.5936 266.04C97.5816 265.86 97.5756 265.626 97.5756 265.338C97.5756 265.038 97.5816 264.792 97.5936 264.6C97.6296 263.724 97.8276 262.98 98.1876 262.368C98.5596 261.744 99.0696 261.27 99.7176 260.946C100.378 260.622 101.14 260.46 102.004 260.46C102.772 260.46 103.426 260.568 103.966 260.784C104.506 260.988 104.95 261.258 105.298 261.594C105.646 261.918 105.904 262.26 106.072 262.62C106.252 262.968 106.348 263.286 106.36 263.574C106.372 263.706 106.33 263.814 106.234 263.898C106.15 263.97 106.048 264.006 105.928 264.006H104.344C104.224 264.006 104.128 263.976 104.056 263.916C103.996 263.856 103.936 263.766 103.876 263.646C103.696 263.166 103.456 262.83 103.156 262.638C102.868 262.434 102.496 262.332 102.04 262.332C101.44 262.332 100.96 262.524 100.6 262.908C100.252 263.28 100.066 263.874 100.042 264.69C100.018 265.146 100.018 265.566 100.042 265.95C100.066 266.778 100.252 267.378 100.6 267.75C100.96 268.122 101.44 268.308 102.04 268.308C102.508 268.308 102.886 268.212 103.174 268.02C103.462 267.816 103.696 267.474 103.876 266.994C103.936 266.874 103.996 266.784 104.056 266.724C104.128 266.664 104.224 266.634 104.344 266.634H105.928C106.048 266.634 106.15 266.676 106.234 266.76C106.33 266.832 106.372 266.934 106.36 267.066C106.348 267.282 106.288 267.528 106.18 267.804C106.084 268.068 105.922 268.344 105.694 268.632C105.478 268.908 105.202 269.166 104.866 269.406C104.53 269.634 104.122 269.82 103.642 269.964C103.174 270.108 102.628 270.18 102.004 270.18ZM112.269 270.18C110.937 270.18 109.881 269.796 109.101 269.028C108.321 268.26 107.901 267.168 107.841 265.752C107.829 265.632 107.823 265.482 107.823 265.302C107.823 265.11 107.829 264.96 107.841 264.852C107.889 263.94 108.093 263.16 108.453 262.512C108.825 261.852 109.335 261.348 109.983 261C110.631 260.64 111.393 260.46 112.269 260.46C113.241 260.46 114.057 260.664 114.717 261.072C115.377 261.468 115.875 262.026 116.211 262.746C116.547 263.454 116.715 264.276 116.715 265.212V265.59C116.715 265.71 116.673 265.812 116.589 265.896C116.505 265.98 116.397 266.022 116.265 266.022H110.289C110.289 266.022 110.289 266.04 110.289 266.076C110.289 266.112 110.289 266.142 110.289 266.166C110.301 266.586 110.379 266.976 110.523 267.336C110.679 267.684 110.901 267.966 111.189 268.182C111.489 268.398 111.843 268.506 112.251 268.506C112.587 268.506 112.869 268.458 113.097 268.362C113.325 268.254 113.511 268.134 113.655 268.002C113.799 267.87 113.901 267.762 113.961 267.678C114.069 267.534 114.153 267.45 114.213 267.426C114.285 267.39 114.387 267.372 114.519 267.372H116.067C116.187 267.372 116.283 267.408 116.355 267.48C116.439 267.552 116.475 267.642 116.463 267.75C116.451 267.942 116.349 268.176 116.157 268.452C115.977 268.728 115.713 268.998 115.365 269.262C115.017 269.526 114.579 269.748 114.051 269.928C113.535 270.096 112.941 270.18 112.269 270.18ZM110.289 264.51H114.267V264.456C114.267 263.988 114.189 263.58 114.033 263.232C113.877 262.872 113.649 262.596 113.349 262.404C113.049 262.2 112.689 262.098 112.269 262.098C111.849 262.098 111.489 262.2 111.189 262.404C110.889 262.596 110.661 262.872 110.505 263.232C110.361 263.58 110.289 263.988 110.289 264.456V264.51ZM122.856 270.18C121.86 270.18 121.032 270.006 120.372 269.658C119.724 269.298 119.238 268.776 118.914 268.092C118.59 267.408 118.404 266.574 118.356 265.59C118.356 265.242 118.356 264.882 118.356 264.51C118.356 264.138 118.356 263.778 118.356 263.43C118.38 262.374 118.482 261.498 118.662 260.802C118.854 260.094 119.136 259.512 119.508 259.056C119.88 258.588 120.36 258.204 120.948 257.904C121.536 257.592 122.232 257.322 123.036 257.094C123.84 256.866 124.77 256.626 125.826 256.374C125.946 256.35 126.054 256.368 126.15 256.428C126.258 256.488 126.318 256.584 126.33 256.716L126.564 257.904C126.588 258.024 126.57 258.132 126.51 258.228C126.45 258.312 126.366 258.366 126.258 258.39C125.346 258.594 124.56 258.78 123.9 258.948C123.24 259.104 122.694 259.284 122.262 259.488C121.83 259.692 121.488 259.962 121.236 260.298C120.996 260.622 120.828 261.048 120.732 261.576C120.636 262.104 120.606 262.782 120.642 263.61L120.228 263.268C120.3 262.896 120.486 262.554 120.786 262.242C121.086 261.93 121.452 261.684 121.884 261.504C122.328 261.312 122.796 261.216 123.288 261.216C124.152 261.216 124.878 261.378 125.466 261.702C126.054 262.026 126.504 262.482 126.816 263.07C127.14 263.646 127.32 264.324 127.355 265.104C127.38 265.536 127.38 265.932 127.355 266.292C127.32 267.06 127.128 267.738 126.78 268.326C126.432 268.914 125.934 269.37 125.286 269.694C124.638 270.018 123.828 270.18 122.856 270.18ZM122.856 268.524C123.504 268.524 124.002 268.326 124.35 267.93C124.698 267.534 124.884 266.958 124.908 266.202C124.92 266.07 124.926 265.914 124.926 265.734C124.926 265.542 124.92 265.362 124.908 265.194C124.884 264.438 124.698 263.862 124.35 263.466C124.014 263.07 123.564 262.872 123 262.872C122.352 262.872 121.83 263.07 121.434 263.466C121.05 263.862 120.846 264.438 120.822 265.194C120.81 265.362 120.804 265.542 120.804 265.734C120.804 265.914 120.81 266.07 120.822 266.202C120.846 266.958 121.032 267.534 121.38 267.93C121.728 268.326 122.22 268.524 122.856 268.524ZM133.398 270.18C132.066 270.18 131.01 269.796 130.23 269.028C129.45 268.26 129.03 267.168 128.97 265.752C128.958 265.632 128.952 265.482 128.952 265.302C128.952 265.11 128.958 264.96 128.97 264.852C129.018 263.94 129.222 263.16 129.582 262.512C129.954 261.852 130.464 261.348 131.112 261C131.76 260.64 132.522 260.46 133.398 260.46C134.37 260.46 135.186 260.664 135.846 261.072C136.506 261.468 137.004 262.026 137.34 262.746C137.676 263.454 137.844 264.276 137.844 265.212V265.59C137.844 265.71 137.802 265.812 137.718 265.896C137.634 265.98 137.526 266.022 137.394 266.022H131.418C131.418 266.022 131.418 266.04 131.418 266.076C131.418 266.112 131.418 266.142 131.418 266.166C131.43 266.586 131.508 266.976 131.652 267.336C131.808 267.684 132.03 267.966 132.318 268.182C132.618 268.398 132.972 268.506 133.38 268.506C133.716 268.506 133.998 268.458 134.226 268.362C134.454 268.254 134.64 268.134 134.784 268.002C134.928 267.87 135.03 267.762 135.09 267.678C135.198 267.534 135.282 267.45 135.342 267.426C135.414 267.39 135.516 267.372 135.648 267.372H137.196C137.316 267.372 137.412 267.408 137.484 267.48C137.568 267.552 137.604 267.642 137.592 267.75C137.58 267.942 137.478 268.176 137.286 268.452C137.106 268.728 136.842 268.998 136.494 269.262C136.146 269.526 135.708 269.748 135.18 269.928C134.664 270.096 134.07 270.18 133.398 270.18ZM131.418 264.51H135.396V264.456C135.396 263.988 135.318 263.58 135.162 263.232C135.006 262.872 134.778 262.596 134.478 262.404C134.178 262.2 133.818 262.098 133.398 262.098C132.978 262.098 132.618 262.2 132.318 262.404C132.018 262.596 131.79 262.872 131.634 263.232C131.49 263.58 131.418 263.988 131.418 264.456V264.51Z" fill="#272727"/>
</svg>
