<svg width="338" height="299" viewBox="0 0 338 299" fill="none" xmlns="http://www.w3.org/2000/svg">
<path opacity="0.3" d="M20.992 283.64C17.9627 283.64 15.3813 283.192 13.248 282.296C11.1147 281.4 9.36533 280.163 8 278.584C6.63467 277.005 5.61067 275.192 4.928 273.144C4.24533 271.053 3.84 268.835 3.712 266.488C3.66933 265.336 3.62667 264.077 3.584 262.712C3.584 261.304 3.584 259.896 3.584 258.488C3.62667 257.08 3.66933 255.779 3.712 254.584C3.79733 252.237 4.20267 250.04 4.928 247.992C5.65333 245.901 6.69867 244.088 8.064 242.552C9.472 241.016 11.2427 239.8 13.376 238.904C15.5093 238.008 18.048 237.56 20.992 237.56C23.9787 237.56 26.5387 238.008 28.672 238.904C30.8053 239.8 32.5547 241.016 33.92 242.552C35.328 244.088 36.3733 245.901 37.056 247.992C37.7813 250.04 38.1867 252.237 38.272 254.584C38.3573 255.779 38.4 257.08 38.4 258.488C38.4 259.896 38.4 261.304 38.4 262.712C38.4 264.077 38.3573 265.336 38.272 266.488C38.1867 268.835 37.8027 271.053 37.12 273.144C36.4373 275.192 35.4133 277.005 34.048 278.584C32.6827 280.163 30.912 281.4 28.736 282.296C26.6027 283.192 24.0213 283.64 20.992 283.64ZM20.992 276.28C23.7653 276.28 25.792 275.384 27.072 273.592C28.3947 271.757 29.0773 269.283 29.12 266.168C29.2053 264.931 29.248 263.693 29.248 262.456C29.248 261.176 29.248 259.896 29.248 258.616C29.248 257.336 29.2053 256.12 29.12 254.968C29.0773 251.939 28.3947 249.507 27.072 247.672C25.792 245.795 23.7653 244.856 20.992 244.856C18.2613 244.856 16.2347 245.795 14.912 247.672C13.632 249.507 12.9493 251.939 12.864 254.968C12.864 256.12 12.8427 257.336 12.8 258.616C12.8 259.896 12.8 261.176 12.8 262.456C12.8427 263.693 12.864 264.931 12.864 266.168C12.9493 269.283 13.6533 271.757 14.976 273.592C16.2987 275.384 18.304 276.28 20.992 276.28ZM67.3425 283C66.9158 283 66.5532 282.851 66.2545 282.552C65.9558 282.253 65.8065 281.891 65.8065 281.464V273.272H45.5185C45.0492 273.272 44.6652 273.123 44.3665 272.824C44.1105 272.525 43.9825 272.163 43.9825 271.736V267.384C43.9825 267.128 44.0252 266.829 44.1105 266.488C44.2385 266.104 44.4305 265.763 44.6865 265.464L63.5665 239.288C64.1212 238.563 64.9105 238.2 65.9345 238.2H72.9105C73.3372 238.2 73.6998 238.349 73.9985 238.648C74.2972 238.947 74.4465 239.309 74.4465 239.736V265.72H80.1425C80.6545 265.72 81.0385 265.869 81.2945 266.168C81.5932 266.424 81.7425 266.787 81.7425 267.256V271.736C81.7425 272.163 81.5932 272.525 81.2945 272.824C80.9958 273.123 80.6332 273.272 80.2065 273.272H74.4465V281.464C74.4465 281.891 74.2972 282.253 73.9985 282.552C73.6998 282.851 73.3372 283 72.9105 283H67.3425ZM52.8785 265.976H65.9985V247.48L52.8785 265.976Z" fill="#7700FF"/>
<path d="M96.268 257C96.148 257 96.046 256.958 95.962 256.874C95.878 256.79 95.836 256.688 95.836 256.568V255.236C95.836 255.104 95.878 254.996 95.962 254.912C96.046 254.828 96.148 254.786 96.268 254.786H96.934C97.282 254.786 97.582 254.714 97.834 254.57C98.086 254.414 98.32 254.174 98.536 253.85C98.752 253.514 98.968 253.088 99.184 252.572L102.622 244.742C102.67 244.622 102.736 244.538 102.82 244.49C102.904 244.43 103 244.4 103.108 244.4H104.782C104.878 244.4 104.962 244.436 105.034 244.508C105.118 244.58 105.16 244.664 105.16 244.76C105.16 244.82 105.154 244.874 105.142 244.922C105.13 244.97 105.112 245.018 105.088 245.066L101.47 253.328C101.17 253.988 100.888 254.552 100.624 255.02C100.36 255.476 100.072 255.854 99.76 256.154C99.448 256.442 99.076 256.658 98.644 256.802C98.224 256.934 97.714 257 97.114 257H96.268ZM99.058 253.85L94.252 244.976C94.216 244.904 94.198 244.844 94.198 244.796C94.198 244.688 94.24 244.598 94.324 244.526C94.408 244.442 94.498 244.4 94.594 244.4H96.358C96.466 244.4 96.556 244.43 96.628 244.49C96.712 244.538 96.778 244.622 96.826 244.742L100.372 251.366L99.058 253.85ZM109.933 257.18C109.165 257.18 108.517 257.09 107.989 256.91C107.473 256.73 107.059 256.502 106.747 256.226C106.447 255.95 106.225 255.662 106.081 255.362C105.949 255.05 105.877 254.768 105.865 254.516C105.853 254.408 105.883 254.324 105.955 254.264C106.027 254.204 106.105 254.174 106.189 254.174H107.665C107.785 254.174 107.875 254.198 107.935 254.246C108.007 254.294 108.067 254.372 108.115 254.48C108.235 254.84 108.457 255.092 108.781 255.236C109.117 255.38 109.531 255.452 110.023 255.452C110.359 255.452 110.659 255.41 110.923 255.326C111.187 255.23 111.391 255.092 111.535 254.912C111.679 254.72 111.751 254.486 111.751 254.21C111.751 253.814 111.637 253.514 111.409 253.31C111.181 253.094 110.809 252.986 110.293 252.986H109.303C109.183 252.986 109.087 252.95 109.015 252.878C108.943 252.806 108.907 252.71 108.907 252.59V251.834C108.907 251.726 108.943 251.636 109.015 251.564C109.087 251.48 109.183 251.438 109.303 251.438H110.221C110.653 251.438 110.977 251.36 111.193 251.204C111.409 251.036 111.517 250.778 111.517 250.43C111.517 250.226 111.463 250.034 111.355 249.854C111.259 249.662 111.097 249.506 110.869 249.386C110.641 249.266 110.323 249.206 109.915 249.206C109.351 249.206 108.949 249.296 108.709 249.476C108.469 249.656 108.295 249.926 108.187 250.286C108.139 250.394 108.079 250.472 108.007 250.52C107.947 250.568 107.851 250.592 107.719 250.592H106.297C106.201 250.592 106.117 250.562 106.045 250.502C105.985 250.442 105.955 250.358 105.955 250.25C105.979 249.926 106.063 249.602 106.207 249.278C106.363 248.942 106.597 248.636 106.909 248.36C107.233 248.084 107.641 247.868 108.133 247.712C108.625 247.544 109.225 247.46 109.933 247.46C110.893 247.46 111.655 247.592 112.219 247.856C112.783 248.12 113.185 248.456 113.425 248.864C113.677 249.26 113.803 249.674 113.803 250.106C113.803 250.55 113.719 250.934 113.551 251.258C113.395 251.582 113.101 251.846 112.669 252.05C113.209 252.254 113.581 252.566 113.785 252.986C113.989 253.406 114.097 253.868 114.109 254.372C114.109 254.972 113.935 255.482 113.587 255.902C113.239 256.31 112.753 256.628 112.129 256.856C111.505 257.072 110.773 257.18 109.933 257.18ZM116.397 257C116.277 257 116.175 256.958 116.091 256.874C116.007 256.79 115.965 256.688 115.965 256.568V248.072C115.965 247.952 116.007 247.85 116.091 247.766C116.175 247.682 116.277 247.64 116.397 247.64H117.891C118.023 247.64 118.125 247.682 118.197 247.766C118.281 247.85 118.323 247.952 118.323 248.072V251.294H122.391V248.072C122.391 247.952 122.433 247.85 122.517 247.766C122.601 247.682 122.703 247.64 122.823 247.64H124.317C124.437 247.64 124.539 247.682 124.623 247.766C124.707 247.85 124.749 247.952 124.749 248.072V256.568C124.749 256.688 124.707 256.79 124.623 256.874C124.539 256.958 124.437 257 124.317 257H122.823C122.703 257 122.601 256.958 122.517 256.874C122.433 256.79 122.391 256.688 122.391 256.568V253.184H118.323V256.568C118.323 256.688 118.281 256.79 118.197 256.874C118.125 256.958 118.023 257 117.891 257H116.397ZM129.898 257.18C129.274 257.18 128.71 257.06 128.206 256.82C127.702 256.568 127.3 256.238 127 255.83C126.712 255.41 126.568 254.942 126.568 254.426C126.568 253.586 126.91 252.92 127.594 252.428C128.278 251.924 129.172 251.588 130.276 251.42L132.742 251.06V250.682C132.742 250.178 132.616 249.788 132.364 249.512C132.112 249.236 131.68 249.098 131.068 249.098C130.636 249.098 130.282 249.188 130.006 249.368C129.742 249.536 129.544 249.764 129.412 250.052C129.316 250.208 129.178 250.286 128.998 250.286H127.576C127.444 250.286 127.342 250.25 127.27 250.178C127.21 250.106 127.18 250.01 127.18 249.89C127.192 249.698 127.27 249.464 127.414 249.188C127.57 248.912 127.798 248.648 128.098 248.396C128.41 248.132 128.812 247.91 129.304 247.73C129.796 247.55 130.39 247.46 131.086 247.46C131.842 247.46 132.478 247.556 132.994 247.748C133.522 247.928 133.942 248.174 134.254 248.486C134.566 248.798 134.794 249.164 134.938 249.584C135.082 250.004 135.154 250.448 135.154 250.916V256.568C135.154 256.688 135.112 256.79 135.028 256.874C134.944 256.958 134.842 257 134.722 257H133.264C133.132 257 133.024 256.958 132.94 256.874C132.868 256.79 132.832 256.688 132.832 256.568V255.866C132.676 256.082 132.466 256.292 132.202 256.496C131.938 256.7 131.614 256.868 131.23 257C130.858 257.12 130.414 257.18 129.898 257.18ZM130.51 255.47C130.93 255.47 131.308 255.38 131.644 255.2C131.992 255.02 132.262 254.744 132.454 254.372C132.658 253.988 132.76 253.508 132.76 252.932V252.554L130.96 252.842C130.252 252.95 129.724 253.124 129.376 253.364C129.028 253.604 128.854 253.898 128.854 254.246C128.854 254.51 128.932 254.738 129.088 254.93C129.256 255.11 129.466 255.248 129.718 255.344C129.97 255.428 130.234 255.47 130.51 255.47ZM137.877 257C137.769 257 137.673 256.958 137.589 256.874C137.505 256.79 137.463 256.694 137.463 256.586V248.072C137.463 247.952 137.505 247.85 137.589 247.766C137.673 247.682 137.775 247.64 137.895 247.64H139.389C139.521 247.64 139.623 247.682 139.695 247.766C139.779 247.85 139.821 247.952 139.821 248.072V255.182L139.191 254.732L144.141 247.928C144.201 247.844 144.267 247.778 144.339 247.73C144.411 247.67 144.507 247.64 144.627 247.64H145.995C146.103 247.64 146.199 247.682 146.283 247.766C146.367 247.838 146.409 247.928 146.409 248.036V256.568C146.409 256.688 146.367 256.79 146.283 256.874C146.199 256.958 146.097 257 145.977 257H144.483C144.351 257 144.243 256.958 144.159 256.874C144.087 256.79 144.051 256.688 144.051 256.568V249.782L144.717 249.872L139.731 256.712C139.683 256.784 139.617 256.85 139.533 256.91C139.461 256.97 139.365 257 139.245 257H137.877ZM142.035 246.416C141.315 246.416 140.739 246.302 140.307 246.074C139.875 245.846 139.563 245.552 139.371 245.192C139.191 244.82 139.101 244.424 139.101 244.004C139.101 243.908 139.131 243.83 139.191 243.77C139.251 243.698 139.335 243.662 139.443 243.662H140.469C140.577 243.662 140.661 243.698 140.721 243.77C140.781 243.83 140.811 243.908 140.811 244.004C140.811 244.268 140.895 244.508 141.063 244.724C141.231 244.928 141.555 245.03 142.035 245.03C142.539 245.03 142.869 244.928 143.025 244.724C143.181 244.508 143.259 244.268 143.259 244.004C143.259 243.908 143.289 243.83 143.349 243.77C143.409 243.698 143.493 243.662 143.601 243.662H144.645C144.753 243.662 144.837 243.698 144.897 243.77C144.957 243.83 144.987 243.908 144.987 244.004C144.987 244.424 144.891 244.82 144.699 245.192C144.507 245.552 144.195 245.846 143.763 246.074C143.343 246.302 142.767 246.416 142.035 246.416ZM151.54 257C151.408 257 151.3 256.958 151.216 256.874C151.144 256.79 151.108 256.688 151.108 256.568V249.548H148.174C148.042 249.548 147.934 249.506 147.85 249.422C147.778 249.338 147.742 249.23 147.742 249.098V248.072C147.742 247.952 147.778 247.85 147.85 247.766C147.934 247.682 148.042 247.64 148.174 247.64H156.346C156.478 247.64 156.586 247.682 156.67 247.766C156.754 247.85 156.796 247.952 156.796 248.072V249.098C156.796 249.23 156.754 249.338 156.67 249.422C156.586 249.506 156.478 249.548 156.346 249.548H153.43V256.568C153.43 256.688 153.388 256.79 153.304 256.874C153.22 256.958 153.118 257 152.998 257H151.54ZM162.255 257.18C160.923 257.18 159.867 256.796 159.087 256.028C158.307 255.26 157.887 254.168 157.827 252.752C157.815 252.632 157.809 252.482 157.809 252.302C157.809 252.11 157.815 251.96 157.827 251.852C157.875 250.94 158.079 250.16 158.439 249.512C158.811 248.852 159.321 248.348 159.969 248C160.617 247.64 161.379 247.46 162.255 247.46C163.227 247.46 164.043 247.664 164.703 248.072C165.363 248.468 165.861 249.026 166.197 249.746C166.533 250.454 166.701 251.276 166.701 252.212V252.59C166.701 252.71 166.659 252.812 166.575 252.896C166.491 252.98 166.383 253.022 166.251 253.022H160.275C160.275 253.022 160.275 253.04 160.275 253.076C160.275 253.112 160.275 253.142 160.275 253.166C160.287 253.586 160.365 253.976 160.509 254.336C160.665 254.684 160.887 254.966 161.175 255.182C161.475 255.398 161.829 255.506 162.237 255.506C162.573 255.506 162.855 255.458 163.083 255.362C163.311 255.254 163.497 255.134 163.641 255.002C163.785 254.87 163.887 254.762 163.947 254.678C164.055 254.534 164.139 254.45 164.199 254.426C164.271 254.39 164.373 254.372 164.505 254.372H166.053C166.173 254.372 166.269 254.408 166.341 254.48C166.425 254.552 166.461 254.642 166.449 254.75C166.437 254.942 166.335 255.176 166.143 255.452C165.963 255.728 165.699 255.998 165.351 256.262C165.003 256.526 164.565 256.748 164.037 256.928C163.521 257.096 162.927 257.18 162.255 257.18ZM160.275 251.51H164.253V251.456C164.253 250.988 164.175 250.58 164.019 250.232C163.863 249.872 163.635 249.596 163.335 249.404C163.035 249.2 162.675 249.098 162.255 249.098C161.835 249.098 161.475 249.2 161.175 249.404C160.875 249.596 160.647 249.872 160.491 250.232C160.347 250.58 160.275 250.988 160.275 251.456V251.51ZM168.504 258.35C168.396 258.35 168.312 258.314 168.252 258.242C168.192 258.17 168.168 258.08 168.18 257.972L168.666 254.912C168.69 254.756 168.744 254.624 168.828 254.516C168.924 254.396 169.062 254.336 169.242 254.336H170.898C170.994 254.336 171.072 254.372 171.132 254.444C171.192 254.504 171.222 254.582 171.222 254.678C171.222 254.762 171.204 254.84 171.168 254.912L170.016 257.9C169.968 258.02 169.896 258.122 169.8 258.206C169.716 258.302 169.59 258.35 169.422 258.35H168.504ZM177.903 257C177.783 257 177.681 256.958 177.597 256.874C177.513 256.79 177.471 256.688 177.471 256.568V248.072C177.471 247.952 177.513 247.85 177.597 247.766C177.681 247.682 177.783 247.64 177.903 247.64H179.379C179.499 247.64 179.601 247.682 179.685 247.766C179.769 247.85 179.811 247.952 179.811 248.072V251.294H181.107L183.303 247.928C183.351 247.844 183.411 247.778 183.483 247.73C183.567 247.67 183.675 247.64 183.807 247.64H185.409C185.529 247.64 185.625 247.67 185.697 247.73C185.769 247.79 185.805 247.868 185.805 247.964C185.805 248 185.793 248.042 185.769 248.09C185.757 248.126 185.739 248.162 185.715 248.198L183.123 252.14L186.093 256.442C186.153 256.514 186.183 256.592 186.183 256.676C186.183 256.772 186.147 256.85 186.075 256.91C186.003 256.97 185.913 257 185.805 257H183.987C183.867 257 183.765 256.976 183.681 256.928C183.609 256.88 183.543 256.814 183.483 256.73L181.107 253.202H179.811V256.568C179.811 256.688 179.769 256.79 179.685 256.874C179.601 256.958 179.499 257 179.379 257H177.903ZM190.472 257.18C189.848 257.18 189.284 257.06 188.78 256.82C188.276 256.568 187.874 256.238 187.574 255.83C187.286 255.41 187.142 254.942 187.142 254.426C187.142 253.586 187.484 252.92 188.168 252.428C188.852 251.924 189.746 251.588 190.85 251.42L193.316 251.06V250.682C193.316 250.178 193.19 249.788 192.938 249.512C192.686 249.236 192.254 249.098 191.642 249.098C191.21 249.098 190.856 249.188 190.58 249.368C190.316 249.536 190.118 249.764 189.986 250.052C189.89 250.208 189.752 250.286 189.572 250.286H188.15C188.018 250.286 187.916 250.25 187.844 250.178C187.784 250.106 187.754 250.01 187.754 249.89C187.766 249.698 187.844 249.464 187.988 249.188C188.144 248.912 188.372 248.648 188.672 248.396C188.984 248.132 189.386 247.91 189.878 247.73C190.37 247.55 190.964 247.46 191.66 247.46C192.416 247.46 193.052 247.556 193.568 247.748C194.096 247.928 194.516 248.174 194.828 248.486C195.14 248.798 195.368 249.164 195.512 249.584C195.656 250.004 195.728 250.448 195.728 250.916V256.568C195.728 256.688 195.686 256.79 195.602 256.874C195.518 256.958 195.416 257 195.296 257H193.838C193.706 257 193.598 256.958 193.514 256.874C193.442 256.79 193.406 256.688 193.406 256.568V255.866C193.25 256.082 193.04 256.292 192.776 256.496C192.512 256.7 192.188 256.868 191.804 257C191.432 257.12 190.988 257.18 190.472 257.18ZM191.084 255.47C191.504 255.47 191.882 255.38 192.218 255.2C192.566 255.02 192.836 254.744 193.028 254.372C193.232 253.988 193.334 253.508 193.334 252.932V252.554L191.534 252.842C190.826 252.95 190.298 253.124 189.95 253.364C189.602 253.604 189.428 253.898 189.428 254.246C189.428 254.51 189.506 254.738 189.662 254.93C189.83 255.11 190.04 255.248 190.292 255.344C190.544 255.428 190.808 255.47 191.084 255.47ZM198.47 257C198.35 257 198.248 256.958 198.164 256.874C198.08 256.79 198.038 256.688 198.038 256.568V248.072C198.038 247.952 198.08 247.85 198.164 247.766C198.248 247.682 198.35 247.64 198.47 247.64H199.946C200.066 247.64 200.168 247.682 200.252 247.766C200.336 247.85 200.378 247.952 200.378 248.072V251.294H201.674L203.87 247.928C203.918 247.844 203.978 247.778 204.05 247.73C204.134 247.67 204.242 247.64 204.374 247.64H205.976C206.096 247.64 206.192 247.67 206.264 247.73C206.336 247.79 206.372 247.868 206.372 247.964C206.372 248 206.36 248.042 206.336 248.09C206.324 248.126 206.306 248.162 206.282 248.198L203.69 252.14L206.66 256.442C206.72 256.514 206.75 256.592 206.75 256.676C206.75 256.772 206.714 256.85 206.642 256.91C206.57 256.97 206.48 257 206.372 257H204.554C204.434 257 204.332 256.976 204.248 256.928C204.176 256.88 204.11 256.814 204.05 256.73L201.674 253.202H200.378V256.568C200.378 256.688 200.336 256.79 200.252 256.874C200.168 256.958 200.066 257 199.946 257H198.47ZM212.866 257C212.746 257 212.644 256.958 212.56 256.874C212.476 256.79 212.434 256.688 212.434 256.568V248.072C212.434 247.952 212.476 247.85 212.56 247.766C212.644 247.682 212.746 247.64 212.866 247.64H216.862C218.134 247.64 219.076 247.874 219.688 248.342C220.3 248.81 220.606 249.44 220.606 250.232C220.606 250.736 220.51 251.126 220.318 251.402C220.126 251.678 219.862 251.918 219.526 252.122C219.946 252.314 220.27 252.608 220.498 253.004C220.738 253.388 220.858 253.814 220.858 254.282C220.858 255.146 220.534 255.818 219.886 256.298C219.25 256.766 218.308 257 217.06 257H212.866ZM214.738 255.38H216.898C217.378 255.38 217.762 255.29 218.05 255.11C218.338 254.93 218.482 254.648 218.482 254.264C218.482 253.868 218.35 253.58 218.086 253.4C217.822 253.22 217.426 253.13 216.898 253.13H214.738V255.38ZM214.738 251.456H216.826C217.306 251.456 217.684 251.36 217.96 251.168C218.236 250.964 218.374 250.67 218.374 250.286C218.374 249.902 218.23 249.638 217.942 249.494C217.666 249.338 217.294 249.26 216.826 249.26H214.738V251.456ZM223.36 257C223.24 257 223.138 256.958 223.054 256.874C222.97 256.79 222.928 256.688 222.928 256.568V248.072C222.928 247.952 222.97 247.85 223.054 247.766C223.138 247.682 223.24 247.64 223.36 247.64H224.872C224.992 247.64 225.094 247.682 225.178 247.766C225.262 247.85 225.304 247.952 225.304 248.072V250.61H227.05C228.274 250.61 229.192 250.898 229.804 251.474C230.416 252.05 230.722 252.842 230.722 253.85C230.722 254.894 230.392 255.68 229.732 256.208C229.084 256.736 228.142 257 226.906 257H223.36ZM225.268 255.29H226.852C227.44 255.29 227.872 255.182 228.148 254.966C228.436 254.75 228.58 254.378 228.58 253.85C228.58 253.334 228.442 252.95 228.166 252.698C227.902 252.446 227.464 252.32 226.852 252.32H225.268V255.29ZM232.342 257C232.222 257 232.12 256.958 232.036 256.874C231.952 256.79 231.91 256.688 231.91 256.568V248.072C231.91 247.952 231.952 247.85 232.036 247.766C232.12 247.682 232.222 247.64 232.342 247.64H233.836C233.968 247.64 234.07 247.682 234.142 247.766C234.226 247.85 234.268 247.952 234.268 248.072V256.568C234.268 256.688 234.226 256.79 234.142 256.874C234.07 256.958 233.968 257 233.836 257H232.342ZM241.201 257C241.081 257 240.985 256.964 240.913 256.892C240.841 256.82 240.805 256.73 240.805 256.622V247.982C240.805 247.886 240.841 247.808 240.913 247.748C240.997 247.676 241.081 247.64 241.165 247.64H242.677C242.881 247.64 243.037 247.742 243.145 247.946L245.917 252.986L248.689 247.946C248.797 247.742 248.953 247.64 249.157 247.64H250.651C250.759 247.64 250.849 247.676 250.921 247.748C250.993 247.808 251.029 247.886 251.029 247.982V256.622C251.029 256.73 250.993 256.82 250.921 256.892C250.849 256.964 250.753 257 250.633 257H249.085C248.965 257 248.869 256.964 248.797 256.892C248.737 256.82 248.707 256.73 248.707 256.622V250.088L249.445 250.214L246.781 255.128C246.721 255.236 246.649 255.338 246.565 255.434C246.481 255.518 246.361 255.56 246.205 255.56H245.611C245.467 255.56 245.353 255.518 245.269 255.434C245.185 255.35 245.113 255.248 245.053 255.128L242.443 250.412L243.127 250.304V256.622C243.127 256.73 243.091 256.82 243.019 256.892C242.947 256.964 242.857 257 242.749 257H241.201ZM257.493 257.18C256.161 257.18 255.105 256.796 254.325 256.028C253.545 255.26 253.125 254.168 253.065 252.752C253.053 252.632 253.047 252.482 253.047 252.302C253.047 252.11 253.053 251.96 253.065 251.852C253.113 250.94 253.317 250.16 253.677 249.512C254.049 248.852 254.559 248.348 255.207 248C255.855 247.64 256.617 247.46 257.493 247.46C258.465 247.46 259.281 247.664 259.941 248.072C260.601 248.468 261.099 249.026 261.435 249.746C261.771 250.454 261.939 251.276 261.939 252.212V252.59C261.939 252.71 261.897 252.812 261.813 252.896C261.729 252.98 261.621 253.022 261.489 253.022H255.513C255.513 253.022 255.513 253.04 255.513 253.076C255.513 253.112 255.513 253.142 255.513 253.166C255.525 253.586 255.603 253.976 255.747 254.336C255.903 254.684 256.125 254.966 256.413 255.182C256.713 255.398 257.067 255.506 257.475 255.506C257.811 255.506 258.093 255.458 258.321 255.362C258.549 255.254 258.735 255.134 258.879 255.002C259.023 254.87 259.125 254.762 259.185 254.678C259.293 254.534 259.377 254.45 259.437 254.426C259.509 254.39 259.611 254.372 259.743 254.372H261.291C261.411 254.372 261.507 254.408 261.579 254.48C261.663 254.552 261.699 254.642 261.687 254.75C261.675 254.942 261.573 255.176 261.381 255.452C261.201 255.728 260.937 255.998 260.589 256.262C260.241 256.526 259.803 256.748 259.275 256.928C258.759 257.096 258.165 257.18 257.493 257.18ZM255.513 251.51H259.491V251.456C259.491 250.988 259.413 250.58 259.257 250.232C259.101 249.872 258.873 249.596 258.573 249.404C258.273 249.2 257.913 249.098 257.493 249.098C257.073 249.098 256.713 249.2 256.413 249.404C256.113 249.596 255.885 249.872 255.729 250.232C255.585 250.58 255.513 250.988 255.513 251.456V251.51ZM264.282 257C264.162 257 264.06 256.958 263.976 256.874C263.892 256.79 263.85 256.688 263.85 256.568V248.072C263.85 247.952 263.892 247.85 263.976 247.766C264.06 247.682 264.162 247.64 264.282 247.64H265.776C265.908 247.64 266.01 247.682 266.082 247.766C266.166 247.85 266.208 247.952 266.208 248.072V251.294H270.276V248.072C270.276 247.952 270.318 247.85 270.402 247.766C270.486 247.682 270.588 247.64 270.708 247.64H272.202C272.322 247.64 272.424 247.682 272.508 247.766C272.592 247.85 272.634 247.952 272.634 248.072V256.568C272.634 256.688 272.592 256.79 272.508 256.874C272.424 256.958 272.322 257 272.202 257H270.708C270.588 257 270.486 256.958 270.402 256.874C270.318 256.79 270.276 256.688 270.276 256.568V253.184H266.208V256.568C266.208 256.688 266.166 256.79 266.082 256.874C266.01 256.958 265.908 257 265.776 257H264.282ZM281.005 257C280.873 257 280.765 256.958 280.681 256.874C280.609 256.79 280.573 256.688 280.573 256.568V253.814H278.791V253.724C277.579 253.724 276.667 253.448 276.055 252.896C275.455 252.332 275.155 251.594 275.155 250.682C275.155 249.674 275.473 248.918 276.109 248.414C276.745 247.898 277.663 247.64 278.863 247.64H282.535C282.655 247.64 282.757 247.682 282.841 247.766C282.925 247.85 282.967 247.952 282.967 248.072V256.568C282.967 256.688 282.925 256.79 282.841 256.874C282.757 256.958 282.655 257 282.535 257H281.005ZM275.245 257C275.137 257 275.047 256.964 274.975 256.892C274.903 256.82 274.867 256.736 274.867 256.64C274.867 256.604 274.873 256.562 274.885 256.514C274.897 256.454 274.927 256.4 274.975 256.352L276.991 253.184L279.187 253.472L277.189 256.73C277.153 256.802 277.093 256.868 277.009 256.928C276.925 256.976 276.835 257 276.739 257H275.245ZM278.809 252.104H280.609V249.35H278.917C278.365 249.35 277.957 249.452 277.693 249.656C277.429 249.848 277.297 250.19 277.297 250.682C277.297 251.102 277.417 251.444 277.657 251.708C277.909 251.972 278.293 252.104 278.809 252.104ZM285.113 257C284.981 257 284.873 256.958 284.789 256.874C284.705 256.79 284.663 256.682 284.663 256.55V255.434C284.663 255.17 284.801 255.026 285.077 255.002C285.437 254.978 285.725 254.81 285.941 254.498C286.157 254.186 286.313 253.706 286.409 253.058C286.517 252.398 286.571 251.546 286.571 250.502V248.072C286.571 247.952 286.607 247.85 286.679 247.766C286.763 247.682 286.871 247.64 287.003 247.64H293.393C293.513 247.64 293.615 247.682 293.699 247.766C293.783 247.85 293.825 247.952 293.825 248.072V256.568C293.825 256.688 293.783 256.79 293.699 256.874C293.615 256.958 293.513 257 293.393 257H291.899C291.767 257 291.659 256.958 291.575 256.874C291.503 256.79 291.467 256.688 291.467 256.568V249.548H288.821V250.754C288.821 251.906 288.755 252.884 288.623 253.688C288.503 254.48 288.293 255.122 287.993 255.614C287.705 256.094 287.321 256.448 286.841 256.676C286.373 256.892 285.797 257 285.113 257ZM296.661 257C296.553 257 296.457 256.958 296.373 256.874C296.289 256.79 296.247 256.694 296.247 256.586V248.072C296.247 247.952 296.289 247.85 296.373 247.766C296.457 247.682 296.559 247.64 296.679 247.64H298.173C298.305 247.64 298.407 247.682 298.479 247.766C298.563 247.85 298.605 247.952 298.605 248.072V255.182L297.975 254.732L302.925 247.928C302.985 247.844 303.051 247.778 303.123 247.73C303.195 247.67 303.291 247.64 303.411 247.64H304.779C304.887 247.64 304.983 247.682 305.067 247.766C305.151 247.838 305.193 247.928 305.193 248.036V256.568C305.193 256.688 305.151 256.79 305.067 256.874C304.983 256.958 304.881 257 304.761 257H303.267C303.135 257 303.027 256.958 302.943 256.874C302.871 256.79 302.835 256.688 302.835 256.568V249.782L303.501 249.872L298.515 256.712C298.467 256.784 298.401 256.85 298.317 256.91C298.245 256.97 298.149 257 298.029 257H296.661ZM311.511 257.18C310.647 257.18 309.885 257.018 309.225 256.694C308.577 256.37 308.067 255.902 307.695 255.29C307.335 254.666 307.137 253.916 307.101 253.04C307.089 252.86 307.083 252.626 307.083 252.338C307.083 252.038 307.089 251.792 307.101 251.6C307.137 250.724 307.335 249.98 307.695 249.368C308.067 248.744 308.577 248.27 309.225 247.946C309.885 247.622 310.647 247.46 311.511 247.46C312.279 247.46 312.933 247.568 313.473 247.784C314.013 247.988 314.457 248.258 314.805 248.594C315.153 248.918 315.411 249.26 315.579 249.62C315.759 249.968 315.855 250.286 315.867 250.574C315.879 250.706 315.837 250.814 315.741 250.898C315.657 250.97 315.555 251.006 315.435 251.006H313.851C313.731 251.006 313.635 250.976 313.563 250.916C313.503 250.856 313.443 250.766 313.383 250.646C313.203 250.166 312.963 249.83 312.663 249.638C312.375 249.434 312.003 249.332 311.547 249.332C310.947 249.332 310.467 249.524 310.107 249.908C309.759 250.28 309.573 250.874 309.549 251.69C309.525 252.146 309.525 252.566 309.549 252.95C309.573 253.778 309.759 254.378 310.107 254.75C310.467 255.122 310.947 255.308 311.547 255.308C312.015 255.308 312.393 255.212 312.681 255.02C312.969 254.816 313.203 254.474 313.383 253.994C313.443 253.874 313.503 253.784 313.563 253.724C313.635 253.664 313.731 253.634 313.851 253.634H315.435C315.555 253.634 315.657 253.676 315.741 253.76C315.837 253.832 315.879 253.934 315.867 254.066C315.855 254.282 315.795 254.528 315.687 254.804C315.591 255.068 315.429 255.344 315.201 255.632C314.985 255.908 314.709 256.166 314.373 256.406C314.037 256.634 313.629 256.82 313.149 256.964C312.681 257.108 312.135 257.18 311.511 257.18ZM318.177 257C318.057 257 317.955 256.958 317.871 256.874C317.787 256.79 317.745 256.688 317.745 256.568V248.072C317.745 247.952 317.787 247.85 317.871 247.766C317.955 247.682 318.057 247.64 318.177 247.64H319.689C319.809 247.64 319.911 247.682 319.995 247.766C320.079 247.85 320.121 247.952 320.121 248.072V250.61H321.975C323.199 250.61 324.117 250.898 324.729 251.474C325.341 252.05 325.647 252.842 325.647 253.85C325.647 254.894 325.317 255.68 324.657 256.208C323.997 256.736 323.055 257 321.831 257H318.177ZM320.085 255.29H321.777C322.365 255.29 322.797 255.182 323.073 254.966C323.361 254.75 323.505 254.378 323.505 253.85C323.505 253.334 323.367 252.95 323.091 252.698C322.827 252.446 322.389 252.32 321.777 252.32H320.085V255.29ZM95.62 278C95.5 278 95.398 277.958 95.314 277.874C95.23 277.79 95.188 277.688 95.188 277.568V269.072C95.188 268.952 95.23 268.85 95.314 268.766C95.398 268.682 95.5 268.64 95.62 268.64H99.616C100.888 268.64 101.83 268.874 102.442 269.342C103.054 269.81 103.36 270.44 103.36 271.232C103.36 271.736 103.264 272.126 103.072 272.402C102.88 272.678 102.616 272.918 102.28 273.122C102.7 273.314 103.024 273.608 103.252 274.004C103.492 274.388 103.612 274.814 103.612 275.282C103.612 276.146 103.288 276.818 102.64 277.298C102.004 277.766 101.062 278 99.814 278H95.62ZM97.492 276.38H99.652C100.132 276.38 100.516 276.29 100.804 276.11C101.092 275.93 101.236 275.648 101.236 275.264C101.236 274.868 101.104 274.58 100.84 274.4C100.576 274.22 100.18 274.13 99.652 274.13H97.492V276.38ZM97.492 272.456H99.58C100.06 272.456 100.438 272.36 100.714 272.168C100.99 271.964 101.128 271.67 101.128 271.286C101.128 270.902 100.984 270.638 100.696 270.494C100.42 270.338 100.048 270.26 99.58 270.26H97.492V272.456ZM113.845 278.18C112.981 278.18 112.219 278.018 111.559 277.694C110.911 277.37 110.401 276.902 110.029 276.29C109.669 275.666 109.471 274.916 109.435 274.04C109.423 273.86 109.417 273.626 109.417 273.338C109.417 273.038 109.423 272.792 109.435 272.6C109.471 271.724 109.669 270.98 110.029 270.368C110.401 269.744 110.911 269.27 111.559 268.946C112.219 268.622 112.981 268.46 113.845 268.46C114.613 268.46 115.267 268.568 115.807 268.784C116.347 268.988 116.791 269.258 117.139 269.594C117.487 269.918 117.745 270.26 117.913 270.62C118.093 270.968 118.189 271.286 118.201 271.574C118.213 271.706 118.171 271.814 118.075 271.898C117.991 271.97 117.889 272.006 117.769 272.006H116.185C116.065 272.006 115.969 271.976 115.897 271.916C115.837 271.856 115.777 271.766 115.717 271.646C115.537 271.166 115.297 270.83 114.997 270.638C114.709 270.434 114.337 270.332 113.881 270.332C113.281 270.332 112.801 270.524 112.441 270.908C112.093 271.28 111.907 271.874 111.883 272.69C111.859 273.146 111.859 273.566 111.883 273.95C111.907 274.778 112.093 275.378 112.441 275.75C112.801 276.122 113.281 276.308 113.881 276.308C114.349 276.308 114.727 276.212 115.015 276.02C115.303 275.816 115.537 275.474 115.717 274.994C115.777 274.874 115.837 274.784 115.897 274.724C115.969 274.664 116.065 274.634 116.185 274.634H117.769C117.889 274.634 117.991 274.676 118.075 274.76C118.171 274.832 118.213 274.934 118.201 275.066C118.189 275.282 118.129 275.528 118.021 275.804C117.925 276.068 117.763 276.344 117.535 276.632C117.319 276.908 117.043 277.166 116.707 277.406C116.371 277.634 115.963 277.82 115.483 277.964C115.015 278.108 114.469 278.18 113.845 278.18ZM124.219 278.18C123.259 278.18 122.449 278.012 121.789 277.676C121.141 277.34 120.643 276.866 120.295 276.254C119.959 275.642 119.767 274.928 119.719 274.112C119.707 273.896 119.701 273.632 119.701 273.32C119.701 273.008 119.707 272.744 119.719 272.528C119.767 271.7 119.965 270.986 120.313 270.386C120.673 269.774 121.177 269.3 121.825 268.964C122.485 268.628 123.283 268.46 124.219 268.46C125.155 268.46 125.947 268.628 126.595 268.964C127.255 269.3 127.759 269.774 128.107 270.386C128.467 270.986 128.671 271.7 128.719 272.528C128.731 272.744 128.737 273.008 128.737 273.32C128.737 273.632 128.731 273.896 128.719 274.112C128.671 274.928 128.473 275.642 128.125 276.254C127.789 276.866 127.291 277.34 126.631 277.676C125.983 278.012 125.179 278.18 124.219 278.18ZM124.219 276.398C124.855 276.398 125.347 276.2 125.695 275.804C126.043 275.396 126.235 274.802 126.271 274.022C126.283 273.842 126.289 273.608 126.289 273.32C126.289 273.032 126.283 272.798 126.271 272.618C126.235 271.838 126.043 271.25 125.695 270.854C125.347 270.446 124.855 270.242 124.219 270.242C123.583 270.242 123.091 270.446 122.743 270.854C122.395 271.25 122.203 271.838 122.167 272.618C122.155 272.798 122.149 273.032 122.149 273.32C122.149 273.608 122.155 273.842 122.167 274.022C122.203 274.802 122.395 275.396 122.743 275.804C123.091 276.2 123.583 276.398 124.219 276.398ZM134.331 278.18C133.563 278.18 132.915 278.09 132.387 277.91C131.871 277.73 131.457 277.502 131.145 277.226C130.845 276.95 130.623 276.662 130.479 276.362C130.347 276.05 130.275 275.768 130.263 275.516C130.251 275.408 130.281 275.324 130.353 275.264C130.425 275.204 130.503 275.174 130.587 275.174H132.063C132.183 275.174 132.273 275.198 132.333 275.246C132.405 275.294 132.465 275.372 132.513 275.48C132.633 275.84 132.855 276.092 133.179 276.236C133.515 276.38 133.929 276.452 134.421 276.452C134.757 276.452 135.057 276.41 135.321 276.326C135.585 276.23 135.789 276.092 135.933 275.912C136.077 275.72 136.149 275.486 136.149 275.21C136.149 274.814 136.035 274.514 135.807 274.31C135.579 274.094 135.207 273.986 134.691 273.986H133.701C133.581 273.986 133.485 273.95 133.413 273.878C133.341 273.806 133.305 273.71 133.305 273.59V272.834C133.305 272.726 133.341 272.636 133.413 272.564C133.485 272.48 133.581 272.438 133.701 272.438H134.619C135.051 272.438 135.375 272.36 135.591 272.204C135.807 272.036 135.915 271.778 135.915 271.43C135.915 271.226 135.861 271.034 135.753 270.854C135.657 270.662 135.495 270.506 135.267 270.386C135.039 270.266 134.721 270.206 134.313 270.206C133.749 270.206 133.347 270.296 133.107 270.476C132.867 270.656 132.693 270.926 132.585 271.286C132.537 271.394 132.477 271.472 132.405 271.52C132.345 271.568 132.249 271.592 132.117 271.592H130.695C130.599 271.592 130.515 271.562 130.443 271.502C130.383 271.442 130.353 271.358 130.353 271.25C130.377 270.926 130.461 270.602 130.605 270.278C130.761 269.942 130.995 269.636 131.307 269.36C131.631 269.084 132.039 268.868 132.531 268.712C133.023 268.544 133.623 268.46 134.331 268.46C135.291 268.46 136.053 268.592 136.617 268.856C137.181 269.12 137.583 269.456 137.823 269.864C138.075 270.26 138.201 270.674 138.201 271.106C138.201 271.55 138.117 271.934 137.949 272.258C137.793 272.582 137.499 272.846 137.067 273.05C137.607 273.254 137.979 273.566 138.183 273.986C138.387 274.406 138.495 274.868 138.507 275.372C138.507 275.972 138.333 276.482 137.985 276.902C137.637 277.31 137.151 277.628 136.527 277.856C135.903 278.072 135.171 278.18 134.331 278.18ZM140.796 278C140.676 278 140.574 277.958 140.49 277.874C140.406 277.79 140.364 277.688 140.364 277.568V269.072C140.364 268.952 140.406 268.85 140.49 268.766C140.574 268.682 140.676 268.64 140.796 268.64H142.29C142.422 268.64 142.524 268.682 142.596 268.766C142.68 268.85 142.722 268.952 142.722 269.072V272.294H146.79V269.072C146.79 268.952 146.832 268.85 146.916 268.766C147 268.682 147.102 268.64 147.222 268.64H148.716C148.836 268.64 148.938 268.682 149.022 268.766C149.106 268.85 149.148 268.952 149.148 269.072V277.568C149.148 277.688 149.106 277.79 149.022 277.874C148.938 277.958 148.836 278 148.716 278H147.222C147.102 278 147 277.958 146.916 277.874C146.832 277.79 146.79 277.688 146.79 277.568V274.184H142.722V277.568C142.722 277.688 142.68 277.79 142.596 277.874C142.524 277.958 142.422 278 142.29 278H140.796ZM154.297 278.18C153.673 278.18 153.109 278.06 152.605 277.82C152.101 277.568 151.699 277.238 151.399 276.83C151.111 276.41 150.967 275.942 150.967 275.426C150.967 274.586 151.309 273.92 151.993 273.428C152.677 272.924 153.571 272.588 154.675 272.42L157.141 272.06V271.682C157.141 271.178 157.015 270.788 156.763 270.512C156.511 270.236 156.079 270.098 155.467 270.098C155.035 270.098 154.681 270.188 154.405 270.368C154.141 270.536 153.943 270.764 153.811 271.052C153.715 271.208 153.577 271.286 153.397 271.286H151.975C151.843 271.286 151.741 271.25 151.669 271.178C151.609 271.106 151.579 271.01 151.579 270.89C151.591 270.698 151.669 270.464 151.813 270.188C151.969 269.912 152.197 269.648 152.497 269.396C152.809 269.132 153.211 268.91 153.703 268.73C154.195 268.55 154.789 268.46 155.485 268.46C156.241 268.46 156.877 268.556 157.393 268.748C157.921 268.928 158.341 269.174 158.653 269.486C158.965 269.798 159.193 270.164 159.337 270.584C159.481 271.004 159.553 271.448 159.553 271.916V277.568C159.553 277.688 159.511 277.79 159.427 277.874C159.343 277.958 159.241 278 159.121 278H157.663C157.531 278 157.423 277.958 157.339 277.874C157.267 277.79 157.231 277.688 157.231 277.568V276.866C157.075 277.082 156.865 277.292 156.601 277.496C156.337 277.7 156.013 277.868 155.629 278C155.257 278.12 154.813 278.18 154.297 278.18ZM154.909 276.47C155.329 276.47 155.707 276.38 156.043 276.2C156.391 276.02 156.661 275.744 156.853 275.372C157.057 274.988 157.159 274.508 157.159 273.932V273.554L155.359 273.842C154.651 273.95 154.123 274.124 153.775 274.364C153.427 274.604 153.253 274.898 153.253 275.246C153.253 275.51 153.331 275.738 153.487 275.93C153.655 276.11 153.865 276.248 154.117 276.344C154.369 276.428 154.633 276.47 154.909 276.47ZM162.294 278C162.174 278 162.072 277.958 161.988 277.874C161.904 277.79 161.862 277.688 161.862 277.568V269.072C161.862 268.952 161.904 268.85 161.988 268.766C162.072 268.682 162.174 268.64 162.294 268.64H163.788C163.92 268.64 164.022 268.682 164.094 268.766C164.178 268.85 164.22 268.952 164.22 269.072V272.294H168.288V269.072C168.288 268.952 168.33 268.85 168.414 268.766C168.498 268.682 168.6 268.64 168.72 268.64H170.214C170.334 268.64 170.436 268.682 170.52 268.766C170.604 268.85 170.646 268.952 170.646 269.072V277.568C170.646 277.688 170.604 277.79 170.52 277.874C170.436 277.958 170.334 278 170.214 278H168.72C168.6 278 168.498 277.958 168.414 277.874C168.33 277.79 168.288 277.688 168.288 277.568V274.184H164.22V277.568C164.22 277.688 164.178 277.79 164.094 277.874C164.022 277.958 163.92 278 163.788 278H162.294ZM173.491 278C173.383 278 173.287 277.958 173.203 277.874C173.119 277.79 173.077 277.694 173.077 277.586V269.072C173.077 268.952 173.119 268.85 173.203 268.766C173.287 268.682 173.389 268.64 173.509 268.64H175.003C175.135 268.64 175.237 268.682 175.309 268.766C175.393 268.85 175.435 268.952 175.435 269.072V276.182L174.805 275.732L179.755 268.928C179.815 268.844 179.881 268.778 179.953 268.73C180.025 268.67 180.121 268.64 180.241 268.64H181.609C181.717 268.64 181.813 268.682 181.897 268.766C181.981 268.838 182.023 268.928 182.023 269.036V277.568C182.023 277.688 181.981 277.79 181.897 277.874C181.813 277.958 181.711 278 181.591 278H180.097C179.965 278 179.857 277.958 179.773 277.874C179.701 277.79 179.665 277.688 179.665 277.568V270.782L180.331 270.872L175.345 277.712C175.297 277.784 175.231 277.85 175.147 277.91C175.075 277.97 174.979 278 174.859 278H173.491ZM184.706 278C184.598 278 184.502 277.958 184.418 277.874C184.334 277.79 184.292 277.694 184.292 277.586V269.072C184.292 268.952 184.334 268.85 184.418 268.766C184.502 268.682 184.604 268.64 184.724 268.64H186.218C186.35 268.64 186.452 268.682 186.524 268.766C186.608 268.85 186.65 268.952 186.65 269.072V276.182L186.02 275.732L190.97 268.928C191.03 268.844 191.096 268.778 191.168 268.73C191.24 268.67 191.336 268.64 191.456 268.64H192.824C192.932 268.64 193.028 268.682 193.112 268.766C193.196 268.838 193.238 268.928 193.238 269.036V277.568C193.238 277.688 193.196 277.79 193.112 277.874C193.028 277.958 192.926 278 192.806 278H191.312C191.18 278 191.072 277.958 190.988 277.874C190.916 277.79 190.88 277.688 190.88 277.568V270.782L191.546 270.872L186.56 277.712C186.512 277.784 186.446 277.85 186.362 277.91C186.29 277.97 186.194 278 186.074 278H184.706ZM199.26 279.98C199.14 279.98 199.038 279.938 198.954 279.854C198.87 279.77 198.828 279.668 198.828 279.548V276.524C198.828 276.404 198.87 276.302 198.954 276.218C199.038 276.134 199.14 276.092 199.26 276.092H199.404C199.716 276.092 199.968 275.93 200.16 275.606C200.364 275.27 200.514 274.766 200.61 274.094C200.706 273.41 200.754 272.546 200.754 271.502V269.072C200.754 268.952 200.796 268.85 200.88 268.766C200.964 268.682 201.066 268.64 201.186 268.64H207.594C207.726 268.64 207.828 268.682 207.9 268.766C207.984 268.85 208.026 268.952 208.026 269.072V276.074H208.836C208.968 276.074 209.07 276.116 209.142 276.2C209.226 276.284 209.268 276.386 209.268 276.506V279.548C209.268 279.668 209.226 279.77 209.142 279.854C209.07 279.938 208.968 279.98 208.836 279.98H207.36C207.228 279.98 207.12 279.938 207.036 279.854C206.952 279.77 206.91 279.668 206.91 279.548V278H201.186V279.548C201.186 279.668 201.144 279.77 201.06 279.854C200.976 279.938 200.874 279.98 200.754 279.98H199.26ZM202.176 276.092L205.686 276.074V270.548H203.022V271.754C203.022 272.834 202.95 273.728 202.806 274.436C202.662 275.144 202.452 275.696 202.176 276.092ZM211.372 281.42C211.252 281.42 211.15 281.378 211.066 281.294C210.982 281.21 210.94 281.108 210.94 280.988V269.072C210.94 268.952 210.982 268.85 211.066 268.766C211.15 268.682 211.252 268.64 211.372 268.64H212.794C212.926 268.64 213.028 268.682 213.1 268.766C213.184 268.85 213.226 268.952 213.226 269.072V269.792C213.514 269.408 213.892 269.09 214.36 268.838C214.828 268.586 215.41 268.46 216.106 268.46C216.742 268.46 217.294 268.562 217.762 268.766C218.23 268.97 218.62 269.264 218.932 269.648C219.244 270.02 219.484 270.464 219.652 270.98C219.82 271.496 219.916 272.066 219.94 272.69C219.952 272.894 219.958 273.104 219.958 273.32C219.958 273.536 219.952 273.752 219.94 273.968C219.928 274.568 219.838 275.126 219.67 275.642C219.502 276.146 219.256 276.59 218.932 276.974C218.62 277.346 218.23 277.64 217.762 277.856C217.294 278.072 216.742 278.18 216.106 278.18C215.458 278.18 214.906 278.066 214.45 277.838C213.994 277.598 213.622 277.286 213.334 276.902V280.988C213.334 281.108 213.292 281.21 213.208 281.294C213.136 281.378 213.034 281.42 212.902 281.42H211.372ZM215.44 276.254C215.956 276.254 216.358 276.146 216.646 275.93C216.934 275.702 217.144 275.408 217.276 275.048C217.408 274.688 217.486 274.292 217.51 273.86C217.522 273.5 217.522 273.14 217.51 272.78C217.486 272.348 217.408 271.952 217.276 271.592C217.144 271.232 216.934 270.944 216.646 270.728C216.358 270.5 215.956 270.386 215.44 270.386C214.948 270.386 214.546 270.5 214.234 270.728C213.934 270.956 213.712 271.25 213.568 271.61C213.436 271.958 213.358 272.318 213.334 272.69C213.322 272.906 213.316 273.134 213.316 273.374C213.316 273.614 213.322 273.848 213.334 274.076C213.346 274.436 213.43 274.784 213.586 275.12C213.742 275.444 213.97 275.714 214.27 275.93C214.57 276.146 214.96 276.254 215.44 276.254ZM222.645 281.42C222.525 281.42 222.423 281.378 222.339 281.294C222.255 281.222 222.213 281.12 222.213 280.988V279.962C222.213 279.83 222.255 279.722 222.339 279.638C222.423 279.566 222.525 279.53 222.645 279.53H223.203C223.443 279.53 223.641 279.482 223.797 279.386C223.953 279.29 224.097 279.128 224.229 278.9C224.361 278.684 224.505 278.384 224.661 278L228.405 268.982C228.453 268.886 228.513 268.808 228.585 268.748C228.657 268.676 228.765 268.64 228.909 268.64H230.277C230.373 268.64 230.457 268.676 230.529 268.748C230.613 268.82 230.655 268.904 230.655 269C230.655 269.048 230.649 269.09 230.637 269.126C230.637 269.162 230.619 269.216 230.583 269.288L227.163 277.46C226.959 277.976 226.737 278.468 226.497 278.936C226.269 279.416 226.011 279.842 225.723 280.214C225.447 280.598 225.123 280.892 224.751 281.096C224.379 281.312 223.941 281.42 223.437 281.42H222.645ZM224.967 277.766L221.313 269.288C221.265 269.168 221.241 269.084 221.241 269.036C221.253 268.928 221.295 268.838 221.367 268.766C221.439 268.682 221.529 268.64 221.637 268.64H223.077C223.221 268.64 223.323 268.676 223.383 268.748C223.455 268.82 223.509 268.898 223.545 268.982L226.335 275.858L224.967 277.766ZM232.677 278C232.557 278 232.455 277.958 232.371 277.874C232.287 277.79 232.245 277.688 232.245 277.568V269.072C232.245 268.952 232.287 268.85 232.371 268.766C232.455 268.682 232.557 268.64 232.677 268.64H238.383C238.503 268.64 238.605 268.682 238.689 268.766C238.773 268.85 238.815 268.952 238.815 269.072V270.098C238.815 270.23 238.773 270.338 238.689 270.422C238.605 270.506 238.503 270.548 238.383 270.548H234.603V277.568C234.603 277.688 234.561 277.79 234.477 277.874C234.405 277.958 234.303 278 234.171 278H232.677ZM240.674 278C240.566 278 240.47 277.958 240.386 277.874C240.302 277.79 240.26 277.694 240.26 277.586V269.072C240.26 268.952 240.302 268.85 240.386 268.766C240.47 268.682 240.572 268.64 240.692 268.64H242.186C242.318 268.64 242.42 268.682 242.492 268.766C242.576 268.85 242.618 268.952 242.618 269.072V276.182L241.988 275.732L246.938 268.928C246.998 268.844 247.064 268.778 247.136 268.73C247.208 268.67 247.304 268.64 247.424 268.64H248.792C248.9 268.64 248.996 268.682 249.08 268.766C249.164 268.838 249.206 268.928 249.206 269.036V277.568C249.206 277.688 249.164 277.79 249.08 277.874C248.996 277.958 248.894 278 248.774 278H247.28C247.148 278 247.04 277.958 246.956 277.874C246.884 277.79 246.848 277.688 246.848 277.568V270.782L247.514 270.872L242.528 277.712C242.48 277.784 242.414 277.85 242.33 277.91C242.258 277.97 242.162 278 242.042 278H240.674ZM251.079 278C250.971 278 250.875 277.964 250.791 277.892C250.719 277.808 250.683 277.712 250.683 277.604C250.683 277.568 250.689 277.526 250.701 277.478C250.725 277.43 250.761 277.37 250.809 277.298L253.869 273.194L251.025 269.342C250.989 269.282 250.959 269.228 250.935 269.18C250.923 269.132 250.917 269.084 250.917 269.036C250.917 268.928 250.953 268.838 251.025 268.766C251.109 268.682 251.205 268.64 251.313 268.64H252.879C253.023 268.64 253.131 268.676 253.203 268.748C253.275 268.82 253.329 268.886 253.365 268.946L255.399 271.646L257.433 268.946C257.481 268.886 257.535 268.82 257.595 268.748C257.667 268.676 257.775 268.64 257.919 268.64H259.413C259.521 268.64 259.611 268.682 259.683 268.766C259.767 268.838 259.809 268.922 259.809 269.018C259.809 269.078 259.797 269.132 259.773 269.18C259.761 269.228 259.737 269.282 259.701 269.342L256.821 273.23L259.899 277.298C259.947 277.37 259.977 277.43 259.989 277.478C260.013 277.526 260.025 277.568 260.025 277.604C260.025 277.712 259.983 277.808 259.899 277.892C259.827 277.964 259.737 278 259.629 278H257.991C257.859 278 257.757 277.97 257.685 277.91C257.613 277.838 257.553 277.772 257.505 277.712L255.345 274.85L253.149 277.712C253.101 277.772 253.041 277.838 252.969 277.91C252.909 277.97 252.807 278 252.663 278H251.079ZM265.461 278C265.329 278 265.221 277.958 265.137 277.874C265.053 277.79 265.011 277.682 265.011 277.55V276.434C265.011 276.17 265.149 276.026 265.425 276.002C265.785 275.978 266.073 275.81 266.289 275.498C266.505 275.186 266.661 274.706 266.757 274.058C266.865 273.398 266.919 272.546 266.919 271.502V269.072C266.919 268.952 266.955 268.85 267.027 268.766C267.111 268.682 267.219 268.64 267.351 268.64H273.741C273.861 268.64 273.963 268.682 274.047 268.766C274.131 268.85 274.173 268.952 274.173 269.072V277.568C274.173 277.688 274.131 277.79 274.047 277.874C273.963 277.958 273.861 278 273.741 278H272.247C272.115 278 272.007 277.958 271.923 277.874C271.851 277.79 271.815 277.688 271.815 277.568V270.548H269.169V271.754C269.169 272.906 269.103 273.884 268.971 274.688C268.851 275.48 268.641 276.122 268.341 276.614C268.053 277.094 267.669 277.448 267.189 277.676C266.721 277.892 266.145 278 265.461 278ZM281.778 274.184H278.952V277.568C278.952 277.688 278.91 277.79 278.826 277.874C278.754 277.958 278.652 278 278.52 278H277.026C276.906 278 276.804 277.958 276.72 277.874C276.636 277.79 276.594 277.688 276.594 277.568V269.072C276.594 268.952 276.636 268.85 276.72 268.766C276.804 268.682 276.906 268.64 277.026 268.64H278.52C278.652 268.64 278.754 268.682 278.826 268.766C278.91 268.85 278.952 268.952 278.952 269.072V272.294H281.778V274.184ZM285.09 278.18C284.13 278.18 283.32 278.012 282.66 277.676C282.012 277.34 281.514 276.866 281.166 276.254C280.818 275.642 280.626 274.928 280.59 274.112C280.578 273.896 280.572 273.632 280.572 273.32C280.572 273.008 280.578 272.744 280.59 272.528C280.626 271.7 280.824 270.986 281.184 270.386C281.544 269.774 282.048 269.3 282.696 268.964C283.356 268.628 284.154 268.46 285.09 268.46C286.026 268.46 286.818 268.628 287.466 268.964C288.126 269.3 288.63 269.774 288.978 270.386C289.338 270.986 289.536 271.7 289.572 272.528C289.596 272.744 289.608 273.008 289.608 273.32C289.608 273.632 289.596 273.896 289.572 274.112C289.536 274.928 289.344 275.642 288.996 276.254C288.66 276.866 288.162 277.34 287.502 277.676C286.854 278.012 286.05 278.18 285.09 278.18ZM285.09 276.398C285.726 276.398 286.218 276.2 286.566 275.804C286.914 275.396 287.106 274.802 287.142 274.022C287.154 273.842 287.16 273.608 287.16 273.32C287.16 273.032 287.154 272.798 287.142 272.618C287.106 271.838 286.914 271.25 286.566 270.854C286.218 270.446 285.726 270.242 285.09 270.242C284.454 270.242 283.956 270.446 283.596 270.854C283.248 271.25 283.062 271.838 283.038 272.618C283.026 272.798 283.02 273.032 283.02 273.32C283.02 273.608 283.026 273.842 283.038 274.022C283.062 274.802 283.248 275.396 283.596 275.804C283.956 276.2 284.454 276.398 285.09 276.398ZM291.246 279.98C291.126 279.98 291.024 279.938 290.94 279.854C290.856 279.77 290.814 279.668 290.814 279.548V276.524C290.814 276.404 290.856 276.302 290.94 276.218C291.024 276.134 291.126 276.092 291.246 276.092H291.39C291.702 276.092 291.954 275.93 292.146 275.606C292.35 275.27 292.5 274.766 292.596 274.094C292.692 273.41 292.74 272.546 292.74 271.502V269.072C292.74 268.952 292.782 268.85 292.866 268.766C292.95 268.682 293.052 268.64 293.172 268.64H299.58C299.712 268.64 299.814 268.682 299.886 268.766C299.97 268.85 300.012 268.952 300.012 269.072V276.074H300.822C300.954 276.074 301.056 276.116 301.128 276.2C301.212 276.284 301.254 276.386 301.254 276.506V279.548C301.254 279.668 301.212 279.77 301.128 279.854C301.056 279.938 300.954 279.98 300.822 279.98H299.346C299.214 279.98 299.106 279.938 299.022 279.854C298.938 279.77 298.896 279.668 298.896 279.548V278H293.172V279.548C293.172 279.668 293.13 279.77 293.046 279.854C292.962 279.938 292.86 279.98 292.74 279.98H291.246ZM294.162 276.092L297.672 276.074V270.548H295.008V271.754C295.008 272.834 294.936 273.728 294.792 274.436C294.648 275.144 294.438 275.696 294.162 276.092ZM306.941 278.18C305.609 278.18 304.553 277.796 303.773 277.028C302.993 276.26 302.573 275.168 302.513 273.752C302.501 273.632 302.495 273.482 302.495 273.302C302.495 273.11 302.501 272.96 302.513 272.852C302.561 271.94 302.765 271.16 303.125 270.512C303.497 269.852 304.007 269.348 304.655 269C305.303 268.64 306.065 268.46 306.941 268.46C307.913 268.46 308.729 268.664 309.389 269.072C310.049 269.468 310.547 270.026 310.883 270.746C311.219 271.454 311.387 272.276 311.387 273.212V273.59C311.387 273.71 311.345 273.812 311.261 273.896C311.177 273.98 311.069 274.022 310.937 274.022H304.961C304.961 274.022 304.961 274.04 304.961 274.076C304.961 274.112 304.961 274.142 304.961 274.166C304.973 274.586 305.051 274.976 305.195 275.336C305.351 275.684 305.573 275.966 305.861 276.182C306.161 276.398 306.515 276.506 306.923 276.506C307.259 276.506 307.541 276.458 307.769 276.362C307.997 276.254 308.183 276.134 308.327 276.002C308.471 275.87 308.573 275.762 308.633 275.678C308.741 275.534 308.825 275.45 308.885 275.426C308.957 275.39 309.059 275.372 309.191 275.372H310.739C310.859 275.372 310.955 275.408 311.027 275.48C311.111 275.552 311.147 275.642 311.135 275.75C311.123 275.942 311.021 276.176 310.829 276.452C310.649 276.728 310.385 276.998 310.037 277.262C309.689 277.526 309.251 277.748 308.723 277.928C308.207 278.096 307.613 278.18 306.941 278.18ZM304.961 272.51H308.939V272.456C308.939 271.988 308.861 271.58 308.705 271.232C308.549 270.872 308.321 270.596 308.021 270.404C307.721 270.2 307.361 270.098 306.941 270.098C306.521 270.098 306.161 270.2 305.861 270.404C305.561 270.596 305.333 270.872 305.177 271.232C305.033 271.58 304.961 271.988 304.961 272.456V272.51ZM313.711 278C313.603 278 313.507 277.958 313.423 277.874C313.339 277.79 313.297 277.694 313.297 277.586V269.072C313.297 268.952 313.339 268.85 313.423 268.766C313.507 268.682 313.609 268.64 313.729 268.64H315.223C315.355 268.64 315.457 268.682 315.529 268.766C315.613 268.85 315.655 268.952 315.655 269.072V276.182L315.025 275.732L319.975 268.928C320.035 268.844 320.101 268.778 320.173 268.73C320.245 268.67 320.341 268.64 320.461 268.64H321.829C321.937 268.64 322.033 268.682 322.117 268.766C322.201 268.838 322.243 268.928 322.243 269.036V277.568C322.243 277.688 322.201 277.79 322.117 277.874C322.033 277.958 321.931 278 321.811 278H320.317C320.185 278 320.077 277.958 319.993 277.874C319.921 277.79 319.885 277.688 319.885 277.568V270.782L320.551 270.872L315.565 277.712C315.517 277.784 315.451 277.85 315.367 277.91C315.295 277.97 315.199 278 315.079 278H313.711ZM317.869 267.416C317.149 267.416 316.573 267.302 316.141 267.074C315.709 266.846 315.397 266.552 315.205 266.192C315.025 265.82 314.935 265.424 314.935 265.004C314.935 264.908 314.965 264.83 315.025 264.77C315.085 264.698 315.169 264.662 315.277 264.662H316.303C316.411 264.662 316.495 264.698 316.555 264.77C316.615 264.83 316.645 264.908 316.645 265.004C316.645 265.268 316.729 265.508 316.897 265.724C317.065 265.928 317.389 266.03 317.869 266.03C318.373 266.03 318.703 265.928 318.859 265.724C319.015 265.508 319.093 265.268 319.093 265.004C319.093 264.908 319.123 264.83 319.183 264.77C319.243 264.698 319.327 264.662 319.435 264.662H320.479C320.587 264.662 320.671 264.698 320.731 264.77C320.791 264.83 320.821 264.908 320.821 265.004C320.821 265.424 320.725 265.82 320.533 266.192C320.341 266.552 320.029 266.846 319.597 267.074C319.177 267.302 318.601 267.416 317.869 267.416Z" fill="#272727"/>
<path d="M266.856 0H199.526V87.7712H266.856V0Z" fill="#F4F4F4"/>
<path d="M266.856 87.7711H269.04V-5.34058e-05H266.856V87.7711Z" fill="#F4F4F4"/>
<path opacity="0.05" d="M266.856 87.7711H269.04V-5.34058e-05H266.856V87.7711Z" fill="#292A2E"/>
<path opacity="0.05" d="M254.591 15.9888H211.791V71.7828H254.591V15.9888Z" fill="#292A2E"/>
<path opacity="0.03" d="M254.59 15.9888H252.36V71.7828H254.59V15.9888Z" fill="#292A2E"/>
<path d="M321.92 109.356H266.855V165.011H321.92V109.356Z" fill="#F4F4F4"/>
<path opacity="0.05" d="M311.889 119.494H276.886V154.873H311.889V119.494Z" fill="#292A2E"/>
<path d="M321.921 165.011H324.105V109.356H321.921V165.011Z" fill="#F4F4F4"/>
<path opacity="0.05" d="M321.921 165.011H324.105V109.356H321.921V165.011Z" fill="#292A2E"/>
<path opacity="0.03" d="M311.889 119.494H309.659V154.873H311.889V119.494Z" fill="#292A2E"/>
<path d="M148.927 8.14844H7.82062V149.469H148.927V8.14844Z" fill="#F4F4F4"/>
<path d="M7.82106 8.14844H6.20366V149.469H7.82106V8.14844Z" fill="#F4F4F4"/>
<path opacity="0.05" d="M7.82106 8.14844H6.20366V149.469H7.82106V8.14844Z" fill="#292A2E"/>
<path opacity="0.05" d="M42.0043 105.53V68.5562H72.2455V90.0372H119.089V128.072H138.999V149.469H119.089H115.254H14.6087V105.53H42.0043Z" fill="#292A2E"/>
<path opacity="0.34" d="M68.3638 72.5706H46.3419V76.585H68.3638V72.5706Z" fill="#FFFFFA"/>
<path opacity="0.34" d="M68.3638 80.8898H46.3419V84.9042H68.3638V80.8898Z" fill="#FFFFFA"/>
<path opacity="0.34" d="M68.3638 89.2085H46.3419V93.223H68.3638V89.2085Z" fill="#FFFFFA"/>
<path opacity="0.34" d="M22.5729 109.427H18.5138V113.442H22.5729V109.427Z" fill="#FFFFFA"/>
<path opacity="0.34" d="M22.5729 117.746H18.5138V121.76H22.5729V117.746Z" fill="#FFFFFA"/>
<path opacity="0.34" d="M22.5729 126.065H18.5138V130.08H22.5729V126.065Z" fill="#FFFFFA"/>
<path opacity="0.34" d="M30.082 109.427H26.0229V113.442H30.082V109.427Z" fill="#FFFFFA"/>
<path opacity="0.34" d="M30.082 117.746H26.0229V121.76H30.082V117.746Z" fill="#FFFFFA"/>
<path opacity="0.34" d="M30.082 126.065H26.0229V130.08H30.082V126.065Z" fill="#FFFFFA"/>
<path opacity="0.34" d="M37.3881 109.427H33.329V113.442H37.3881V109.427Z" fill="#FFFFFA"/>
<path opacity="0.34" d="M37.3881 117.746H33.329V121.76H37.3881V117.746Z" fill="#FFFFFA"/>
<path opacity="0.34" d="M37.3881 126.065H33.329V130.08H37.3881V126.065Z" fill="#FFFFFA"/>
<path d="M7.82062 78.0164H36.2136V8.14844H38.5617V78.0164H115.254V8.14844H117.602V78.0164H148.927V80.368H117.602V149.469H115.254V80.368H38.5617V149.469H36.2136V80.368H7.82062V78.0164Z" fill="white"/>
<path d="M154.548 149.299H2.19963V153.999H154.548V149.299Z" fill="#F4F4F4"/>
<path opacity="0.1" d="M154.548 149.299H2.19963V153.999H154.548V149.299Z" fill="#292A2E"/>
<path opacity="0.1" d="M2.19963 149.299H0V153.999H2.19963V149.299Z" fill="#292A2E"/>
<path opacity="0.1" d="M2.19963 149.299H0V153.999H2.19963V149.299Z" fill="#292A2E"/>
<path d="M102.972 78.032C102.972 78.032 109.084 72.7309 109.93 61.4227C110.585 52.6655 102.972 58.8213 102.972 58.8213C102.972 58.8213 103.382 52.5113 98.8754 53.4368C94.3689 54.3623 92.2583 61.1042 92.2583 61.1042" fill="#0C0C0C"/>
<path d="M75.4057 55.7479C75.4057 55.7479 52.9916 59.6868 63.2027 89.7777H69.2828" fill="#0C0C0C"/>
<path d="M100.649 121.061C100.549 121.048 99.4455 139.393 78.1659 137.794C63.4344 136.688 58.1818 121.035 57.8442 121.035C59.4326 120.697 62.1073 120.205 62.8127 119.828C65.1321 118.58 68.0024 117.281 68.75 112.769C69.1812 110.169 68.4502 96.8659 68.6749 94.2345L91.2877 99.2896C90.9719 104.846 88.7605 117.728 96.5113 120.008C97.8011 120.385 99.1903 120.732 100.649 121.061Z" fill="#FFC8B2"/>
<path opacity="0.52" d="M91.6049 114.743C91.2509 113.6 91.0227 112.421 90.9246 111.228C90.676 108.506 90.7257 105.764 91.0725 103.053C86.4765 102.431 82.1465 100.531 78.5745 97.5688C78.155 99.1218 75.8456 105.908 76.4851 107.384C77.6934 110.174 83.373 114.743 91.6049 114.743Z" fill="#0C0C0C"/>
<path d="M87.5913 110.311C78.6366 110.109 67.6063 105.191 66.6432 93.1004L65.7755 82.1907C64.8123 70.1003 70.3743 59.7919 81.7386 58.8838C93.1055 57.9752 102.382 67.0961 103.344 79.1882L103.729 84.0182C103.832 85.6788 103.823 87.3445 103.7 89.0038C103.407 93.3924 102.945 100.064 100.297 104.733C97.7968 109.143 93.3121 110.44 87.5913 110.311Z" fill="#FFC8B2"/>
<path d="M99.9721 86.6044C100.748 86.6044 101.377 85.9747 101.377 85.1979C101.377 84.4211 100.748 83.7914 99.9721 83.7914C99.1965 83.7914 98.5677 84.4211 98.5677 85.1979C98.5677 85.9747 99.1965 86.6044 99.9721 86.6044Z" fill="#0C0C0C"/>
<path d="M87.0763 86.6927C87.8519 86.6927 88.4807 86.063 88.4807 85.2862C88.4807 84.5094 87.8519 83.8796 87.0763 83.8796C86.3007 83.8796 85.6719 84.5094 85.6719 85.2862C85.6719 86.063 86.3007 86.6927 87.0763 86.6927Z" fill="#0C0C0C"/>
<path d="M67.6423 96.7273C64.188 97.0036 61.0912 93.5262 60.8174 90.0666C60.5436 86.607 63.1901 84.4753 66.6445 84.2007L68.609 86.3763L70.6125 96.4913L67.6423 96.7273Z" fill="#FFC8B2"/>
<path d="M70.7097 90.9327C70.7097 90.9327 70.7314 73.7317 75.8448 72.3264C79.2505 71.3905 87.9518 75.7335 95.608 73.7317C98.9578 72.8557 102.235 73.4805 102.67 75.0639C102.844 75.6909 104.345 66.4171 98.5678 59.8412C93.9689 54.6061 80.0201 53.9752 73.843 56.2095C56.7388 62.3904 65.982 85.0016 65.982 85.0016L67.1534 90.8528L70.7097 90.9327Z" fill="#0C0C0C"/>
<g opacity="0.52">
<path opacity="0.52" d="M93.0266 95.0823H93.0487C94.162 94.9954 96.0202 94.7278 95.9555 93.8935C95.9013 93.2022 93.4392 85.8876 93.1568 85.0559C93.1306 84.987 93.0788 84.9309 93.0122 84.8994C92.9455 84.868 92.8693 84.8636 92.7996 84.8872C92.7298 84.9108 92.6719 84.9606 92.638 85.0261C92.6042 85.0916 92.597 85.1677 92.6179 85.2384C93.7117 88.4777 95.3512 93.4677 95.3881 93.9374C95.2939 94.1429 94.1568 94.4249 93.0019 94.5144C92.9272 94.5181 92.8569 94.5511 92.8063 94.6063C92.7557 94.6615 92.729 94.7345 92.7318 94.8094C92.7346 94.8842 92.7667 94.955 92.8213 95.0062C92.8758 95.0575 92.9484 95.0852 93.0232 95.0832L93.0266 95.0823Z" fill="#0C0C0C"/>
</g>
<path d="M95.5169 77.9278C96.652 77.5292 97.8732 77.4443 99.0524 77.6819C99.6323 77.7951 100.192 77.9949 100.713 78.2746C101.228 78.5488 101.707 78.8869 102.138 79.2809C102.209 79.3425 102.253 79.4292 102.261 79.5226C102.269 79.6161 102.24 79.7091 102.181 79.782C102.122 79.8548 102.037 79.9019 101.944 79.9132C101.851 79.9246 101.758 79.8993 101.683 79.8427L101.66 79.8253C101.26 79.4984 100.821 79.2229 100.353 79.0054C99.892 78.7887 99.4008 78.6431 98.8962 78.5735C97.8991 78.4282 96.8813 78.5495 95.946 78.925L95.9104 78.9398C95.8444 78.9709 95.7727 78.9883 95.6998 78.9911C95.6269 78.9938 95.5541 78.9818 95.486 78.9557C95.4178 78.9296 95.3556 78.8899 95.303 78.8392C95.2505 78.7884 95.2088 78.7276 95.1803 78.6603C95.1518 78.593 95.1372 78.5206 95.1373 78.4475C95.1374 78.3744 95.1522 78.3021 95.1809 78.2349C95.2096 78.1677 95.2515 78.1069 95.3042 78.0563C95.3568 78.0057 95.4192 77.9663 95.4874 77.9404L95.5169 77.9278Z" fill="#0C0C0C"/>
<path d="M87.2733 79.0423C86.3379 78.6671 85.3201 78.5461 84.3231 78.6916C83.8185 78.7611 83.3273 78.9068 82.8662 79.1235C82.398 79.3409 81.959 79.6164 81.5594 79.9434L81.5373 79.9604C81.4626 80.0166 81.3691 80.0416 81.2764 80.0302C81.1837 80.0189 81.099 79.972 81.0401 79.8995C80.9811 79.8269 80.9525 79.7343 80.9602 79.6411C80.9678 79.5479 81.0113 79.4613 81.0813 79.3994C81.5122 79.0051 81.9911 78.6668 82.5065 78.3927C83.0273 78.1128 83.5872 77.9128 84.1673 77.7995C85.3463 77.562 86.5675 77.6469 87.7023 78.0455C87.8348 78.0964 87.9421 78.1973 88.0012 78.3265C88.0602 78.4558 88.0665 78.603 88.0185 78.7367C87.9705 78.8705 87.8721 78.9801 87.7444 79.0421C87.6167 79.104 87.4699 79.1135 87.3353 79.0683L87.3088 79.0583L87.2733 79.0423Z" fill="#0C0C0C"/>
<path d="M94.3902 97.9149C91.1513 98.2894 87.8802 97.5723 85.0936 95.877C84.997 95.8187 84.8857 95.7891 84.7729 95.7918C84.6601 95.7945 84.5504 95.8293 84.4566 95.8922C84.3629 95.955 84.2889 96.0433 84.2435 96.1468C84.198 96.2502 84.1829 96.3645 84.1999 96.4762C84.5101 98.3881 85.6316 101.877 89.6794 102.131C92.2938 102.294 94.0804 100.203 94.9655 98.8282C95.0272 98.7329 95.0603 98.6219 95.061 98.5083C95.0617 98.3948 95.0299 98.2834 94.9694 98.1873C94.9089 98.0913 94.8222 98.0146 94.7196 97.9663C94.6169 97.918 94.5026 97.9002 94.3902 97.9149Z" fill="white"/>
<path d="M93.031 66.1784C95.5542 65.4712 96.7571 61.8826 95.7177 58.1631C94.6784 54.4437 91.7904 52.0017 89.2672 52.709C86.744 53.4162 85.5411 57.0047 86.5805 60.7242C87.6198 64.4437 90.5079 66.8856 93.031 66.1784Z" fill="#0C0C0C"/>
<path d="M77.7433 133.219C62.9524 132.521 62.3298 119.947 62.3298 119.947C62.3298 119.947 55.0012 120.422 50.1295 121.082C42.1535 122.162 36.8918 124.871 32.7046 129.065C28.8091 132.966 26.4377 137.187 28.9475 164.135C30.7645 183.647 29.4855 226.565 29.4855 226.565H118.751C118.751 226.565 124.104 170.311 124.85 161.528C126.274 144.76 127.43 130.153 123.954 126.672C116.808 119.515 102.782 119.947 96.6397 119.948C96.5399 119.948 97.8862 134.17 77.7433 133.219Z" fill="#7700FF"/>
<path d="M208.02 225.987L143.549 226.306C140.456 226.082 137.491 224.977 135.004 223.122C132.517 221.266 130.611 218.738 129.511 215.834L97.7131 145.182C96.1822 141.142 96.3165 136.658 98.0866 132.717C99.8566 128.776 103.117 125.7 107.152 124.167C115.554 120.974 123.848 123.12 127.036 131.534L156.249 194.551L209.325 195.414C209.325 195.414 208.419 226.015 208.02 225.987Z" fill="#7700FF"/>
<path d="M123.588 165.448C123.591 165.39 123.618 165.336 123.661 165.298C123.704 165.26 123.761 165.241 123.818 165.244C123.876 165.248 123.929 165.274 123.968 165.318C124.006 165.361 124.025 165.418 124.021 165.475L122.207 194.513C122.203 194.565 122.181 194.614 122.145 194.652C122.108 194.689 122.059 194.712 122.007 194.716C121.997 194.716 121.987 194.716 121.976 194.716C121.948 194.714 121.92 194.707 121.894 194.694C121.869 194.681 121.846 194.664 121.827 194.642C121.808 194.621 121.794 194.596 121.784 194.569C121.775 194.542 121.771 194.513 121.773 194.485" fill="#0C0C0C"/>
<path d="M134.581 196.588L121.507 191.998L123.384 191.867C123.989 191.813 124.551 191.531 124.956 191.078C125.362 190.625 125.58 190.035 125.568 189.427C125.55 189.113 125.47 188.806 125.33 188.524C125.19 188.243 124.995 187.993 124.756 187.79C124.516 187.586 124.238 187.434 123.938 187.342C123.638 187.25 123.322 187.22 123.011 187.254L99.8806 189.716L100.481 197.161C100.668 199.473 101.54 201.677 102.985 203.489C104.431 205.302 106.384 206.641 108.594 207.334L118.611 210.459C119.128 210.632 119.689 210.62 120.199 210.426C120.708 210.232 121.135 209.867 121.407 209.394C121.644 208.962 121.736 208.465 121.671 207.976C121.606 207.487 121.386 207.032 121.045 206.677C121.075 206.655 121.099 206.625 121.114 206.59C121.126 206.558 121.13 206.523 121.125 206.489C121.121 206.455 121.108 206.422 121.088 206.394L122.935 206.973C123.51 207.167 124.138 207.135 124.691 206.883C125.244 206.63 125.68 206.178 125.913 205.615C126.103 205.106 126.107 204.545 125.925 204.033C125.743 203.52 125.387 203.088 124.918 202.813C124.94 202.801 124.959 202.786 124.975 202.767L125.734 203.005C126.251 203.178 126.812 203.166 127.322 202.972C127.831 202.778 128.258 202.413 128.53 201.94C128.818 201.415 128.891 200.799 128.735 200.222C128.578 199.644 128.205 199.149 127.692 198.842C127.696 198.826 127.699 198.811 127.7 198.795L133.144 200.707C133.415 200.806 133.703 200.85 133.991 200.836C134.279 200.823 134.561 200.753 134.822 200.629C135.082 200.506 135.316 200.332 135.509 200.117C135.702 199.902 135.85 199.652 135.946 199.379C136.041 199.107 136.081 198.818 136.064 198.53C136.048 198.241 135.974 197.959 135.847 197.7C135.72 197.44 135.544 197.209 135.327 197.018C135.11 196.828 134.858 196.682 134.585 196.59L134.581 196.588Z" fill="#FFC8B2"/>
<path opacity="0.2" d="M127.483 199.007C127.458 199.007 127.433 199.003 127.409 198.994L122.142 197.076C122.114 197.067 122.089 197.053 122.066 197.034C122.044 197.015 122.026 196.991 122.013 196.965C122 196.939 121.992 196.91 121.991 196.881C121.989 196.851 121.993 196.822 122.003 196.794C122.013 196.767 122.029 196.742 122.049 196.72C122.069 196.699 122.093 196.682 122.12 196.67C122.147 196.658 122.176 196.652 122.205 196.651C122.234 196.651 122.263 196.657 122.29 196.668L127.557 198.586C127.605 198.604 127.645 198.637 127.67 198.682C127.696 198.726 127.705 198.777 127.696 198.827C127.687 198.878 127.661 198.923 127.622 198.956C127.583 198.989 127.534 199.007 127.483 199.007Z" fill="#0A0A0A"/>
<path opacity="0.2" d="M124.819 202.841C124.795 202.841 124.77 202.837 124.747 202.829L120.596 201.351C120.543 201.331 120.501 201.29 120.478 201.239C120.454 201.188 120.452 201.129 120.47 201.076C120.489 201.023 120.528 200.979 120.578 200.954C120.629 200.929 120.687 200.925 120.741 200.942L124.892 202.417C124.94 202.434 124.98 202.468 125.006 202.512C125.032 202.556 125.041 202.608 125.033 202.659C125.024 202.709 124.998 202.755 124.959 202.788C124.92 202.821 124.87 202.839 124.819 202.839V202.841Z" fill="#0A0A0A"/>
<path opacity="0.2" d="M120.912 206.732C120.885 206.732 120.859 206.727 120.834 206.718L118.89 205.975C118.838 205.954 118.797 205.912 118.774 205.86C118.752 205.809 118.751 205.75 118.771 205.697C118.791 205.644 118.831 205.602 118.882 205.578C118.933 205.554 118.991 205.551 119.045 205.569L120.989 206.312C121.037 206.33 121.076 206.364 121.101 206.409C121.126 206.453 121.134 206.504 121.125 206.554C121.116 206.604 121.09 206.649 121.051 206.682C121.012 206.714 120.963 206.732 120.912 206.732Z" fill="#0A0A0A"/>
<path d="M109.572 212.794L28.5123 226.251C26.0134 226.523 23.4853 226.212 21.1266 225.341C18.7679 224.471 16.6427 223.065 14.9177 221.234C13.1927 219.402 11.9149 217.196 11.1845 214.787C10.4541 212.378 10.291 209.832 10.7079 207.35L27.993 138.001C28.7089 133.74 31.0858 129.937 34.6009 127.431C38.1159 124.924 42.4812 123.919 46.7363 124.636C50.9915 125.353 54.788 127.734 57.2906 131.254C59.7933 134.774 60.7971 139.146 60.0812 143.408L46.8248 191.741L105.726 183.682L109.572 212.794Z" fill="#7700FF"/>
<path d="M36.2583 193.258C36.2039 193.258 36.1516 193.237 36.1118 193.199C36.0721 193.162 36.0478 193.111 36.0438 193.057C36.0398 193.002 36.0564 192.948 36.0903 192.906C36.1242 192.863 36.1728 192.834 36.2267 192.826L46.3302 191.311C46.3584 191.306 46.3873 191.307 46.4151 191.314C46.4429 191.321 46.469 191.333 46.492 191.35C46.5151 191.367 46.5344 191.389 46.549 191.413C46.5636 191.438 46.5732 191.465 46.5771 191.493C46.5855 191.55 46.571 191.608 46.5368 191.655C46.5025 191.701 46.4513 191.732 46.3944 191.74L36.2909 193.255C36.2801 193.257 36.2692 193.258 36.2583 193.258Z" fill="#0C0C0C"/>
<path d="M30.7688 226.566C30.7113 226.569 30.6546 226.55 30.6114 226.512C30.5681 226.474 30.5417 226.42 30.538 226.362C30.5343 226.305 30.5536 226.248 30.5917 226.204C30.6298 226.161 30.6835 226.135 30.741 226.131L109.118 212.629L105.319 183.951L46.8248 191.741C46.7912 191.745 46.7571 191.742 46.7251 191.73C46.6931 191.719 46.6641 191.701 46.6404 191.677C46.6168 191.652 46.5992 191.623 46.5891 191.59C46.579 191.557 46.5766 191.523 46.5823 191.489L52.9118 164.141C52.9161 164.112 52.9261 164.085 52.9411 164.061C52.9561 164.036 52.9758 164.015 52.9991 163.999C53.0224 163.982 53.0488 163.97 53.0767 163.964C53.1046 163.958 53.1335 163.957 53.1617 163.962C53.1898 163.967 53.2167 163.977 53.2409 163.992C53.2651 164.007 53.286 164.027 53.3025 164.051C53.319 164.074 53.3308 164.1 53.3372 164.128C53.3435 164.156 53.3443 164.185 53.3395 164.213L47.0587 191.273L105.482 183.49C105.51 183.487 105.539 183.489 105.567 183.496C105.595 183.504 105.621 183.517 105.644 183.535C105.667 183.553 105.686 183.575 105.7 183.6C105.714 183.626 105.723 183.654 105.726 183.683L109.572 212.795C109.579 212.851 109.562 212.908 109.527 212.953C109.492 212.997 109.441 213.027 109.385 213.034L30.797 226.564C30.7877 226.565 30.7782 226.566 30.7688 226.566Z" fill="#0C0C0C"/>
<path d="M171.875 218.623L193.101 153.277C193.474 152.129 194.2 151.128 195.176 150.418C196.152 149.709 197.326 149.326 198.532 149.326H285.007C285.908 149.326 286.797 149.54 287.6 149.95C288.403 150.36 289.098 150.955 289.628 151.685C290.157 152.416 290.507 153.261 290.647 154.153C290.788 155.045 290.716 155.957 290.437 156.816L269.212 222.162C268.839 223.31 268.113 224.31 267.137 225.02C266.162 225.729 264.988 226.112 263.782 226.112H177.306C176.405 226.112 175.516 225.898 174.713 225.488C173.91 225.078 173.215 224.484 172.685 223.753C172.156 223.023 171.806 222.177 171.665 221.286C171.525 220.394 171.596 219.481 171.875 218.623Z" fill="#292A2E"/>
<path d="M189.19 220.813H131.305C129.862 220.813 128.693 221.984 128.693 223.429V223.496C128.693 224.941 129.862 226.112 131.305 226.112H189.19C190.632 226.112 191.802 224.941 191.802 223.496V223.429C191.802 221.984 190.632 220.813 189.19 220.813Z" fill="#292A2E"/>
<path d="M231.156 199.991C236.165 199.991 240.226 195.924 240.226 190.907C240.226 185.89 236.165 181.824 231.156 181.824C226.147 181.824 222.087 185.89 222.087 190.907C222.087 195.924 226.147 199.991 231.156 199.991Z" fill="white"/>
<path d="M329.804 125.085H234.328L222.088 134.268V86.8013C222.088 84.6821 222.929 82.6498 224.425 81.1513C225.921 79.6529 227.95 78.811 230.066 78.811H329.804C331.92 78.811 333.949 79.6529 335.446 81.1513C336.942 82.6498 337.782 84.6821 337.782 86.8013V117.095C337.782 119.214 336.942 121.246 335.445 122.745C333.949 124.243 331.92 125.085 329.804 125.085Z" fill="white"/>
<path d="M222.089 134.485C222.055 134.485 222.022 134.477 221.992 134.462C221.956 134.444 221.926 134.416 221.904 134.382C221.883 134.348 221.872 134.308 221.872 134.268V86.8013C221.875 84.6253 222.739 82.5391 224.275 81.0005C225.811 79.4618 227.894 78.5963 230.067 78.5938H329.805C331.978 78.5963 334.061 79.4618 335.597 81.0005C337.133 82.5391 337.997 84.6253 338 86.8013V117.095C337.997 119.271 337.133 121.357 335.597 122.895C334.061 124.434 331.978 125.3 329.805 125.302H234.401L222.219 134.442C222.182 134.47 222.136 134.485 222.089 134.485ZM230.067 79.0283C228.009 79.0306 226.037 79.8502 224.582 81.3075C223.127 82.7647 222.308 84.7404 222.306 86.8013V133.834L234.201 124.911C234.238 124.883 234.284 124.868 234.331 124.868H329.805C331.863 124.865 333.835 124.046 335.29 122.588C336.745 121.131 337.564 119.155 337.566 117.095V86.8013C337.564 84.7404 336.745 82.7647 335.29 81.3075C333.835 79.8502 331.863 79.0306 329.805 79.0283H230.067Z" fill="#292A2E"/>
<path d="M329.502 101.418H266.973C266.892 101.418 266.814 101.386 266.756 101.328C266.699 101.27 266.666 101.192 266.666 101.111C266.666 101.029 266.699 100.951 266.756 100.894C266.814 100.836 266.892 100.804 266.973 100.804H329.502C329.583 100.804 329.661 100.836 329.719 100.894C329.776 100.951 329.808 101.029 329.808 101.111C329.808 101.192 329.776 101.27 329.719 101.328C329.661 101.386 329.583 101.418 329.502 101.418Z" fill="#7700FF"/>
<path d="M329.502 109.098H266.973C266.933 109.098 266.893 109.09 266.856 109.074C266.819 109.059 266.785 109.036 266.756 109.008C266.728 108.979 266.705 108.945 266.69 108.908C266.674 108.871 266.666 108.831 266.666 108.79C266.666 108.75 266.674 108.71 266.69 108.673C266.705 108.636 266.728 108.602 266.756 108.573C266.785 108.545 266.819 108.522 266.856 108.507C266.893 108.491 266.933 108.483 266.973 108.483H329.502C329.542 108.483 329.582 108.491 329.619 108.507C329.656 108.522 329.69 108.545 329.719 108.573C329.747 108.602 329.77 108.636 329.785 108.673C329.8 108.71 329.808 108.75 329.808 108.79C329.808 108.831 329.8 108.871 329.785 108.908C329.77 108.945 329.747 108.979 329.719 109.008C329.69 109.036 329.656 109.059 329.619 109.074C329.582 109.09 329.542 109.098 329.502 109.098Z" fill="#7700FF"/>
<path d="M300.978 116.777H266.973C266.892 116.777 266.814 116.744 266.756 116.687C266.699 116.629 266.666 116.551 266.666 116.469C266.666 116.388 266.699 116.31 266.756 116.252C266.814 116.195 266.892 116.162 266.973 116.162H300.978C301.018 116.162 301.058 116.17 301.095 116.186C301.133 116.201 301.166 116.224 301.195 116.252C301.223 116.281 301.246 116.315 301.261 116.352C301.277 116.389 301.285 116.429 301.285 116.469C301.285 116.51 301.277 116.55 301.261 116.587C301.246 116.624 301.223 116.658 301.195 116.687C301.166 116.715 301.133 116.738 301.095 116.753C301.058 116.769 301.018 116.777 300.978 116.777Z" fill="#7700FF"/>
<path d="M244.558 118.709C253.061 118.709 259.953 111.805 259.953 103.29C259.953 94.774 253.061 87.8706 244.558 87.8706C236.055 87.8706 229.162 94.774 229.162 103.29C229.162 111.805 236.055 118.709 244.558 118.709Z" fill="#292A2E"/>
<path d="M271.392 86.5889L272.646 89.8373L276.118 90.0272L273.42 92.2254L274.313 95.5915L271.392 93.701L268.471 95.5915L269.364 92.2254L266.666 90.0272L270.139 89.8373L271.392 86.5889Z" fill="#7700FF"/>
<path d="M283.804 86.5889L285.058 89.8373L288.53 90.0272L285.833 92.2254L286.725 95.5915L283.804 93.701L280.884 95.5915L281.776 92.2254L279.079 90.0272L282.551 89.8373L283.804 86.5889Z" fill="#7700FF"/>
<path d="M296.217 86.5889L297.471 89.8373L300.943 90.0272L298.245 92.2254L299.138 95.5915L296.217 93.701L293.296 95.5915L294.189 92.2254L291.491 90.0272L294.964 89.8373L296.217 86.5889Z" fill="#7700FF"/>
<path d="M308.63 86.5889L309.883 89.8373L313.355 90.0272L310.658 92.2254L311.55 95.5915L308.63 93.701L305.709 95.5915L306.601 92.2254L303.904 90.0272L307.376 89.8373L308.63 86.5889Z" fill="#7700FF"/>
<path d="M321.042 86.5889L322.296 89.8373L325.768 90.0272L323.071 92.2254L323.963 95.5915L321.042 93.701L318.121 95.5915L319.014 92.2254L316.316 90.0272L319.789 89.8373L321.042 86.5889Z" fill="#7700FF"/>
<path d="M199.108 53.0636H164.634C162.211 53.0636 160.247 55.0306 160.247 57.457V82.7256C160.247 85.152 162.211 87.119 164.634 87.119H199.108C201.531 87.119 203.494 85.152 203.494 82.7256V57.457C203.494 55.0306 201.531 53.0636 199.108 53.0636Z" fill="#292A2E"/>
<path d="M192.763 72.5806H192.607C193.092 72.6838 193.526 72.9513 193.837 73.3381C194.147 73.7248 194.315 74.207 194.312 74.7032C194.299 75.2787 194.061 75.8261 193.649 76.2267C193.236 76.6273 192.682 76.8488 192.108 76.8432H191.747C192.19 76.9948 192.571 77.2868 192.833 77.6749C193.095 78.0631 193.224 78.5262 193.199 78.9941C193.162 79.5519 192.912 80.0743 192.503 80.454C192.093 80.8338 191.554 81.0421 190.995 81.0363H190.331L177.055 81.0245L177.074 64.0212C178.376 62.0146 180.665 58.6241 180.665 58.6241C181.019 58.0612 181.582 57.6623 182.23 57.5151C182.878 57.3679 183.557 57.4844 184.119 57.8391C184.681 58.1938 185.08 58.7576 185.227 59.4065C185.374 60.0553 185.257 60.7361 184.903 61.2989L183.205 63.999L185.207 64.0021H186.631L193.208 64.0094C193.771 64.005 194.314 64.2185 194.724 64.6054C195.134 64.9923 195.378 65.5227 195.407 66.086C195.418 66.3748 195.37 66.6629 195.267 66.9329C195.164 67.2029 195.008 67.4495 194.808 67.6578C194.608 67.8661 194.368 68.0319 194.102 68.1455C193.837 68.259 193.551 68.3178 193.263 68.3185C193.747 68.4217 194.182 68.6891 194.492 69.0757C194.803 69.4623 194.971 69.9444 194.968 70.4407C194.955 71.0161 194.717 71.5635 194.304 71.964C193.892 72.3646 193.338 72.5862 192.763 72.5806Z" fill="white"/>
<path d="M177.073 63.9395V64.0195L177.06 81.0228V81.0376L169.968 81.0259L169.982 63.9274L177.073 63.9395Z" fill="#7700FF"/>
<path opacity="0.65" d="M173.521 68.4176C174.33 68.4176 174.986 67.7607 174.986 66.9503C174.986 66.1399 174.33 65.4829 173.521 65.4829C172.711 65.4829 172.055 66.1399 172.055 66.9503C172.055 67.7607 172.711 68.4176 173.521 68.4176Z" fill="white"/>
<path d="M244.559 61.2047C254.589 61.2047 262.72 53.0617 262.72 43.0168C262.72 32.972 254.589 24.829 244.559 24.829C234.53 24.829 226.399 32.972 226.399 43.0168C226.399 53.0617 234.53 61.2047 244.559 61.2047Z" fill="#7700FF"/>
<path d="M253.85 42.9855C253.858 44.2128 253.624 45.4296 253.161 46.5659C252.698 47.7021 252.015 48.7354 251.151 49.6062C250.288 50.477 249.261 51.1681 248.129 51.6397C246.998 52.1114 245.785 52.3541 244.559 52.3541C243.334 52.3541 242.12 52.1114 240.989 51.6397C239.858 51.1681 238.831 50.477 237.967 49.6062C237.104 48.7354 236.421 47.7021 235.957 46.5659C235.494 45.4296 235.26 44.2128 235.269 42.9855H253.85Z" fill="white"/>
<path d="M238.001 37.3022C238.875 37.3022 239.584 36.5927 239.584 35.7175C239.584 34.8423 238.875 34.1328 238.001 34.1328C237.128 34.1328 236.419 34.8423 236.419 35.7175C236.419 36.5927 237.128 37.3022 238.001 37.3022Z" fill="#0C0C0C"/>
<path d="M251.117 37.3022C251.991 37.3022 252.699 36.5927 252.699 35.7175C252.699 34.8423 251.991 34.1328 251.117 34.1328C250.243 34.1328 249.535 34.8423 249.535 35.7175C249.535 36.5927 250.243 37.3022 251.117 37.3022Z" fill="#0C0C0C"/>
<path d="M244.558 103.988C248.114 103.988 250.997 101.101 250.997 97.539C250.997 93.9773 248.114 91.09 244.558 91.09C241.001 91.09 238.119 93.9773 238.119 97.539C238.119 101.101 241.001 103.988 244.558 103.988Z" fill="white"/>
<path d="M256.775 112.677C255.336 114.553 253.487 116.072 251.369 117.117C249.251 118.163 246.921 118.707 244.559 118.707C242.198 118.707 239.868 118.163 237.75 117.117C235.632 116.072 233.783 114.553 232.344 112.677C233.863 110.925 235.739 109.521 237.847 108.558C239.954 107.596 242.243 107.098 244.559 107.098C246.876 107.098 249.165 107.596 251.272 108.558C253.38 109.521 255.256 110.925 256.775 112.677Z" fill="white"/>
<path d="M244.558 118.926C241.47 118.926 238.451 118.009 235.884 116.291C233.316 114.573 231.315 112.131 230.133 109.274C228.952 106.417 228.642 103.273 229.245 100.24C229.847 97.2064 231.334 94.4202 233.517 92.2334C235.701 90.0466 238.483 88.5573 241.511 87.9539C244.54 87.3506 247.679 87.6602 250.532 88.8437C253.385 90.0271 255.823 92.0313 257.539 94.6027C259.254 97.1741 260.17 100.197 260.17 103.29C260.165 107.435 258.519 111.41 255.592 114.341C252.665 117.273 248.697 118.922 244.558 118.926ZM244.558 88.088C241.556 88.0879 238.621 88.9794 236.125 90.6497C233.629 92.3201 231.683 94.6943 230.534 97.472C229.385 100.25 229.085 103.306 229.67 106.255C230.256 109.204 231.701 111.913 233.824 114.039C235.947 116.165 238.652 117.613 241.596 118.2C244.54 118.786 247.592 118.485 250.366 117.335C253.139 116.184 255.51 114.236 257.178 111.736C258.846 109.236 259.736 106.296 259.736 103.29C259.732 99.2595 258.131 95.3955 255.286 92.5456C252.44 89.6957 248.582 88.0926 244.558 88.088Z" fill="#292A2E"/>
<path d="M280.414 219.548C280.352 219.548 280.292 219.531 280.24 219.498C280.188 219.466 280.146 219.419 280.119 219.364L271.482 201.622C271.445 201.544 271.441 201.454 271.469 201.373C271.498 201.292 271.557 201.225 271.635 201.187C271.712 201.149 271.801 201.144 271.883 201.171C271.965 201.199 272.032 201.257 272.071 201.334L280.708 219.076C280.727 219.115 280.738 219.157 280.741 219.2C280.743 219.243 280.737 219.286 280.723 219.327C280.709 219.368 280.687 219.405 280.659 219.438C280.63 219.47 280.596 219.496 280.557 219.515C280.512 219.537 280.464 219.548 280.414 219.548Z" fill="#292A2E"/>
<path d="M295.014 218.517C294.942 218.517 294.871 218.492 294.814 218.448C294.757 218.404 294.716 218.342 294.698 218.272L284.703 180.058C284.69 180.016 284.687 179.971 284.691 179.928C284.696 179.884 284.71 179.842 284.731 179.803C284.753 179.765 284.782 179.731 284.817 179.704C284.852 179.678 284.891 179.658 284.934 179.647C284.977 179.636 285.021 179.633 285.064 179.64C285.108 179.646 285.15 179.661 285.187 179.684C285.225 179.707 285.257 179.737 285.283 179.773C285.309 179.808 285.327 179.849 285.336 179.892L295.331 218.107C295.344 218.156 295.345 218.207 295.336 218.256C295.326 218.305 295.304 218.351 295.274 218.391C295.243 218.431 295.204 218.463 295.159 218.485C295.114 218.507 295.064 218.519 295.014 218.518V218.517Z" fill="#292A2E"/>
<path d="M314.08 220.211C314.036 220.211 313.992 220.202 313.952 220.185C313.912 220.168 313.877 220.144 313.846 220.113C313.816 220.082 313.792 220.046 313.776 220.006C313.76 219.966 313.752 219.923 313.752 219.88C313.753 219.837 313.762 219.795 313.778 219.755L324.11 195.386C324.146 195.309 324.21 195.248 324.29 195.218C324.369 195.187 324.457 195.189 324.535 195.222C324.613 195.256 324.676 195.318 324.709 195.396C324.742 195.475 324.743 195.563 324.713 195.642L314.381 220.011C314.356 220.071 314.314 220.121 314.26 220.157C314.207 220.192 314.144 220.211 314.08 220.211Z" fill="#292A2E"/>
<path d="M295.385 225.856C295.358 225.856 295.331 225.853 295.305 225.846C295.263 225.836 295.224 225.817 295.189 225.792C295.155 225.766 295.126 225.734 295.104 225.697C295.081 225.66 295.067 225.619 295.061 225.577C295.054 225.534 295.056 225.491 295.067 225.449L307.072 177.348C307.093 177.264 307.147 177.191 307.221 177.147C307.296 177.102 307.385 177.089 307.469 177.11C307.554 177.131 307.626 177.185 307.671 177.259C307.715 177.334 307.729 177.423 307.708 177.508L295.702 225.608C295.684 225.679 295.643 225.742 295.586 225.787C295.529 225.832 295.458 225.856 295.385 225.856Z" fill="#292A2E"/>
<path d="M316.186 194.546C322.065 191.745 324.19 183.915 320.933 177.057C317.676 170.199 310.269 166.91 304.39 169.711C298.511 172.512 296.385 180.342 299.643 187.2C302.9 194.058 310.307 197.347 316.186 194.546Z" fill="#0CBC8B"/>
<path opacity="0.4" d="M316.186 194.546C322.065 191.745 324.19 183.915 320.933 177.057C317.676 170.199 310.269 166.91 304.39 169.711C298.511 172.512 296.385 180.342 299.643 187.2C302.9 194.058 310.307 197.347 316.186 194.546Z" fill="white"/>
<path d="M329.325 208.101C332.86 206.675 334.349 202.094 332.65 197.87C330.951 193.645 326.708 191.376 323.173 192.801C319.638 194.227 318.149 198.808 319.848 203.033C321.547 207.258 325.79 209.527 329.325 208.101Z" fill="#0CBC8B"/>
<path d="M291.179 188.754C293.132 182.299 290.458 175.775 285.207 174.181C279.955 172.587 274.115 176.528 272.162 182.983C270.209 189.438 272.883 195.963 278.134 197.556C283.386 199.15 289.226 195.209 291.179 188.754Z" fill="#0CBC8B"/>
<path d="M275.716 204.766C276.405 200.634 274.587 196.884 271.656 196.391C268.725 195.898 265.79 198.848 265.101 202.98C264.412 207.112 266.23 210.862 269.161 211.355C272.092 211.848 275.027 208.898 275.716 204.766Z" fill="#0CBC8B"/>
<path d="M323.716 213.58H272.719V226.307H323.716V213.58Z" fill="#292A2E"/>
<path opacity="0.3" d="M323.716 213.58H272.719V226.307H323.716V213.58Z" fill="white"/>
<path d="M311.357 216.506C315.691 214.756 317.523 209.158 315.448 204.002C313.373 198.846 308.177 196.084 303.843 197.833C299.509 199.583 297.677 205.181 299.752 210.337C301.827 215.493 307.023 218.255 311.357 216.506Z" fill="#0CBC8B"/>
<path d="M288.226 215.272C292.541 215.272 296.039 211.769 296.039 207.447C296.039 203.126 292.541 199.623 288.226 199.623C283.911 199.623 280.413 203.126 280.413 207.447C280.413 211.769 283.911 215.272 288.226 215.272Z" fill="#0CBC8B"/>
<path opacity="0.68" d="M329.325 208.101C332.86 206.675 334.349 202.094 332.65 197.87C330.951 193.645 326.708 191.376 323.173 192.801C319.638 194.227 318.149 198.808 319.848 203.033C321.547 207.258 325.79 209.527 329.325 208.101Z" fill="white"/>
<path opacity="0.68" d="M291.179 188.754C293.132 182.299 290.458 175.775 285.207 174.181C279.955 172.587 274.115 176.528 272.162 182.983C270.209 189.438 272.883 195.963 278.134 197.556C283.386 199.15 289.226 195.209 291.179 188.754Z" fill="white"/>
<path opacity="0.68" d="M275.716 204.766C276.405 200.634 274.587 196.884 271.656 196.391C268.725 195.898 265.79 198.848 265.101 202.98C264.412 207.112 266.23 210.862 269.161 211.355C272.092 211.848 275.027 208.898 275.716 204.766Z" fill="white"/>
<path opacity="0.68" d="M311.357 216.506C315.691 214.756 317.523 209.158 315.448 204.002C313.373 198.846 308.177 196.084 303.843 197.833C299.509 199.583 297.677 205.181 299.752 210.337C301.827 215.493 307.023 218.255 311.357 216.506Z" fill="white"/>
<path opacity="0.4" d="M288.226 215.272C292.541 215.272 296.039 211.769 296.039 207.447C296.039 203.126 292.541 199.623 288.226 199.623C283.911 199.623 280.413 203.126 280.413 207.447C280.413 211.769 283.911 215.272 288.226 215.272Z" fill="white"/>
<path d="M313.321 200.86C307.391 202.519 304.271 197.666 304.271 197.666L304.274 197.659C307.437 196.715 310.944 198.043 313.321 200.86Z" fill="#292A2E"/>
<path d="M275.864 202.847C272.945 201.728 270.526 199.593 269.05 196.834C269.85 196.407 270.767 196.251 271.663 196.392C274.132 196.803 275.809 199.528 275.864 202.847Z" fill="#292A2E"/>
<path d="M289.621 199.748C287.346 201.8 284.505 203.114 281.47 203.516C282.278 202.126 283.494 201.019 284.952 200.345C286.41 199.671 288.04 199.462 289.621 199.748Z" fill="#292A2E"/>
<path d="M333.031 227H0.644492C0.529427 227 0.419075 226.954 0.337712 226.873C0.256349 226.791 0.21064 226.681 0.21064 226.565C0.21064 226.45 0.256349 226.34 0.337712 226.258C0.419075 226.177 0.529427 226.131 0.644492 226.131H333.031C333.146 226.131 333.257 226.177 333.338 226.258C333.419 226.34 333.465 226.45 333.465 226.565C333.465 226.681 333.419 226.791 333.338 226.873C333.257 226.954 333.146 227 333.031 227Z" fill="#292A2E"/>
</svg>
