<svg width="323" height="298" viewBox="0 0 323 298" fill="none" xmlns="http://www.w3.org/2000/svg">
<path opacity="0.3" d="M20.992 282.64C17.9627 282.64 15.3813 282.192 13.248 281.296C11.1147 280.4 9.36533 279.163 8 277.584C6.63467 276.005 5.61067 274.192 4.928 272.144C4.24533 270.053 3.84 267.835 3.712 265.488C3.66933 264.336 3.62667 263.077 3.584 261.712C3.584 260.304 3.584 258.896 3.584 257.488C3.62667 256.08 3.66933 254.779 3.712 253.584C3.79733 251.237 4.20267 249.04 4.928 246.992C5.65333 244.901 6.69867 243.088 8.064 241.552C9.472 240.016 11.2427 238.8 13.376 237.904C15.5093 237.008 18.048 236.56 20.992 236.56C23.9787 236.56 26.5387 237.008 28.672 237.904C30.8053 238.8 32.5547 240.016 33.92 241.552C35.328 243.088 36.3733 244.901 37.056 246.992C37.7813 249.04 38.1867 251.237 38.272 253.584C38.3573 254.779 38.4 256.08 38.4 257.488C38.4 258.896 38.4 260.304 38.4 261.712C38.4 263.077 38.3573 264.336 38.272 265.488C38.1867 267.835 37.8027 270.053 37.12 272.144C36.4373 274.192 35.4133 276.005 34.048 277.584C32.6827 279.163 30.912 280.4 28.736 281.296C26.6027 282.192 24.0213 282.64 20.992 282.64ZM20.992 275.28C23.7653 275.28 25.792 274.384 27.072 272.592C28.3947 270.757 29.0773 268.283 29.12 265.168C29.2053 263.931 29.248 262.693 29.248 261.456C29.248 260.176 29.248 258.896 29.248 257.616C29.248 256.336 29.2053 255.12 29.12 253.968C29.0773 250.939 28.3947 248.507 27.072 246.672C25.792 244.795 23.7653 243.856 20.992 243.856C18.2613 243.856 16.2347 244.795 14.912 246.672C13.632 248.507 12.9493 250.939 12.864 253.968C12.864 255.12 12.8427 256.336 12.8 257.616C12.8 258.896 12.8 260.176 12.8 261.456C12.8427 262.693 12.864 263.931 12.864 265.168C12.9493 268.283 13.6533 270.757 14.976 272.592C16.2987 274.384 18.304 275.28 20.992 275.28ZM61.6465 282.704C57.9772 282.704 54.8838 282.107 52.3665 280.912C49.8492 279.675 47.9292 278.075 46.6065 276.112C45.3265 274.149 44.6438 272.059 44.5585 269.84C44.5158 269.456 44.6225 269.157 44.8785 268.944C45.1772 268.688 45.5185 268.56 45.9025 268.56H51.8545C52.3238 268.56 52.7078 268.667 53.0065 268.88C53.3478 269.051 53.6038 269.371 53.7745 269.84C54.2012 271.12 54.7985 272.165 55.5665 272.976C56.3772 273.787 57.2945 274.384 58.3185 274.768C59.3852 275.152 60.4945 275.344 61.6465 275.344C63.1825 275.344 64.5692 275.045 65.8065 274.448C67.0865 273.808 68.1105 272.869 68.8785 271.632C69.6465 270.395 70.0305 268.88 70.0305 267.088C70.0305 265.509 69.6678 264.144 68.9425 262.992C68.2172 261.84 67.2145 260.944 65.9345 260.304C64.6972 259.621 63.2678 259.28 61.6465 259.28C60.4518 259.28 59.4705 259.429 58.7025 259.728C57.9345 260.027 57.2732 260.368 56.7185 260.752C56.2065 261.136 55.7372 261.477 55.3105 261.776C54.9265 262.075 54.4785 262.224 53.9665 262.224H48.0785C47.6945 262.224 47.3532 262.096 47.0545 261.84C46.7985 261.541 46.6705 261.2 46.6705 260.816L48.9105 238.928C48.9532 238.373 49.1452 237.947 49.4865 237.648C49.8278 237.349 50.2332 237.2 50.7025 237.2H74.7665C75.1932 237.2 75.5558 237.349 75.8545 237.648C76.1532 237.947 76.3025 238.309 76.3025 238.736V243.024C76.3025 243.451 76.1532 243.813 75.8545 244.112C75.5558 244.411 75.1932 244.56 74.7665 244.56H56.2705L55.2465 254.992C56.0145 254.48 57.0385 253.989 58.3185 253.52C59.5985 253.051 61.3692 252.816 63.6305 252.816C65.6785 252.816 67.6198 253.157 69.4545 253.84C71.3318 254.48 72.9958 255.44 74.4465 256.72C75.8972 257.957 77.0278 259.472 77.8385 261.264C78.6918 263.013 79.1185 265.019 79.1185 267.28C79.1185 270.395 78.3932 273.104 76.9425 275.408C75.4918 277.712 73.4652 279.504 70.8625 280.784C68.2598 282.064 65.1878 282.704 61.6465 282.704Z" fill="#7700FF"/>
<path d="M94.268 256C94.148 256 94.046 255.958 93.962 255.874C93.878 255.79 93.836 255.688 93.836 255.568V254.236C93.836 254.104 93.878 253.996 93.962 253.912C94.046 253.828 94.148 253.786 94.268 253.786H94.934C95.282 253.786 95.582 253.714 95.834 253.57C96.086 253.414 96.32 253.174 96.536 252.85C96.752 252.514 96.968 252.088 97.184 251.572L100.622 243.742C100.67 243.622 100.736 243.538 100.82 243.49C100.904 243.43 101 243.4 101.108 243.4H102.782C102.878 243.4 102.962 243.436 103.034 243.508C103.118 243.58 103.16 243.664 103.16 243.76C103.16 243.82 103.154 243.874 103.142 243.922C103.13 243.97 103.112 244.018 103.088 244.066L99.47 252.328C99.17 252.988 98.888 253.552 98.624 254.02C98.36 254.476 98.072 254.854 97.76 255.154C97.448 255.442 97.076 255.658 96.644 255.802C96.224 255.934 95.714 256 95.114 256H94.268ZM97.058 252.85L92.252 243.976C92.216 243.904 92.198 243.844 92.198 243.796C92.198 243.688 92.24 243.598 92.324 243.526C92.408 243.442 92.498 243.4 92.594 243.4H94.358C94.466 243.4 94.556 243.43 94.628 243.49C94.712 243.538 94.778 243.622 94.826 243.742L98.372 250.366L97.058 252.85ZM103.973 257.98C103.853 257.98 103.751 257.938 103.667 257.854C103.583 257.77 103.541 257.668 103.541 257.548V254.524C103.541 254.404 103.583 254.302 103.667 254.218C103.751 254.134 103.853 254.092 103.973 254.092H104.117C104.429 254.092 104.681 253.93 104.873 253.606C105.077 253.27 105.227 252.766 105.323 252.094C105.419 251.41 105.467 250.546 105.467 249.502V247.072C105.467 246.952 105.509 246.85 105.593 246.766C105.677 246.682 105.779 246.64 105.899 246.64H112.307C112.439 246.64 112.541 246.682 112.613 246.766C112.697 246.85 112.739 246.952 112.739 247.072V254.074H113.549C113.681 254.074 113.783 254.116 113.855 254.2C113.939 254.284 113.981 254.386 113.981 254.506V257.548C113.981 257.668 113.939 257.77 113.855 257.854C113.783 257.938 113.681 257.98 113.549 257.98H112.073C111.941 257.98 111.833 257.938 111.749 257.854C111.665 257.77 111.623 257.668 111.623 257.548V256H105.899V257.548C105.899 257.668 105.857 257.77 105.773 257.854C105.689 257.938 105.587 257.98 105.467 257.98H103.973ZM106.889 254.092L110.399 254.074V248.548H107.735V249.754C107.735 250.834 107.663 251.728 107.519 252.436C107.375 253.144 107.165 253.696 106.889 254.092ZM118.353 256.18C117.729 256.18 117.165 256.06 116.661 255.82C116.157 255.568 115.755 255.238 115.455 254.83C115.167 254.41 115.023 253.942 115.023 253.426C115.023 252.586 115.365 251.92 116.049 251.428C116.733 250.924 117.627 250.588 118.731 250.42L121.197 250.06V249.682C121.197 249.178 121.071 248.788 120.819 248.512C120.567 248.236 120.135 248.098 119.523 248.098C119.091 248.098 118.737 248.188 118.461 248.368C118.197 248.536 117.999 248.764 117.867 249.052C117.771 249.208 117.633 249.286 117.453 249.286H116.031C115.899 249.286 115.797 249.25 115.725 249.178C115.665 249.106 115.635 249.01 115.635 248.89C115.647 248.698 115.725 248.464 115.869 248.188C116.025 247.912 116.253 247.648 116.553 247.396C116.865 247.132 117.267 246.91 117.759 246.73C118.251 246.55 118.845 246.46 119.541 246.46C120.297 246.46 120.933 246.556 121.449 246.748C121.977 246.928 122.397 247.174 122.709 247.486C123.021 247.798 123.249 248.164 123.393 248.584C123.537 249.004 123.609 249.448 123.609 249.916V255.568C123.609 255.688 123.567 255.79 123.483 255.874C123.399 255.958 123.297 256 123.177 256H121.719C121.587 256 121.479 255.958 121.395 255.874C121.323 255.79 121.287 255.688 121.287 255.568V254.866C121.131 255.082 120.921 255.292 120.657 255.496C120.393 255.7 120.069 255.868 119.685 256C119.313 256.12 118.869 256.18 118.353 256.18ZM118.965 254.47C119.385 254.47 119.763 254.38 120.099 254.2C120.447 254.02 120.717 253.744 120.909 253.372C121.113 252.988 121.215 252.508 121.215 251.932V251.554L119.415 251.842C118.707 251.95 118.179 252.124 117.831 252.364C117.483 252.604 117.309 252.898 117.309 253.246C117.309 253.51 117.387 253.738 117.543 253.93C117.711 254.11 117.921 254.248 118.173 254.344C118.425 254.428 118.689 254.47 118.965 254.47ZM125.63 256C125.498 256 125.39 255.958 125.306 255.874C125.222 255.79 125.18 255.682 125.18 255.55V254.434C125.18 254.17 125.318 254.026 125.594 254.002C125.954 253.978 126.242 253.81 126.458 253.498C126.674 253.186 126.83 252.706 126.926 252.058C127.034 251.398 127.088 250.546 127.088 249.502V247.072C127.088 246.952 127.124 246.85 127.196 246.766C127.28 246.682 127.388 246.64 127.52 246.64H133.91C134.03 246.64 134.132 246.682 134.216 246.766C134.3 246.85 134.342 246.952 134.342 247.072V255.568C134.342 255.688 134.3 255.79 134.216 255.874C134.132 255.958 134.03 256 133.91 256H132.416C132.284 256 132.176 255.958 132.092 255.874C132.02 255.79 131.984 255.688 131.984 255.568V248.548H129.338V249.754C129.338 250.906 129.272 251.884 129.14 252.688C129.02 253.48 128.81 254.122 128.51 254.614C128.222 255.094 127.838 255.448 127.358 255.676C126.89 255.892 126.314 256 125.63 256ZM137.178 256C137.07 256 136.974 255.958 136.89 255.874C136.806 255.79 136.764 255.694 136.764 255.586V247.072C136.764 246.952 136.806 246.85 136.89 246.766C136.974 246.682 137.076 246.64 137.196 246.64H138.69C138.822 246.64 138.924 246.682 138.996 246.766C139.08 246.85 139.122 246.952 139.122 247.072V254.182L138.492 253.732L143.442 246.928C143.502 246.844 143.568 246.778 143.64 246.73C143.712 246.67 143.808 246.64 143.928 246.64H145.296C145.404 246.64 145.5 246.682 145.584 246.766C145.668 246.838 145.71 246.928 145.71 247.036V255.568C145.71 255.688 145.668 255.79 145.584 255.874C145.5 255.958 145.398 256 145.278 256H143.784C143.652 256 143.544 255.958 143.46 255.874C143.388 255.79 143.352 255.688 143.352 255.568V248.782L144.018 248.872L139.032 255.712C138.984 255.784 138.918 255.85 138.834 255.91C138.762 255.97 138.666 256 138.546 256H137.178ZM150.841 256C150.709 256 150.601 255.958 150.517 255.874C150.445 255.79 150.409 255.688 150.409 255.568V248.548H147.475C147.343 248.548 147.235 248.506 147.151 248.422C147.079 248.338 147.043 248.23 147.043 248.098V247.072C147.043 246.952 147.079 246.85 147.151 246.766C147.235 246.682 147.343 246.64 147.475 246.64H155.647C155.779 246.64 155.887 246.682 155.971 246.766C156.055 246.85 156.097 246.952 156.097 247.072V248.098C156.097 248.23 156.055 248.338 155.971 248.422C155.887 248.506 155.779 248.548 155.647 248.548H152.731V255.568C152.731 255.688 152.689 255.79 152.605 255.874C152.521 255.958 152.419 256 152.299 256H150.841ZM161.556 256.18C160.224 256.18 159.168 255.796 158.388 255.028C157.608 254.26 157.188 253.168 157.128 251.752C157.116 251.632 157.11 251.482 157.11 251.302C157.11 251.11 157.116 250.96 157.128 250.852C157.176 249.94 157.38 249.16 157.74 248.512C158.112 247.852 158.622 247.348 159.27 247C159.918 246.64 160.68 246.46 161.556 246.46C162.528 246.46 163.344 246.664 164.004 247.072C164.664 247.468 165.162 248.026 165.498 248.746C165.834 249.454 166.002 250.276 166.002 251.212V251.59C166.002 251.71 165.96 251.812 165.876 251.896C165.792 251.98 165.684 252.022 165.552 252.022H159.576C159.576 252.022 159.576 252.04 159.576 252.076C159.576 252.112 159.576 252.142 159.576 252.166C159.588 252.586 159.666 252.976 159.81 253.336C159.966 253.684 160.188 253.966 160.476 254.182C160.776 254.398 161.13 254.506 161.538 254.506C161.874 254.506 162.156 254.458 162.384 254.362C162.612 254.254 162.798 254.134 162.942 254.002C163.086 253.87 163.188 253.762 163.248 253.678C163.356 253.534 163.44 253.45 163.5 253.426C163.572 253.39 163.674 253.372 163.806 253.372H165.354C165.474 253.372 165.57 253.408 165.642 253.48C165.726 253.552 165.762 253.642 165.75 253.75C165.738 253.942 165.636 254.176 165.444 254.452C165.264 254.728 165 254.998 164.652 255.262C164.304 255.526 163.866 255.748 163.338 255.928C162.822 256.096 162.228 256.18 161.556 256.18ZM159.576 250.51H163.554V250.456C163.554 249.988 163.476 249.58 163.32 249.232C163.164 248.872 162.936 248.596 162.636 248.404C162.336 248.2 161.976 248.098 161.556 248.098C161.136 248.098 160.776 248.2 160.476 248.404C160.176 248.596 159.948 248.872 159.792 249.232C159.648 249.58 159.576 249.988 159.576 250.456V250.51ZM176.076 256.18C175.212 256.18 174.45 256.018 173.79 255.694C173.142 255.37 172.632 254.902 172.26 254.29C171.9 253.666 171.702 252.916 171.666 252.04C171.654 251.86 171.648 251.626 171.648 251.338C171.648 251.038 171.654 250.792 171.666 250.6C171.702 249.724 171.9 248.98 172.26 248.368C172.632 247.744 173.142 247.27 173.79 246.946C174.45 246.622 175.212 246.46 176.076 246.46C176.844 246.46 177.498 246.568 178.038 246.784C178.578 246.988 179.022 247.258 179.37 247.594C179.718 247.918 179.976 248.26 180.144 248.62C180.324 248.968 180.42 249.286 180.432 249.574C180.444 249.706 180.402 249.814 180.306 249.898C180.222 249.97 180.12 250.006 180 250.006H178.416C178.296 250.006 178.2 249.976 178.128 249.916C178.068 249.856 178.008 249.766 177.948 249.646C177.768 249.166 177.528 248.83 177.228 248.638C176.94 248.434 176.568 248.332 176.112 248.332C175.512 248.332 175.032 248.524 174.672 248.908C174.324 249.28 174.138 249.874 174.114 250.69C174.09 251.146 174.09 251.566 174.114 251.95C174.138 252.778 174.324 253.378 174.672 253.75C175.032 254.122 175.512 254.308 176.112 254.308C176.58 254.308 176.958 254.212 177.246 254.02C177.534 253.816 177.768 253.474 177.948 252.994C178.008 252.874 178.068 252.784 178.128 252.724C178.2 252.664 178.296 252.634 178.416 252.634H180C180.12 252.634 180.222 252.676 180.306 252.76C180.402 252.832 180.444 252.934 180.432 253.066C180.42 253.282 180.36 253.528 180.252 253.804C180.156 254.068 179.994 254.344 179.766 254.632C179.55 254.908 179.274 255.166 178.938 255.406C178.602 255.634 178.194 255.82 177.714 255.964C177.246 256.108 176.7 256.18 176.076 256.18ZM182.741 256C182.621 256 182.519 255.958 182.435 255.874C182.351 255.79 182.309 255.688 182.309 255.568V247.072C182.309 246.952 182.351 246.85 182.435 246.766C182.519 246.682 182.621 246.64 182.741 246.64H186.737C188.009 246.64 188.951 246.874 189.563 247.342C190.175 247.81 190.481 248.44 190.481 249.232C190.481 249.736 190.385 250.126 190.193 250.402C190.001 250.678 189.737 250.918 189.401 251.122C189.821 251.314 190.145 251.608 190.373 252.004C190.613 252.388 190.733 252.814 190.733 253.282C190.733 254.146 190.409 254.818 189.761 255.298C189.125 255.766 188.183 256 186.935 256H182.741ZM184.613 254.38H186.773C187.253 254.38 187.637 254.29 187.925 254.11C188.213 253.93 188.357 253.648 188.357 253.264C188.357 252.868 188.225 252.58 187.961 252.4C187.697 252.22 187.301 252.13 186.773 252.13H184.613V254.38ZM184.613 250.456H186.701C187.181 250.456 187.559 250.36 187.835 250.168C188.111 249.964 188.249 249.67 188.249 249.286C188.249 248.902 188.105 248.638 187.817 248.494C187.541 248.338 187.169 248.26 186.701 248.26H184.613V250.456ZM196.943 256.18C195.983 256.18 195.173 256.012 194.513 255.676C193.865 255.34 193.367 254.866 193.019 254.254C192.683 253.642 192.491 252.928 192.443 252.112C192.431 251.896 192.425 251.632 192.425 251.32C192.425 251.008 192.431 250.744 192.443 250.528C192.491 249.7 192.689 248.986 193.037 248.386C193.397 247.774 193.901 247.3 194.549 246.964C195.209 246.628 196.007 246.46 196.943 246.46C197.879 246.46 198.671 246.628 199.319 246.964C199.979 247.3 200.483 247.774 200.831 248.386C201.191 248.986 201.395 249.7 201.443 250.528C201.455 250.744 201.461 251.008 201.461 251.32C201.461 251.632 201.455 251.896 201.443 252.112C201.395 252.928 201.197 253.642 200.849 254.254C200.513 254.866 200.015 255.34 199.355 255.676C198.707 256.012 197.903 256.18 196.943 256.18ZM196.943 254.398C197.579 254.398 198.071 254.2 198.419 253.804C198.767 253.396 198.959 252.802 198.995 252.022C199.007 251.842 199.013 251.608 199.013 251.32C199.013 251.032 199.007 250.798 198.995 250.618C198.959 249.838 198.767 249.25 198.419 248.854C198.071 248.446 197.579 248.242 196.943 248.242C196.307 248.242 195.815 248.446 195.467 248.854C195.119 249.25 194.927 249.838 194.891 250.618C194.879 250.798 194.873 251.032 194.873 251.32C194.873 251.608 194.879 251.842 194.891 252.022C194.927 252.802 195.119 253.396 195.467 253.804C195.815 254.2 196.307 254.398 196.943 254.398ZM208.64 252.184H205.814V255.568C205.814 255.688 205.772 255.79 205.688 255.874C205.616 255.958 205.514 256 205.382 256H203.888C203.768 256 203.666 255.958 203.582 255.874C203.498 255.79 203.456 255.688 203.456 255.568V247.072C203.456 246.952 203.498 246.85 203.582 246.766C203.666 246.682 203.768 246.64 203.888 246.64H205.382C205.514 246.64 205.616 246.682 205.688 246.766C205.772 246.85 205.814 246.952 205.814 247.072V250.294H208.64V252.184ZM211.952 256.18C210.992 256.18 210.182 256.012 209.522 255.676C208.874 255.34 208.376 254.866 208.028 254.254C207.68 253.642 207.488 252.928 207.452 252.112C207.44 251.896 207.434 251.632 207.434 251.32C207.434 251.008 207.44 250.744 207.452 250.528C207.488 249.7 207.686 248.986 208.046 248.386C208.406 247.774 208.91 247.3 209.558 246.964C210.218 246.628 211.016 246.46 211.952 246.46C212.888 246.46 213.68 246.628 214.328 246.964C214.988 247.3 215.492 247.774 215.84 248.386C216.2 248.986 216.398 249.7 216.434 250.528C216.458 250.744 216.47 251.008 216.47 251.32C216.47 251.632 216.458 251.896 216.434 252.112C216.398 252.928 216.206 253.642 215.858 254.254C215.522 254.866 215.024 255.34 214.364 255.676C213.716 256.012 212.912 256.18 211.952 256.18ZM211.952 254.398C212.588 254.398 213.08 254.2 213.428 253.804C213.776 253.396 213.968 252.802 214.004 252.022C214.016 251.842 214.022 251.608 214.022 251.32C214.022 251.032 214.016 250.798 214.004 250.618C213.968 249.838 213.776 249.25 213.428 248.854C213.08 248.446 212.588 248.242 211.952 248.242C211.316 248.242 210.818 248.446 210.458 248.854C210.11 249.25 209.924 249.838 209.9 250.618C209.888 250.798 209.882 251.032 209.882 251.32C209.882 251.608 209.888 251.842 209.9 252.022C209.924 252.802 210.11 253.396 210.458 253.804C210.818 254.2 211.316 254.398 211.952 254.398ZM222.293 256C222.161 256 222.053 255.958 221.969 255.874C221.885 255.79 221.843 255.682 221.843 255.55V254.434C221.843 254.17 221.981 254.026 222.257 254.002C222.617 253.978 222.905 253.81 223.121 253.498C223.337 253.186 223.493 252.706 223.589 252.058C223.697 251.398 223.751 250.546 223.751 249.502V247.072C223.751 246.952 223.787 246.85 223.859 246.766C223.943 246.682 224.051 246.64 224.183 246.64H230.573C230.693 246.64 230.795 246.682 230.879 246.766C230.963 246.85 231.005 246.952 231.005 247.072V255.568C231.005 255.688 230.963 255.79 230.879 255.874C230.795 255.958 230.693 256 230.573 256H229.079C228.947 256 228.839 255.958 228.755 255.874C228.683 255.79 228.647 255.688 228.647 255.568V248.548H226.001V249.754C226.001 250.906 225.935 251.884 225.803 252.688C225.683 253.48 225.473 254.122 225.173 254.614C224.885 255.094 224.501 255.448 224.021 255.676C223.553 255.892 222.977 256 222.293 256ZM233.84 256C233.732 256 233.636 255.958 233.552 255.874C233.468 255.79 233.426 255.694 233.426 255.586V247.072C233.426 246.952 233.468 246.85 233.552 246.766C233.636 246.682 233.738 246.64 233.858 246.64H235.352C235.484 246.64 235.586 246.682 235.658 246.766C235.742 246.85 235.784 246.952 235.784 247.072V254.182L235.154 253.732L240.104 246.928C240.164 246.844 240.23 246.778 240.302 246.73C240.374 246.67 240.47 246.64 240.59 246.64H241.958C242.066 246.64 242.162 246.682 242.246 246.766C242.33 246.838 242.372 246.928 242.372 247.036V255.568C242.372 255.688 242.33 255.79 242.246 255.874C242.162 255.958 242.06 256 241.94 256H240.446C240.314 256 240.206 255.958 240.122 255.874C240.05 255.79 240.014 255.688 240.014 255.568V248.782L240.68 248.872L235.694 255.712C235.646 255.784 235.58 255.85 235.496 255.91C235.424 255.97 235.328 256 235.208 256H233.84ZM250.563 256C250.443 256 250.341 255.958 250.257 255.874C250.173 255.79 250.131 255.688 250.131 255.568V252.508C249.831 252.772 249.459 252.97 249.015 253.102C248.583 253.222 248.091 253.282 247.539 253.282C246.447 253.282 245.601 253.024 245.001 252.508C244.413 251.98 244.119 251.134 244.119 249.97V247.072C244.119 246.952 244.161 246.85 244.245 246.766C244.329 246.682 244.431 246.64 244.551 246.64H246.099C246.219 246.64 246.321 246.682 246.405 246.766C246.489 246.85 246.531 246.952 246.531 247.072V249.844C246.531 250.324 246.657 250.672 246.909 250.888C247.173 251.092 247.593 251.194 248.169 251.194C248.757 251.194 249.231 251.116 249.591 250.96C249.951 250.804 250.131 250.528 250.131 250.132V247.072C250.131 246.952 250.173 246.85 250.257 246.766C250.341 246.682 250.443 246.64 250.563 246.64H252.183C252.303 246.64 252.405 246.682 252.489 246.766C252.573 246.85 252.615 246.952 252.615 247.072V255.568C252.615 255.688 252.573 255.79 252.489 255.874C252.405 255.958 252.303 256 252.183 256H250.563ZM255.479 256C255.359 256 255.257 255.958 255.173 255.874C255.089 255.79 255.047 255.688 255.047 255.568V247.072C255.047 246.952 255.089 246.85 255.173 246.766C255.257 246.682 255.359 246.64 255.479 246.64H256.973C257.105 246.64 257.207 246.682 257.279 246.766C257.363 246.85 257.405 246.952 257.405 247.072V250.294H261.473V247.072C261.473 246.952 261.515 246.85 261.599 246.766C261.683 246.682 261.785 246.64 261.905 246.64H263.399C263.519 246.64 263.621 246.682 263.705 246.766C263.789 246.85 263.831 246.952 263.831 247.072V255.568C263.831 255.688 263.789 255.79 263.705 255.874C263.621 255.958 263.519 256 263.399 256H261.905C261.785 256 261.683 255.958 261.599 255.874C261.515 255.79 261.473 255.688 261.473 255.568V252.184H257.405V255.568C257.405 255.688 257.363 255.79 257.279 255.874C257.207 255.958 257.105 256 256.973 256H255.479ZM266.928 259.42C266.808 259.42 266.706 259.378 266.622 259.294C266.538 259.222 266.496 259.12 266.496 258.988V257.962C266.496 257.83 266.538 257.722 266.622 257.638C266.706 257.566 266.808 257.53 266.928 257.53H267.486C267.726 257.53 267.924 257.482 268.08 257.386C268.236 257.29 268.38 257.128 268.512 256.9C268.644 256.684 268.788 256.384 268.944 256L272.688 246.982C272.736 246.886 272.796 246.808 272.868 246.748C272.94 246.676 273.048 246.64 273.192 246.64H274.56C274.656 246.64 274.74 246.676 274.812 246.748C274.896 246.82 274.938 246.904 274.938 247C274.938 247.048 274.932 247.09 274.92 247.126C274.92 247.162 274.902 247.216 274.866 247.288L271.446 255.46C271.242 255.976 271.02 256.468 270.78 256.936C270.552 257.416 270.294 257.842 270.006 258.214C269.73 258.598 269.406 258.892 269.034 259.096C268.662 259.312 268.224 259.42 267.72 259.42H266.928ZM269.25 255.766L265.596 247.288C265.548 247.168 265.524 247.084 265.524 247.036C265.536 246.928 265.578 246.838 265.65 246.766C265.722 246.682 265.812 246.64 265.92 246.64H267.36C267.504 246.64 267.606 246.676 267.666 246.748C267.738 246.82 267.792 246.898 267.828 246.982L270.618 253.858L269.25 255.766ZM281.712 252.184H278.886V255.568C278.886 255.688 278.844 255.79 278.76 255.874C278.688 255.958 278.586 256 278.454 256H276.96C276.84 256 276.738 255.958 276.654 255.874C276.57 255.79 276.528 255.688 276.528 255.568V247.072C276.528 246.952 276.57 246.85 276.654 246.766C276.738 246.682 276.84 246.64 276.96 246.64H278.454C278.586 246.64 278.688 246.682 278.76 246.766C278.844 246.85 278.886 246.952 278.886 247.072V250.294H281.712V252.184ZM285.024 256.18C284.064 256.18 283.254 256.012 282.594 255.676C281.946 255.34 281.448 254.866 281.1 254.254C280.752 253.642 280.56 252.928 280.524 252.112C280.512 251.896 280.506 251.632 280.506 251.32C280.506 251.008 280.512 250.744 280.524 250.528C280.56 249.7 280.758 248.986 281.118 248.386C281.478 247.774 281.982 247.3 282.63 246.964C283.29 246.628 284.088 246.46 285.024 246.46C285.96 246.46 286.752 246.628 287.4 246.964C288.06 247.3 288.564 247.774 288.912 248.386C289.272 248.986 289.47 249.7 289.506 250.528C289.53 250.744 289.542 251.008 289.542 251.32C289.542 251.632 289.53 251.896 289.506 252.112C289.47 252.928 289.278 253.642 288.93 254.254C288.594 254.866 288.096 255.34 287.436 255.676C286.788 256.012 285.984 256.18 285.024 256.18ZM285.024 254.398C285.66 254.398 286.152 254.2 286.5 253.804C286.848 253.396 287.04 252.802 287.076 252.022C287.088 251.842 287.094 251.608 287.094 251.32C287.094 251.032 287.088 250.798 287.076 250.618C287.04 249.838 286.848 249.25 286.5 248.854C286.152 248.446 285.66 248.242 285.024 248.242C284.388 248.242 283.89 248.446 283.53 248.854C283.182 249.25 282.996 249.838 282.972 250.618C282.96 250.798 282.954 251.032 282.954 251.32C282.954 251.608 282.96 251.842 282.972 252.022C282.996 252.802 283.182 253.396 283.53 253.804C283.89 254.2 284.388 254.398 285.024 254.398ZM93.602 277C93.494 277 93.398 276.958 93.314 276.874C93.23 276.79 93.188 276.694 93.188 276.586V268.072C93.188 267.952 93.23 267.85 93.314 267.766C93.398 267.682 93.5 267.64 93.62 267.64H95.114C95.246 267.64 95.348 267.682 95.42 267.766C95.504 267.85 95.546 267.952 95.546 268.072V275.182L94.916 274.732L99.866 267.928C99.926 267.844 99.992 267.778 100.064 267.73C100.136 267.67 100.232 267.64 100.352 267.64H101.72C101.828 267.64 101.924 267.682 102.008 267.766C102.092 267.838 102.134 267.928 102.134 268.036V276.568C102.134 276.688 102.092 276.79 102.008 276.874C101.924 276.958 101.822 277 101.702 277H100.208C100.076 277 99.968 276.958 99.884 276.874C99.812 276.79 99.776 276.688 99.776 276.568V269.782L100.442 269.872L95.456 276.712C95.408 276.784 95.342 276.85 95.258 276.91C95.186 276.97 95.09 277 94.97 277H93.602ZM104.835 277C104.715 277 104.613 276.958 104.529 276.874C104.445 276.79 104.403 276.688 104.403 276.568V268.072C104.403 267.952 104.445 267.85 104.529 267.766C104.613 267.682 104.715 267.64 104.835 267.64H106.329C106.461 267.64 106.563 267.682 106.635 267.766C106.719 267.85 106.761 267.952 106.761 268.072V271.294H110.829V268.072C110.829 267.952 110.871 267.85 110.955 267.766C111.039 267.682 111.141 267.64 111.261 267.64H112.755C112.875 267.64 112.977 267.682 113.061 267.766C113.145 267.85 113.187 267.952 113.187 268.072V276.568C113.187 276.688 113.145 276.79 113.061 276.874C112.977 276.958 112.875 277 112.755 277H111.261C111.141 277 111.039 276.958 110.955 276.874C110.871 276.79 110.829 276.688 110.829 276.568V273.184H106.761V276.568C106.761 276.688 106.719 276.79 106.635 276.874C106.563 276.958 106.461 277 106.329 277H104.835ZM120.55 280.42C120.418 280.42 120.31 280.378 120.226 280.294C120.154 280.21 120.118 280.108 120.118 279.988V277C119.038 277 118.144 276.838 117.436 276.514C116.74 276.178 116.212 275.71 115.852 275.11C115.504 274.51 115.306 273.808 115.258 273.004C115.234 272.548 115.234 272.092 115.258 271.636C115.306 270.832 115.51 270.13 115.87 269.53C116.242 268.93 116.782 268.468 117.49 268.144C118.198 267.808 119.074 267.64 120.118 267.64V264.652C120.118 264.532 120.154 264.43 120.226 264.346C120.31 264.262 120.418 264.22 120.55 264.22H122.026C122.158 264.22 122.26 264.262 122.332 264.346C122.416 264.43 122.458 264.532 122.458 264.652V267.64C123.514 267.64 124.39 267.808 125.086 268.144C125.794 268.468 126.328 268.93 126.688 269.53C127.06 270.13 127.264 270.832 127.3 271.636C127.336 272.092 127.336 272.548 127.3 273.004C127.264 273.808 127.066 274.51 126.706 275.11C126.358 275.71 125.83 276.178 125.122 276.514C124.426 276.838 123.538 277 122.458 277V279.988C122.458 280.108 122.416 280.21 122.332 280.294C122.26 280.378 122.158 280.42 122.026 280.42H120.55ZM120.118 275.218V269.422C119.29 269.422 118.672 269.62 118.264 270.016C117.868 270.412 117.652 271.006 117.616 271.798C117.604 271.966 117.598 272.146 117.598 272.338C117.598 272.518 117.604 272.686 117.616 272.842C117.664 273.646 117.886 274.246 118.282 274.642C118.678 275.026 119.29 275.218 120.118 275.218ZM122.458 275.218C123.298 275.218 123.916 275.02 124.312 274.624C124.708 274.228 124.924 273.634 124.96 272.842C124.972 272.686 124.978 272.518 124.978 272.338C124.978 272.146 124.972 271.966 124.96 271.798C124.936 270.994 124.714 270.4 124.294 270.016C123.886 269.62 123.274 269.422 122.458 269.422V275.218ZM133.469 277.18C132.509 277.18 131.699 277.012 131.039 276.676C130.391 276.34 129.893 275.866 129.545 275.254C129.209 274.642 129.017 273.928 128.969 273.112C128.957 272.896 128.951 272.632 128.951 272.32C128.951 272.008 128.957 271.744 128.969 271.528C129.017 270.7 129.215 269.986 129.563 269.386C129.923 268.774 130.427 268.3 131.075 267.964C131.735 267.628 132.533 267.46 133.469 267.46C134.405 267.46 135.197 267.628 135.845 267.964C136.505 268.3 137.009 268.774 137.357 269.386C137.717 269.986 137.921 270.7 137.969 271.528C137.981 271.744 137.987 272.008 137.987 272.32C137.987 272.632 137.981 272.896 137.969 273.112C137.921 273.928 137.723 274.642 137.375 275.254C137.039 275.866 136.541 276.34 135.881 276.676C135.233 277.012 134.429 277.18 133.469 277.18ZM133.469 275.398C134.105 275.398 134.597 275.2 134.945 274.804C135.293 274.396 135.485 273.802 135.521 273.022C135.533 272.842 135.539 272.608 135.539 272.32C135.539 272.032 135.533 271.798 135.521 271.618C135.485 270.838 135.293 270.25 134.945 269.854C134.597 269.446 134.105 269.242 133.469 269.242C132.833 269.242 132.341 269.446 131.993 269.854C131.645 270.25 131.453 270.838 131.417 271.618C131.405 271.798 131.399 272.032 131.399 272.32C131.399 272.608 131.405 272.842 131.417 273.022C131.453 273.802 131.645 274.396 131.993 274.804C132.341 275.2 132.833 275.398 133.469 275.398ZM140.431 280.42C140.311 280.42 140.209 280.378 140.125 280.294C140.041 280.21 139.999 280.108 139.999 279.988V268.072C139.999 267.952 140.041 267.85 140.125 267.766C140.209 267.682 140.311 267.64 140.431 267.64H141.853C141.985 267.64 142.087 267.682 142.159 267.766C142.243 267.85 142.285 267.952 142.285 268.072V268.792C142.573 268.408 142.951 268.09 143.419 267.838C143.887 267.586 144.469 267.46 145.165 267.46C145.801 267.46 146.353 267.562 146.821 267.766C147.289 267.97 147.679 268.264 147.991 268.648C148.303 269.02 148.543 269.464 148.711 269.98C148.879 270.496 148.975 271.066 148.999 271.69C149.011 271.894 149.017 272.104 149.017 272.32C149.017 272.536 149.011 272.752 148.999 272.968C148.987 273.568 148.897 274.126 148.729 274.642C148.561 275.146 148.315 275.59 147.991 275.974C147.679 276.346 147.289 276.64 146.821 276.856C146.353 277.072 145.801 277.18 145.165 277.18C144.517 277.18 143.965 277.066 143.509 276.838C143.053 276.598 142.681 276.286 142.393 275.902V279.988C142.393 280.108 142.351 280.21 142.267 280.294C142.195 280.378 142.093 280.42 141.961 280.42H140.431ZM144.499 275.254C145.015 275.254 145.417 275.146 145.705 274.93C145.993 274.702 146.203 274.408 146.335 274.048C146.467 273.688 146.545 273.292 146.569 272.86C146.581 272.5 146.581 272.14 146.569 271.78C146.545 271.348 146.467 270.952 146.335 270.592C146.203 270.232 145.993 269.944 145.705 269.728C145.417 269.5 145.015 269.386 144.499 269.386C144.007 269.386 143.605 269.5 143.293 269.728C142.993 269.956 142.771 270.25 142.627 270.61C142.495 270.958 142.417 271.318 142.393 271.69C142.381 271.906 142.375 272.134 142.375 272.374C142.375 272.614 142.381 272.848 142.393 273.076C142.405 273.436 142.489 273.784 142.645 274.12C142.801 274.444 143.029 274.714 143.329 274.93C143.629 275.146 144.019 275.254 144.499 275.254ZM151.434 277C151.314 277 151.218 276.964 151.146 276.892C151.074 276.82 151.038 276.73 151.038 276.622V267.982C151.038 267.886 151.074 267.808 151.146 267.748C151.23 267.676 151.314 267.64 151.398 267.64H152.91C153.114 267.64 153.27 267.742 153.378 267.946L156.15 272.986L158.922 267.946C159.03 267.742 159.186 267.64 159.39 267.64H160.884C160.992 267.64 161.082 267.676 161.154 267.748C161.226 267.808 161.262 267.886 161.262 267.982V276.622C161.262 276.73 161.226 276.82 161.154 276.892C161.082 276.964 160.986 277 160.866 277H159.318C159.198 277 159.102 276.964 159.03 276.892C158.97 276.82 158.94 276.73 158.94 276.622V270.088L159.678 270.214L157.014 275.128C156.954 275.236 156.882 275.338 156.798 275.434C156.714 275.518 156.594 275.56 156.438 275.56H155.844C155.7 275.56 155.586 275.518 155.502 275.434C155.418 275.35 155.346 275.248 155.286 275.128L152.676 270.412L153.36 270.304V276.622C153.36 276.73 153.324 276.82 153.252 276.892C153.18 276.964 153.09 277 152.982 277H151.434ZM166.412 277.18C165.788 277.18 165.224 277.06 164.72 276.82C164.216 276.568 163.814 276.238 163.514 275.83C163.226 275.41 163.082 274.942 163.082 274.426C163.082 273.586 163.424 272.92 164.108 272.428C164.792 271.924 165.686 271.588 166.79 271.42L169.256 271.06V270.682C169.256 270.178 169.13 269.788 168.878 269.512C168.626 269.236 168.194 269.098 167.582 269.098C167.15 269.098 166.796 269.188 166.52 269.368C166.256 269.536 166.058 269.764 165.926 270.052C165.83 270.208 165.692 270.286 165.512 270.286H164.09C163.958 270.286 163.856 270.25 163.784 270.178C163.724 270.106 163.694 270.01 163.694 269.89C163.706 269.698 163.784 269.464 163.928 269.188C164.084 268.912 164.312 268.648 164.612 268.396C164.924 268.132 165.326 267.91 165.818 267.73C166.31 267.55 166.904 267.46 167.6 267.46C168.356 267.46 168.992 267.556 169.508 267.748C170.036 267.928 170.456 268.174 170.768 268.486C171.08 268.798 171.308 269.164 171.452 269.584C171.596 270.004 171.668 270.448 171.668 270.916V276.568C171.668 276.688 171.626 276.79 171.542 276.874C171.458 276.958 171.356 277 171.236 277H169.778C169.646 277 169.538 276.958 169.454 276.874C169.382 276.79 169.346 276.688 169.346 276.568V275.866C169.19 276.082 168.98 276.292 168.716 276.496C168.452 276.7 168.128 276.868 167.744 277C167.372 277.12 166.928 277.18 166.412 277.18ZM167.024 275.47C167.444 275.47 167.822 275.38 168.158 275.2C168.506 275.02 168.776 274.744 168.968 274.372C169.172 273.988 169.274 273.508 169.274 272.932V272.554L167.474 272.842C166.766 272.95 166.238 273.124 165.89 273.364C165.542 273.604 165.368 273.898 165.368 274.246C165.368 274.51 165.446 274.738 165.602 274.93C165.77 275.11 165.98 275.248 166.232 275.344C166.484 275.428 166.748 275.47 167.024 275.47ZM181.861 279.196C181.741 279.196 181.639 279.154 181.555 279.07C181.471 278.986 181.429 278.884 181.429 278.764V277H174.409C174.289 277 174.187 276.958 174.103 276.874C174.019 276.79 173.977 276.688 173.977 276.568V268.072C173.977 267.952 174.019 267.85 174.103 267.766C174.187 267.682 174.289 267.64 174.409 267.64H175.903C176.035 267.64 176.137 267.682 176.209 267.766C176.293 267.85 176.335 267.952 176.335 268.072V275.092H180.187V268.072C180.187 267.952 180.229 267.85 180.313 267.766C180.397 267.682 180.499 267.64 180.619 267.64H182.113C182.245 267.64 182.347 267.682 182.419 267.766C182.503 267.85 182.545 267.952 182.545 268.072V275.092H183.355C183.475 275.092 183.577 275.134 183.661 275.218C183.745 275.302 183.787 275.404 183.787 275.524V278.764C183.787 278.884 183.745 278.986 183.661 279.07C183.577 279.154 183.475 279.196 183.355 279.196H181.861ZM185.852 277C185.744 277 185.648 276.958 185.564 276.874C185.48 276.79 185.438 276.694 185.438 276.586V268.072C185.438 267.952 185.48 267.85 185.564 267.766C185.648 267.682 185.75 267.64 185.87 267.64H187.364C187.496 267.64 187.598 267.682 187.67 267.766C187.754 267.85 187.796 267.952 187.796 268.072V275.182L187.166 274.732L192.116 267.928C192.176 267.844 192.242 267.778 192.314 267.73C192.386 267.67 192.482 267.64 192.602 267.64H193.97C194.078 267.64 194.174 267.682 194.258 267.766C194.342 267.838 194.384 267.928 194.384 268.036V276.568C194.384 276.688 194.342 276.79 194.258 276.874C194.174 276.958 194.072 277 193.952 277H192.458C192.326 277 192.218 276.958 192.134 276.874C192.062 276.79 192.026 276.688 192.026 276.568V269.782L192.692 269.872L187.706 276.712C187.658 276.784 187.592 276.85 187.508 276.91C187.436 276.97 187.34 277 187.22 277H185.852ZM201.837 273.184H199.011V276.568C199.011 276.688 198.969 276.79 198.885 276.874C198.813 276.958 198.711 277 198.579 277H197.085C196.965 277 196.863 276.958 196.779 276.874C196.695 276.79 196.653 276.688 196.653 276.568V268.072C196.653 267.952 196.695 267.85 196.779 267.766C196.863 267.682 196.965 267.64 197.085 267.64H198.579C198.711 267.64 198.813 267.682 198.885 267.766C198.969 267.85 199.011 267.952 199.011 268.072V271.294H201.837V273.184ZM205.149 277.18C204.189 277.18 203.379 277.012 202.719 276.676C202.071 276.34 201.573 275.866 201.225 275.254C200.877 274.642 200.685 273.928 200.649 273.112C200.637 272.896 200.631 272.632 200.631 272.32C200.631 272.008 200.637 271.744 200.649 271.528C200.685 270.7 200.883 269.986 201.243 269.386C201.603 268.774 202.107 268.3 202.755 267.964C203.415 267.628 204.213 267.46 205.149 267.46C206.085 267.46 206.877 267.628 207.525 267.964C208.185 268.3 208.689 268.774 209.037 269.386C209.397 269.986 209.595 270.7 209.631 271.528C209.655 271.744 209.667 272.008 209.667 272.32C209.667 272.632 209.655 272.896 209.631 273.112C209.595 273.928 209.403 274.642 209.055 275.254C208.719 275.866 208.221 276.34 207.561 276.676C206.913 277.012 206.109 277.18 205.149 277.18ZM205.149 275.398C205.785 275.398 206.277 275.2 206.625 274.804C206.973 274.396 207.165 273.802 207.201 273.022C207.213 272.842 207.219 272.608 207.219 272.32C207.219 272.032 207.213 271.798 207.201 271.618C207.165 270.838 206.973 270.25 206.625 269.854C206.277 269.446 205.785 269.242 205.149 269.242C204.513 269.242 204.015 269.446 203.655 269.854C203.307 270.25 203.121 270.838 203.097 271.618C203.085 271.798 203.079 272.032 203.079 272.32C203.079 272.608 203.085 272.842 203.097 273.022C203.121 273.802 203.307 274.396 203.655 274.804C204.015 275.2 204.513 275.398 205.149 275.398ZM220.224 279.862C219.432 279.862 218.736 279.7 218.136 279.376C217.536 279.052 217.038 278.548 216.642 277.864C216.258 277.192 215.97 276.322 215.778 275.254C215.586 274.186 215.49 272.914 215.49 271.438C215.49 269.95 215.586 268.678 215.778 267.622C215.97 266.554 216.258 265.684 216.642 265.012C217.038 264.328 217.536 263.83 218.136 263.518C218.736 263.194 219.432 263.032 220.224 263.032C220.344 263.032 220.446 263.074 220.53 263.158C220.614 263.242 220.656 263.344 220.656 263.464V264.544C220.656 264.664 220.614 264.766 220.53 264.85C220.458 264.934 220.368 264.976 220.26 264.976C219.768 265 219.354 265.144 219.018 265.408C218.682 265.66 218.412 266.05 218.208 266.578C218.016 267.094 217.878 267.754 217.794 268.558C217.71 269.362 217.668 270.322 217.668 271.438C217.668 272.554 217.71 273.514 217.794 274.318C217.878 275.122 218.016 275.788 218.208 276.316C218.412 276.844 218.682 277.234 219.018 277.486C219.354 277.75 219.768 277.894 220.26 277.918C220.368 277.918 220.458 277.96 220.53 278.044C220.614 278.128 220.656 278.23 220.656 278.35V279.43C220.656 279.55 220.614 279.652 220.53 279.736C220.446 279.82 220.344 279.862 220.224 279.862ZM225.882 277.18C225.114 277.18 224.466 277.09 223.938 276.91C223.422 276.73 223.008 276.502 222.696 276.226C222.396 275.95 222.174 275.662 222.03 275.362C221.898 275.05 221.826 274.768 221.814 274.516C221.802 274.408 221.832 274.324 221.904 274.264C221.976 274.204 222.054 274.174 222.138 274.174H223.614C223.734 274.174 223.824 274.198 223.884 274.246C223.956 274.294 224.016 274.372 224.064 274.48C224.184 274.84 224.406 275.092 224.73 275.236C225.066 275.38 225.48 275.452 225.972 275.452C226.308 275.452 226.608 275.41 226.872 275.326C227.136 275.23 227.34 275.092 227.484 274.912C227.628 274.72 227.7 274.486 227.7 274.21C227.7 273.814 227.586 273.514 227.358 273.31C227.13 273.094 226.758 272.986 226.242 272.986H225.252C225.132 272.986 225.036 272.95 224.964 272.878C224.892 272.806 224.856 272.71 224.856 272.59V271.834C224.856 271.726 224.892 271.636 224.964 271.564C225.036 271.48 225.132 271.438 225.252 271.438H226.17C226.602 271.438 226.926 271.36 227.142 271.204C227.358 271.036 227.466 270.778 227.466 270.43C227.466 270.226 227.412 270.034 227.304 269.854C227.208 269.662 227.046 269.506 226.818 269.386C226.59 269.266 226.272 269.206 225.864 269.206C225.3 269.206 224.898 269.296 224.658 269.476C224.418 269.656 224.244 269.926 224.136 270.286C224.088 270.394 224.028 270.472 223.956 270.52C223.896 270.568 223.8 270.592 223.668 270.592H222.246C222.15 270.592 222.066 270.562 221.994 270.502C221.934 270.442 221.904 270.358 221.904 270.25C221.928 269.926 222.012 269.602 222.156 269.278C222.312 268.942 222.546 268.636 222.858 268.36C223.182 268.084 223.59 267.868 224.082 267.712C224.574 267.544 225.174 267.46 225.882 267.46C226.842 267.46 227.604 267.592 228.168 267.856C228.732 268.12 229.134 268.456 229.374 268.864C229.626 269.26 229.752 269.674 229.752 270.106C229.752 270.55 229.668 270.934 229.5 271.258C229.344 271.582 229.05 271.846 228.618 272.05C229.158 272.254 229.53 272.566 229.734 272.986C229.938 273.406 230.046 273.868 230.058 274.372C230.058 274.972 229.884 275.482 229.536 275.902C229.188 276.31 228.702 276.628 228.078 276.856C227.454 277.072 226.722 277.18 225.882 277.18ZM234.633 277.18C234.009 277.18 233.445 277.06 232.941 276.82C232.437 276.568 232.035 276.238 231.735 275.83C231.447 275.41 231.303 274.942 231.303 274.426C231.303 273.586 231.645 272.92 232.329 272.428C233.013 271.924 233.907 271.588 235.011 271.42L237.477 271.06V270.682C237.477 270.178 237.351 269.788 237.099 269.512C236.847 269.236 236.415 269.098 235.803 269.098C235.371 269.098 235.017 269.188 234.741 269.368C234.477 269.536 234.279 269.764 234.147 270.052C234.051 270.208 233.913 270.286 233.733 270.286H232.311C232.179 270.286 232.077 270.25 232.005 270.178C231.945 270.106 231.915 270.01 231.915 269.89C231.927 269.698 232.005 269.464 232.149 269.188C232.305 268.912 232.533 268.648 232.833 268.396C233.145 268.132 233.547 267.91 234.039 267.73C234.531 267.55 235.125 267.46 235.821 267.46C236.577 267.46 237.213 267.556 237.729 267.748C238.257 267.928 238.677 268.174 238.989 268.486C239.301 268.798 239.529 269.164 239.673 269.584C239.817 270.004 239.889 270.448 239.889 270.916V276.568C239.889 276.688 239.847 276.79 239.763 276.874C239.679 276.958 239.577 277 239.457 277H237.999C237.867 277 237.759 276.958 237.675 276.874C237.603 276.79 237.567 276.688 237.567 276.568V275.866C237.411 276.082 237.201 276.292 236.937 276.496C236.673 276.7 236.349 276.868 235.965 277C235.593 277.12 235.149 277.18 234.633 277.18ZM235.245 275.47C235.665 275.47 236.043 275.38 236.379 275.2C236.727 275.02 236.997 274.744 237.189 274.372C237.393 273.988 237.495 273.508 237.495 272.932V272.554L235.695 272.842C234.987 272.95 234.459 273.124 234.111 273.364C233.763 273.604 233.589 273.898 233.589 274.246C233.589 274.51 233.667 274.738 233.823 274.93C233.991 275.11 234.201 275.248 234.453 275.344C234.705 275.428 234.969 275.47 235.245 275.47ZM248.138 277C248.006 277 247.898 276.958 247.814 276.874C247.742 276.79 247.706 276.688 247.706 276.568V273.814H245.924V273.724C244.712 273.724 243.8 273.448 243.188 272.896C242.588 272.332 242.288 271.594 242.288 270.682C242.288 269.674 242.606 268.918 243.242 268.414C243.878 267.898 244.796 267.64 245.996 267.64H249.668C249.788 267.64 249.89 267.682 249.974 267.766C250.058 267.85 250.1 267.952 250.1 268.072V276.568C250.1 276.688 250.058 276.79 249.974 276.874C249.89 276.958 249.788 277 249.668 277H248.138ZM242.378 277C242.27 277 242.18 276.964 242.108 276.892C242.036 276.82 242 276.736 242 276.64C242 276.604 242.006 276.562 242.018 276.514C242.03 276.454 242.06 276.4 242.108 276.352L244.124 273.184L246.32 273.472L244.322 276.73C244.286 276.802 244.226 276.868 244.142 276.928C244.058 276.976 243.968 277 243.872 277H242.378ZM245.942 272.104H247.742V269.35H246.05C245.498 269.35 245.09 269.452 244.826 269.656C244.562 269.848 244.43 270.19 244.43 270.682C244.43 271.102 244.55 271.444 244.79 271.708C245.042 271.972 245.426 272.104 245.942 272.104ZM252.966 277C252.846 277 252.744 276.958 252.66 276.874C252.576 276.79 252.534 276.688 252.534 276.568V268.072C252.534 267.952 252.576 267.85 252.66 267.766C252.744 267.682 252.846 267.64 252.966 267.64H256.962C258.234 267.64 259.176 267.874 259.788 268.342C260.4 268.81 260.706 269.44 260.706 270.232C260.706 270.736 260.61 271.126 260.418 271.402C260.226 271.678 259.962 271.918 259.626 272.122C260.046 272.314 260.37 272.608 260.598 273.004C260.838 273.388 260.958 273.814 260.958 274.282C260.958 275.146 260.634 275.818 259.986 276.298C259.35 276.766 258.408 277 257.16 277H252.966ZM254.838 275.38H256.998C257.478 275.38 257.862 275.29 258.15 275.11C258.438 274.93 258.582 274.648 258.582 274.264C258.582 273.868 258.45 273.58 258.186 273.4C257.922 273.22 257.526 273.13 256.998 273.13H254.838V275.38ZM254.838 271.456H256.926C257.406 271.456 257.784 271.36 258.06 271.168C258.336 270.964 258.474 270.67 258.474 270.286C258.474 269.902 258.33 269.638 258.042 269.494C257.766 269.338 257.394 269.26 256.926 269.26H254.838V271.456ZM262.74 277C262.608 277 262.5 276.958 262.416 276.874C262.332 276.79 262.29 276.682 262.29 276.55V275.434C262.29 275.17 262.428 275.026 262.704 275.002C263.064 274.978 263.352 274.81 263.568 274.498C263.784 274.186 263.94 273.706 264.036 273.058C264.144 272.398 264.198 271.546 264.198 270.502V268.072C264.198 267.952 264.234 267.85 264.306 267.766C264.39 267.682 264.498 267.64 264.63 267.64H271.02C271.14 267.64 271.242 267.682 271.326 267.766C271.41 267.85 271.452 267.952 271.452 268.072V276.568C271.452 276.688 271.41 276.79 271.326 276.874C271.242 276.958 271.14 277 271.02 277H269.526C269.394 277 269.286 276.958 269.202 276.874C269.13 276.79 269.094 276.688 269.094 276.568V269.548H266.448V270.754C266.448 271.906 266.382 272.884 266.25 273.688C266.13 274.48 265.92 275.122 265.62 275.614C265.332 276.094 264.948 276.448 264.468 276.676C264 276.892 263.424 277 262.74 277ZM277.906 277.18C276.574 277.18 275.518 276.796 274.738 276.028C273.958 275.26 273.538 274.168 273.478 272.752C273.466 272.632 273.46 272.482 273.46 272.302C273.46 272.11 273.466 271.96 273.478 271.852C273.526 270.94 273.73 270.16 274.09 269.512C274.462 268.852 274.972 268.348 275.62 268C276.268 267.64 277.03 267.46 277.906 267.46C278.878 267.46 279.694 267.664 280.354 268.072C281.014 268.468 281.512 269.026 281.848 269.746C282.184 270.454 282.352 271.276 282.352 272.212V272.59C282.352 272.71 282.31 272.812 282.226 272.896C282.142 272.98 282.034 273.022 281.902 273.022H275.926C275.926 273.022 275.926 273.04 275.926 273.076C275.926 273.112 275.926 273.142 275.926 273.166C275.938 273.586 276.016 273.976 276.16 274.336C276.316 274.684 276.538 274.966 276.826 275.182C277.126 275.398 277.48 275.506 277.888 275.506C278.224 275.506 278.506 275.458 278.734 275.362C278.962 275.254 279.148 275.134 279.292 275.002C279.436 274.87 279.538 274.762 279.598 274.678C279.706 274.534 279.79 274.45 279.85 274.426C279.922 274.39 280.024 274.372 280.156 274.372H281.704C281.824 274.372 281.92 274.408 281.992 274.48C282.076 274.552 282.112 274.642 282.1 274.75C282.088 274.942 281.986 275.176 281.794 275.452C281.614 275.728 281.35 275.998 281.002 276.262C280.654 276.526 280.216 276.748 279.688 276.928C279.172 277.096 278.578 277.18 277.906 277.18ZM275.926 271.51H279.904V271.456C279.904 270.988 279.826 270.58 279.67 270.232C279.514 269.872 279.286 269.596 278.986 269.404C278.686 269.2 278.326 269.098 277.906 269.098C277.486 269.098 277.126 269.2 276.826 269.404C276.526 269.596 276.298 269.872 276.142 270.232C275.998 270.58 275.926 270.988 275.926 271.456V271.51ZM284.694 277C284.574 277 284.472 276.958 284.388 276.874C284.304 276.79 284.262 276.688 284.262 276.568V268.072C284.262 267.952 284.304 267.85 284.388 267.766C284.472 267.682 284.574 267.64 284.694 267.64H286.188C286.32 267.64 286.422 267.682 286.494 267.766C286.578 267.85 286.62 267.952 286.62 268.072V271.294H290.688V268.072C290.688 267.952 290.73 267.85 290.814 267.766C290.898 267.682 291 267.64 291.12 267.64H292.614C292.734 267.64 292.836 267.682 292.92 267.766C293.004 267.85 293.046 267.952 293.046 268.072V276.568C293.046 276.688 293.004 276.79 292.92 276.874C292.836 276.958 292.734 277 292.614 277H291.12C291 277 290.898 276.958 290.814 276.874C290.73 276.79 290.688 276.688 290.688 276.568V273.184H286.62V276.568C286.62 276.688 286.578 276.79 286.494 276.874C286.422 276.958 286.32 277 286.188 277H284.694ZM295.891 277C295.783 277 295.687 276.958 295.603 276.874C295.519 276.79 295.477 276.694 295.477 276.586V268.072C295.477 267.952 295.519 267.85 295.603 267.766C295.687 267.682 295.789 267.64 295.909 267.64H297.403C297.535 267.64 297.637 267.682 297.709 267.766C297.793 267.85 297.835 267.952 297.835 268.072V275.182L297.205 274.732L302.155 267.928C302.215 267.844 302.281 267.778 302.353 267.73C302.425 267.67 302.521 267.64 302.641 267.64H304.009C304.117 267.64 304.213 267.682 304.297 267.766C304.381 267.838 304.423 267.928 304.423 268.036V276.568C304.423 276.688 304.381 276.79 304.297 276.874C304.213 276.958 304.111 277 303.991 277H302.497C302.365 277 302.257 276.958 302.173 276.874C302.101 276.79 302.065 276.688 302.065 276.568V269.782L302.731 269.872L297.745 276.712C297.697 276.784 297.631 276.85 297.547 276.91C297.475 276.97 297.379 277 297.259 277H295.891ZM310.724 277.18C309.392 277.18 308.336 276.796 307.556 276.028C306.776 275.26 306.356 274.168 306.296 272.752C306.284 272.632 306.278 272.482 306.278 272.302C306.278 272.11 306.284 271.96 306.296 271.852C306.344 270.94 306.548 270.16 306.908 269.512C307.28 268.852 307.79 268.348 308.438 268C309.086 267.64 309.848 267.46 310.724 267.46C311.696 267.46 312.512 267.664 313.172 268.072C313.832 268.468 314.33 269.026 314.666 269.746C315.002 270.454 315.17 271.276 315.17 272.212V272.59C315.17 272.71 315.128 272.812 315.044 272.896C314.96 272.98 314.852 273.022 314.72 273.022H308.744C308.744 273.022 308.744 273.04 308.744 273.076C308.744 273.112 308.744 273.142 308.744 273.166C308.756 273.586 308.834 273.976 308.978 274.336C309.134 274.684 309.356 274.966 309.644 275.182C309.944 275.398 310.298 275.506 310.706 275.506C311.042 275.506 311.324 275.458 311.552 275.362C311.78 275.254 311.966 275.134 312.11 275.002C312.254 274.87 312.356 274.762 312.416 274.678C312.524 274.534 312.608 274.45 312.668 274.426C312.74 274.39 312.842 274.372 312.974 274.372H314.522C314.642 274.372 314.738 274.408 314.81 274.48C314.894 274.552 314.93 274.642 314.918 274.75C314.906 274.942 314.804 275.176 314.612 275.452C314.432 275.728 314.168 275.998 313.82 276.262C313.472 276.526 313.034 276.748 312.506 276.928C311.99 277.096 311.396 277.18 310.724 277.18ZM308.744 271.51H312.722V271.456C312.722 270.988 312.644 270.58 312.488 270.232C312.332 269.872 312.104 269.596 311.804 269.404C311.504 269.2 311.144 269.098 310.724 269.098C310.304 269.098 309.944 269.2 309.644 269.404C309.344 269.596 309.116 269.872 308.96 270.232C308.816 270.58 308.744 270.988 308.744 271.456V271.51ZM316.757 279.862C316.637 279.862 316.535 279.82 316.451 279.736C316.367 279.652 316.325 279.55 316.325 279.43V278.35C316.325 278.23 316.361 278.128 316.433 278.044C316.517 277.96 316.613 277.918 316.721 277.918C317.225 277.894 317.639 277.75 317.963 277.486C318.299 277.234 318.563 276.844 318.755 276.316C318.959 275.788 319.103 275.122 319.187 274.318C319.283 273.514 319.331 272.554 319.331 271.438C319.331 270.322 319.283 269.362 319.187 268.558C319.103 267.754 318.959 267.094 318.755 266.578C318.563 266.05 318.299 265.66 317.963 265.408C317.639 265.144 317.225 265 316.721 264.976C316.613 264.976 316.517 264.934 316.433 264.85C316.361 264.766 316.325 264.664 316.325 264.544V263.464C316.325 263.344 316.367 263.242 316.451 263.158C316.535 263.074 316.637 263.032 316.757 263.032C317.549 263.032 318.245 263.194 318.845 263.518C319.445 263.83 319.937 264.328 320.321 265.012C320.717 265.684 321.011 266.554 321.203 267.622C321.395 268.678 321.491 269.95 321.491 271.438C321.491 272.914 321.395 274.186 321.203 275.254C321.011 276.322 320.717 277.192 320.321 277.864C319.937 278.548 319.445 279.052 318.845 279.376C318.245 279.7 317.549 279.862 316.757 279.862Z" fill="#272727"/>
<g clip-path="url(#clip0_77_18)">
<path d="M156 224.985C218.006 224.985 268.272 174.624 268.272 112.5C268.272 50.3767 218.006 0.0157471 156 0.0157471C93.994 0.0157471 43.7281 50.3767 43.7281 112.5C43.7281 174.624 93.994 224.985 156 224.985Z" fill="white"/>
<path opacity="0.1" d="M156 224.985C218.006 224.985 268.272 174.624 268.272 112.5C268.272 50.3767 218.006 0.0157471 156 0.0157471C93.994 0.0157471 43.7281 50.3767 43.7281 112.5C43.7281 174.624 93.994 224.985 156 224.985Z" fill="#367CFF"/>
<path d="M83.034 150.706L29.342 150.543L29.5629 77.4647L66.6897 77.5774L83.2046 94.2244L83.034 150.706Z" fill="white"/>
<path opacity="0.3" d="M66.6897 77.5774L66.6394 94.174L83.2046 94.2244L66.6897 77.5774Z" fill="#367CFF"/>
<path d="M83.5425 94.2038C83.5405 94.1739 83.5346 94.1443 83.5251 94.1158C83.5213 94.1048 83.5186 94.0942 83.5138 94.0832C83.4978 94.046 83.4752 94.012 83.4471 93.9828L66.9321 77.3359C66.9031 77.3072 66.8691 77.284 66.8319 77.2673C66.8215 77.2629 66.8109 77.259 66.8001 77.2557C66.7715 77.2457 66.7415 77.2397 66.7112 77.2379C66.704 77.2379 66.6975 77.2334 66.6903 77.2334L29.5639 77.1221C29.4732 77.1221 29.3862 77.1582 29.3221 77.2224C29.258 77.2867 29.2219 77.3738 29.2219 77.4647L29 150.541C29 150.632 29.036 150.719 29.1002 150.784C29.1643 150.848 29.2513 150.884 29.342 150.884L83.0319 151.048C83.1226 151.048 83.2096 151.012 83.2737 150.948C83.3379 150.884 83.3739 150.796 83.3739 150.706L83.5449 94.2244C83.5466 94.2179 83.5428 94.2114 83.5425 94.2038ZM67.0275 78.4059L74.6536 86.0899L82.3801 93.8783L66.9824 93.8314L67.0275 78.4059ZM29.6839 150.201L29.9028 77.8083L66.3453 77.919L66.2964 94.173C66.2964 94.2639 66.3324 94.351 66.3966 94.4153C66.4607 94.4795 66.5477 94.5156 66.6384 94.5156L82.8616 94.5649L82.693 150.361L29.6839 150.201Z" fill="#262626"/>
<path d="M192.492 147.781L119.275 147.559L119.576 47.9054L170.204 48.0592L192.725 70.76L192.492 147.781Z" fill="white"/>
<path opacity="0.3" d="M170.204 48.0591L170.136 70.6913L192.725 70.7598L170.204 48.0591Z" fill="#367CFF"/>
<path d="M193.063 70.7393C193.061 70.7095 193.056 70.68 193.046 70.6516C193.042 70.6403 193.039 70.6297 193.034 70.6174C193.019 70.5802 192.996 70.5462 192.968 70.517L170.447 47.8162C170.418 47.7876 170.384 47.7644 170.347 47.7477C170.336 47.7429 170.326 47.7402 170.315 47.7364C170.286 47.7265 170.256 47.7204 170.226 47.7183C170.219 47.7183 170.212 47.7141 170.205 47.7141L119.577 47.5603C119.486 47.5603 119.399 47.5964 119.335 47.6607C119.271 47.7249 119.235 47.8121 119.235 47.9029L118.934 147.557C118.934 147.647 118.97 147.735 119.034 147.799C119.098 147.863 119.185 147.899 119.276 147.899L192.492 148.121C192.583 148.121 192.67 148.085 192.734 148.021C192.798 147.957 192.834 147.87 192.834 147.779L193.067 70.7575C193.067 70.7534 193.064 70.7469 193.063 70.7393ZM170.543 48.8873L191.9 70.4149L170.478 70.3498L170.543 48.8873ZM119.618 147.217L119.917 48.249L169.861 48.4008L169.793 70.6904C169.793 70.7812 169.829 70.8684 169.893 70.9326C169.957 70.9969 170.044 71.033 170.135 71.033L192.382 71.1015L192.152 147.438L119.618 147.217Z" fill="#262626"/>
<path d="M282.487 150.706L228.795 150.543L229.016 77.4647L266.143 77.5774L282.658 94.2244L282.487 150.706Z" fill="white"/>
<path opacity="0.3" d="M266.143 77.5774L266.093 94.174L282.658 94.2244L266.143 77.5774Z" fill="#367CFF"/>
<path d="M282.996 94.2038C282.994 94.1739 282.988 94.1442 282.979 94.1158C282.975 94.1048 282.972 94.0942 282.967 94.0832C282.951 94.0461 282.929 94.0121 282.901 93.9828L266.386 77.3359C266.357 77.3072 266.323 77.284 266.286 77.2674C266.275 77.2626 266.265 77.2595 266.254 77.2557C266.225 77.2457 266.195 77.2397 266.165 77.2379C266.158 77.2379 266.151 77.2335 266.144 77.2335L229.017 77.1207C228.927 77.1207 228.84 77.1568 228.776 77.2211C228.711 77.2853 228.675 77.3725 228.675 77.4633L228.454 150.541C228.454 150.632 228.49 150.719 228.555 150.783C228.619 150.848 228.706 150.884 228.796 150.884L282.488 151.047C282.579 151.047 282.666 151.011 282.73 150.946C282.794 150.882 282.83 150.795 282.83 150.704L283.001 94.223C283 94.2179 282.996 94.2114 282.996 94.2038ZM266.482 78.4059L274.106 86.0899L281.834 93.8784L266.436 93.8314L266.482 78.4059ZM229.139 150.201L229.358 77.8084L265.8 77.919L265.751 94.173C265.751 94.2639 265.787 94.351 265.851 94.4153C265.916 94.4795 266.003 94.5156 266.093 94.5156L282.316 94.565L282.148 150.361L229.139 150.201Z" fill="#262626"/>
<path d="M137.712 105.979C140.543 105.979 142.838 103.68 142.838 100.844C142.838 98.0076 140.543 95.7085 137.712 95.7085C134.882 95.7085 132.587 98.0076 132.587 100.844C132.587 103.68 134.882 105.979 137.712 105.979Z" fill="#292A2E"/>
<path d="M172.858 105.979C175.688 105.979 177.983 103.68 177.983 100.844C177.983 98.0076 175.688 95.7085 172.858 95.7085C170.027 95.7085 167.732 98.0076 167.732 100.844C167.732 103.68 170.027 105.979 172.858 105.979Z" fill="#292A2E"/>
<path d="M162.157 115.045H148.413C148.323 115.045 148.236 115.009 148.171 114.945C148.107 114.881 148.071 114.794 148.071 114.703C148.071 114.612 148.107 114.525 148.171 114.46C148.236 114.396 148.323 114.36 148.413 114.36H162.157C162.247 114.36 162.334 114.396 162.398 114.46C162.462 114.525 162.499 114.612 162.499 114.703C162.499 114.794 162.462 114.881 162.398 114.945C162.334 115.009 162.247 115.045 162.157 115.045Z" fill="#262626"/>
<path d="M132.425 115.533C134.95 115.533 136.997 114.453 136.997 113.122C136.997 111.79 134.95 110.711 132.425 110.711C129.9 110.711 127.853 111.79 127.853 113.122C127.853 114.453 129.9 115.533 132.425 115.533Z" fill="white"/>
<path d="M178.145 115.533C180.67 115.533 182.717 114.453 182.717 113.122C182.717 111.79 180.67 110.711 178.145 110.711C175.62 110.711 173.573 111.79 173.573 113.122C173.573 114.453 175.62 115.533 178.145 115.533Z" fill="white"/>
<g opacity="0.4">
<path opacity="0.4" d="M132.425 115.533C134.95 115.533 136.997 114.453 136.997 113.122C136.997 111.79 134.95 110.711 132.425 110.711C129.9 110.711 127.853 111.79 127.853 113.122C127.853 114.453 129.9 115.533 132.425 115.533Z" fill="#367CFF"/>
<path opacity="0.4" d="M178.145 115.533C180.67 115.533 182.717 114.453 182.717 113.122C182.717 111.79 180.67 110.711 178.145 110.711C175.62 110.711 173.573 111.79 173.573 113.122C173.573 114.453 175.62 115.533 178.145 115.533Z" fill="#367CFF"/>
</g>
<path d="M192.835 71.5767C184.108 61.5377 171.758 55.383 158.501 54.4666C145.245 53.5502 132.168 57.947 122.147 66.6899C105.406 81.2982 100.261 105.585 109.639 125.758C111.522 129.8 113.936 133.571 116.818 136.972L117.434 137.703L71.5433 186.496C70.7041 187.401 70.2563 188.602 70.2975 189.837C70.3386 191.072 70.8654 192.24 71.763 193.088C72.6606 193.935 73.8562 194.392 75.089 194.36C76.3218 194.327 77.4918 193.808 78.3438 192.915L124.223 144.129L124.989 144.704C134.89 152.144 147.189 155.65 159.516 154.546C171.843 153.442 183.326 147.806 191.752 138.724C200.178 129.642 204.951 117.757 205.152 105.359C205.352 92.9608 200.965 80.9271 192.837 71.5767H192.835ZM195.712 107.356C195.002 117.665 190.418 127.32 182.884 134.377C175.35 141.433 165.426 145.366 155.112 145.383C154.16 145.383 153.205 145.349 152.246 145.28C145.551 144.825 139.072 142.722 133.383 139.157C127.694 135.592 122.971 130.675 119.633 124.843C116.295 119.012 114.445 112.445 114.246 105.725C114.048 99.0048 115.508 92.3397 118.497 86.3206C121.486 80.3015 125.911 75.1142 131.38 71.2189C136.848 67.3236 143.192 64.8406 149.848 63.99C156.505 63.1395 163.267 63.9477 169.537 66.343C175.807 68.7383 181.39 72.6467 185.791 77.7216C189.317 81.7596 192.009 86.4575 193.712 91.544C195.415 96.6305 196.095 102.005 195.712 107.356Z" fill="#367CFF"/>
</g>
<defs>
<clipPath id="clip0_77_18">
<rect width="254" height="225" fill="white" transform="translate(29)"/>
</clipPath>
</defs>
</svg>
