<svg width="23" height="24" viewBox="0 0 23 24" fill="none" xmlns="http://www.w3.org/2000/svg">
<path fill-rule="evenodd" clip-rule="evenodd" d="M7.05017 1.67464C8.158 1.62364 8.51122 1.6123 11.3332 1.6123C14.1552 1.6123 14.5084 1.62458 15.6153 1.67464C16.7222 1.72469 17.4778 1.9013 18.1389 2.15725C18.8312 2.41886 19.4592 2.8278 19.9787 3.35669C20.5076 3.87519 20.9156 4.5023 21.1762 5.19553C21.4331 5.85664 21.6088 6.61219 21.6598 7.71719C21.7108 8.82692 21.7221 9.18014 21.7221 12.0012C21.7221 14.8232 21.7098 15.1764 21.6598 16.2842C21.6097 17.3892 21.4331 18.1448 21.1762 18.8059C20.9156 19.4992 20.5069 20.1274 19.9787 20.6466C19.4592 21.1755 18.8312 21.5835 18.1389 21.8442C17.4778 22.1011 16.7222 22.2767 15.6172 22.3277C14.5084 22.3787 14.1552 22.3901 11.3332 22.3901C8.51122 22.3901 8.158 22.3778 7.05017 22.3277C5.94517 22.2777 5.18961 22.1011 4.5285 21.8442C3.83521 21.5835 3.20706 21.1748 2.68778 20.6466C2.15925 20.1278 1.75024 19.5 1.48928 18.8069C1.23334 18.1457 1.05767 17.3902 1.00667 16.2852C0.955669 15.1755 0.944336 14.8222 0.944336 12.0012C0.944336 9.17919 0.956614 8.82597 1.00667 7.71908C1.05672 6.61219 1.23334 5.85664 1.48928 5.19553C1.75063 4.50238 2.15995 3.87454 2.68872 3.35575C3.20726 2.82733 3.83478 2.41833 4.52756 2.15725C5.18867 1.9013 5.94422 1.72564 7.04922 1.67464H7.05017ZM15.5313 3.54464C14.4357 3.49458 14.1071 3.48419 11.3332 3.48419C8.55939 3.48419 8.23072 3.49458 7.13517 3.54464C6.12178 3.59092 5.57211 3.75997 5.20567 3.90258C4.72117 4.09147 4.37456 4.3153 4.01095 4.67892C3.66627 5.01424 3.40101 5.42246 3.23461 5.87364C3.092 6.24008 2.92295 6.78975 2.87667 7.80314C2.82661 8.89869 2.81622 9.22736 2.81622 12.0012C2.81622 14.775 2.82661 15.1037 2.87667 16.1992C2.92295 17.2126 3.092 17.7623 3.23461 18.1287C3.40084 18.5793 3.66622 18.9882 4.01095 19.3235C4.34623 19.6682 4.75517 19.9336 5.20567 20.0998C5.57211 20.2424 6.12178 20.4115 7.13517 20.4577C8.23072 20.5078 8.55845 20.5182 11.3332 20.5182C14.108 20.5182 14.4357 20.5078 15.5313 20.4577C16.5447 20.4115 17.0943 20.2424 17.4608 20.0998C17.9453 19.9109 18.2919 19.6871 18.6555 19.3235C19.0002 18.9882 19.2656 18.5793 19.4318 18.1287C19.5744 17.7623 19.7435 17.2126 19.7898 16.1992C19.8398 15.1037 19.8502 14.775 19.8502 12.0012C19.8502 9.22736 19.8398 8.89869 19.7898 7.80314C19.7435 6.78975 19.5744 6.24008 19.4318 5.87364C19.2429 5.38914 19.0191 5.04253 18.6555 4.67892C18.3202 4.33426 17.9119 4.069 17.4608 3.90258C17.0943 3.75997 16.5447 3.59092 15.5313 3.54464ZM10.0063 15.2038C10.7473 15.5123 11.5725 15.5539 12.3409 15.3216C13.1092 15.0893 13.7731 14.5974 14.2191 13.93C14.6651 13.2626 14.8655 12.461 14.7862 11.6622C14.7068 10.8635 14.3526 10.117 13.7841 9.55036C13.4216 9.18814 12.9834 8.91079 12.5009 8.73828C12.0184 8.56576 11.5036 8.50237 10.9937 8.55266C10.4838 8.60296 9.99131 8.76569 9.55182 9.02915C9.11232 9.29261 8.7367 9.65023 8.45201 10.0763C8.16732 10.5023 7.98063 10.9862 7.90538 11.493C7.83013 11.9999 7.8682 12.5171 8.01685 13.0075C8.16549 13.4979 8.42101 13.9492 8.76502 14.329C9.10902 14.7088 9.53295 15.0075 10.0063 15.2038ZM7.55734 8.2253C8.05319 7.72945 8.64186 7.33611 9.28973 7.06776C9.9376 6.7994 10.632 6.66128 11.3332 6.66128C12.0345 6.66128 12.7289 6.7994 13.3767 7.06776C14.0246 7.33611 14.6133 7.72945 15.1091 8.2253C15.605 8.72116 15.9983 9.30983 16.2667 9.9577C16.535 10.6056 16.6731 11.2999 16.6731 12.0012C16.6731 12.7024 16.535 13.3968 16.2667 14.0447C15.9983 14.6926 15.605 15.2812 15.1091 15.7771C14.1077 16.7785 12.7495 17.3411 11.3332 17.3411C9.91699 17.3411 8.55876 16.7785 7.55734 15.7771C6.55591 14.7757 5.99331 13.4174 5.99331 12.0012C5.99331 10.585 6.55591 9.22673 7.55734 8.2253ZM17.8574 7.45653C17.9803 7.34061 18.0787 7.20123 18.1467 7.04661C18.2148 6.892 18.2511 6.72531 18.2536 6.55641C18.256 6.3875 18.2246 6.21982 18.1611 6.06329C18.0976 5.90676 18.0033 5.76456 17.8839 5.64512C17.7644 5.52567 17.6222 5.43141 17.4657 5.3679C17.3092 5.3044 17.1415 5.27295 16.9726 5.27541C16.8037 5.27787 16.637 5.3142 16.4824 5.38224C16.3277 5.45028 16.1884 5.54865 16.0724 5.67153C15.847 5.9105 15.7236 6.22792 15.7284 6.55641C15.7332 6.88489 15.8658 7.19858 16.0981 7.43088C16.3304 7.66318 16.6441 7.7958 16.9726 7.80059C17.3011 7.80538 17.6185 7.68196 17.8574 7.45653Z" fill="#272727"/>
</svg>
