<svg width="220" height="220" viewBox="0 0 220 220" fill="none" xmlns="http://www.w3.org/2000/svg">
<path d="M220 220H0C2.41065 207.937 6.86157 197.704 13.138 194.667C22.3182 190.232 32.0333 202.428 41.193 197.842C46.397 195.24 50.4939 187.656 54.799 181.358C71.0403 157.597 93.2973 150.574 112.516 163.151C122.561 169.722 131.715 181.213 142.006 186.098C155.312 192.417 169.228 187.177 182.913 186.313C196.241 185.473 215.336 196.129 220 220Z" fill="#F3F5FD"/>
<path d="M167.356 61.9167C168.448 61.9167 169.333 61.0316 169.333 59.9398C169.333 58.848 168.448 57.9629 167.356 57.9629C166.265 57.9629 165.38 58.848 165.38 59.9398C165.38 61.0316 166.265 61.9167 167.356 61.9167Z" fill="white"/>
<path d="M175.924 143.964C175.924 143.964 174.313 149.74 173.407 152.737C173.365 152.879 173.355 153.029 173.381 153.175C173.407 153.321 173.466 153.459 173.554 153.578C173.643 153.697 173.758 153.794 173.891 153.861C174.023 153.927 174.169 153.962 174.318 153.962H179.973C180.218 153.961 180.452 153.867 180.629 153.699C180.806 153.53 180.911 153.3 180.923 153.056L181.304 145.016L175.924 143.964Z" fill="#0F1011"/>
<path d="M184.592 156.812C184.592 156.812 182.947 155.941 183.31 151.463L179.913 150.836C179.913 150.836 180.298 154.851 178.581 156.127L184.592 156.812Z" fill="#FFC8B2"/>
<path opacity="0.15" d="M179.276 155.287L182.096 153.125L179.879 153.104C179.816 153.863 179.611 154.603 179.276 155.287Z" fill="black"/>
<path d="M185.236 149.725C185.002 151.084 184.262 152.371 183.064 152.811C181.759 153.331 180.346 153.523 178.949 153.371C175.23 153.069 175.958 144.612 177.722 142.967C179.486 141.323 184.668 142.359 185.301 145.106C185.628 146.526 185.459 148.433 185.236 149.725Z" fill="#FFC8B2"/>
<path d="M179.915 148.683C180.085 148.683 180.223 148.546 180.223 148.375C180.223 148.205 180.085 148.067 179.915 148.067C179.745 148.067 179.607 148.205 179.607 148.375C179.607 148.546 179.745 148.683 179.915 148.683Z" fill="#0F1011"/>
<path d="M177.485 148.486C177.655 148.486 177.793 148.348 177.793 148.178C177.793 148.008 177.655 147.87 177.485 147.87C177.314 147.87 177.176 148.008 177.176 148.178C177.176 148.348 177.314 148.486 177.485 148.486Z" fill="#0F1011"/>
<path d="M177.766 147.366L176.95 147.377" stroke="#0F1011" stroke-width="1.362" stroke-miterlimit="10" stroke-linecap="round"/>
<path d="M180.579 147.672L179.775 147.479" stroke="#0F1011" stroke-width="1.362" stroke-miterlimit="10" stroke-linecap="round"/>
<path d="M179.775 150.802C179.775 150.802 178.638 150.923 177.84 150.645C177.84 150.645 177.847 151.394 178.747 151.468C179.647 151.541 179.775 150.802 179.775 150.802Z" fill="white"/>
<g opacity="0.15">
<path opacity="0.15" d="M178.549 150.086C178.575 150.086 178.599 150.077 178.619 150.06C178.638 150.044 178.651 150.021 178.655 149.995C178.659 149.97 178.653 149.944 178.639 149.922C178.626 149.901 178.605 149.885 178.58 149.878L177.954 149.686L178.391 148.709C178.397 148.697 178.401 148.683 178.402 148.668C178.403 148.654 178.401 148.64 178.396 148.626C178.391 148.613 178.384 148.6 178.374 148.59C178.364 148.579 178.352 148.571 178.339 148.565C178.326 148.559 178.312 148.556 178.298 148.556C178.283 148.555 178.269 148.558 178.256 148.563C178.243 148.569 178.23 148.577 178.22 148.587C178.21 148.597 178.202 148.609 178.197 148.623L177.661 149.819L178.518 150.082C178.528 150.084 178.538 150.086 178.549 150.086Z" fill="black"/>
</g>
<path d="M175.73 144.657C175.73 144.657 176.275 140.252 183.332 141.334C185.091 141.603 187.584 142.977 187.988 147.479C188.172 149.545 188.884 151.492 189.427 152.725C189.492 152.869 189.519 153.028 189.506 153.186C189.494 153.344 189.442 153.496 189.356 153.629C189.269 153.761 189.151 153.871 189.012 153.946C188.873 154.022 188.717 154.061 188.559 154.061L183.599 154.063C183.474 154.063 183.351 154.039 183.235 153.992C183.12 153.944 183.015 153.874 182.927 153.786C182.839 153.698 182.769 153.594 182.721 153.479C182.673 153.364 182.648 153.24 182.648 153.116C182.648 153.102 182.648 153.088 182.648 153.073C182.684 152.229 182.712 150.799 182.664 148.614C182.406 147.366 183.093 146.487 182.096 146.774C178.393 147.836 176.009 144.728 175.73 144.657Z" fill="#0F1011"/>
<path d="M181.472 149.702C181.444 150.048 181.554 150.39 181.779 150.654C182.003 150.918 182.323 151.082 182.668 151.11C183.014 151.138 183.356 151.028 183.62 150.803C183.884 150.579 184.048 150.259 184.076 149.913C184.109 149.574 184.006 149.236 183.79 148.973C183.574 148.71 183.262 148.543 182.923 148.51C182.908 148.509 182.894 148.507 182.88 148.506C181.948 148.476 181.53 148.983 181.472 149.702Z" fill="#FFC8B2"/>
<path d="M171.844 187.561C171.44 187.494 166.89 186.716 166.89 186.716" stroke="#FFC8B2" stroke-width="21" stroke-miterlimit="10"/>
<path d="M163.914 193.986C163.894 194.105 163.9 194.226 163.929 194.342C163.959 194.459 164.012 194.568 164.086 194.663C164.16 194.757 164.252 194.836 164.358 194.893C164.463 194.951 164.579 194.986 164.699 194.997C164.864 195.011 165.031 194.978 165.179 194.901C165.326 194.825 165.449 194.707 165.532 194.563L168.107 189.724C168.157 189.63 168.185 189.527 168.191 189.421C168.197 189.315 168.18 189.209 168.141 189.11C167.77 188.324 167.661 187.439 167.831 186.586C167.99 185.926 168.331 185.324 168.816 184.849C168.863 184.808 168.897 184.754 168.915 184.694C168.933 184.635 168.933 184.571 168.916 184.511C168.899 184.451 168.865 184.397 168.818 184.356C168.772 184.314 168.714 184.287 168.653 184.277L166.147 183.857C166.073 183.844 165.997 183.847 165.924 183.864C165.851 183.88 165.782 183.912 165.721 183.955C165.66 183.999 165.608 184.054 165.569 184.118C165.529 184.182 165.503 184.253 165.491 184.327L163.914 193.986Z" fill="#C1D8ED"/>
<path d="M185.583 177.857C187.475 177.936 189.401 177.991 191.327 178.039L194.222 178.103L197.113 178.155L197.401 178.16C198.596 178.182 199.737 178.657 200.595 179.488C201.454 180.319 201.965 181.444 202.026 182.637C202.088 183.831 201.695 185.003 200.926 185.917C200.158 186.832 199.071 187.421 197.885 187.566L169.31 191.037L168.145 182.59L196.593 178.197L197.365 187.609L194.43 187.798L191.496 187.976C189.537 188.089 187.576 188.195 185.581 188.277L185.583 177.857Z" fill="#262626"/>
<path d="M188.904 185.043C189.299 185.15 193.114 185.704 193.114 185.704" stroke="#FFC8B2" stroke-width="21" stroke-miterlimit="10"/>
<path d="M197.72 191.752C197.761 191.865 197.779 191.985 197.772 192.105C197.765 192.225 197.733 192.342 197.679 192.449C197.624 192.556 197.548 192.651 197.456 192.728C197.363 192.804 197.256 192.86 197.14 192.894C196.98 192.939 196.811 192.939 196.651 192.891C196.492 192.844 196.349 192.752 196.24 192.626L192.793 188.364C192.727 188.281 192.679 188.185 192.654 188.082C192.628 187.98 192.625 187.873 192.644 187.768C192.859 186.926 192.798 186.036 192.47 185.231C192.189 184.613 191.739 184.087 191.173 183.713C191.119 183.681 191.075 183.635 191.047 183.58C191.018 183.524 191.006 183.462 191.011 183.4C191.016 183.338 191.039 183.278 191.077 183.229C191.115 183.179 191.166 183.141 191.225 183.12L193.606 182.232C193.676 182.205 193.751 182.193 193.826 182.196C193.901 182.199 193.974 182.217 194.043 182.248C194.111 182.279 194.172 182.324 194.223 182.379C194.274 182.434 194.313 182.498 194.339 182.568L197.72 191.752Z" fill="#C1D8ED"/>
<path d="M179.238 187.512C178.041 187.41 176.844 187.336 175.647 187.267C174.451 187.204 173.254 187.14 172.058 187.097L170.263 187.028L168.469 186.976C167.273 186.937 166.077 186.92 164.881 186.897L165.295 178.304C167.534 178.617 169.776 178.905 172.016 179.2C174.257 179.495 176.501 179.766 178.744 180.042L182.11 180.439L185.479 180.816C187.726 181.058 189.973 181.298 192.226 181.495L191.237 189.965C189 189.639 186.758 189.355 184.516 189.072L181.151 188.664L177.783 188.274C175.537 188.026 173.291 187.774 171.043 187.544C168.796 187.314 166.547 187.079 164.297 186.868C163.217 186.766 162.216 186.261 161.493 185.453C160.771 184.645 160.38 183.594 160.398 182.51C160.417 181.426 160.844 180.389 161.595 179.606C162.345 178.824 163.363 178.354 164.445 178.29L164.712 178.275C165.906 178.205 167.1 178.141 168.294 178.054L170.084 177.931L171.875 177.791C173.068 177.701 174.262 177.59 175.455 177.479C176.648 177.363 177.841 177.242 179.033 177.093L179.238 187.512Z" fill="#262626"/>
<path d="M189.928 176.553L190.557 187.123L172.381 186.909L173.753 177.551L189.928 176.553Z" fill="#262626"/>
<path d="M161.769 156.784C161.769 156.784 161.737 154.23 159.912 154.363C158.76 154.446 153.289 154.192 153.207 154.691C153.006 155.924 158.011 156.226 158.465 157.375L161.769 156.784Z" fill="#FFC8B2"/>
<path d="M196.317 174.479L191.161 159.144C190.951 158.398 190.544 157.722 189.982 157.188C189.01 156.216 187.333 155.589 185.287 155.586C185.134 156.779 177.893 156.784 177.837 155.614C177.561 155.618 177.346 155.623 177.212 155.629C175.212 155.715 174.029 156.269 173.361 157.152L166.536 163.794L161.984 155.291L158.048 157.399L164.001 168.517C164.164 168.822 164.396 169.085 164.679 169.285C164.961 169.485 165.286 169.616 165.627 169.669C165.969 169.722 166.319 169.695 166.648 169.59C166.978 169.485 167.278 169.304 167.526 169.063L172.942 163.792C173.154 165.168 173.282 166.556 173.326 167.948C173.409 174.851 171.544 176.153 172.463 178.262C173.354 180.31 190.858 181.161 191.092 177.558C191.095 177.52 191.095 177.483 191.096 177.445L194.05 177.535C194.073 177.535 194.097 177.535 194.12 177.535C194.488 177.535 194.851 177.448 195.178 177.28C195.505 177.112 195.788 176.869 196.003 176.57C196.217 176.271 196.358 175.925 196.413 175.562C196.467 175.198 196.434 174.826 196.317 174.477L196.317 174.479ZM190.861 172.799L189.804 172.767C189.414 171.48 189.218 170.142 189.221 168.797C189.221 168.542 189.236 168.29 189.26 168.039L190.861 172.799Z" fill="#7700FF"/>
<path d="M177.837 155.615C177.893 156.784 178.528 158.505 180.491 158.635C183.106 158.807 185.134 156.78 185.287 155.587H185.281C182.706 155.587 179.338 155.591 177.837 155.615Z" fill="#FFC8B2"/>
<path d="M183.881 161.458L184.633 172.661C184.641 172.793 184.623 172.925 184.579 173.05C184.534 173.174 184.464 173.289 184.374 173.385C184.284 173.482 184.174 173.559 184.053 173.612C183.932 173.664 183.801 173.692 183.668 173.692H168.025C167.786 173.692 167.555 173.603 167.377 173.443C167.2 173.283 167.088 173.062 167.064 172.825L165.906 161.622C165.892 161.487 165.907 161.351 165.948 161.223C165.99 161.094 166.059 160.976 166.15 160.875C166.24 160.775 166.351 160.694 166.474 160.639C166.598 160.584 166.732 160.556 166.867 160.556H182.917C183.162 160.556 183.398 160.649 183.577 160.817C183.756 160.984 183.865 161.213 183.881 161.458Z" fill="#9EBCEA"/>
<path d="M169.332 173.692H185.768C186.141 173.692 186.443 173.39 186.443 173.018C186.443 172.645 186.141 172.343 185.768 172.343H169.332C168.959 172.343 168.657 172.645 168.657 173.018C168.657 173.39 168.959 173.692 169.332 173.692Z" fill="#9EBCEA"/>
<path d="M174.855 168.613C175.677 168.613 176.343 167.946 176.343 167.124C176.343 166.302 175.677 165.636 174.855 165.636C174.033 165.636 173.367 166.302 173.367 167.124C173.367 167.946 174.033 168.613 174.855 168.613Z" fill="white"/>
<path d="M176.999 175.115C177.954 175.704 179.431 175.983 180.72 176.085L180.792 173.737C180.186 173.72 179.255 173.656 178.343 173.692C177.931 173.356 177.694 173.256 177.27 172.833C176.82 172.383 175.638 172.112 175.415 172.833C175.192 173.554 176.161 174.596 176.999 175.115Z" fill="#FFC8B2"/>
<path d="M31.2746 155.424L29.0834 154.906L26.3363 166.528L28.5275 167.046L31.2746 155.424Z" fill="#F0F6FF"/>
<path d="M26.6737 154.004L25.4572 154.228L27.3386 164.429L28.5551 164.205L26.6737 154.004Z" fill="#C1D8ED"/>
<path d="M26.6733 154L25.4581 154.231L25.6722 155.357L26.8874 155.125L26.6733 154Z" fill="#DEE8F5"/>
<path d="M30.4391 156.598L26.497 166.606L27.1725 166.872L31.1146 156.864L30.4391 156.598Z" fill="#FF4F12"/>
<path d="M31.3023 160.976H25.36V168.572H31.3023V160.976Z" fill="#262626"/>
<path d="M37.637 199.405H35.1861V202.107H37.637V199.405Z" fill="#C1D8ED"/>
<path d="M14.3195 199.405H11.8687V202.107H14.3195V199.405Z" fill="#C1D8ED"/>
<path d="M9.7587 199.718H20.0417L20.0417 168.595H9.7587L9.7587 199.718Z" fill="#C1D8ED"/>
<path d="M37.6682 199.405H48.1985L48.1985 169.284H37.6682V199.405Z" fill="#C1D8ED"/>
<path d="M19.3492 168.595H48.8912V199.718H19.3492V168.595ZM47.506 169.98H20.7344V198.333H47.506V169.98Z" fill="#DEE8F5"/>
<path d="M19.3492 182.559H48.8912V199.718H19.3492V182.559ZM47.506 183.944H20.7344V198.333H47.506V183.944Z" fill="#DEE8F5"/>
<path d="M35.4989 172.449V174.431V182.548H22.9494V174.431V172.449H35.4989Z" fill="#C1D8ED"/>
<path d="M39.6122 174.431H27.0627V182.548H39.6122V174.431Z" fill="#DEE8F5"/>
<path d="M39.6122 174.431H27.0627V175.04H39.6122V174.431Z" fill="#C1D8ED"/>
<path d="M27.0627 174.431H39.6122V172.449H27.0627V174.431Z" fill="#DEE8F5"/>
<path d="M31.9465 177.28H34.7282C34.8879 177.28 35.0173 177.151 35.0173 176.991V176.35C35.0173 176.191 34.8879 176.061 34.7282 176.061H31.9465C31.7868 176.061 31.6574 176.191 31.6574 176.35V176.991C31.6574 177.151 31.7868 177.28 31.9465 177.28Z" fill="white"/>
<path d="M47.0042 199.405H44.5534V202.107H47.0042V199.405Z" fill="#DEE8F5"/>
<path d="M23.6868 199.405H21.236V202.107H23.6868V199.405Z" fill="#DEE8F5"/>
<path d="M24.024 198.333H37.6674V195.243H24.024V198.333Z" fill="#C1D8ED"/>
<path d="M23.7897 192.16H37.4331V189.07H23.7897V192.16Z" fill="#C1D8ED"/>
<path d="M28.6797 198.333H43.1076V195.243H28.6797V198.333Z" fill="#DEE8F5"/>
<path opacity="0.62" d="M29.8574 198.333H30.5577V195.243H29.8574V198.333Z" fill="#C1D8ED"/>
<path opacity="0.62" d="M31.2579 198.333H31.9582V195.243H31.2579V198.333Z" fill="#C1D8ED"/>
<path d="M41.4537 197.784C42.0039 197.784 42.45 197.338 42.45 196.788C42.45 196.237 42.0039 195.791 41.4537 195.791C40.9034 195.791 40.4574 196.237 40.4574 196.788C40.4574 197.338 40.9034 197.784 41.4537 197.784Z" fill="#F3F5FD"/>
<path d="M28.4454 192.16H42.8733V189.07H28.4454V192.16Z" fill="#DEE8F5"/>
<path d="M31.8759 191.464H41.9442V189.765H31.8759V191.464Z" fill="#F3F5FD"/>
<path opacity="0.62" d="M29.6228 192.16H30.9481V189.07H29.6228V192.16Z" fill="#C1D8ED"/>
<path d="M36.5546 192.156H22.9112V195.246H36.5546V192.156Z" fill="#C1D8ED"/>
<path d="M41.9948 192.156H27.5668V195.246H41.9948V192.156Z" fill="#F3F5FD"/>
<path d="M40.8173 192.156H40.117V195.246H40.8173V192.156Z" fill="#DEE8F5"/>
<path d="M39.4166 192.156H38.7162V195.246H39.4166V192.156Z" fill="#DEE8F5"/>
<path d="M29.221 194.698C29.7712 194.698 30.2173 194.251 30.2173 193.701C30.2173 193.151 29.7712 192.704 29.221 192.704C28.6707 192.704 28.2247 193.151 28.2247 193.701C28.2247 194.251 28.6707 194.698 29.221 194.698Z" fill="#DEE8F5"/>
<path d="M31.2681 194.459H37.637V192.944H31.2681V194.459Z" fill="#DEE8F5"/>
<path d="M172.053 19H40V114.651H172.053V19Z" fill="#DEE8F5"/>
<path d="M69.7717 85.3567H44.8279V110.306H69.7717V85.3567Z" fill="white"/>
<path d="M102.197 85.3567H77.2534V110.306H102.197V85.3567Z" fill="white"/>
<path d="M134.623 85.3567H109.679V110.306H134.623V85.3567Z" fill="white"/>
<path d="M167.048 85.3567H142.104V110.306H167.048V85.3567Z" fill="white"/>
<path d="M167.048 31.5867H44.8279V80.5924H167.048V31.5867Z" fill="white"/>
<path d="M172.053 19H40V26.8793H172.053V19Z" fill="#C1D8ED"/>
<path d="M84.2428 56.3399C84.2428 58.908 83.4814 61.4184 82.0549 63.5537C80.6285 65.689 78.6009 67.3533 76.2288 68.3361C73.8567 69.3188 71.2464 69.576 68.7282 69.075C66.2099 68.5739 63.8968 67.3373 62.0812 65.5214C60.2656 63.7054 59.0292 61.3918 58.5283 58.873C58.0274 56.3543 58.2845 53.7435 59.2671 51.3709C60.2496 48.9983 61.9136 46.9703 64.0484 45.5436C66.1833 44.1168 68.6932 43.3553 71.2608 43.3553C72.9671 43.3501 74.6575 43.6825 76.2349 44.3332C77.8122 44.9839 79.2454 45.9402 80.4519 47.1469C81.6584 48.3537 82.6145 49.7871 83.265 51.3648C83.9156 52.9425 84.2479 54.6333 84.2428 56.3399Z" fill="#D7B3FF"/>
<path d="M71.2608 57.6779C74.0992 57.6779 76.4002 55.3765 76.4002 52.5375C76.4002 49.6985 74.0992 47.3971 71.2608 47.3971C68.4224 47.3971 66.1214 49.6985 66.1214 52.5375C66.1214 55.3765 68.4224 57.6779 71.2608 57.6779Z" fill="#F2E6FF"/>
<path d="M80.616 65.3436C79.4045 66.6025 77.9516 67.6039 76.3441 68.288C74.7367 68.972 73.0077 69.3246 71.2608 69.3246C69.5139 69.3246 67.785 68.972 66.1775 68.288C64.57 67.6039 63.1171 66.6025 61.9057 65.3436C63.6562 61.4307 67.1898 58.7567 71.2608 58.7567C75.3318 58.7567 78.8655 61.4309 80.616 65.3436Z" fill="#F2E6FF"/>
<path d="M115.742 43.4359H89.5327V51.3578H115.742V43.4359Z" fill="#DEE8F5"/>
<path d="M153.597 56.2582H89.5327V59.1404H153.597V56.2582Z" fill="#DEE8F5"/>
<path d="M153.597 64.0407H89.5327V66.9229H153.597V64.0407Z" fill="#DEE8F5"/>
<path d="M54.159 102.597C57.6817 102.597 60.5375 99.7403 60.5375 96.2168C60.5375 92.6934 57.6817 89.837 54.159 89.837C50.6362 89.837 47.7805 92.6934 47.7805 96.2168C47.7805 99.7403 50.6362 102.597 54.159 102.597Z" fill="#D7B3FF"/>
<path d="M65.5648 96.9072H55.51V106.964H65.5648V96.9072Z" fill="#F2E6FF"/>
<path d="M97.3127 96.2168V106.274H87.2579" fill="#F2E6FF"/>
<path d="M86.3504 89.837H82.4678V104.163H86.3504V89.837Z" fill="#F2E6FF"/>
<path d="M92.2852 96.2165C93.3879 96.2165 94.2819 95.3224 94.2819 94.2194C94.2819 93.1165 93.3879 92.2224 92.2852 92.2224C91.1825 92.2224 90.2885 93.1165 90.2885 94.2194C90.2885 95.3224 91.1825 96.2165 92.2852 96.2165Z" fill="#F2E6FF"/>
<path d="M128.591 95.5288V91.6454H114.269V95.5288H128.591Z" fill="#F2E6FF"/>
<path d="M124.764 105.293C127.674 105.293 130.033 102.933 130.033 100.022C130.033 97.1116 127.674 94.752 124.764 94.752C121.854 94.752 119.494 97.1116 119.494 100.022C119.494 102.933 121.854 105.293 124.764 105.293Z" fill="#D7B3FF"/>
<path d="M161.738 95.6528V91.7694H147.415V95.6528H161.738Z" fill="#D7B3FF"/>
<path d="M157.76 104.731C158.862 104.731 159.756 103.837 159.756 102.734C159.756 101.631 158.862 100.737 157.76 100.737C156.657 100.737 155.763 101.631 155.763 102.734C155.763 103.837 156.657 104.731 157.76 104.731Z" fill="#D7B3FF"/>
<path d="M153.476 105.6L146.366 98.4884L153.476 91.377" fill="#F2E6FF"/>
</svg>
