<svg width="220" height="220" viewBox="0 0 220 220" fill="none" xmlns="http://www.w3.org/2000/svg">
<g clip-path="url(#clip0_10_473)">
<path d="M177.644 145.726H124.171C121.994 145.726 120.229 147.486 120.229 149.657V178.573C120.229 180.744 121.994 182.504 124.171 182.504H177.644C179.822 182.504 181.586 180.744 181.586 178.573V149.657C181.586 147.486 179.822 145.726 177.644 145.726Z" fill="white"/>
<path opacity="0.1" d="M177.644 145.726H124.171C121.994 145.726 120.229 147.486 120.229 149.657V178.573C120.229 180.744 121.994 182.504 124.171 182.504H177.644C179.822 182.504 181.586 180.744 181.586 178.573V149.657C181.586 147.486 179.822 145.726 177.644 145.726Z" fill="#7700FF"/>
<path d="M164.685 165.446H159.95C159.662 165.446 159.428 165.679 159.428 165.966V176.431C159.428 176.719 159.662 176.952 159.95 176.952H164.685C164.973 176.952 165.207 176.719 165.207 176.431V165.966C165.207 165.679 164.973 165.446 164.685 165.446Z" fill="white"/>
<path d="M176.095 156.498H171.36C171.072 156.498 170.838 156.731 170.838 157.018V176.431C170.838 176.719 171.072 176.952 171.36 176.952H176.095C176.383 176.952 176.617 176.719 176.617 176.431V157.018C176.617 156.731 176.383 156.498 176.095 156.498Z" fill="white"/>
<path d="M130.455 165.446H125.72C125.432 165.446 125.198 165.679 125.198 165.966V176.431C125.198 176.719 125.432 176.952 125.72 176.952H130.455C130.743 176.952 130.977 176.719 130.977 176.431V165.966C130.977 165.679 130.743 165.446 130.455 165.446Z" fill="white"/>
<path d="M141.865 152.429H137.13C136.842 152.429 136.608 152.662 136.608 152.949V176.431C136.608 176.719 136.842 176.952 137.13 176.952H141.865C142.153 176.952 142.387 176.719 142.387 176.431V152.949C142.387 152.662 142.153 152.429 141.865 152.429Z" fill="white"/>
<path d="M153.275 162.867H148.54C148.252 162.867 148.018 163.1 148.018 163.388V176.431C148.018 176.719 148.252 176.952 148.54 176.952H153.275C153.563 176.952 153.797 176.719 153.797 176.431V163.388C153.797 163.1 153.563 162.867 153.275 162.867Z" fill="white"/>
<path d="M81.4051 123.232H13.5374C10.7742 123.232 8.53426 125.466 8.53426 128.221V164.921C8.53426 167.677 10.7742 169.91 13.5374 169.91H81.4051C84.1683 169.91 86.4082 167.677 86.4082 164.921V128.221C86.4082 125.466 84.1683 123.232 81.4051 123.232Z" fill="white"/>
<path opacity="0.1" d="M81.4051 123.232H13.5374C10.7742 123.232 8.53426 125.466 8.53426 128.221V164.921C8.53426 167.677 10.7742 169.91 13.5374 169.91H81.4051C84.1683 169.91 86.4082 167.677 86.4082 164.921V128.221C86.4082 125.466 84.1683 123.232 81.4051 123.232Z" fill="#FF4545"/>
<path d="M64.9576 148.261H58.9481C58.5823 148.261 58.2857 148.556 58.2857 148.921V162.203C58.2857 162.568 58.5823 162.864 58.9481 162.864H64.9576C65.3234 162.864 65.6199 162.568 65.6199 162.203V148.921C65.6199 148.556 65.3234 148.261 64.9576 148.261Z" fill="white"/>
<path d="M79.4392 136.904H73.4297C73.0639 136.904 72.7673 137.2 72.7673 137.564V162.203C72.7673 162.568 73.0639 162.864 73.4297 162.864H79.4392C79.805 162.864 80.1016 162.568 80.1016 162.203V137.564C80.1016 137.2 79.805 136.904 79.4392 136.904Z" fill="white"/>
<path d="M21.5126 148.261H15.5032C15.1373 148.261 14.8408 148.556 14.8408 148.921V162.203C14.8408 162.568 15.1373 162.864 15.5032 162.864H21.5126C21.8784 162.864 22.175 162.568 22.175 162.203V148.921C22.175 148.556 21.8784 148.261 21.5126 148.261Z" fill="white"/>
<path d="M35.9942 131.74H29.9847C29.6189 131.74 29.3223 132.036 29.3223 132.4V162.203C29.3223 162.568 29.6189 162.864 29.9847 162.864H35.9942C36.36 162.864 36.6566 162.568 36.6566 162.203V132.4C36.6566 132.036 36.36 131.74 35.9942 131.74Z" fill="white"/>
<path d="M50.476 144.988H44.4665C44.1007 144.988 43.8042 145.283 43.8042 145.648V162.203C43.8042 162.568 44.1007 162.864 44.4665 162.864H50.476C50.8418 162.864 51.1384 162.568 51.1384 162.203V145.648C51.1384 145.283 50.8418 144.988 50.476 144.988Z" fill="white"/>
<path d="M210.078 1H132.132C128.959 1 126.386 3.56531 126.386 6.72977V48.8798C126.386 52.0443 128.959 54.6096 132.132 54.6096H210.078C213.251 54.6096 215.824 52.0443 215.824 48.8798V6.72977C215.824 3.56531 213.251 1 210.078 1Z" fill="white"/>
<path opacity="0.1" d="M210.078 1H132.132C128.959 1 126.386 3.56531 126.386 6.72977V48.8798C126.386 52.0443 128.959 54.6096 132.132 54.6096H210.078C213.251 54.6096 215.824 52.0443 215.824 48.8798V6.72977C215.824 3.56531 213.251 1 210.078 1Z" fill="#367CFF"/>
<path d="M191.188 29.7453H184.286C183.866 29.7453 183.526 30.0849 183.526 30.5039V45.7582C183.526 46.1771 183.866 46.5168 184.286 46.5168H191.188C191.608 46.5168 191.949 46.1771 191.949 45.7582V30.5039C191.949 30.0849 191.608 29.7453 191.188 29.7453Z" fill="white"/>
<path d="M207.82 16.7017H200.918C200.498 16.7017 200.158 17.0413 200.158 17.4603V45.7582C200.158 46.1772 200.498 46.5168 200.918 46.5168H207.82C208.24 46.5168 208.581 46.1772 208.581 45.7582V17.4603C208.581 17.0413 208.24 16.7017 207.82 16.7017Z" fill="white"/>
<path d="M141.292 29.7453H134.39C133.97 29.7453 133.629 30.0849 133.629 30.5039V45.7582C133.629 46.1771 133.97 46.5168 134.39 46.5168H141.292C141.712 46.5168 142.053 46.1771 142.053 45.7582V30.5039C142.053 30.0849 141.712 29.7453 141.292 29.7453Z" fill="white"/>
<path d="M157.924 10.7711H151.022C150.602 10.7711 150.262 11.1107 150.262 11.5296V45.7582C150.262 46.1772 150.602 46.5168 151.022 46.5168H157.924C158.344 46.5168 158.685 46.1772 158.685 45.7582V11.5296C158.685 11.1107 158.344 10.7711 157.924 10.7711Z" fill="white"/>
<path d="M174.556 25.9859H167.654C167.234 25.9859 166.894 26.3255 166.894 26.7445V45.758C166.894 46.1769 167.234 46.5165 167.654 46.5165H174.556C174.976 46.5165 175.317 46.1769 175.317 45.758V26.7445C175.317 26.3255 174.976 25.9859 174.556 25.9859Z" fill="white"/>
<path d="M40.8268 45.2485H2.80294C1.25492 45.2485 0 46.4998 0 48.0435V68.6054C0 70.149 1.25492 71.4004 2.80294 71.4004H40.8268C42.3749 71.4004 43.6298 70.149 43.6298 68.6054V48.0435C43.6298 46.4998 42.3749 45.2485 40.8268 45.2485Z" fill="white"/>
<path opacity="0.3" d="M40.8268 45.2485H2.80294C1.25492 45.2485 0 46.4998 0 48.0435V68.6054C0 70.149 1.25492 71.4004 2.80294 71.4004H40.8268C42.3749 71.4004 43.6298 70.149 43.6298 68.6054V48.0435C43.6298 46.4998 42.3749 45.2485 40.8268 45.2485Z" fill="#7700FF"/>
<path d="M31.612 59.271H28.245C28.0401 59.271 27.874 59.4366 27.874 59.641V67.0826C27.874 67.2869 28.0401 67.4526 28.245 67.4526H31.612C31.8169 67.4526 31.983 67.2869 31.983 67.0826V59.641C31.983 59.4366 31.8169 59.271 31.612 59.271Z" fill="white"/>
<path d="M39.7254 52.908H36.3584C36.1535 52.908 35.9874 53.0737 35.9874 53.278V67.0824C35.9874 67.2868 36.1535 67.4524 36.3584 67.4524H39.7254C39.9303 67.4524 40.0964 67.2868 40.0964 67.0824V53.278C40.0964 53.0737 39.9303 52.908 39.7254 52.908Z" fill="white"/>
<path d="M7.27141 59.271H3.90441C3.6995 59.271 3.53339 59.4366 3.53339 59.641V67.0826C3.53339 67.2869 3.6995 67.4526 3.90441 67.4526H7.27141C7.47632 67.4526 7.64243 67.2869 7.64243 67.0826V59.641C7.64243 59.4366 7.47632 59.271 7.27141 59.271Z" fill="white"/>
<path d="M15.385 50.015H12.018C11.8131 50.015 11.647 50.1806 11.647 50.3849V67.0826C11.647 67.2869 11.8131 67.4526 12.018 67.4526H15.385C15.5899 67.4526 15.756 67.2869 15.756 67.0826V50.3849C15.756 50.1806 15.5899 50.015 15.385 50.015Z" fill="white"/>
<path d="M23.4984 57.4371H20.1314C19.9265 57.4371 19.7604 57.6027 19.7604 57.807V67.0824C19.7604 67.2867 19.9265 67.4524 20.1314 67.4524H23.4984C23.7033 67.4524 23.8694 67.2867 23.8694 67.0824V57.807C23.8694 57.6027 23.7033 57.4371 23.4984 57.4371Z" fill="white"/>
<path d="M36.2509 137.943L189.825 137.943C193.597 137.943 196.654 134.894 196.654 131.134L196.654 19.0132C196.654 15.2526 193.597 12.204 189.825 12.204L36.2509 12.204C32.4796 12.204 29.4223 15.2526 29.4223 19.0132L29.4223 131.134C29.4223 134.894 32.4796 137.943 36.2509 137.943Z" fill="white"/>
<path d="M29.1944 131.134V19.0132C29.1965 17.1478 29.9406 15.3593 31.2635 14.0402C32.5863 12.7211 34.3799 11.9791 36.2507 11.977H189.825C191.696 11.9791 193.489 12.7211 194.812 14.0402C196.135 15.3593 196.879 17.1478 196.881 19.0132V131.134C196.879 132.999 196.135 134.788 194.812 136.107C193.489 137.426 191.696 138.168 189.825 138.17H36.2507C34.3799 138.168 32.5863 137.426 31.2635 136.107C29.9406 134.788 29.1965 132.999 29.1944 131.134ZM36.2507 12.4309C34.5006 12.433 32.8228 13.1271 31.5853 14.3611C30.3478 15.5951 29.6517 17.2681 29.6497 19.0132V131.134C29.6516 132.879 30.3478 134.552 31.5853 135.786C32.8228 137.02 34.5006 137.714 36.2507 137.716H189.825C191.575 137.714 193.253 137.02 194.49 135.786C195.728 134.552 196.424 132.879 196.426 131.134V19.0132C196.424 17.2681 195.728 15.595 194.49 14.361C193.253 13.1271 191.575 12.4329 189.825 12.4309H36.2507Z" fill="#292A2E"/>
<path d="M29.4223 19.0126V25.8643H196.653V19.0126C196.653 17.2066 195.933 15.4747 194.653 14.1977C193.372 12.9207 191.635 12.2033 189.824 12.2033H36.2509C34.4399 12.2033 32.703 12.9207 31.4223 14.1977C30.1417 15.4747 29.4223 17.2066 29.4223 19.0126Z" fill="#292A2E"/>
<path d="M187.618 32.3751H122.457C120.857 32.3751 119.561 33.668 119.561 35.2629V81.2273C119.561 82.8222 120.857 84.1151 122.457 84.1151H187.618C189.217 84.1151 190.514 82.8222 190.514 81.2273V35.2629C190.514 33.668 189.217 32.3751 187.618 32.3751Z" fill="white"/>
<path opacity="0.15" d="M187.618 32.3751H122.457C120.857 32.3751 119.561 33.668 119.561 35.2629V81.2273C119.561 82.8222 120.857 84.1151 122.457 84.1151H187.618C189.217 84.1151 190.514 82.8222 190.514 81.2273V35.2629C190.514 33.668 189.217 32.3751 187.618 32.3751Z" fill="#DEE8F5"/>
<path d="M132.297 38.8314H126.665C126.403 38.8314 126.191 39.0428 126.191 39.3037V77.1864C126.191 77.4473 126.403 77.6587 126.665 77.6587H132.297C132.558 77.6587 132.77 77.4473 132.77 77.1864V39.3037C132.77 39.0428 132.558 38.8314 132.297 38.8314Z" fill="#FAFAFA"/>
<path opacity="0.6" d="M126.191 57.864H132.77V77.1864C132.77 77.3117 132.72 77.4318 132.631 77.5204C132.542 77.609 132.421 77.6588 132.296 77.6588H126.665C126.539 77.6588 126.419 77.609 126.33 77.5204C126.241 77.4318 126.191 77.3117 126.191 77.1864V57.864Z" fill="#DEE8F5"/>
<path d="M145.075 38.8314H139.443C139.182 38.8314 138.969 39.0428 138.969 39.3037V77.1864C138.969 77.4473 139.182 77.6587 139.443 77.6587H145.075C145.336 77.6587 145.548 77.4473 145.548 77.1864V39.3037C145.548 39.0428 145.336 38.8314 145.075 38.8314Z" fill="#FAFAFA"/>
<path opacity="0.6" d="M138.969 52.4825H145.548V77.1861C145.548 77.3114 145.498 77.4315 145.409 77.5201C145.32 77.6087 145.2 77.6585 145.074 77.6585H139.443C139.318 77.6585 139.197 77.6087 139.108 77.5201C139.019 77.4315 138.969 77.3114 138.969 77.1861V52.4825Z" fill="#DEE8F5"/>
<path d="M183.41 38.8314H177.778C177.517 38.8314 177.305 39.0428 177.305 39.3037V77.1864C177.305 77.4473 177.517 77.6587 177.778 77.6587H183.41C183.671 77.6587 183.884 77.4473 183.884 77.1864V39.3037C183.884 39.0428 183.671 38.8314 183.41 38.8314Z" fill="#FAFAFA"/>
<path opacity="0.6" d="M177.305 47.0533H183.883V77.1866C183.883 77.3119 183.833 77.4321 183.744 77.5206C183.655 77.6092 183.535 77.659 183.409 77.659H177.778C177.653 77.659 177.532 77.6092 177.444 77.5206C177.355 77.4321 177.305 77.3119 177.305 77.1866V47.0533H177.305Z" fill="#DEE8F5"/>
<path d="M157.853 38.8314H152.222C151.96 38.8314 151.748 39.0428 151.748 39.3037V77.1864C151.748 77.4473 151.96 77.6587 152.222 77.6587H157.853C158.115 77.6587 158.327 77.4473 158.327 77.1864V39.3037C158.327 39.0428 158.115 38.8314 157.853 38.8314Z" fill="#FAFAFA"/>
<path opacity="0.6" d="M151.748 66.5678H158.326V77.1864C158.326 77.3117 158.276 77.4318 158.188 77.5204C158.099 77.609 157.978 77.6587 157.853 77.6587H152.222C152.096 77.6587 151.976 77.609 151.887 77.5204C151.798 77.4318 151.748 77.3117 151.748 77.1864V66.5678Z" fill="#DEE8F5"/>
<path d="M170.632 38.8314H165C164.739 38.8314 164.526 39.0428 164.526 39.3037V77.1864C164.526 77.4473 164.739 77.6587 165 77.6587H170.632C170.893 77.6587 171.105 77.4473 171.105 77.1864V39.3037C171.105 39.0428 170.893 38.8314 170.632 38.8314Z" fill="#FAFAFA"/>
<path opacity="0.6" d="M164.526 59.7831H171.104V77.1862C171.104 77.3115 171.054 77.4316 170.965 77.5202C170.876 77.6088 170.756 77.6586 170.63 77.6586H165C164.938 77.6586 164.876 77.6463 164.819 77.6226C164.761 77.5989 164.709 77.5641 164.665 77.5202C164.621 77.4763 164.586 77.4243 164.562 77.367C164.539 77.3097 164.526 77.2482 164.526 77.1862V59.7831H164.526Z" fill="#DEE8F5"/>
<path opacity="0.15" d="M186.368 89.1796H122.923C120.633 89.1796 118.777 91.0304 118.777 93.3135V127.571C118.777 129.854 120.633 131.705 122.923 131.705H186.368C188.658 131.705 190.514 129.854 190.514 127.571V93.3135C190.514 91.0304 188.658 89.1796 186.368 89.1796Z" fill="#DEE8F5"/>
<path d="M161.689 99.8018C162.54 99.8018 163.23 99.1139 163.23 98.2652C163.23 97.4166 162.54 96.7286 161.689 96.7286C160.838 96.7286 160.148 97.4166 160.148 98.2652C160.148 99.1139 160.838 99.8018 161.689 99.8018Z" fill="#DEE8F5"/>
<path d="M161.689 107.635C162.54 107.635 163.23 106.947 163.23 106.098C163.23 105.25 162.54 104.562 161.689 104.562C160.838 104.562 160.148 105.25 160.148 106.098C160.148 106.947 160.838 107.635 161.689 107.635Z" fill="#262626"/>
<path d="M161.689 115.468C162.54 115.468 163.23 114.78 163.23 113.932C163.23 113.083 162.54 112.395 161.689 112.395C160.838 112.395 160.148 113.083 160.148 113.932C160.148 114.78 160.838 115.468 161.689 115.468Z" fill="white"/>
<path opacity="0.5" d="M161.689 123.302C162.54 123.302 163.23 122.614 163.23 121.765C163.23 120.916 162.54 120.228 161.689 120.228C160.838 120.228 160.148 120.916 160.148 121.765C160.148 122.614 160.838 123.302 161.689 123.302Z" fill="#DEE8F5"/>
<path d="M183.074 98.2645C183.074 98.4951 182.982 98.7162 182.819 98.8792C182.655 99.0423 182.434 99.1339 182.203 99.1339H167.39C167.184 99.1376 166.983 99.0707 166.821 98.9442C166.658 98.8178 166.544 98.6395 166.498 98.4393C166.472 98.3129 166.475 98.1822 166.506 98.057C166.537 97.9317 166.595 97.8148 166.677 97.7149C166.759 97.6149 166.862 97.5344 166.979 97.4791C167.096 97.4238 167.224 97.3952 167.353 97.3952H182.203C182.317 97.3952 182.43 97.4176 182.536 97.4613C182.642 97.505 182.738 97.569 182.819 97.6498C182.9 97.7305 182.964 97.8263 183.008 97.9318C183.052 98.0373 183.074 98.1504 183.074 98.2645Z" fill="white"/>
<path d="M183.074 106.098C183.074 106.329 182.982 106.55 182.819 106.713C182.655 106.876 182.434 106.967 182.203 106.967H167.399C167.278 106.969 167.158 106.947 167.046 106.902C166.934 106.856 166.832 106.789 166.747 106.704C166.661 106.619 166.594 106.517 166.548 106.406C166.502 106.294 166.48 106.174 166.482 106.054C166.493 105.831 166.59 105.621 166.752 105.468C166.914 105.314 167.13 105.229 167.353 105.229H182.203C182.317 105.229 182.43 105.251 182.536 105.295C182.642 105.339 182.738 105.403 182.819 105.483C182.9 105.564 182.964 105.66 183.008 105.765C183.052 105.871 183.074 105.984 183.074 106.098Z" fill="white"/>
<path d="M183.074 113.932C183.074 114.162 182.982 114.383 182.819 114.546C182.655 114.709 182.434 114.801 182.202 114.801H167.263C167.056 114.801 166.856 114.719 166.709 114.572C166.563 114.426 166.48 114.227 166.48 114.02V113.843C166.48 113.636 166.563 113.438 166.709 113.291C166.856 113.145 167.056 113.063 167.263 113.063H182.202C182.317 113.063 182.43 113.085 182.536 113.129C182.642 113.172 182.738 113.236 182.819 113.317C182.9 113.398 182.964 113.494 183.008 113.599C183.052 113.705 183.074 113.818 183.074 113.932Z" fill="white"/>
<path d="M183.074 121.765C183.074 121.996 182.982 122.217 182.819 122.38C182.655 122.543 182.434 122.635 182.203 122.635H167.394C167.187 122.639 166.986 122.572 166.823 122.446C166.66 122.319 166.545 122.141 166.498 121.941C166.472 121.814 166.474 121.684 166.505 121.559C166.536 121.433 166.595 121.316 166.677 121.216C166.759 121.117 166.862 121.036 166.979 120.981C167.095 120.925 167.223 120.897 167.353 120.897H182.202C182.317 120.897 182.43 120.919 182.536 120.963C182.641 121.006 182.738 121.07 182.819 121.151C182.9 121.232 182.964 121.327 183.008 121.433C183.052 121.538 183.074 121.651 183.074 121.765Z" fill="white"/>
<path d="M132.775 110.016C132.775 111.889 133.358 113.716 134.443 115.245C135.528 116.774 137.062 117.93 138.833 118.554L136.342 124.612C132.916 123.324 130.052 120.879 128.248 117.702C126.444 114.525 125.815 110.817 126.471 107.225C127.127 103.634 129.026 100.385 131.837 98.0457C134.648 95.7064 138.193 94.4248 141.854 94.424V100.964C139.446 100.964 137.137 101.918 135.435 103.615C133.732 105.313 132.775 107.615 132.775 110.016Z" fill="#DEE8F5"/>
<path d="M157.492 110.015H150.933C150.933 107.614 149.977 105.311 148.274 103.614C146.571 101.916 144.262 100.962 141.854 100.962V94.4218C146.002 94.4218 149.979 96.0647 152.912 98.989C155.845 101.913 157.492 105.879 157.492 110.015Z" fill="#262626"/>
<path d="M157.492 110.015C157.492 113.548 156.288 116.977 154.079 119.739C151.87 122.502 148.786 124.434 145.331 125.221L144.22 118.756C146.147 118.237 147.848 117.1 149.062 115.52C150.275 113.94 150.933 112.005 150.933 110.015H157.492Z" fill="white"/>
<path opacity="0.5" d="M145.331 125.221C142.339 125.897 139.214 125.685 136.342 124.61L138.833 118.553C140.567 119.16 142.445 119.231 144.22 118.757L145.331 125.221Z" fill="#DEE8F5"/>
<path opacity="0.15" d="M109.674 32.3751H39.6507C37.3879 32.3751 35.5535 34.2042 35.5535 36.4606V127.619C35.5535 129.876 37.3879 131.705 39.6507 131.705H109.674C111.937 131.705 113.771 129.876 113.771 127.619V36.4606C113.771 34.2042 111.937 32.3751 109.674 32.3751Z" fill="#DEE8F5"/>
<path d="M95.8247 71.1416C95.8248 75.6741 94.477 80.1048 91.9517 83.8734C89.4265 87.6421 85.8372 90.5794 81.6378 92.3139C77.4384 94.0485 72.8175 94.5023 68.3594 93.6181C63.9014 92.7339 59.8064 90.5513 56.5923 87.3464C53.3782 84.1415 51.1893 80.0581 50.3025 75.6127C49.4158 71.1673 49.8709 66.5595 51.6103 62.3721C53.3498 58.1846 56.2954 54.6055 60.0748 52.0874C63.8541 49.5693 68.2974 48.2252 72.8428 48.2252V71.1416H95.8247Z" fill="#FAFAFA"/>
<path opacity="0.6" d="M98.6425 68.1648H75.6617V45.2485C81.7567 45.2487 87.602 47.6632 91.9117 51.9608C96.2214 56.2585 98.6425 62.0872 98.6425 68.1648Z" fill="#367CFF"/>
<path opacity="0.6" d="M49.0122 107.058C49.8632 107.058 50.5532 106.37 50.5532 105.522C50.5532 104.673 49.8632 103.985 49.0122 103.985C48.1611 103.985 47.4711 104.673 47.4711 105.522C47.4711 106.37 48.1611 107.058 49.0122 107.058Z" fill="#7700FF"/>
<path d="M49.0122 114.892C49.8632 114.892 50.5532 114.204 50.5532 113.355C50.5532 112.506 49.8632 111.818 49.0122 111.818C48.1611 111.818 47.4711 112.506 47.4711 113.355C47.4711 114.204 48.1611 114.892 49.0122 114.892Z" fill="#FAFAFA"/>
<path opacity="0.6" d="M101.809 105.522C101.809 105.753 101.717 105.974 101.554 106.137C101.39 106.3 101.169 106.392 100.937 106.392H54.7134C54.5073 106.395 54.3061 106.328 54.1436 106.202C53.9811 106.075 53.8671 105.897 53.8207 105.697C53.7949 105.57 53.7976 105.44 53.8286 105.314C53.8596 105.189 53.9182 105.072 54.0001 104.972C54.082 104.872 54.1852 104.792 54.3021 104.737C54.4191 104.681 54.5469 104.653 54.6763 104.653H100.937C101.052 104.653 101.165 104.675 101.271 104.719C101.377 104.763 101.473 104.827 101.554 104.907C101.635 104.988 101.699 105.084 101.743 105.19C101.787 105.295 101.809 105.408 101.809 105.522Z" fill="#7700FF"/>
<path d="M101.809 113.355C101.809 113.585 101.717 113.806 101.554 113.969C101.39 114.133 101.169 114.224 100.937 114.224H54.7223C54.6014 114.226 54.4813 114.204 54.3693 114.158C54.2572 114.113 54.1554 114.046 54.0698 113.961C53.9842 113.875 53.9167 113.774 53.8711 113.662C53.8255 113.551 53.8029 113.431 53.8045 113.31C53.8162 113.088 53.9132 112.878 54.0754 112.724C54.2376 112.571 54.4527 112.485 54.6763 112.485H100.937C101.052 112.485 101.165 112.508 101.271 112.552C101.377 112.595 101.473 112.659 101.554 112.74C101.635 112.821 101.699 112.917 101.743 113.022C101.787 113.128 101.809 113.241 101.809 113.355Z" fill="white"/>
<path d="M28.8751 195.532C28.8505 195.532 28.8261 195.527 28.8034 195.517C28.7807 195.508 28.7601 195.494 28.7428 195.477C28.479 195.214 28.0495 190.391 26.892 176.031C26.4183 170.155 25.9708 164.605 25.6444 161.232C25.6217 160.991 25.5274 160.963 25.4967 160.954C25.0499 160.82 23.6907 161.888 22.9321 162.824C22.9166 162.843 22.8975 162.859 22.876 162.871C22.8544 162.882 22.8307 162.89 22.8062 162.892C22.7818 162.895 22.7571 162.893 22.7335 162.886C22.7099 162.879 22.6879 162.867 22.6688 162.852C22.6497 162.837 22.6338 162.818 22.6221 162.796C22.6103 162.774 22.603 162.751 22.6004 162.726C22.5978 162.702 22.6 162.677 22.607 162.654C22.6139 162.63 22.6255 162.609 22.6409 162.589C23.1417 161.971 24.7781 160.349 25.6044 160.597C25.7286 160.639 25.8358 160.72 25.9101 160.828C25.9845 160.936 26.0219 161.065 26.017 161.196C26.3437 164.572 26.791 170.124 27.2651 176.001C27.9684 184.727 28.7651 194.613 29.0271 195.236C29.047 195.264 29.0588 195.297 29.0613 195.331C29.0638 195.365 29.0568 195.399 29.0411 195.43C29.0254 195.46 29.0016 195.486 28.9723 195.504C28.943 195.522 28.9094 195.531 28.8751 195.531V195.532Z" fill="#494949"/>
<path d="M25.1642 167.422C28.2691 164.94 29.2982 161.077 27.4627 158.794C25.6273 156.51 21.6223 156.671 18.5174 159.153C15.4125 161.635 14.3834 165.498 16.2188 167.781C18.0543 170.064 22.0593 169.903 25.1642 167.422Z" fill="#0CBC8B"/>
<path opacity="0.2" d="M25.1642 167.422C28.2691 164.94 29.2982 161.077 27.4627 158.794C25.6273 156.51 21.6223 156.671 18.5174 159.153C15.4125 161.635 14.3834 165.498 16.2188 167.781C18.0543 170.064 22.0593 169.903 25.1642 167.422Z" fill="white"/>
<path d="M17.0888 168.361C17.071 168.361 17.0537 168.356 17.0387 168.347C17.0237 168.337 17.0118 168.324 17.0042 168.308C16.9967 168.292 16.9939 168.274 16.9961 168.256C16.9983 168.239 17.0055 168.222 17.0168 168.209L25.8657 157.568C25.8815 157.549 25.9043 157.537 25.929 157.535C25.9537 157.532 25.9783 157.54 25.9975 157.556C26.0166 157.572 26.0286 157.594 26.0309 157.619C26.0332 157.644 26.0256 157.668 26.0097 157.687L17.1609 168.328C17.1521 168.338 17.1411 168.347 17.1286 168.353C17.1161 168.359 17.1025 168.362 17.0888 168.361Z" fill="white"/>
<path d="M30.8051 193.25C30.7752 193.25 30.7459 193.243 30.7194 193.23C30.6929 193.216 30.6701 193.196 30.6528 193.172C30.6355 193.148 30.6243 193.12 30.62 193.09C30.6158 193.061 30.6187 193.031 30.6284 193.003L33.9517 183.471C34.0495 183.191 34.2162 182.939 34.4366 182.74C34.657 182.541 34.924 182.4 35.2132 182.33C35.5023 182.261 35.8044 182.265 36.0917 182.342C36.3789 182.419 36.6422 182.567 36.8573 182.771L38.6146 184.445C38.6494 184.48 38.6693 184.526 38.6699 184.575C38.6706 184.624 38.6519 184.671 38.6181 184.707C38.5842 184.742 38.5377 184.763 38.4887 184.764C38.4397 184.766 38.392 184.748 38.356 184.715L36.5988 183.041C36.4289 182.88 36.2211 182.763 35.9943 182.702C35.7675 182.641 35.5291 182.638 35.3008 182.693C35.0725 182.748 34.8617 182.859 34.6877 183.016C34.5137 183.174 34.3821 183.372 34.305 183.593L30.9817 193.126C30.9688 193.163 30.9448 193.194 30.9132 193.216C30.8815 193.239 30.8438 193.251 30.8051 193.25Z" fill="#494949"/>
<path d="M43.5239 189.722C45.8249 187.906 45.6882 183.912 43.2185 180.8C40.7487 177.689 36.8813 176.639 34.5802 178.455C32.2792 180.272 32.416 184.266 34.8857 187.377C37.3554 190.489 41.2229 191.539 43.5239 189.722Z" fill="#0CBC8B"/>
<path d="M27.365 194.924C27.3229 194.924 27.2821 194.91 27.2491 194.884C27.216 194.858 27.1927 194.821 27.1829 194.78L21.6062 171.524C21.5681 171.366 21.487 171.22 21.3716 171.105C21.2563 170.989 21.1112 170.908 20.9523 170.869C20.7935 170.83 20.627 170.836 20.4713 170.886C20.3155 170.935 20.1765 171.027 20.0695 171.15L18.35 173.132C18.3342 173.151 18.3146 173.167 18.2925 173.178C18.2704 173.19 18.2462 173.197 18.2213 173.199C18.1964 173.201 18.1713 173.199 18.1475 173.191C18.1237 173.183 18.1017 173.171 18.0828 173.155C18.0639 173.138 18.0484 173.118 18.0374 173.096C18.0263 173.074 18.0198 173.049 18.0184 173.024C18.0169 172.999 18.0205 172.975 18.0288 172.951C18.0372 172.928 18.0502 172.906 18.0671 172.888L19.7865 170.906C19.9386 170.731 20.1362 170.601 20.3575 170.531C20.5788 170.46 20.8153 170.452 21.041 170.507C21.2667 170.562 21.4729 170.678 21.6368 170.842C21.8007 171.006 21.916 171.212 21.9701 171.437L27.5469 194.694C27.5526 194.718 27.5536 194.742 27.5497 194.766C27.5459 194.791 27.5373 194.814 27.5244 194.835C27.5115 194.856 27.4947 194.874 27.4748 194.888C27.4549 194.902 27.4324 194.913 27.4085 194.918C27.3943 194.922 27.3797 194.924 27.365 194.924Z" fill="#494949"/>
<path d="M25.3069 178.299C25.9849 174.389 24.1904 170.815 21.2987 170.317C18.407 169.818 15.5131 172.584 14.8351 176.494C14.157 180.403 15.9515 183.977 18.8432 184.476C21.7349 184.975 24.6288 182.209 25.3069 178.299Z" fill="#0CBC8B"/>
<path d="M28.8753 195.532C28.8677 195.532 28.8601 195.531 28.8525 195.53C28.8033 195.524 28.7585 195.499 28.7279 195.46C28.6974 195.421 28.6836 195.371 28.6896 195.322L32.2514 166.485C32.2902 166.171 32.4191 165.874 32.6227 165.632C32.8264 165.389 33.096 165.21 33.3992 165.116C33.7024 165.022 34.0263 165.018 34.3319 165.104C34.6375 165.189 34.9118 165.361 35.1219 165.598L39.1932 170.196C39.2095 170.214 39.222 170.236 39.2299 170.259C39.2379 170.282 39.2413 170.306 39.2398 170.331C39.2383 170.355 39.2319 170.379 39.2211 170.401C39.2104 170.423 39.1953 170.443 39.1769 170.459C39.1585 170.475 39.1371 170.488 39.1138 170.496C39.0906 170.504 39.066 170.507 39.0415 170.506C39.0169 170.504 38.9929 170.498 38.9709 170.487C38.9488 170.476 38.929 170.461 38.9128 170.443L34.8415 165.845C34.6791 165.662 34.4671 165.529 34.231 165.463C33.9948 165.397 33.7445 165.4 33.5101 165.473C33.2758 165.545 33.0674 165.683 32.91 165.871C32.7526 166.058 32.6529 166.287 32.6229 166.53L29.0608 195.368C29.0553 195.413 29.0333 195.454 28.9992 195.485C28.965 195.515 28.9209 195.531 28.8753 195.532Z" fill="#494949"/>
<path d="M43.3683 172.751C44.7888 170.19 43.1175 166.558 39.6354 164.637C36.1533 162.716 32.179 163.235 30.7586 165.796C29.3381 168.357 31.0094 171.989 34.4915 173.91C37.9736 175.831 41.9479 175.312 43.3683 172.751Z" fill="#0CBC8B"/>
<path opacity="0.2" d="M43.5239 189.722C45.8249 187.906 45.6882 183.912 43.2185 180.8C40.7487 177.689 36.8813 176.639 34.5802 178.455C32.2792 180.272 32.416 184.266 34.8857 187.377C37.3554 190.489 41.2229 191.539 43.5239 189.722Z" fill="white"/>
<path opacity="0.5" d="M25.3069 178.299C25.9849 174.389 24.1904 170.815 21.2987 170.317C18.407 169.818 15.5131 172.584 14.8351 176.494C14.157 180.403 15.9515 183.977 18.8432 184.476C21.7349 184.975 24.6288 182.209 25.3069 178.299Z" fill="white"/>
<path opacity="0.5" d="M43.3683 172.751C44.7888 170.19 43.1175 166.558 39.6354 164.637C36.1533 162.716 32.179 163.235 30.7586 165.796C29.3381 168.357 31.0094 171.989 34.4915 173.91C37.9736 175.831 41.9479 175.312 43.3683 172.751Z" fill="white"/>
<path d="M33.4309 220H24.3192L22.8094 190.93H34.9407L33.4309 220Z" fill="#292A2E"/>
<path opacity="0.3" d="M33.4309 220H24.3192L22.8094 190.93H34.9407L33.4309 220Z" fill="white"/>
<path d="M43.5248 189.815C43.5107 189.815 43.4967 189.812 43.484 189.806C43.4712 189.8 43.4601 189.791 43.4513 189.78L34.5076 178.513C34.4999 178.503 34.4943 178.492 34.4909 178.48C34.4875 178.469 34.4865 178.456 34.4879 178.444C34.4893 178.432 34.4931 178.42 34.4991 178.409C34.5051 178.399 34.5131 178.389 34.5227 178.382C34.5323 178.374 34.5434 178.368 34.5552 178.365C34.567 178.362 34.5794 178.361 34.5916 178.362C34.6038 178.363 34.6156 178.367 34.6263 178.373C34.6371 178.379 34.6465 178.387 34.6542 178.397L43.5981 189.664C43.6135 189.683 43.6205 189.708 43.6176 189.732C43.6147 189.757 43.6021 189.779 43.5827 189.795C43.5662 189.808 43.5459 189.815 43.5248 189.815Z" fill="white"/>
<path d="M42.7737 173.654C42.7539 173.654 42.7346 173.648 42.7186 173.636L31.2737 165.303C31.2634 165.296 31.2546 165.287 31.2479 165.276C31.2412 165.266 31.2366 165.254 31.2345 165.242C31.2324 165.229 31.2328 165.217 31.2356 165.205C31.2385 165.192 31.2437 165.181 31.2511 165.171C31.2585 165.161 31.2678 165.152 31.2785 165.146C31.2892 165.139 31.3011 165.135 31.3135 165.134C31.3259 165.132 31.3385 165.132 31.3506 165.136C31.3627 165.139 31.374 165.144 31.3839 165.152L42.829 173.485C42.845 173.497 42.8568 173.513 42.8629 173.532C42.869 173.551 42.8689 173.571 42.8628 173.59C42.8566 173.608 42.8447 173.625 42.8287 173.636C42.8127 173.648 42.7934 173.654 42.7737 173.654Z" fill="white"/>
<path d="M18.3792 184.354C18.3709 184.354 18.3627 184.353 18.3548 184.351C18.331 184.344 18.3107 184.329 18.2983 184.308C18.2859 184.286 18.2824 184.261 18.2886 184.237L21.9319 170.625C21.9385 170.602 21.9541 170.582 21.9753 170.569C21.9966 170.557 22.0218 170.554 22.0457 170.559C22.0695 170.566 22.0899 170.581 22.1023 170.603C22.1147 170.624 22.1182 170.649 22.1119 170.673L18.4693 184.285C18.464 184.304 18.4523 184.322 18.436 184.335C18.4197 184.347 18.3997 184.354 18.3792 184.354Z" fill="white"/>
<path d="M204.284 220H17.5381C17.4958 220 17.4553 219.983 17.4254 219.953C17.3955 219.924 17.3788 219.883 17.3788 219.841C17.3788 219.799 17.3955 219.759 17.4254 219.729C17.4553 219.699 17.4958 219.682 17.5381 219.682H204.284C204.326 219.682 204.367 219.699 204.397 219.729C204.427 219.759 204.443 219.799 204.443 219.841C204.443 219.883 204.427 219.924 204.397 219.953C204.367 219.983 204.326 220 204.284 220Z" fill="#292A2E"/>
<path d="M65.0488 209.815C65.0488 209.815 66.0766 215.127 71.0638 215.424C76.051 215.721 74.97 219.682 74.97 219.682H55.9098V210.185L65.0488 209.815Z" fill="#7700FF"/>
<path d="M54.6171 112.912C54.6171 112.912 56.0425 111.315 56.03 114.937C55.9829 128.449 55.0685 213.205 55.0685 213.205L67.5937 213.1L75.181 112.363L54.6171 112.912Z" fill="#262626"/>
<path d="M86.4365 209.815C86.4365 209.815 87.4642 215.127 92.4521 215.423C97.44 215.719 96.3583 219.681 96.3583 219.681H77.2974V210.185L86.4365 209.815Z" fill="#7700FF"/>
<path d="M88.8591 113.961C88.8591 113.961 90.4238 160.141 90.2612 162.398L88.7899 212.855L76.4716 213.082L74.4854 160.572C74.4854 160.572 73.1834 146.088 69.6737 132.638C67.878 125.734 66.7974 118.666 66.4487 111.543L88.8591 113.961Z" fill="#262626"/>
<path d="M72.6086 146.703L73.6357 131.039C73.6357 131.039 74.6907 137.551 74.6907 143.164C74.6907 145.907 74.1241 156.769 74.1241 156.769L72.6086 146.703Z" fill="#0A0A0A"/>
<path d="M54.481 112.911L54.44 112.913C54.44 112.913 54.4701 112.125 54.481 112.911Z" fill="#333333"/>
<path d="M54.5325 112.911L54.4915 112.913C54.4915 112.913 54.5211 112.125 54.5325 112.911Z" fill="#333333"/>
<path d="M123.167 75.4283C123.091 75.2793 122.971 75.1574 122.823 75.0793C122.675 75.0012 122.507 74.9708 122.341 74.9923C122.342 74.9776 122.339 74.9629 122.332 74.9501C122.324 74.9402 122.314 74.9325 122.302 74.9277C122.29 74.923 122.278 74.9214 122.265 74.9231L122.825 74.5227C122.993 74.4084 123.114 74.2373 123.165 74.0411C123.216 73.845 123.194 73.6371 123.103 73.4559C123.007 73.2798 122.85 73.1453 122.66 73.0785C122.471 73.0118 122.264 73.0176 122.078 73.0948C122.08 73.0868 122.074 73.0794 122.073 73.0721L122.303 72.9078C122.461 72.7993 122.576 72.6399 122.629 72.4566C122.682 72.2733 122.67 72.0773 122.595 71.9018C122.546 71.7928 122.473 71.696 122.381 71.6185C122.29 71.541 122.182 71.4847 122.067 71.4537C121.951 71.4226 121.829 71.4175 121.711 71.4389C121.593 71.4602 121.481 71.5074 121.384 71.577L120.853 71.9567C120.851 71.9536 120.853 71.9499 120.851 71.947C120.849 71.944 120.843 71.9429 120.84 71.9397C120.962 71.8029 121.033 71.6288 121.043 71.446C121.053 71.2632 121 71.0826 120.893 70.9338C120.643 70.5316 120.064 70.6139 119.72 70.8593L116.595 73.0122L117.153 72.0743C117.266 71.8937 117.305 71.6775 117.264 71.469C117.222 71.2606 117.104 71.0755 116.931 70.951C116.839 70.89 116.736 70.8482 116.628 70.8282C116.52 70.8082 116.409 70.8103 116.301 70.8346C116.194 70.8588 116.093 70.9046 116.004 70.9691C115.915 71.0337 115.84 71.1156 115.784 71.21L112.733 76.331C112.376 76.9318 112.267 77.648 112.43 78.3276C112.593 79.0072 113.016 79.5965 113.608 79.9703C114.294 80.4039 115.095 80.6231 115.908 80.5999C116.72 80.5766 117.507 80.312 118.168 79.8398L122.888 76.4658C123.045 76.3495 123.158 76.1838 123.208 75.9954C123.259 75.8071 123.244 75.6073 123.167 75.4283Z" fill="#FFC8B2"/>
<g opacity="0.25">
<path opacity="0.25" d="M117.76 74.0841C117.771 74.0999 117.788 74.1106 117.807 74.1139C117.827 74.1171 117.846 74.1127 117.862 74.1016L120.833 72.0504C120.841 72.0449 120.847 72.0378 120.853 72.0295C120.858 72.0213 120.862 72.0121 120.864 72.0025C120.865 71.9928 120.865 71.983 120.863 71.9734C120.861 71.9638 120.857 71.9548 120.851 71.9467C120.846 71.9387 120.839 71.9318 120.83 71.9265C120.822 71.9212 120.813 71.9176 120.803 71.9158C120.794 71.9141 120.784 71.9142 120.774 71.9163C120.765 71.9184 120.755 71.9223 120.747 71.9279L117.777 73.979C117.761 73.9903 117.75 74.0076 117.746 74.027C117.743 74.0465 117.747 74.0665 117.758 74.0828L117.76 74.0841Z" fill="#0C0C0C"/>
</g>
<g opacity="0.25">
<path opacity="0.25" d="M118.631 75.4154C118.642 75.4312 118.659 75.4418 118.679 75.4451C118.698 75.4483 118.718 75.4438 118.734 75.4327L122.048 73.1436C122.064 73.1323 122.076 73.1151 122.079 73.0956C122.083 73.0762 122.078 73.0562 122.067 73.0399C122.055 73.0242 122.038 73.0135 122.019 73.01C121.999 73.0065 121.979 73.0105 121.963 73.0211L118.648 75.3101C118.632 75.3214 118.621 75.3387 118.618 75.3582C118.614 75.3777 118.618 75.3978 118.63 75.4141L118.631 75.4154Z" fill="#0C0C0C"/>
</g>
<g opacity="0.25">
<path opacity="0.25" d="M119.566 76.8624C119.577 76.8781 119.594 76.8888 119.614 76.892C119.633 76.8953 119.653 76.8909 119.669 76.8799L122.313 75.0539C122.329 75.0426 122.34 75.0254 122.344 75.0059C122.347 74.9864 122.343 74.9664 122.332 74.9501C122.32 74.9339 122.303 74.9228 122.284 74.9192C122.264 74.9157 122.244 74.92 122.228 74.9313L119.584 76.7573C119.567 76.7686 119.556 76.7858 119.553 76.8053C119.549 76.8247 119.553 76.8448 119.565 76.861L119.566 76.8624Z" fill="#0C0C0C"/>
</g>
<path d="M110.933 75.1646L101.975 90.3792L91.0433 76.0816L81.9646 84.243L97.468 104.265L97.5695 104.407C98.1901 105.255 99.0169 105.931 99.9719 106.372C100.927 106.812 101.979 107.004 103.028 106.927C104.078 106.85 105.091 106.508 105.971 105.934C106.852 105.359 107.571 104.57 108.061 103.641L120.801 80.6365L110.933 75.1646Z" fill="#7700FF"/>
<path d="M101.096 92.2089C101.077 92.2089 101.058 92.204 101.041 92.1945C101.023 92.185 101.009 92.1713 100.999 92.1547C100.989 92.1381 100.983 92.1192 100.982 92.0997C100.982 92.0803 100.986 92.061 100.995 92.0437L101.873 90.3275C101.887 90.3007 101.911 90.2805 101.94 90.2712C101.968 90.262 102 90.2645 102.026 90.2782C102.053 90.292 102.074 90.3158 102.083 90.3444C102.092 90.3731 102.09 90.4042 102.076 90.431L101.198 92.1469C101.188 92.1656 101.174 92.1812 101.156 92.1922C101.138 92.2031 101.117 92.2089 101.096 92.2089Z" fill="#0C0C0C"/>
<path d="M90.4122 90.2923L90.1388 95.0978L90.366 95.1107L90.6395 90.3052L90.4122 90.2923Z" fill="#0C0C0C"/>
<path d="M61.5446 55.5144C61.5446 55.5144 61.1249 60.8633 59.8946 62.7915C56.3525 68.3424 55.2722 74.6208 58.7159 77.9469C62.1596 81.273 84.3681 81.5764 86.1383 74.0363C87.6285 67.6894 84.5968 66.9703 83.9181 61.7115C83.611 59.3323 82.7483 54.3414 82.7483 54.3414" fill="#0A0A0A"/>
<path d="M80.4846 72.8312C80.4464 72.8262 80.0207 79.8654 71.8199 79.2519C66.1426 78.8277 64.1181 72.8212 63.9881 72.8212C64.6002 72.6916 65.6311 72.5035 65.9029 72.3582C66.7968 71.8793 67.903 71.3809 68.1912 69.6497C68.3573 68.651 68.0755 63.5472 68.1623 62.5377L76.877 64.4774C76.7553 66.6094 75.903 71.5522 78.8901 72.4272C79.3873 72.5718 79.9226 72.7048 80.4846 72.8312Z" fill="#FFC8B2"/>
<path opacity="0.52" d="M76.9992 70.4071C76.8627 69.9685 76.7747 69.5162 76.737 69.0585C76.6412 68.0138 76.6602 66.9619 76.7939 65.9214C75.0227 65.683 73.354 64.9539 71.9774 63.8171C71.8156 64.4132 70.9256 67.0175 71.1721 67.5833C71.6378 68.654 73.8266 70.4071 76.9992 70.4071Z" fill="#0C0C0C"/>
<path d="M75.8439 68.1917C72.4045 68.4833 67.9749 67.0618 67.1072 62.4889L66.324 58.3627C65.4561 53.7898 67.1612 49.6282 71.4792 48.8134C75.797 47.9985 79.728 51.0965 80.5959 55.6694L80.9426 57.4961C81.2758 59.2507 81.981 67.671 75.8439 68.1917Z" fill="#FFC8B2"/>
<path d="M79.7121 57.6952C80.011 57.6952 80.2533 57.4535 80.2533 57.1554C80.2533 56.8573 80.011 56.6157 79.7121 56.6157C79.4131 56.6157 79.1708 56.8573 79.1708 57.1554C79.1708 57.4535 79.4131 57.6952 79.7121 57.6952Z" fill="#0C0C0C"/>
<path d="M74.167 58.434C74.4659 58.434 74.7082 58.1923 74.7082 57.8942C74.7082 57.5961 74.4659 57.3545 74.167 57.3545C73.868 57.3545 73.6257 57.5961 73.6257 57.8942C73.6257 58.1923 73.868 58.434 74.167 58.434Z" fill="#0C0C0C"/>
<path opacity="0.52" d="M77.2096 61.8522L77.218 61.8509C77.3929 61.8166 77.5658 61.7728 77.7358 61.7194C77.9896 61.638 78.3222 61.5034 78.2789 61.2746C78.2295 61.014 76.9801 58.3377 76.8379 58.0336C76.8318 58.0203 76.8232 58.0084 76.8124 57.9984C76.8017 57.9885 76.7891 57.9808 76.7754 57.9757C76.7617 57.9707 76.7471 57.9684 76.7325 57.969C76.7178 57.9696 76.7035 57.973 76.6902 57.9792C76.6769 57.9854 76.665 57.9941 76.6551 58.0048C76.6453 58.0156 76.6376 58.0282 76.6327 58.042C76.6277 58.0557 76.6255 58.0703 76.6263 58.0848C76.627 58.0994 76.6306 58.1137 76.6369 58.1269C77.1697 59.2668 78.0276 61.1402 78.0609 61.3156C78.0324 61.3971 77.6109 61.5515 77.1768 61.6334C77.1483 61.6384 77.1229 61.6543 77.106 61.6777C77.089 61.7011 77.082 61.7301 77.0862 61.7586C77.0905 61.7872 77.1058 61.8129 77.1289 61.8304C77.1519 61.8478 77.1809 61.8556 77.2096 61.852V61.8522Z" fill="#0C0C0C"/>
<path opacity="0.52" d="M76.5707 63.8253C77.275 63.7342 77.9479 63.4793 78.5353 63.0811C78.5599 63.0651 78.5771 63.04 78.5832 63.0113C78.5893 62.9826 78.5836 62.9527 78.5676 62.9281C78.5515 62.9035 78.5263 62.8863 78.4976 62.8803C78.4688 62.8743 78.4388 62.8799 78.4142 62.8959C77.1431 63.7216 75.8801 63.8553 74.7617 63.2817C74.7391 63.2695 74.7159 63.2584 74.6921 63.2486C74.6644 63.2386 74.6339 63.24 74.6073 63.2525C74.5806 63.265 74.56 63.2875 74.55 63.3151C74.5401 63.3427 74.5415 63.3731 74.554 63.3997C74.5665 63.4262 74.5891 63.4468 74.6167 63.4567C74.6254 63.4604 74.6395 63.4681 74.6602 63.4794C75.2483 63.7817 75.9135 63.9022 76.5707 63.8253Z" fill="#0C0C0C"/>
<path d="M62.8694 59.8006L66.7403 59.0931C69.6716 57.9101 70.5582 52.8499 70.5582 52.8499C70.5582 52.8499 74.1189 56.3106 82.7479 54.3423C82.7479 54.3423 81.0179 42.3425 68.2697 45.8307C64.1591 46.9558 61.2088 51.0863 61.5765 56.6066C61.8344 60.4763 62.8694 59.8006 62.8694 59.8006Z" fill="#0A0A0A"/>
<path d="M67.6399 63.8315C66.3279 64.0791 64.9983 62.88 64.7491 61.5715C64.4998 60.263 65.4276 59.3408 66.7399 59.0931L67.5821 59.8422L68.7671 63.6186L67.6399 63.8315Z" fill="#FFC8B2"/>
<path d="M77.6291 55.8456C78.0117 55.5989 78.454 55.4597 78.9092 55.4424C79.1334 55.4324 79.3578 55.456 79.5748 55.5126C79.7898 55.5676 79.997 55.6494 80.1914 55.7561C80.2189 55.7696 80.2398 55.7933 80.2498 55.8221C80.2598 55.8509 80.2579 55.8825 80.2446 55.9099C80.2314 55.9374 80.2078 55.9585 80.179 55.9687C80.1502 55.9789 80.1185 55.9773 80.0908 55.9643L80.0826 55.9604C79.9028 55.8723 79.7127 55.8071 79.5165 55.7663C79.3228 55.7249 79.1239 55.713 78.9266 55.7309C78.535 55.7636 78.1592 55.899 77.8371 56.1234L77.8267 56.1311C77.8082 56.1445 77.7872 56.1542 77.765 56.1595C77.7427 56.1648 77.7196 56.1657 77.697 56.1622C77.6744 56.1586 77.6528 56.1506 77.6333 56.1387C77.6138 56.1268 77.5968 56.1112 77.5833 56.0927C77.5699 56.0743 77.5602 56.0534 77.5549 56.0312C77.5495 56.009 77.5486 55.986 77.5522 55.9635C77.5558 55.9409 77.5637 55.9193 77.5757 55.8999C77.5876 55.8804 77.6033 55.8635 77.6218 55.8501L77.6291 55.8456Z" fill="#0C0C0C"/>
<path d="M74.177 56.6559C73.7954 56.5626 73.3959 56.5718 73.0191 56.6824C72.8285 56.7368 72.6472 56.8195 72.4814 56.9278C72.3134 57.0368 72.1598 57.1664 72.0241 57.3136L72.018 57.3198C71.9967 57.341 71.9681 57.3531 71.938 57.3537C71.908 57.3542 71.8789 57.3431 71.8569 57.3227C71.8349 57.3022 71.8218 57.2741 71.8202 57.2441C71.8187 57.2142 71.8289 57.1848 71.8486 57.1622C71.9913 56.9926 72.1549 56.8417 72.3355 56.7131C72.5173 56.5821 72.7179 56.4791 72.9305 56.4078C73.3614 56.2601 73.8242 56.2306 74.2705 56.3224C74.3158 56.3321 74.3554 56.3594 74.3805 56.3981C74.4056 56.4369 74.4143 56.4841 74.4046 56.5292C74.3949 56.5744 74.3676 56.6138 74.3287 56.6389C74.2898 56.664 74.2425 56.6726 74.1972 56.6629L74.1902 56.6611L74.177 56.6559Z" fill="#0C0C0C"/>
<path opacity="0.52" d="M76.7204 64.8637C76.848 64.8492 76.9741 64.8239 77.0974 64.7882C77.1256 64.7801 77.1495 64.7611 77.1638 64.7354C77.1781 64.7098 77.1815 64.6795 77.1734 64.6513C77.1653 64.6231 77.1462 64.5992 77.1205 64.585C77.0948 64.5708 77.0644 64.5674 77.0361 64.5755C76.2939 64.7886 75.8718 64.5074 75.8543 64.4942C75.8302 64.4774 75.8003 64.4708 75.7713 64.4759C75.7422 64.481 75.7164 64.4974 75.6995 64.5214C75.6826 64.5455 75.676 64.5753 75.6811 64.6043C75.6863 64.6332 75.7027 64.6589 75.7268 64.6758C76.0263 64.8511 76.3774 64.9175 76.7204 64.8637Z" fill="#0C0C0C"/>
<path d="M66.7492 59.0441L66.7107 58.9372C71.6149 57.1817 70.4155 52.3828 70.403 52.3344L70.5129 52.3056C70.5259 52.3549 71.7526 57.253 66.7492 59.0441Z" fill="#0C0C0C"/>
<path opacity="0.1" d="M73.712 62.1701C74.2781 62.1094 74.7007 61.7244 74.656 61.3104C74.6113 60.8963 74.1162 60.6099 73.5502 60.6707C72.9841 60.7314 72.5615 61.1164 72.6062 61.5304C72.6509 61.9445 73.146 62.2309 73.712 62.1701Z" fill="#0C0C0C"/>
<path opacity="0.1" d="M79.7232 60.6039C79.7688 61.0174 80.2641 61.3034 80.8304 61.2435C80.9282 61.2328 81.0247 61.2122 81.1183 61.1818C81.1502 60.6897 81.1572 60.2162 81.1479 59.7775C80.9914 59.7365 80.8286 59.7251 80.6679 59.7439C80.1015 59.8036 79.6791 60.1885 79.7232 60.6039Z" fill="#0C0C0C"/>
<path d="M90.6737 88.3285C90.4153 91.3545 89.1589 110.234 88.9105 113.961H56.0482C55.8547 110.6 53.6208 95.8995 52.8877 89.3256C52.1877 83.0524 50.8145 79.9118 51.821 78.0571C53.4658 75.0261 57.9604 73.2745 61.0252 72.8608C62.8967 72.6084 65.7112 72.4272 65.7112 72.4272C65.7112 72.4272 65.9495 77.2346 71.6324 77.5022C79.3681 77.8654 78.8516 72.4272 78.8899 72.4272C80.1432 72.4272 87.3024 73.2183 89.0539 74.2535C93.826 77.0718 91.222 81.9169 90.6737 88.3285Z" fill="#7700FF"/>
<path d="M112.005 90.4425L108.837 105.795C108.773 106.107 108.604 106.387 108.357 106.589C108.111 106.792 107.802 106.904 107.483 106.907L85.6712 107.092C85.4631 107.094 85.2573 107.049 85.0688 106.961C84.8803 106.874 84.7138 106.745 84.5817 106.585C84.4495 106.424 84.355 106.237 84.305 106.035C84.255 105.834 84.2508 105.624 84.2927 105.42L87.4603 90.0678C87.5247 89.7561 87.6943 89.4758 87.9408 89.2736C88.1874 89.0715 88.496 88.9597 88.8151 88.957L110.627 88.7718C110.835 88.7702 111.041 88.815 111.229 88.9029C111.417 88.9907 111.584 89.1194 111.716 89.2796C111.848 89.4397 111.942 89.6272 111.992 89.8284C112.042 90.0297 112.046 90.2395 112.005 90.4425Z" fill="#292A2E"/>
<path d="M91.6652 101.348C91.6768 101.55 91.6148 101.749 91.4906 101.909C91.3664 102.07 91.1883 102.18 90.9892 102.219L90.3177 102.367C90.3297 102.371 90.3405 102.377 90.3492 102.387C90.358 102.396 90.3643 102.407 90.3678 102.419C90.3694 102.433 90.3662 102.448 90.3587 102.46C90.5201 102.505 90.6634 102.599 90.7686 102.729C90.8738 102.86 90.9358 103.019 90.9459 103.186C90.9469 103.381 90.882 103.57 90.7618 103.723C90.6416 103.876 90.4731 103.985 90.2835 104.03L84.6135 105.286C84.3236 105.351 84.0274 105.383 83.7303 105.383C83.0685 105.383 82.4166 105.223 81.8309 104.915C81.2452 104.608 80.7433 104.163 80.3683 103.62C79.9707 103.044 79.8138 102.337 79.9311 101.648C80.0485 100.959 80.4307 100.343 80.9965 99.9313L85.8199 96.4154C85.926 96.338 86.0494 96.2873 86.1795 96.2679L85.7356 98.4173L85.854 98.3901L85.879 98.3856L89.5779 97.6343C89.9899 97.5435 90.5544 97.6933 90.6272 98.1609C90.6663 98.3399 90.6435 98.5268 90.5625 98.6912C90.4815 98.8556 90.3471 98.9879 90.1811 99.0665C90.1834 99.0688 90.1879 99.071 90.1879 99.0756C90.1879 99.0801 90.1857 99.0824 90.1857 99.0869L90.8253 98.9462C90.9423 98.9203 91.0636 98.9206 91.1805 98.9472C91.2974 98.9737 91.4069 99.0257 91.5012 99.0995C91.5955 99.1734 91.6721 99.2671 91.7257 99.374C91.7792 99.481 91.8083 99.5984 91.8109 99.7179C91.8109 99.9087 91.7447 100.094 91.6235 100.241C91.5024 100.389 91.3338 100.49 91.1462 100.528L90.8708 100.59C90.8685 100.599 90.8708 100.608 90.8663 100.614C91.0669 100.616 91.2599 100.692 91.4076 100.827C91.5552 100.963 91.6471 101.148 91.6652 101.348Z" fill="#FFC8B2"/>
<g opacity="0.25">
<path opacity="0.25" d="M86.5036 99.8321C86.508 99.8511 86.5196 99.8676 86.536 99.8781C86.5525 99.8886 86.5724 99.8923 86.5915 99.8884L90.1305 99.1646C90.1401 99.1626 90.1493 99.1588 90.1574 99.1533C90.1655 99.1478 90.1725 99.1408 90.1779 99.1326C90.1833 99.1244 90.187 99.1153 90.1889 99.1057C90.1907 99.0961 90.1907 99.0862 90.1887 99.0766C90.1867 99.067 90.1829 99.0579 90.1774 99.0498C90.1719 99.0417 90.1648 99.0348 90.1566 99.0294C90.1484 99.024 90.1393 99.0203 90.1296 99.0184C90.12 99.0166 90.1101 99.0166 90.1005 99.0186L86.5614 99.7422C86.542 99.7462 86.525 99.7577 86.514 99.7742C86.5031 99.7908 86.4992 99.8109 86.5032 99.8303L86.5036 99.8321Z" fill="#0C0C0C"/>
</g>
<g opacity="0.25">
<path opacity="0.25" d="M86.7806 101.397C86.7851 101.416 86.7967 101.433 86.8131 101.443C86.8295 101.454 86.8494 101.457 86.8685 101.454L90.8182 100.646C90.8376 100.642 90.8546 100.63 90.8655 100.614C90.8764 100.597 90.8804 100.577 90.8765 100.558C90.8719 100.539 90.8602 100.522 90.8438 100.512C90.8274 100.501 90.8075 100.497 90.7882 100.5L86.838 101.308C86.8284 101.31 86.8193 101.313 86.8111 101.319C86.803 101.324 86.796 101.331 86.7906 101.34C86.7852 101.348 86.7815 101.357 86.7796 101.366C86.7777 101.376 86.7778 101.386 86.7797 101.395L86.7806 101.397Z" fill="#0C0C0C"/>
</g>
<g opacity="0.25">
<path opacity="0.25" d="M87.0709 103.094C87.0753 103.113 87.0869 103.129 87.1033 103.14C87.1198 103.15 87.1396 103.154 87.1587 103.15L90.3093 102.506C90.3189 102.504 90.328 102.5 90.3361 102.494C90.3443 102.489 90.3512 102.482 90.3566 102.474C90.362 102.465 90.3658 102.456 90.3676 102.447C90.3695 102.437 90.3694 102.427 90.3674 102.418C90.3655 102.408 90.3616 102.399 90.3561 102.391C90.3506 102.383 90.3436 102.376 90.3354 102.37C90.3272 102.365 90.318 102.361 90.3084 102.359C90.2988 102.358 90.2888 102.358 90.2792 102.36L87.1287 103.004C87.1093 103.008 87.0922 103.019 87.0813 103.036C87.0704 103.052 87.0665 103.073 87.0704 103.092L87.0709 103.094Z" fill="#0C0C0C"/>
</g>
<path d="M84.2625 107.523L53.5004 113.066C52.5406 113.17 51.5696 113.051 50.6637 112.718C49.7579 112.385 48.9417 111.847 48.2792 111.147C47.6168 110.446 47.126 109.603 46.8456 108.681C46.5651 107.76 46.5025 106.787 46.6626 105.837L50.9679 80.3122C51.1035 79.5047 51.3973 78.7317 51.8326 78.0375C52.268 77.3433 52.8362 76.7414 53.5049 76.2663C54.1736 75.7912 54.9296 75.4521 55.7298 75.2684C56.5299 75.0848 57.3586 75.0602 58.1683 75.196C58.978 75.3319 59.7529 75.6255 60.4488 76.0601C61.1446 76.4947 61.7478 77.0618 62.2237 77.729C62.6997 78.3961 63.0392 79.1503 63.2227 79.9483C63.4062 80.7463 63.4303 81.5726 63.2934 82.3799L60.3571 99.9512L82.9102 97.127L84.2625 107.523Z" fill="#7700FF"/>
<path d="M53.5002 113.18C53.4718 113.18 53.4444 113.169 53.4235 113.15C53.4026 113.131 53.3896 113.104 53.3871 113.076C53.3845 113.048 53.3927 113.02 53.4099 112.997C53.4272 112.975 53.4522 112.96 53.4801 112.954L84.1357 107.43L82.8118 97.2536L60.3712 100.064C60.3536 100.066 60.3357 100.064 60.319 100.058C60.3022 100.053 60.2871 100.043 60.2749 100.03C60.2626 100.017 60.2534 100.002 60.2482 99.9849C60.2429 99.968 60.2417 99.9501 60.2446 99.9326L62.1111 88.7023C62.1134 88.6876 62.1186 88.6734 62.1265 88.6607C62.1344 88.6479 62.1447 88.6369 62.1569 88.6282C62.1691 88.6195 62.1829 88.6133 62.1975 88.61C62.2121 88.6068 62.2273 88.6064 62.242 88.609C62.2568 88.6115 62.2709 88.6168 62.2836 88.6246C62.2963 88.6325 62.3073 88.6428 62.316 88.6549C62.3247 88.667 62.331 88.6808 62.3344 88.6953C62.3378 88.7098 62.3382 88.7248 62.3358 88.7396L60.4939 99.8196L82.8956 97.0142C82.9254 97.0105 82.9556 97.0187 82.9794 97.0371C83.0032 97.0554 83.0187 97.0825 83.0226 97.1122L84.3751 107.508C84.3788 107.537 84.3713 107.566 84.3541 107.589C84.3368 107.613 84.3112 107.629 84.2825 107.634L53.5207 113.178C53.5139 113.179 53.507 113.18 53.5002 113.18Z" fill="#0C0C0C"/>
<path d="M60.3396 99.8393L58.3608 100.155L58.3968 100.38L60.3756 100.064L60.3396 99.8393Z" fill="#0C0C0C"/>
<path d="M213.709 126.575H146.389C143.593 126.575 141.326 128.835 141.326 131.624V154.608C141.326 157.397 143.593 159.657 146.389 159.657H213.709C216.505 159.657 218.772 157.397 218.772 154.608V131.624C218.772 128.835 216.505 126.575 213.709 126.575Z" fill="white"/>
<path opacity="0.4" d="M213.709 126.575H146.389C143.593 126.575 141.326 128.835 141.326 131.624V154.608C141.326 157.397 143.593 159.657 146.389 159.657H213.709C216.505 159.657 218.772 157.397 218.772 154.608V131.624C218.772 128.835 216.505 126.575 213.709 126.575Z" fill="#F2E6FF"/>
<path d="M213.709 159.883H146.389C144.986 159.881 143.641 159.325 142.649 158.336C141.658 157.347 141.1 156.006 141.098 154.607V131.625C141.1 130.226 141.658 128.885 142.649 127.896C143.641 126.907 144.986 126.35 146.389 126.349H213.709C215.112 126.35 216.457 126.907 217.449 127.896C218.44 128.885 218.998 130.226 219 131.625V154.608C218.998 156.007 218.44 157.347 217.448 158.336C216.456 159.325 215.112 159.881 213.709 159.883ZM146.389 126.802C145.107 126.803 143.877 127.312 142.971 128.216C142.064 129.12 141.554 130.346 141.553 131.625V154.608C141.555 155.886 142.065 157.112 142.972 158.015C143.878 158.919 145.107 159.428 146.389 159.429H213.709C214.991 159.428 216.22 158.919 217.127 158.015C218.033 157.111 218.543 155.886 218.545 154.607V131.625C218.543 130.346 218.033 129.12 217.127 128.217C216.22 127.313 214.991 126.804 213.709 126.803L146.389 126.802Z" fill="#292A2E"/>
<path d="M148.27 152.608C148.209 152.608 148.149 152.592 148.096 152.561C148.043 152.529 148 152.485 147.971 152.431C147.941 152.377 147.927 152.317 147.929 152.256C147.931 152.194 147.95 152.135 147.983 152.084C148.057 151.97 155.497 140.626 167.321 140.626C173.499 140.626 177.242 143.003 180.863 145.302C184.213 147.43 187.379 149.44 192.276 149.44C202.29 149.44 210.357 134.938 210.437 134.792C210.481 134.713 210.554 134.654 210.641 134.629C210.728 134.603 210.821 134.613 210.901 134.656C210.98 134.7 211.039 134.773 211.065 134.859C211.09 134.946 211.08 135.039 211.037 135.119C210.701 135.731 202.691 150.122 192.276 150.122C187.18 150.122 183.933 148.06 180.496 145.877C176.958 143.63 173.3 141.308 167.321 141.308C155.875 141.308 148.63 152.341 148.558 152.452C148.527 152.5 148.484 152.539 148.434 152.567C148.384 152.594 148.328 152.608 148.27 152.608Z" fill="#ACACAC"/>
<path d="M210.833 136.288C211.571 136.288 212.169 135.692 212.169 134.956C212.169 134.22 211.571 133.623 210.833 133.623C210.095 133.623 209.497 134.22 209.497 134.956C209.497 135.692 210.095 136.288 210.833 136.288Z" fill="white"/>
</g>
<defs>
<clipPath id="clip0_10_473">
<rect width="219" height="219" fill="white" transform="translate(0 1)"/>
</clipPath>
</defs>
</svg>
