<svg width="220" height="220" viewBox="0 0 220 220" fill="none" xmlns="http://www.w3.org/2000/svg">
<g clip-path="url(#clip0_10_809)">
<path d="M204.823 220C213.469 220 220.367 211.171 219.985 200.595C219.486 186.768 213.71 167.244 190.947 147.732C163.189 123.938 175.709 55.4306 116.729 60.1576C57.7495 64.8846 69.9777 116.757 33.8133 139.962C10.7927 154.733 0.00141655 182.39 0 201.447C0 211.699 6.8037 220 15.1767 220H204.823Z" fill="#F3F5FD"/>
<path d="M133.796 37.0779H73.0514C68.3996 37.0779 64.6285 40.8397 64.6285 45.4801V176.53C64.6285 181.171 68.3996 184.932 73.0514 184.932H133.796C138.448 184.932 142.219 181.171 142.219 176.53V45.4801C142.219 40.8397 138.448 37.0779 133.796 37.0779Z" fill="white"/>
<path d="M133.796 187.01H73.0514C70.2659 187.007 67.5954 185.902 65.6258 183.937C63.6562 181.973 62.5484 179.309 62.5453 176.53V45.4804C62.5484 42.7017 63.6562 40.0378 65.6258 38.073C67.5954 36.1082 70.2659 35.0031 73.0514 35H133.796C136.582 35.0031 139.252 36.1082 141.222 38.073C143.191 40.0378 144.299 42.7017 144.302 45.4804V176.53C144.299 179.309 143.191 181.973 141.222 183.938C139.252 185.902 136.582 187.007 133.796 187.01ZM73.0514 39.1559C71.3705 39.1578 69.759 39.8247 68.5705 41.0104C67.3819 42.196 66.7134 43.8036 66.7116 45.4804V176.53C66.7135 178.207 67.3821 179.815 68.5706 181C69.7592 182.186 71.3706 182.853 73.0514 182.854H133.796C135.477 182.853 137.088 182.186 138.277 181C139.465 179.815 140.134 178.207 140.136 176.53V45.4804C140.134 43.8037 139.465 42.1962 138.277 41.0106C137.088 39.825 135.477 39.158 133.796 39.1561L73.0514 39.1559Z" fill="#DEE8F5"/>
<path d="M90.1232 37.0779H116.724V42.2263C116.724 43.2483 116.317 44.2286 115.592 44.9513C114.868 45.674 113.885 46.08 112.861 46.08H93.9863C92.9618 46.08 91.9792 45.674 91.2547 44.9513C90.5302 44.2286 90.1232 43.2483 90.1232 42.2263V37.0779Z" fill="#DEE8F5"/>
<path d="M88.2516 53.6735H71.7498V70.135H88.2516V53.6735Z" fill="#F2E6FF"/>
<path d="M135.097 63.2309H92.0907V67.5959H135.097V63.2309Z" fill="#DEE8F5"/>
<path d="M122.721 55.4127H92.0907V59.7777H122.721V55.4127Z" fill="#DEE8F5"/>
<path d="M135.097 74.8469H71.7498V122.466H135.097V74.8469Z" fill="#367CFF"/>
<path d="M135.097 128.671H71.7498V176.29H135.097V128.671Z" fill="#F2E6FF"/>
<path d="M79.4289 108.115L90.5991 98.4189L103.257 108.115H79.4289Z" fill="white"/>
<path d="M92.5816 108.115L112.455 93.8787L127.418 108.115H92.5816Z" fill="white"/>
<path d="M99.0569 94.1251C100.421 94.1251 101.527 93.0219 101.527 91.6611C101.527 90.3004 100.421 89.1972 99.0569 89.1972C97.6927 89.1972 96.5869 90.3004 96.5869 91.6611C96.5869 93.0219 97.6927 94.1251 99.0569 94.1251Z" fill="white"/>
<path d="M79.4289 161.94L90.5991 152.243L103.257 161.94H79.4289Z" fill="white"/>
<path d="M92.5816 161.94L112.455 147.703L127.418 161.94H92.5816Z" fill="white"/>
<path d="M99.0569 147.949C100.421 147.949 101.527 146.846 101.527 145.485C101.527 144.125 100.421 143.022 99.0569 143.022C97.6927 143.022 96.5869 144.125 96.5869 145.485C96.5869 146.846 97.6927 147.949 99.0569 147.949Z" fill="white"/>
<path d="M49.9733 217.453L45.0499 216.869C45.2716 215.01 45.522 212.777 45.539 212.411C45.539 212.434 45.539 212.453 45.539 212.468H50.497C50.4958 212.616 50.4958 213.067 49.9733 217.453Z" fill="#FFC8B2"/>
<path d="M30.2181 218.043L25.2602 218.027C25.2602 218.027 25.2767 212.92 25.2767 212.468H30.2347C30.2347 212.921 30.2181 218.043 30.2181 218.043Z" fill="#FFC8B2"/>
<path d="M43.0682 215.89L51.8036 215.742C51.393 205.372 51.368 194.494 51.24 184.099C49.5354 172.895 48.6376 160.591 46.5335 149.467L46.4705 149.485L46.2861 148.23L28.3247 147.123C28.3247 147.123 27.6072 155.902 27.445 158.828C26.5131 175.644 25.0494 199.326 23.9822 215.609L32.6867 216.343C34.2548 200.379 36.2099 177.117 37.7027 160.346C39.4168 168.511 41.0552 176.965 42.5459 185.061C42.8441 195.194 43.096 205.787 43.0682 215.89Z" fill="#262626"/>
<path d="M36.2451 219.956C36.3785 219.955 36.5104 219.928 36.6325 219.874C36.7546 219.82 36.8643 219.742 36.9547 219.644C37.0451 219.546 37.1143 219.431 37.1579 219.305C37.2015 219.179 37.2186 219.046 37.2081 218.913C37.1938 218.729 37.1271 218.553 37.0159 218.406C36.9047 218.259 36.7537 218.146 36.5806 218.082L30.81 216.154C30.6982 216.117 30.5798 216.105 30.4627 216.118C30.3457 216.131 30.2329 216.169 30.132 216.229C29.3386 216.778 28.3896 217.059 27.4245 217.03C26.6727 216.977 25.9511 216.714 25.3419 216.271C25.2884 216.228 25.2235 216.2 25.1547 216.191C25.086 216.183 25.0163 216.194 24.9537 216.224C24.8912 216.254 24.8384 216.3 24.8015 216.359C24.7645 216.417 24.7451 216.485 24.7453 216.554V219.369C24.7453 219.452 24.7617 219.534 24.7937 219.611C24.8256 219.688 24.8724 219.757 24.9314 219.816C24.9904 219.874 25.0604 219.921 25.1374 219.952C25.2144 219.984 25.2969 220 25.3802 220L36.2451 219.956Z" fill="#C1D8ED"/>
<path d="M56.0138 219.956C56.1471 219.955 56.2789 219.927 56.4009 219.874C56.5229 219.82 56.6325 219.742 56.7228 219.644C56.8131 219.546 56.8823 219.431 56.9259 219.305C56.9695 219.179 56.9867 219.046 56.9763 218.913C56.9619 218.729 56.8952 218.554 56.7839 218.406C56.6727 218.259 56.5217 218.147 56.3485 218.082L50.578 216.154C50.4661 216.117 50.3476 216.105 50.2306 216.118C50.1135 216.131 50.0006 216.169 49.8997 216.229C49.1063 216.778 48.1573 217.059 47.1922 217.03C46.4405 216.977 45.719 216.714 45.1098 216.271C45.0563 216.227 44.9914 216.2 44.9227 216.191C44.8539 216.183 44.7842 216.194 44.7217 216.224C44.6591 216.253 44.6063 216.3 44.5694 216.359C44.5325 216.417 44.513 216.485 44.5132 216.554V219.369C44.5132 219.452 44.5297 219.534 44.5616 219.611C44.5936 219.687 44.6404 219.757 44.6993 219.816C44.7583 219.874 44.8283 219.921 44.9053 219.952C44.9824 219.984 45.0648 220 45.1481 219.999L56.0138 219.956Z" fill="#C1D8ED"/>
<path d="M58.6037 125.329C58.6037 125.329 58.9814 122.525 60.9752 122.915C62.2336 123.161 68.2988 123.613 68.3217 124.172C68.3786 125.556 62.8208 125.218 62.1666 126.42L58.6037 125.329Z" fill="#FFC8B2"/>
<path d="M60.2521 122.919C60.2521 122.919 63.1633 122.348 63.8317 122.594C64.4236 122.813 63.0328 123.648 63.0328 123.648L60.2521 122.919Z" fill="#FFC8B2"/>
<path d="M30.161 113.421C30.1246 109.919 31.5121 107.749 33.3933 106.557C35.2495 105.381 41.0698 104.358 43.2766 108.626C44.7168 111.411 44.1482 112.406 44.5562 116.867C44.9642 121.327 46.5314 121.795 48.1212 127.202C49.3678 131.443 42.3842 133.694 36.3374 133.499C30.2906 133.305 26.4569 131.969 26.1061 128.133C25.6018 122.627 30.232 120.283 30.161 113.421Z" fill="#0F1011"/>
<path d="M33.764 123.102C33.764 123.102 35.5805 122.12 35.1274 117.165L38.8926 116.433C38.8926 116.433 38.5099 120.883 40.431 122.277L33.764 123.102Z" fill="#FFC8B2"/>
<g opacity="0.15">
<path opacity="0.15" d="M39.6495 121.354L36.4941 118.992L38.9549 118.945C39.034 119.784 39.2695 120.601 39.6495 121.354Z" fill="black"/>
</g>
<path d="M32.9698 115.262C33.2446 116.764 34.0808 118.182 35.4157 118.655C36.871 119.216 38.4419 119.413 39.9911 119.229C44.1171 118.852 43.2143 109.495 41.2372 107.694C39.2602 105.893 33.517 107.098 32.8458 110.147C32.4983 111.724 32.7079 113.832 32.9698 115.262Z" fill="#FFC8B2"/>
<path d="M38.8624 114.049C39.0513 114.049 39.2045 113.896 39.2045 113.708C39.2045 113.519 39.0513 113.366 38.8624 113.366C38.6734 113.366 38.5203 113.519 38.5203 113.708C38.5203 113.896 38.6734 114.049 38.8624 114.049Z" fill="#0F1011"/>
<path d="M41.559 113.803C41.748 113.803 41.9011 113.651 41.9011 113.462C41.9011 113.274 41.748 113.121 41.559 113.121C41.3701 113.121 41.2169 113.274 41.2169 113.462C41.2169 113.651 41.3701 113.803 41.559 113.803Z" fill="#0F1011"/>
<path d="M42.1436 112.729L41.2374 112.726C41.1948 112.726 41.1539 112.71 41.1238 112.679C41.0936 112.649 41.0767 112.609 41.0767 112.566C41.0767 112.523 41.0936 112.483 41.1238 112.453C41.1539 112.423 41.1948 112.406 41.2374 112.406L42.1436 112.409C42.1862 112.409 42.2271 112.426 42.2572 112.456C42.2874 112.486 42.3043 112.527 42.3043 112.569C42.3043 112.612 42.2874 112.652 42.2572 112.682C42.2271 112.713 42.1862 112.729 42.1436 112.729Z" fill="#0F1011"/>
<path d="M38.1168 113.096C38.0777 113.096 38.04 113.082 38.0108 113.056C37.9816 113.03 37.9628 112.994 37.9581 112.955C37.9534 112.917 37.9629 112.878 37.985 112.845C38.0071 112.813 38.0402 112.79 38.0781 112.781L38.9693 112.558C39.0103 112.549 39.0532 112.556 39.0889 112.578C39.1246 112.6 39.1503 112.635 39.1605 112.675C39.1706 112.716 39.1645 112.759 39.1433 112.795C39.1222 112.831 39.0877 112.858 39.0473 112.869L38.156 113.091C38.1432 113.095 38.13 113.097 38.1168 113.096Z" fill="#0F1011"/>
<path d="M39.0453 116.394C39.0453 116.394 40.3091 116.515 41.1914 116.198C41.1914 116.198 41.1914 117.028 40.1937 117.119C39.196 117.21 39.0453 116.394 39.0453 116.394Z" fill="white"/>
<path d="M35.712 111.338C35.9954 114.862 35.642 118.408 34.6687 121.808C34.6687 121.808 31.7412 116.885 31.2534 112.767C30.7973 108.907 33.6308 106.599 35.5555 106.151C42.8696 104.449 43.3774 109.771 43.3774 109.771C42.9052 111.587 34.9199 112.713 34.9199 112.713" fill="#0F1011"/>
<path d="M37.1486 115.194C37.1812 115.575 37.0613 115.953 36.8153 116.246C36.5692 116.539 36.2169 116.723 35.8353 116.758C35.4537 116.793 35.0738 116.675 34.7786 116.432C34.4835 116.188 34.297 115.837 34.26 115.457C34.2394 115.267 34.2573 115.075 34.3126 114.892C34.3679 114.71 34.4595 114.54 34.582 114.393C34.7044 114.246 34.8552 114.126 35.0254 114.038C35.1956 113.951 35.3816 113.899 35.5724 113.885C36.6058 113.842 37.0759 114.398 37.1486 115.194Z" fill="#FFC8B2"/>
<g opacity="0.15">
<path opacity="0.15" d="M40.3972 115.586C40.3691 115.586 40.342 115.576 40.3207 115.558C40.2994 115.54 40.2853 115.514 40.2811 115.487C40.2768 115.459 40.2825 115.431 40.2973 115.407C40.312 115.383 40.3348 115.365 40.3616 115.356L41.0552 115.137L40.5594 114.06C40.5524 114.046 40.5483 114.031 40.5474 114.015C40.5464 113.999 40.5486 113.983 40.5539 113.969C40.5592 113.954 40.5674 113.94 40.578 113.929C40.5886 113.917 40.6015 113.908 40.6158 113.901C40.6302 113.894 40.6457 113.891 40.6615 113.89C40.6772 113.89 40.693 113.892 40.7077 113.898C40.7224 113.904 40.7359 113.912 40.7472 113.923C40.7586 113.934 40.7676 113.947 40.7738 113.962L41.3262 115.16C41.3333 115.175 41.337 115.191 41.3372 115.208C41.3374 115.224 41.334 115.241 41.3273 115.256C41.3206 115.272 41.3107 115.285 41.2983 115.296C41.2859 115.308 41.2713 115.316 41.2554 115.321L40.4343 115.58C40.4223 115.584 40.4098 115.586 40.3972 115.586Z" fill="black"/>
</g>
<path d="M51.4895 141.539C51.4534 141.539 51.4175 141.539 51.3812 141.537C50.939 141.519 50.5091 141.387 50.1329 141.154C49.7568 140.921 49.4471 140.596 49.2339 140.209L41.6721 126.49L46.1834 124.017L51.6985 134.023L58.5945 123.681L62.8807 126.524L53.6325 140.395C53.3975 140.747 53.0789 141.036 52.7051 141.235C52.3312 141.435 51.9136 141.54 51.4895 141.539Z" fill="#7700FF"/>
<path d="M53.5643 129.968L50.7024 129.513C50.5899 129.495 50.4825 129.453 50.3872 129.391C50.2919 129.329 50.2108 129.247 50.1494 129.151C50.0879 129.056 50.0474 128.948 50.0306 128.836C50.0137 128.723 50.0209 128.609 50.0515 128.499L51.8522 122.052C51.9055 121.861 52.0274 121.697 52.1947 121.59C52.3619 121.483 52.5628 121.441 52.759 121.472L55.6209 121.928C55.7334 121.945 55.8408 121.987 55.9361 122.049C56.0314 122.111 56.1125 122.193 56.1741 122.288C56.2356 122.384 56.2762 122.491 56.2932 122.604C56.3102 122.716 56.3033 122.831 56.2728 122.94L54.4721 129.387C54.419 129.578 54.2971 129.743 54.1296 129.851C53.9621 129.958 53.7609 130 53.5643 129.968Z" fill="#262626"/>
<path d="M48.9556 128.279L50.6434 130.564C50.6434 130.564 55.1801 129.657 55.6056 126.17C55.6547 125.768 55.6122 124.658 55.1138 124.807C53.8153 125.195 52.1992 127.183 51.0662 127.447C51.3248 126.985 51.6402 126.333 51.4369 126.214C50.9014 125.9 49.4629 127.793 48.9556 128.279Z" fill="#FFC8B2"/>
<path d="M46.287 137.496C46.2905 137.178 46.3026 136.854 46.3203 136.526L52.4516 131.152L49.054 127.294L47.0675 129.035C47.2908 125.116 46.5979 121.932 41.9712 121.733C41.8225 121.726 41.584 121.721 41.2771 121.716C41.2157 123.012 33.1744 123.007 33.0044 121.686C30.7332 121.688 28.8705 122.383 27.7915 123.459C24.0731 127.168 28.6367 133.49 28.6367 138.435C28.6367 143.381 26.3939 145.6 26.5591 148.139C26.8188 152.128 46.2563 151.186 47.2453 148.918C48.2654 146.582 46.1949 145.141 46.287 137.496Z" fill="#7700FF"/>
<path d="M157.372 191.637H154.482V220H157.372V191.637Z" fill="#C1D8ED"/>
<path d="M154.994 191.637H152.103V220H154.994V191.637Z" fill="#DEE8F5"/>
<path d="M193.372 191.637H190.482V220H193.372V191.637Z" fill="#C1D8ED"/>
<path d="M190.993 191.637H188.103V220H190.993V191.637Z" fill="#DEE8F5"/>
<path d="M165.3 191.637H162.409V220H165.3V191.637Z" fill="#C1D8ED"/>
<path d="M162.921 191.637H160.031V220H162.921V191.637Z" fill="#DEE8F5"/>
<path d="M201.299 191.637H198.409V220H201.299V191.637Z" fill="#C1D8ED"/>
<path d="M198.921 191.637H196.031V220H198.921V191.637Z" fill="#DEE8F5"/>
<path d="M201.299 173.482H162.427V192.317H201.299V173.482Z" fill="#C1D8ED"/>
<path d="M190.975 173.482H152.103V192.317H190.975V173.482Z" fill="#DEE8F5"/>
<g opacity="0.53">
<path opacity="0.53" d="M188.884 176.16H154.195V189.556H188.884V176.16Z" fill="#F3F5FD"/>
</g>
<path d="M171.54 184.395C172.39 184.395 173.08 183.707 173.08 182.858C173.08 182.009 172.39 181.321 171.54 181.321C170.689 181.321 169.999 182.009 169.999 182.858C169.999 183.707 170.689 184.395 171.54 184.395Z" fill="white"/>
<path d="M190.94 156.853L188.161 156.198L184.678 170.897L187.456 171.552L190.94 156.853Z" fill="#F0F6FF"/>
<path d="M185.106 155.055L183.563 155.339L185.949 168.241L187.492 167.957L185.106 155.055Z" fill="#C1D8ED"/>
<path d="M185.105 155.051L183.564 155.343L183.835 156.766L185.376 156.474L185.105 155.051Z" fill="#DEE8F5"/>
<path d="M189.882 158.337L184.883 170.996L185.739 171.332L190.738 158.674L189.882 158.337Z" fill="#FF4F12"/>
<path d="M190.976 163.874H183.44V173.482H190.976V163.874Z" fill="#C1D8ED"/>
<path d="M41.2772 121.716C41.2158 123.012 40.5099 124.917 38.3307 125.061C35.4268 125.251 33.1745 123.007 33.0043 121.686H33.0116C35.8707 121.686 39.6101 121.691 41.2772 121.716Z" fill="#FFC8B2"/>
</g>
<defs>
<clipPath id="clip0_10_809">
<rect width="220" height="185" fill="white" transform="translate(0 35)"/>
</clipPath>
</defs>
</svg>
