<svg width="220" height="220" viewBox="0 0 220 220" fill="none" xmlns="http://www.w3.org/2000/svg">
<path d="M54.5053 66.3623C54.4316 67.2632 55.3712 68.1021 55.526 68.9512C55.6862 69.8298 55.1118 70.9456 55.4864 71.7339C55.8665 72.5334 57.0986 72.7927 57.6683 73.4628C58.2379 74.133 58.2959 75.3902 59.024 75.8939C59.7415 76.3906 60.9359 76.0036 61.7775 76.3032C62.5908 76.5927 63.2676 77.6538 64.1688 77.7275C65.0701 77.8011 65.9095 76.8619 66.7587 76.7072C67.6376 76.5471 68.7538 77.1212 69.5424 76.7465C70.3422 76.3666 70.6018 75.1349 71.272 74.5654C71.9421 73.996 73.2 73.9382 73.7039 73.2104C74.2006 72.4929 73.8137 71.2992 74.1134 70.4579C74.403 69.6449 75.4644 68.9684 75.5381 68.0672C75.6118 67.166 74.6722 66.3274 74.5174 65.4783C74.3573 64.5996 74.9316 63.4838 74.557 62.6956C74.177 61.896 72.9448 61.6367 72.3752 60.9666C71.8055 60.2965 71.7475 59.0392 71.0194 58.5356C70.3017 58.0388 69.1076 58.4258 68.266 58.1262C67.4526 57.8367 66.7759 56.7757 65.8746 56.702C64.9733 56.6283 64.134 57.5673 63.2848 57.722C62.4058 57.8821 61.2894 57.308 60.5011 57.6827C59.7013 58.0626 59.4416 59.2944 58.7712 59.8638C58.1009 60.4333 56.8432 60.491 56.3393 61.2188C55.8426 61.9363 56.2295 63.1302 55.9298 63.9713C55.6402 64.7846 54.5785 65.4611 54.5053 66.3623Z" fill="#0F1011"/>
<path d="M69.0022 76.9564C69.0022 76.9564 67.1019 75.9513 67.5212 70.7804L63.596 70.0565C63.596 70.0565 64.0411 74.6919 62.057 76.1655L69.0022 76.9564Z" fill="#A97F6E"/>
<g opacity="0.15">
<path opacity="0.15" d="M62.8593 75.1955L66.1175 72.6994L63.5566 72.6749C63.4833 73.5512 63.2468 74.4061 62.8593 75.1955Z" fill="black"/>
</g>
<path d="M69.7453 68.7734C69.4751 70.3425 68.62 71.8287 67.2363 72.3367C65.7278 72.9368 64.0955 73.1587 62.4815 72.9833C58.1849 72.6348 59.026 62.8687 61.0641 60.97C63.1023 59.0714 69.0894 60.2673 69.8205 63.4394C70.1985 65.0809 70.0025 67.2802 69.7453 68.7734Z" fill="#A97F6E"/>
<path d="M63.5983 67.5706C63.7948 67.5706 63.9542 67.4113 63.9542 67.2148C63.9542 67.0183 63.7948 66.859 63.5983 66.859C63.4017 66.859 63.2423 67.0183 63.2423 67.2148C63.2423 67.4113 63.4017 67.5706 63.5983 67.5706Z" fill="#0F1011"/>
<path d="M60.7898 67.3428C60.9864 67.3428 61.1457 67.1835 61.1457 66.987C61.1457 66.7905 60.9864 66.6312 60.7898 66.6312C60.5932 66.6312 60.4338 66.7905 60.4338 66.987C60.4338 67.1835 60.5932 67.3428 60.7898 67.3428Z" fill="#0F1011"/>
<path d="M60.1722 66.2294C60.1278 66.2297 60.0851 66.2124 60.0536 66.1812C60.022 66.1501 60.0041 66.1077 60.0038 66.0633C60.0035 66.019 60.0208 65.9763 60.052 65.9447C60.0832 65.9132 60.1256 65.8953 60.17 65.895L61.1128 65.8824H61.1152C61.1585 65.8838 61.1995 65.9018 61.2298 65.9328C61.26 65.9638 61.277 66.0052 61.2773 66.0485C61.2776 66.0917 61.2611 66.1334 61.2313 66.1648C61.2015 66.1961 61.1607 66.2147 61.1174 66.2167L60.1746 66.2294H60.1722Z" fill="#0F1011"/>
<path d="M64.3656 66.5693C64.3524 66.5693 64.3393 66.5677 64.3265 66.5646L63.3968 66.3419C63.3749 66.3373 63.3541 66.3284 63.3357 66.3157C63.3173 66.3029 63.3017 66.2866 63.2897 66.2677C63.2777 66.2488 63.2696 66.2277 63.2659 66.2057C63.2623 66.1836 63.2631 66.161 63.2683 66.1393C63.2735 66.1175 63.283 66.097 63.2963 66.079C63.3096 66.061 63.3263 66.0458 63.3456 66.0344C63.3648 66.023 63.3861 66.0156 63.4083 66.0125C63.4305 66.0095 63.453 66.0109 63.4746 66.0168L64.4044 66.2395C64.4442 66.2491 64.4791 66.2729 64.5024 66.3065C64.5258 66.34 64.5361 66.381 64.5313 66.4216C64.5265 66.4622 64.507 66.4997 64.4765 66.5269C64.446 66.5541 64.4065 66.5692 64.3656 66.5693Z" fill="#0F1011"/>
<path d="M63.4361 70.0167C63.4361 70.0167 62.1221 70.1564 61.2007 69.8354C61.2007 69.8354 61.2088 70.7005 62.2486 70.7848C63.2884 70.869 63.4361 70.0167 63.4361 70.0167Z" fill="white"/>
<path d="M66.8509 64.7126C66.5932 68.3896 66.9981 72.083 68.0464 75.6169C68.0464 75.6169 71.0416 70.454 71.5046 66.1555C71.9389 62.1259 68.9666 59.7497 66.9602 59.3027C59.3323 57.6049 58.7836 63.1747 58.7836 63.1747C60.1729 66.0632 67.676 66.0507 67.676 66.0507" fill="#0F1011"/>
<path d="M65.3968 68.7466C65.3784 68.9453 65.3996 69.1457 65.4592 69.3361C65.5188 69.5266 65.6156 69.7033 65.744 69.8561C65.8724 70.0089 66.0299 70.1347 66.2073 70.2262C66.3847 70.3177 66.5784 70.3731 66.7774 70.3893C66.9764 70.4054 67.1766 70.3819 67.3664 70.3202C67.5562 70.2584 67.7319 70.1596 67.8832 70.0295C68.0346 69.8994 68.1586 69.7406 68.2481 69.5622C68.3376 69.3839 68.3909 69.1895 68.4047 68.9905C68.4242 68.7924 68.4036 68.5924 68.3441 68.4025C68.2846 68.2125 68.1875 68.0365 68.0586 67.8848C67.9296 67.7331 67.7715 67.609 67.5935 67.5197C67.4156 67.4304 67.2214 67.3778 67.0227 67.3651C65.9473 67.331 65.4649 67.9164 65.3968 68.7466Z" fill="#A97F6E"/>
<g opacity="0.15">
<path opacity="0.15" d="M62.0196 69.1896C62.0491 69.1896 62.0775 69.1791 62.0998 69.1599C62.1221 69.1407 62.1368 69.1142 62.1412 69.0851C62.1456 69.056 62.1393 69.0263 62.1237 69.0014C62.108 68.9765 62.0839 68.9581 62.0558 68.9495L61.3316 68.7285L61.8369 67.6008C61.8437 67.5861 61.8476 67.5702 61.8482 67.5539C61.8489 67.5377 61.8463 67.5215 61.8406 67.5062C61.8349 67.491 61.8263 67.4771 61.8152 67.4652C61.804 67.4533 61.7907 67.4438 61.7759 67.4371C61.761 67.4305 61.745 67.4268 61.7288 67.4264C61.7125 67.4259 61.6963 67.4287 61.6812 67.4346C61.666 67.4405 61.6522 67.4493 61.6404 67.4605C61.6287 67.4718 61.6193 67.4853 61.6129 67.5002L61.0503 68.755C61.0432 68.7709 61.0396 68.7881 61.0397 68.8055C61.0397 68.8229 61.0435 68.8401 61.0507 68.8559C61.058 68.8718 61.0685 68.8859 61.0816 68.8974C61.0947 68.9088 61.1101 68.9174 61.1267 68.9225L61.9838 69.1847C61.9954 69.1881 62.0075 69.1898 62.0196 69.1896Z" fill="black"/>
</g>
<path d="M220 220H0C2.41052 203.15 6.86235 188.856 13.1379 184.615C22.3181 178.42 32.0331 195.455 41.1928 189.049C46.3968 185.413 50.4936 174.821 54.7986 166.022C71.0406 132.834 93.2961 123.024 112.515 140.592C122.56 149.77 131.714 165.821 142.005 172.641C155.312 181.468 169.228 174.148 182.912 172.941C196.239 171.771 215.335 186.656 220 220Z" fill="#F3F5FD"/>
<path d="M190.113 132.192C188.541 136.953 183.115 141.184 184.736 144.686C185.353 146.017 185.972 147.409 186.257 148.831C186.441 149.679 186.472 150.553 186.347 151.412C185.763 155.12 182.292 157.583 179.064 159.501C178.865 159.619 178.664 159.739 178.462 159.859C175.404 161.691 172.201 163.8 171.218 167.182C170.673 169.06 170.913 171.069 170.687 173.011C170.473 174.796 169.867 176.512 168.911 178.035H148.299C146.469 176.019 146.621 172.631 148.014 170.254C149.505 167.71 152.023 165.981 154.295 164.1C156.258 162.474 158.172 160.517 158.921 158.13C159.04 157.753 159.128 157.366 159.184 156.974C159.366 155.682 159.267 149.084 161.508 145.023C164.971 138.751 170.589 140.296 172.306 136.757C172.965 135.402 173.532 118.745 184.476 121.822C185.543 122.107 186.54 122.607 187.408 123.29C188.276 123.974 188.995 124.826 189.523 125.796C190.05 126.767 190.375 127.834 190.476 128.934C190.578 130.033 190.454 131.142 190.113 132.192Z" fill="#C1D8ED"/>
<path d="M210.131 158.236C209.817 158.452 209.479 158.631 209.124 158.771C206.171 159.878 197.959 159.756 196.758 162.67C196.193 164.041 196.058 165.553 195.574 166.955C194.476 170.135 191.577 172.52 188.335 173.416C187.168 173.738 185.959 173.887 184.805 174.246C182.574 174.941 180.727 176.338 179.103 178.035H152.483C152.471 176.27 152.905 174.531 153.745 172.979C154.585 171.427 155.803 170.111 157.287 169.156C160.247 167.289 163.986 166.941 166.892 164.991C168.808 163.704 170.186 161.845 171.279 159.79C171.975 158.445 172.589 157.06 173.119 155.642C173.932 153.533 174.782 151.269 176.63 149.963C177.535 149.374 178.54 148.953 179.595 148.72C182.262 148.023 184.313 148.433 186.256 148.831C188.615 149.312 190.816 149.771 193.771 148.202C199.013 145.417 206.677 131.531 214.336 144.725C217.407 150.017 213.17 156.202 210.131 158.236Z" fill="#FF9C79"/>
<path d="M43.1829 132.192C44.7551 136.953 50.1814 141.184 48.5601 144.686C47.9436 146.017 47.3243 147.409 47.0396 148.831C46.8546 149.679 46.8238 150.553 46.9487 151.412C47.5333 155.12 51.0043 157.583 54.2321 159.501C54.4311 159.619 54.6323 159.739 54.834 159.859C57.8923 161.691 61.0955 163.8 62.0781 167.182C62.6234 169.06 62.3827 171.069 62.6087 173.011C62.8228 174.796 63.4293 176.512 64.3847 178.035H84.9969C86.827 176.019 86.6747 172.631 85.2819 170.254C83.7908 167.71 81.2729 165.981 79.0007 164.1C77.0377 162.474 75.1241 160.517 74.3752 158.13C74.2561 157.753 74.1682 157.366 74.1123 156.974C73.9305 155.682 74.0286 149.084 71.7885 145.023C68.3249 138.751 62.7069 140.296 60.9899 136.757C60.3315 135.402 59.7641 118.745 48.8205 121.822C47.7534 122.107 46.7556 122.607 45.8879 123.29C45.0202 123.974 44.3006 124.826 43.7732 125.796C43.2458 126.767 42.9214 127.834 42.8199 128.934C42.7185 130.033 42.842 131.142 43.1829 132.192Z" fill="#C1D8ED"/>
<path d="M23.1644 158.236C23.4787 158.452 23.8166 158.631 24.1716 158.771C27.1245 159.878 35.3365 159.756 36.5377 162.67C37.1027 164.041 37.2378 165.553 37.7217 166.955C38.8197 170.135 41.7184 172.52 44.9609 173.416C46.1277 173.738 47.3363 173.887 48.4906 174.246C50.7213 174.941 52.5684 176.338 54.1921 178.035H80.8136C80.8253 176.27 80.3911 174.531 79.5511 172.979C78.7112 171.427 77.4927 170.111 76.0087 169.156C73.0487 167.289 69.3097 166.941 66.4039 164.991C64.4879 163.704 63.11 161.845 62.0169 159.79C61.3214 158.445 60.707 157.06 60.177 155.642C59.3639 153.533 58.514 151.269 56.6667 149.963C55.7608 149.374 54.7564 148.953 53.7015 148.72C51.034 148.023 48.9826 148.433 47.0398 148.831C44.6816 149.312 42.4806 149.771 39.5252 148.202C34.2834 145.417 26.619 131.531 18.9599 144.725C15.8891 150.017 20.1265 156.202 23.1644 158.236Z" fill="#FF9C79"/>
<path d="M146.508 37.1666H86.2267C81.6105 37.1666 77.8683 40.9074 77.8683 45.5219V168.478C77.8683 173.093 81.6105 176.833 86.2267 176.833H146.508C151.124 176.833 154.867 173.093 154.867 168.478V45.5219C154.867 40.9074 151.124 37.1666 146.508 37.1666Z" fill="white"/>
<path d="M146.508 179H86.2269C83.4362 178.997 80.7608 177.887 78.7875 175.915C76.8142 173.942 75.7042 171.268 75.7009 168.478V45.5219C75.7042 42.7323 76.8143 40.0579 78.7876 38.0854C80.7609 36.1128 83.4363 35.0032 86.2269 35H146.509C149.299 35.0033 151.975 36.1129 153.948 38.0855C155.921 40.058 157.031 42.7324 157.034 45.5219V168.478C157.031 171.268 155.921 173.942 153.948 175.915C151.974 177.887 149.299 178.997 146.508 179ZM86.2269 39.3331C84.5858 39.3352 83.0124 39.9878 81.852 41.1479C80.6915 42.3079 80.0387 43.8807 80.0366 45.5212V168.477C80.0386 170.118 80.6914 171.691 81.8519 172.851C83.0124 174.011 84.5857 174.663 86.2269 174.665H146.509C148.15 174.663 149.723 174.011 150.884 172.851C152.044 171.691 152.697 170.118 152.699 168.477V45.5219C152.697 43.8814 152.044 42.3086 150.884 41.1486C149.723 39.9886 148.15 39.3359 146.509 39.3339L86.2269 39.3331Z" fill="#DEE8F5"/>
<path d="M103.168 37.1666H129.566V42.2865C129.566 42.7897 129.467 43.2881 129.275 43.7531C129.082 44.218 128.8 44.6405 128.444 44.9964C128.087 45.3523 127.665 45.6346 127.2 45.8272C126.735 46.0198 126.236 46.1189 125.733 46.1189H107.002C105.985 46.1189 105.01 45.7151 104.291 44.9964C103.572 44.2777 103.168 43.3029 103.168 42.2865V37.1666H103.168Z" fill="#DEE8F5"/>
<path d="M145.867 154.56H92.8196L86.8678 159.555V121.484H145.867V154.56Z" fill="#A0C1FF"/>
<path d="M170.704 110.238L163.979 105.143H101.438V63.9309H170.704V110.238Z" fill="#F2E6FF"/>
<path d="M50.0886 83.4241C50.0886 83.4241 47.5231 81.1147 47.3801 80.3333C47.2372 79.5519 49.2308 78.1559 49.2308 78.1559C49.2308 78.1559 48.7204 77.5735 48.2259 76.9156C47.6552 76.1563 47.1065 75.2966 47.3885 75.1157C47.6606 74.9411 48.3313 75.5869 48.9997 76.368C49.8594 77.3723 50.7128 78.6006 50.7128 78.6006C50.7128 78.6006 50.3809 77.2424 50.9025 77.1872C51.1169 77.1646 51.2709 77.3836 51.5456 78.3465C51.8573 79.4444 52.5132 81.1078 52.5132 81.1078L50.0886 83.4241Z" fill="#A97F6E"/>
<path d="M55.2231 96.228C54.6903 96.2281 54.1696 96.0692 53.7276 95.7717C53.2856 95.4743 52.9425 95.0517 52.742 94.5582L47.9274 82.7059L52.8894 80.6923L54.3471 84.2806L55.4913 78.5645L60.7435 79.6148L57.8485 94.0782C57.7356 94.6427 57.4437 95.1558 57.0159 95.5413C56.5882 95.9268 56.0475 96.1642 55.4741 96.2182C55.3913 96.2244 55.3068 96.228 55.2231 96.228Z" fill="#EA394A"/>
<path d="M46.5316 86.6191L49.5093 86.1442C49.6263 86.1255 49.7381 86.0824 49.8373 86.0175C49.9365 85.9527 50.0208 85.8677 50.0848 85.768C50.1489 85.6683 50.1911 85.5562 50.2088 85.4391C50.2265 85.322 50.2193 85.2024 50.1876 85.0883L48.3143 78.3656C48.2587 78.1665 48.1319 77.9947 47.9578 77.8831C47.7838 77.7715 47.5747 77.7278 47.3705 77.7603L44.3928 78.2355C44.2757 78.2542 44.164 78.2973 44.0648 78.3622C43.9656 78.427 43.8813 78.512 43.8173 78.6117C43.7532 78.7114 43.711 78.8234 43.6933 78.9406C43.6756 79.0577 43.6828 79.1772 43.7145 79.2914L45.5881 86.0131C45.6433 86.2123 45.7701 86.3843 45.9441 86.4961C46.1182 86.6079 46.3273 86.6517 46.5316 86.6191Z" fill="#C1D8ED"/>
<path d="M73.5115 147.054C69.0464 145.926 68.607 145.758 68.4625 145.703L70.3068 140.887C70.2923 140.881 70.2734 140.874 70.2503 140.867C70.6134 140.986 72.8815 141.576 74.7747 142.054L73.5115 147.054Z" fill="#A97F6E"/>
<path d="M73.3106 153.789C73.2659 153.92 73.1946 154.041 73.1011 154.143C73.0077 154.246 72.8941 154.328 72.7674 154.385C72.6407 154.441 72.5037 154.471 72.365 154.473C72.2263 154.474 72.0887 154.446 71.961 154.392C71.784 154.317 71.6322 154.193 71.5234 154.035C71.4145 153.876 71.3533 153.69 71.3469 153.498L71.3504 147.168C71.3508 147.045 71.3777 146.924 71.4293 146.813C71.4808 146.702 71.5558 146.603 71.6491 146.524C72.4547 145.924 73.0465 145.081 73.3374 144.12C73.5334 143.361 73.5123 142.562 73.2762 141.815C73.2506 141.747 73.2447 141.674 73.2592 141.604C73.2736 141.533 73.3079 141.468 73.358 141.416C73.408 141.364 73.4718 141.328 73.5418 141.311C73.6119 141.294 73.6853 141.297 73.7535 141.32L76.5369 142.254C76.619 142.281 76.6949 142.325 76.7601 142.381C76.8254 142.438 76.8787 142.508 76.9171 142.585C76.9555 142.663 76.9782 142.747 76.9839 142.834C76.9896 142.92 76.9782 143.007 76.9504 143.088L73.3106 153.789Z" fill="#C1D8ED"/>
<path d="M61.2888 175.89C61.2888 175.89 61.2716 170.55 61.2716 170.077H66.4302C66.4302 170.549 66.4474 175.873 66.4474 175.873L61.2888 175.89Z" fill="#A97F6E"/>
<path d="M74.8041 101.947C71.4943 98.6383 56.116 103.101 56.116 103.101L56.102 103.197L55.7864 103.02C51.8757 110.878 46.3373 122.64 42.5045 130.651C42.2118 131.202 42.0354 131.807 41.9864 132.429C41.9373 133.05 42.0166 133.676 42.2193 134.265C42.422 134.855 42.7438 135.397 43.1647 135.858C43.5856 136.318 44.0967 136.687 44.6662 136.942L61.407 144.387C60.5472 153.826 59.5605 163.258 58.7385 172.682L67.7575 173.807C69.3964 162.564 71.0818 151.334 72.5869 140.077L72.8325 139.524L72.6709 139.453C73.5938 132.517 74.4462 125.571 75.1748 118.605C75.3153 117.188 75.4384 115.648 75.4993 114.15C75.4988 114.15 76.5848 103.727 74.8041 101.947ZM53.0486 130.726C56.2759 125.349 60.0727 119.011 63.3599 113.632C63.1914 120.695 62.7726 127.753 62.2223 134.807L53.0486 130.726Z" fill="#262626"/>
<path d="M51.3272 84.8575L49.5708 87.2394C49.5708 87.2394 44.8507 86.2935 44.4078 82.6585C44.3567 82.241 44.4012 81.082 44.9195 81.2374C46.2705 81.6421 47.952 83.7144 49.1308 83.9902C48.8618 83.5084 48.5337 82.8284 48.7454 82.7042C49.3013 82.3771 50.7998 84.3506 51.3272 84.8575Z" fill="#A97F6E"/>
<path d="M75.0672 77.3768C73.9444 76.2546 72.0062 75.5302 69.6433 75.5277C69.4662 76.905 61.0995 76.91 61.0359 75.5594C60.7165 75.5643 60.4684 75.5695 60.3137 75.5768C54.6348 75.8224 54.6515 80.3969 55.2101 85.4532L50.5377 83.3932L48.376 88.2918L55.8124 91.5705C55.8174 91.7179 55.8213 91.8652 55.8228 92.0126C55.9188 99.9836 53.7645 101.486 54.8257 103.922C55.8547 106.287 76.0788 107.269 76.3493 103.11C76.5212 100.462 74.1876 98.1515 74.1876 92.9926C74.1876 87.8336 78.9362 81.2443 75.0672 77.3768Z" fill="#EA394A"/>
<path d="M55.0229 177.989C54.8841 177.988 54.747 177.959 54.6201 177.903C54.4931 177.847 54.3791 177.765 54.2851 177.663C54.1911 177.561 54.1192 177.441 54.0738 177.31C54.0284 177.179 54.0106 177.04 54.0214 176.902C54.0363 176.71 54.1057 176.527 54.2214 176.373C54.3372 176.22 54.4944 176.102 54.6745 176.035L60.6786 174.025C60.795 173.986 60.9183 173.973 61.0401 173.987C61.1619 174 61.2794 174.04 61.3844 174.103C62.2099 174.676 63.1973 174.968 64.2015 174.938C64.9836 174.883 65.7343 174.608 66.3681 174.147C66.4238 174.101 66.4913 174.072 66.5628 174.064C66.6343 174.055 66.7068 174.067 66.7718 174.098C66.8369 174.128 66.8918 174.177 66.9302 174.238C66.9686 174.299 66.989 174.369 66.9888 174.441V177.377C66.9888 177.464 66.9717 177.55 66.9385 177.63C66.9053 177.71 66.8566 177.782 66.7952 177.843C66.7338 177.904 66.661 177.953 66.5808 177.986C66.5007 178.019 66.4149 178.035 66.3283 178.035L55.0229 177.989Z" fill="#C1D8ED"/>
<path d="M61.0359 75.5596C61.0995 76.9102 61.8342 78.8968 64.1016 79.0466C67.123 79.2455 69.4662 76.9053 69.6433 75.5277H69.6357C66.6612 75.5277 62.7702 75.5326 61.0359 75.5596Z" fill="#A97F6E"/>
<path d="M136.071 100.709C145.175 100.709 152.555 93.3317 152.555 84.2313C152.555 75.1309 145.175 67.7535 136.071 67.7535C126.967 67.7535 119.587 75.1309 119.587 84.2313C119.587 93.3317 126.967 100.709 136.071 100.709Z" fill="#F3F5FD"/>
<path d="M142.451 81.3123H141.542V79.2833C141.532 77.8392 140.951 76.4576 139.927 75.4399C138.902 74.4222 137.516 73.8511 136.071 73.8511C134.626 73.8511 133.24 74.4222 132.216 75.4399C131.191 76.4576 130.61 77.8392 130.6 79.2833V81.3123H129.691C129.276 81.3123 128.878 81.4772 128.584 81.7707C128.291 82.0643 128.126 82.4624 128.126 82.8775V93.0807C128.126 93.4958 128.291 93.8939 128.584 94.1875C128.878 94.481 129.276 94.6459 129.691 94.6459H142.451C142.866 94.6459 143.264 94.481 143.558 94.1875C143.851 93.8939 144.016 93.4958 144.016 93.0807V82.8785C144.016 82.6729 143.976 82.4692 143.897 82.2792C143.819 82.0892 143.704 81.9165 143.558 81.7711C143.413 81.6257 143.24 81.5103 143.05 81.4315C142.86 81.3528 142.656 81.3123 142.451 81.3123ZM132.379 79.2833C132.387 78.3096 132.78 77.3785 133.471 76.6928C134.163 76.0071 135.097 75.6224 136.071 75.6224C137.045 75.6224 137.98 76.0071 138.671 76.6928C139.363 77.3785 139.756 78.3096 139.763 79.2833V81.3123H132.379V79.2833Z" fill="#FF4545"/>
<path d="M136.071 90.3501C137.322 90.3501 138.337 89.336 138.337 88.085C138.337 86.8341 137.322 85.82 136.071 85.82C134.82 85.82 133.805 86.8341 133.805 88.085C133.805 89.336 134.82 90.3501 136.071 90.3501Z" fill="white"/>
<path d="M115.895 150.262C122.65 150.262 128.126 144.788 128.126 138.035C128.126 131.283 122.65 125.809 115.895 125.809C109.14 125.809 103.664 131.283 103.664 138.035C103.664 144.788 109.14 150.262 115.895 150.262Z" fill="#DEE8F5"/>
<path d="M120.629 135.87H119.954V134.364C119.954 133.288 119.527 132.256 118.766 131.495C118.004 130.734 116.972 130.307 115.895 130.307C114.819 130.307 113.786 130.734 113.025 131.495C112.264 132.256 111.836 133.288 111.836 134.364V135.87H111.162C110.854 135.87 110.558 135.992 110.34 136.21C110.122 136.428 110 136.723 110 137.031V144.602C110 144.755 110.03 144.906 110.088 145.047C110.147 145.188 110.232 145.316 110.34 145.423C110.448 145.531 110.576 145.617 110.717 145.675C110.858 145.733 111.009 145.763 111.162 145.763H120.629C120.937 145.763 121.232 145.641 121.45 145.423C121.668 145.206 121.79 144.91 121.79 144.602V137.031C121.79 136.723 121.668 136.428 121.45 136.21C121.232 135.992 120.937 135.87 120.629 135.87ZM113.155 134.364C113.155 133.638 113.444 132.941 113.958 132.428C114.472 131.914 115.169 131.626 115.895 131.626C116.622 131.626 117.319 131.914 117.832 132.428C118.346 132.941 118.635 133.638 118.635 134.364V135.87H113.155V134.364Z" fill="#FF4545"/>
<path d="M115.895 142.575C116.824 142.575 117.576 141.823 117.576 140.895C117.576 139.967 116.824 139.214 115.895 139.214C114.967 139.214 114.214 139.967 114.214 140.895C114.214 141.823 114.967 142.575 115.895 142.575Z" fill="white"/>
</svg>
